G04 #@! TF.GenerationSoftware,KiCad,Pcbnew,9.0.0*
G04 #@! TF.CreationDate,2025-03-27T12:35:44-07:00*
G04 #@! TF.ProjectId,SNES2VGA_Sub_board,534e4553-3256-4474-915f-5375625f626f,1*
G04 #@! TF.SameCoordinates,Original*
G04 #@! TF.FileFunction,Legend,Bot*
G04 #@! TF.FilePolarity,Positive*
%FSLAX46Y46*%
G04 Gerber Fmt 4.6, Leading zero omitted, Abs format (unit mm)*
G04 Created by KiCad (PCBNEW 9.0.0) date 2025-03-27 12:35:44*
%MOMM*%
%LPD*%
G01*
G04 APERTURE LIST*
G04 Aperture macros list*
%AMRoundRect*
0 Rectangle with rounded corners*
0 $1 Rounding radius*
0 $2 $3 $4 $5 $6 $7 $8 $9 X,Y pos of 4 corners*
0 Add a 4 corners polygon primitive as box body*
4,1,4,$2,$3,$4,$5,$6,$7,$8,$9,$2,$3,0*
0 Add four circle primitives for the rounded corners*
1,1,$1+$1,$2,$3*
1,1,$1+$1,$4,$5*
1,1,$1+$1,$6,$7*
1,1,$1+$1,$8,$9*
0 Add four rect primitives between the rounded corners*
20,1,$1+$1,$2,$3,$4,$5,0*
20,1,$1+$1,$4,$5,$6,$7,0*
20,1,$1+$1,$6,$7,$8,$9,0*
20,1,$1+$1,$8,$9,$2,$3,0*%
G04 Aperture macros list end*
%ADD10C,0.150000*%
%ADD11C,0.125000*%
%ADD12RoundRect,0.375000X-0.375000X-0.625000X0.375000X-0.625000X0.375000X0.625000X-0.375000X0.625000X0*%
%ADD13C,0.400000*%
G04 APERTURE END LIST*
D10*
X139007008Y-115050375D02*
X139007008Y-115621803D01*
X139007008Y-115621803D02*
X139045103Y-115736089D01*
X139045103Y-115736089D02*
X139121294Y-115812280D01*
X139121294Y-115812280D02*
X139235579Y-115850375D01*
X139235579Y-115850375D02*
X139311770Y-115850375D01*
X138245103Y-115850375D02*
X138626055Y-115850375D01*
X138626055Y-115850375D02*
X138626055Y-115050375D01*
X137521293Y-115774184D02*
X137559389Y-115812280D01*
X137559389Y-115812280D02*
X137673674Y-115850375D01*
X137673674Y-115850375D02*
X137749865Y-115850375D01*
X137749865Y-115850375D02*
X137864151Y-115812280D01*
X137864151Y-115812280D02*
X137940341Y-115736089D01*
X137940341Y-115736089D02*
X137978436Y-115659899D01*
X137978436Y-115659899D02*
X138016532Y-115507518D01*
X138016532Y-115507518D02*
X138016532Y-115393232D01*
X138016532Y-115393232D02*
X137978436Y-115240851D01*
X137978436Y-115240851D02*
X137940341Y-115164660D01*
X137940341Y-115164660D02*
X137864151Y-115088470D01*
X137864151Y-115088470D02*
X137749865Y-115050375D01*
X137749865Y-115050375D02*
X137673674Y-115050375D01*
X137673674Y-115050375D02*
X137559389Y-115088470D01*
X137559389Y-115088470D02*
X137521293Y-115126565D01*
X136949865Y-115050375D02*
X136949865Y-115621803D01*
X136949865Y-115621803D02*
X136987960Y-115736089D01*
X136987960Y-115736089D02*
X137064151Y-115812280D01*
X137064151Y-115812280D02*
X137178436Y-115850375D01*
X137178436Y-115850375D02*
X137254627Y-115850375D01*
X136187960Y-115850375D02*
X136568912Y-115850375D01*
X136568912Y-115850375D02*
X136568912Y-115050375D01*
X135464150Y-115774184D02*
X135502246Y-115812280D01*
X135502246Y-115812280D02*
X135616531Y-115850375D01*
X135616531Y-115850375D02*
X135692722Y-115850375D01*
X135692722Y-115850375D02*
X135807008Y-115812280D01*
X135807008Y-115812280D02*
X135883198Y-115736089D01*
X135883198Y-115736089D02*
X135921293Y-115659899D01*
X135921293Y-115659899D02*
X135959389Y-115507518D01*
X135959389Y-115507518D02*
X135959389Y-115393232D01*
X135959389Y-115393232D02*
X135921293Y-115240851D01*
X135921293Y-115240851D02*
X135883198Y-115164660D01*
X135883198Y-115164660D02*
X135807008Y-115088470D01*
X135807008Y-115088470D02*
X135692722Y-115050375D01*
X135692722Y-115050375D02*
X135616531Y-115050375D01*
X135616531Y-115050375D02*
X135502246Y-115088470D01*
X135502246Y-115088470D02*
X135464150Y-115126565D01*
X134892722Y-115050375D02*
X134892722Y-115621803D01*
X134892722Y-115621803D02*
X134930817Y-115736089D01*
X134930817Y-115736089D02*
X135007008Y-115812280D01*
X135007008Y-115812280D02*
X135121293Y-115850375D01*
X135121293Y-115850375D02*
X135197484Y-115850375D01*
X134130817Y-115850375D02*
X134511769Y-115850375D01*
X134511769Y-115850375D02*
X134511769Y-115050375D01*
X133407007Y-115774184D02*
X133445103Y-115812280D01*
X133445103Y-115812280D02*
X133559388Y-115850375D01*
X133559388Y-115850375D02*
X133635579Y-115850375D01*
X133635579Y-115850375D02*
X133749865Y-115812280D01*
X133749865Y-115812280D02*
X133826055Y-115736089D01*
X133826055Y-115736089D02*
X133864150Y-115659899D01*
X133864150Y-115659899D02*
X133902246Y-115507518D01*
X133902246Y-115507518D02*
X133902246Y-115393232D01*
X133902246Y-115393232D02*
X133864150Y-115240851D01*
X133864150Y-115240851D02*
X133826055Y-115164660D01*
X133826055Y-115164660D02*
X133749865Y-115088470D01*
X133749865Y-115088470D02*
X133635579Y-115050375D01*
X133635579Y-115050375D02*
X133559388Y-115050375D01*
X133559388Y-115050375D02*
X133445103Y-115088470D01*
X133445103Y-115088470D02*
X133407007Y-115126565D01*
X132835579Y-115050375D02*
X132835579Y-115621803D01*
X132835579Y-115621803D02*
X132873674Y-115736089D01*
X132873674Y-115736089D02*
X132949865Y-115812280D01*
X132949865Y-115812280D02*
X133064150Y-115850375D01*
X133064150Y-115850375D02*
X133140341Y-115850375D01*
X132073674Y-115850375D02*
X132454626Y-115850375D01*
X132454626Y-115850375D02*
X132454626Y-115050375D01*
X131349864Y-115774184D02*
X131387960Y-115812280D01*
X131387960Y-115812280D02*
X131502245Y-115850375D01*
X131502245Y-115850375D02*
X131578436Y-115850375D01*
X131578436Y-115850375D02*
X131692722Y-115812280D01*
X131692722Y-115812280D02*
X131768912Y-115736089D01*
X131768912Y-115736089D02*
X131807007Y-115659899D01*
X131807007Y-115659899D02*
X131845103Y-115507518D01*
X131845103Y-115507518D02*
X131845103Y-115393232D01*
X131845103Y-115393232D02*
X131807007Y-115240851D01*
X131807007Y-115240851D02*
X131768912Y-115164660D01*
X131768912Y-115164660D02*
X131692722Y-115088470D01*
X131692722Y-115088470D02*
X131578436Y-115050375D01*
X131578436Y-115050375D02*
X131502245Y-115050375D01*
X131502245Y-115050375D02*
X131387960Y-115088470D01*
X131387960Y-115088470D02*
X131349864Y-115126565D01*
D11*
X141312053Y-113379901D02*
X141204911Y-113415615D01*
X141204911Y-113415615D02*
X141026339Y-113415615D01*
X141026339Y-113415615D02*
X140954911Y-113379901D01*
X140954911Y-113379901D02*
X140919196Y-113344186D01*
X140919196Y-113344186D02*
X140883482Y-113272758D01*
X140883482Y-113272758D02*
X140883482Y-113201329D01*
X140883482Y-113201329D02*
X140919196Y-113129901D01*
X140919196Y-113129901D02*
X140954911Y-113094186D01*
X140954911Y-113094186D02*
X141026339Y-113058472D01*
X141026339Y-113058472D02*
X141169196Y-113022758D01*
X141169196Y-113022758D02*
X141240625Y-112987043D01*
X141240625Y-112987043D02*
X141276339Y-112951329D01*
X141276339Y-112951329D02*
X141312053Y-112879901D01*
X141312053Y-112879901D02*
X141312053Y-112808472D01*
X141312053Y-112808472D02*
X141276339Y-112737043D01*
X141276339Y-112737043D02*
X141240625Y-112701329D01*
X141240625Y-112701329D02*
X141169196Y-112665615D01*
X141169196Y-112665615D02*
X140990625Y-112665615D01*
X140990625Y-112665615D02*
X140883482Y-112701329D01*
X140562053Y-113415615D02*
X140562053Y-112665615D01*
X140562053Y-112665615D02*
X140133482Y-113415615D01*
X140133482Y-113415615D02*
X140133482Y-112665615D01*
X139776339Y-113022758D02*
X139526339Y-113022758D01*
X139419196Y-113415615D02*
X139776339Y-113415615D01*
X139776339Y-113415615D02*
X139776339Y-112665615D01*
X139776339Y-112665615D02*
X139419196Y-112665615D01*
X139133482Y-113379901D02*
X139026340Y-113415615D01*
X139026340Y-113415615D02*
X138847768Y-113415615D01*
X138847768Y-113415615D02*
X138776340Y-113379901D01*
X138776340Y-113379901D02*
X138740625Y-113344186D01*
X138740625Y-113344186D02*
X138704911Y-113272758D01*
X138704911Y-113272758D02*
X138704911Y-113201329D01*
X138704911Y-113201329D02*
X138740625Y-113129901D01*
X138740625Y-113129901D02*
X138776340Y-113094186D01*
X138776340Y-113094186D02*
X138847768Y-113058472D01*
X138847768Y-113058472D02*
X138990625Y-113022758D01*
X138990625Y-113022758D02*
X139062054Y-112987043D01*
X139062054Y-112987043D02*
X139097768Y-112951329D01*
X139097768Y-112951329D02*
X139133482Y-112879901D01*
X139133482Y-112879901D02*
X139133482Y-112808472D01*
X139133482Y-112808472D02*
X139097768Y-112737043D01*
X139097768Y-112737043D02*
X139062054Y-112701329D01*
X139062054Y-112701329D02*
X138990625Y-112665615D01*
X138990625Y-112665615D02*
X138812054Y-112665615D01*
X138812054Y-112665615D02*
X138704911Y-112701329D01*
X138419196Y-112737043D02*
X138383482Y-112701329D01*
X138383482Y-112701329D02*
X138312054Y-112665615D01*
X138312054Y-112665615D02*
X138133482Y-112665615D01*
X138133482Y-112665615D02*
X138062054Y-112701329D01*
X138062054Y-112701329D02*
X138026339Y-112737043D01*
X138026339Y-112737043D02*
X137990625Y-112808472D01*
X137990625Y-112808472D02*
X137990625Y-112879901D01*
X137990625Y-112879901D02*
X138026339Y-112987043D01*
X138026339Y-112987043D02*
X138454911Y-113415615D01*
X138454911Y-113415615D02*
X137990625Y-113415615D01*
X137776339Y-112665615D02*
X137526339Y-113415615D01*
X137526339Y-113415615D02*
X137276339Y-112665615D01*
X136633482Y-112701329D02*
X136704911Y-112665615D01*
X136704911Y-112665615D02*
X136812053Y-112665615D01*
X136812053Y-112665615D02*
X136919196Y-112701329D01*
X136919196Y-112701329D02*
X136990625Y-112772758D01*
X136990625Y-112772758D02*
X137026339Y-112844186D01*
X137026339Y-112844186D02*
X137062053Y-112987043D01*
X137062053Y-112987043D02*
X137062053Y-113094186D01*
X137062053Y-113094186D02*
X137026339Y-113237043D01*
X137026339Y-113237043D02*
X136990625Y-113308472D01*
X136990625Y-113308472D02*
X136919196Y-113379901D01*
X136919196Y-113379901D02*
X136812053Y-113415615D01*
X136812053Y-113415615D02*
X136740625Y-113415615D01*
X136740625Y-113415615D02*
X136633482Y-113379901D01*
X136633482Y-113379901D02*
X136597768Y-113344186D01*
X136597768Y-113344186D02*
X136597768Y-113094186D01*
X136597768Y-113094186D02*
X136740625Y-113094186D01*
X136312053Y-113201329D02*
X135954911Y-113201329D01*
X136383482Y-113415615D02*
X136133482Y-112665615D01*
X136133482Y-112665615D02*
X135883482Y-113415615D01*
X135097767Y-113379901D02*
X134990625Y-113415615D01*
X134990625Y-113415615D02*
X134812053Y-113415615D01*
X134812053Y-113415615D02*
X134740625Y-113379901D01*
X134740625Y-113379901D02*
X134704910Y-113344186D01*
X134704910Y-113344186D02*
X134669196Y-113272758D01*
X134669196Y-113272758D02*
X134669196Y-113201329D01*
X134669196Y-113201329D02*
X134704910Y-113129901D01*
X134704910Y-113129901D02*
X134740625Y-113094186D01*
X134740625Y-113094186D02*
X134812053Y-113058472D01*
X134812053Y-113058472D02*
X134954910Y-113022758D01*
X134954910Y-113022758D02*
X135026339Y-112987043D01*
X135026339Y-112987043D02*
X135062053Y-112951329D01*
X135062053Y-112951329D02*
X135097767Y-112879901D01*
X135097767Y-112879901D02*
X135097767Y-112808472D01*
X135097767Y-112808472D02*
X135062053Y-112737043D01*
X135062053Y-112737043D02*
X135026339Y-112701329D01*
X135026339Y-112701329D02*
X134954910Y-112665615D01*
X134954910Y-112665615D02*
X134776339Y-112665615D01*
X134776339Y-112665615D02*
X134669196Y-112701329D01*
X134026339Y-112915615D02*
X134026339Y-113415615D01*
X134347767Y-112915615D02*
X134347767Y-113308472D01*
X134347767Y-113308472D02*
X134312053Y-113379901D01*
X134312053Y-113379901D02*
X134240624Y-113415615D01*
X134240624Y-113415615D02*
X134133481Y-113415615D01*
X134133481Y-113415615D02*
X134062053Y-113379901D01*
X134062053Y-113379901D02*
X134026339Y-113344186D01*
X133669196Y-113415615D02*
X133669196Y-112665615D01*
X133669196Y-112951329D02*
X133597768Y-112915615D01*
X133597768Y-112915615D02*
X133454910Y-112915615D01*
X133454910Y-112915615D02*
X133383482Y-112951329D01*
X133383482Y-112951329D02*
X133347768Y-112987043D01*
X133347768Y-112987043D02*
X133312053Y-113058472D01*
X133312053Y-113058472D02*
X133312053Y-113272758D01*
X133312053Y-113272758D02*
X133347768Y-113344186D01*
X133347768Y-113344186D02*
X133383482Y-113379901D01*
X133383482Y-113379901D02*
X133454910Y-113415615D01*
X133454910Y-113415615D02*
X133597768Y-113415615D01*
X133597768Y-113415615D02*
X133669196Y-113379901D01*
X132169196Y-113022758D02*
X132062053Y-113058472D01*
X132062053Y-113058472D02*
X132026339Y-113094186D01*
X132026339Y-113094186D02*
X131990625Y-113165615D01*
X131990625Y-113165615D02*
X131990625Y-113272758D01*
X131990625Y-113272758D02*
X132026339Y-113344186D01*
X132026339Y-113344186D02*
X132062053Y-113379901D01*
X132062053Y-113379901D02*
X132133482Y-113415615D01*
X132133482Y-113415615D02*
X132419196Y-113415615D01*
X132419196Y-113415615D02*
X132419196Y-112665615D01*
X132419196Y-112665615D02*
X132169196Y-112665615D01*
X132169196Y-112665615D02*
X132097768Y-112701329D01*
X132097768Y-112701329D02*
X132062053Y-112737043D01*
X132062053Y-112737043D02*
X132026339Y-112808472D01*
X132026339Y-112808472D02*
X132026339Y-112879901D01*
X132026339Y-112879901D02*
X132062053Y-112951329D01*
X132062053Y-112951329D02*
X132097768Y-112987043D01*
X132097768Y-112987043D02*
X132169196Y-113022758D01*
X132169196Y-113022758D02*
X132419196Y-113022758D01*
X131562053Y-113415615D02*
X131633482Y-113379901D01*
X131633482Y-113379901D02*
X131669196Y-113344186D01*
X131669196Y-113344186D02*
X131704910Y-113272758D01*
X131704910Y-113272758D02*
X131704910Y-113058472D01*
X131704910Y-113058472D02*
X131669196Y-112987043D01*
X131669196Y-112987043D02*
X131633482Y-112951329D01*
X131633482Y-112951329D02*
X131562053Y-112915615D01*
X131562053Y-112915615D02*
X131454910Y-112915615D01*
X131454910Y-112915615D02*
X131383482Y-112951329D01*
X131383482Y-112951329D02*
X131347768Y-112987043D01*
X131347768Y-112987043D02*
X131312053Y-113058472D01*
X131312053Y-113058472D02*
X131312053Y-113272758D01*
X131312053Y-113272758D02*
X131347768Y-113344186D01*
X131347768Y-113344186D02*
X131383482Y-113379901D01*
X131383482Y-113379901D02*
X131454910Y-113415615D01*
X131454910Y-113415615D02*
X131562053Y-113415615D01*
X130669197Y-113415615D02*
X130669197Y-113022758D01*
X130669197Y-113022758D02*
X130704911Y-112951329D01*
X130704911Y-112951329D02*
X130776339Y-112915615D01*
X130776339Y-112915615D02*
X130919197Y-112915615D01*
X130919197Y-112915615D02*
X130990625Y-112951329D01*
X130669197Y-113379901D02*
X130740625Y-113415615D01*
X130740625Y-113415615D02*
X130919197Y-113415615D01*
X130919197Y-113415615D02*
X130990625Y-113379901D01*
X130990625Y-113379901D02*
X131026339Y-113308472D01*
X131026339Y-113308472D02*
X131026339Y-113237043D01*
X131026339Y-113237043D02*
X130990625Y-113165615D01*
X130990625Y-113165615D02*
X130919197Y-113129901D01*
X130919197Y-113129901D02*
X130740625Y-113129901D01*
X130740625Y-113129901D02*
X130669197Y-113094186D01*
X130312054Y-113415615D02*
X130312054Y-112915615D01*
X130312054Y-113058472D02*
X130276340Y-112987043D01*
X130276340Y-112987043D02*
X130240626Y-112951329D01*
X130240626Y-112951329D02*
X130169197Y-112915615D01*
X130169197Y-112915615D02*
X130097768Y-112915615D01*
X129526340Y-113415615D02*
X129526340Y-112665615D01*
X129526340Y-113379901D02*
X129597768Y-113415615D01*
X129597768Y-113415615D02*
X129740625Y-113415615D01*
X129740625Y-113415615D02*
X129812054Y-113379901D01*
X129812054Y-113379901D02*
X129847768Y-113344186D01*
X129847768Y-113344186D02*
X129883482Y-113272758D01*
X129883482Y-113272758D02*
X129883482Y-113058472D01*
X129883482Y-113058472D02*
X129847768Y-112987043D01*
X129847768Y-112987043D02*
X129812054Y-112951329D01*
X129812054Y-112951329D02*
X129740625Y-112915615D01*
X129740625Y-112915615D02*
X129597768Y-112915615D01*
X129597768Y-112915615D02*
X129526340Y-112951329D01*
X136954910Y-114230216D02*
X136847767Y-114265930D01*
X136847767Y-114265930D02*
X136812053Y-114301644D01*
X136812053Y-114301644D02*
X136776339Y-114373073D01*
X136776339Y-114373073D02*
X136776339Y-114480216D01*
X136776339Y-114480216D02*
X136812053Y-114551644D01*
X136812053Y-114551644D02*
X136847767Y-114587359D01*
X136847767Y-114587359D02*
X136919196Y-114623073D01*
X136919196Y-114623073D02*
X137204910Y-114623073D01*
X137204910Y-114623073D02*
X137204910Y-113873073D01*
X137204910Y-113873073D02*
X136954910Y-113873073D01*
X136954910Y-113873073D02*
X136883482Y-113908787D01*
X136883482Y-113908787D02*
X136847767Y-113944501D01*
X136847767Y-113944501D02*
X136812053Y-114015930D01*
X136812053Y-114015930D02*
X136812053Y-114087359D01*
X136812053Y-114087359D02*
X136847767Y-114158787D01*
X136847767Y-114158787D02*
X136883482Y-114194501D01*
X136883482Y-114194501D02*
X136954910Y-114230216D01*
X136954910Y-114230216D02*
X137204910Y-114230216D01*
X136347767Y-114623073D02*
X136419196Y-114587359D01*
X136419196Y-114587359D02*
X136454910Y-114551644D01*
X136454910Y-114551644D02*
X136490624Y-114480216D01*
X136490624Y-114480216D02*
X136490624Y-114265930D01*
X136490624Y-114265930D02*
X136454910Y-114194501D01*
X136454910Y-114194501D02*
X136419196Y-114158787D01*
X136419196Y-114158787D02*
X136347767Y-114123073D01*
X136347767Y-114123073D02*
X136240624Y-114123073D01*
X136240624Y-114123073D02*
X136169196Y-114158787D01*
X136169196Y-114158787D02*
X136133482Y-114194501D01*
X136133482Y-114194501D02*
X136097767Y-114265930D01*
X136097767Y-114265930D02*
X136097767Y-114480216D01*
X136097767Y-114480216D02*
X136133482Y-114551644D01*
X136133482Y-114551644D02*
X136169196Y-114587359D01*
X136169196Y-114587359D02*
X136240624Y-114623073D01*
X136240624Y-114623073D02*
X136347767Y-114623073D01*
X135883482Y-114123073D02*
X135597768Y-114123073D01*
X135776339Y-113873073D02*
X135776339Y-114515930D01*
X135776339Y-114515930D02*
X135740625Y-114587359D01*
X135740625Y-114587359D02*
X135669196Y-114623073D01*
X135669196Y-114623073D02*
X135597768Y-114623073D01*
X135454911Y-114123073D02*
X135169197Y-114123073D01*
X135347768Y-113873073D02*
X135347768Y-114515930D01*
X135347768Y-114515930D02*
X135312054Y-114587359D01*
X135312054Y-114587359D02*
X135240625Y-114623073D01*
X135240625Y-114623073D02*
X135169197Y-114623073D01*
X134812054Y-114623073D02*
X134883483Y-114587359D01*
X134883483Y-114587359D02*
X134919197Y-114551644D01*
X134919197Y-114551644D02*
X134954911Y-114480216D01*
X134954911Y-114480216D02*
X134954911Y-114265930D01*
X134954911Y-114265930D02*
X134919197Y-114194501D01*
X134919197Y-114194501D02*
X134883483Y-114158787D01*
X134883483Y-114158787D02*
X134812054Y-114123073D01*
X134812054Y-114123073D02*
X134704911Y-114123073D01*
X134704911Y-114123073D02*
X134633483Y-114158787D01*
X134633483Y-114158787D02*
X134597769Y-114194501D01*
X134597769Y-114194501D02*
X134562054Y-114265930D01*
X134562054Y-114265930D02*
X134562054Y-114480216D01*
X134562054Y-114480216D02*
X134597769Y-114551644D01*
X134597769Y-114551644D02*
X134633483Y-114587359D01*
X134633483Y-114587359D02*
X134704911Y-114623073D01*
X134704911Y-114623073D02*
X134812054Y-114623073D01*
X134240626Y-114623073D02*
X134240626Y-114123073D01*
X134240626Y-114194501D02*
X134204912Y-114158787D01*
X134204912Y-114158787D02*
X134133483Y-114123073D01*
X134133483Y-114123073D02*
X134026340Y-114123073D01*
X134026340Y-114123073D02*
X133954912Y-114158787D01*
X133954912Y-114158787D02*
X133919198Y-114230216D01*
X133919198Y-114230216D02*
X133919198Y-114623073D01*
X133919198Y-114230216D02*
X133883483Y-114158787D01*
X133883483Y-114158787D02*
X133812055Y-114123073D01*
X133812055Y-114123073D02*
X133704912Y-114123073D01*
X133704912Y-114123073D02*
X133633483Y-114158787D01*
X133633483Y-114158787D02*
X133597769Y-114230216D01*
X133597769Y-114230216D02*
X133597769Y-114623073D01*
%LPC*%
D12*
X129361340Y-118798880D03*
D13*
X129351340Y-118108880D03*
D12*
X131781340Y-118798880D03*
X134201340Y-118798880D03*
X136621340Y-118798880D03*
X139041340Y-118798880D03*
X141461340Y-118798880D03*
D13*
X131771340Y-118108880D03*
X134191340Y-118108880D03*
X136611340Y-118108880D03*
X139031340Y-118108880D03*
X141451340Y-118108880D03*
%LPD*%
M02*
