G04 #@! TF.GenerationSoftware,KiCad,Pcbnew,9.0.0*
G04 #@! TF.CreationDate,2025-03-27T12:35:43-07:00*
G04 #@! TF.ProjectId,SNES2VGA_Sub_board,534e4553-3256-4474-915f-5375625f626f,1*
G04 #@! TF.SameCoordinates,Original*
G04 #@! TF.FileFunction,Copper,L2,Bot*
G04 #@! TF.FilePolarity,Positive*
%FSLAX46Y46*%
G04 Gerber Fmt 4.6, Leading zero omitted, Abs format (unit mm)*
G04 Created by KiCad (PCBNEW 9.0.0) date 2025-03-27 12:35:43*
%MOMM*%
%LPD*%
G01*
G04 APERTURE LIST*
G04 Aperture macros list*
%AMRoundRect*
0 Rectangle with rounded corners*
0 $1 Rounding radius*
0 $2 $3 $4 $5 $6 $7 $8 $9 X,Y pos of 4 corners*
0 Add a 4 corners polygon primitive as box body*
4,1,4,$2,$3,$4,$5,$6,$7,$8,$9,$2,$3,0*
0 Add four circle primitives for the rounded corners*
1,1,$1+$1,$2,$3*
1,1,$1+$1,$4,$5*
1,1,$1+$1,$6,$7*
1,1,$1+$1,$8,$9*
0 Add four rect primitives between the rounded corners*
20,1,$1+$1,$2,$3,$4,$5,0*
20,1,$1+$1,$4,$5,$6,$7,0*
20,1,$1+$1,$6,$7,$8,$9,0*
20,1,$1+$1,$8,$9,$2,$3,0*%
G04 Aperture macros list end*
G04 #@! TA.AperFunction,ComponentPad*
%ADD10RoundRect,0.375000X-0.375000X-0.625000X0.375000X-0.625000X0.375000X0.625000X-0.375000X0.625000X0*%
G04 #@! TD*
G04 #@! TA.AperFunction,ComponentPad*
%ADD11C,0.400000*%
G04 #@! TD*
G04 #@! TA.AperFunction,ViaPad*
%ADD12C,0.508000*%
G04 #@! TD*
G04 APERTURE END LIST*
D10*
X129361340Y-118798880D03*
D11*
X129351340Y-118108880D03*
D10*
X131781340Y-118798880D03*
X134201340Y-118798880D03*
X136621340Y-118798880D03*
X139041340Y-118798880D03*
X141461340Y-118798880D03*
D11*
X131771340Y-118108880D03*
X134191340Y-118108880D03*
X136611340Y-118108880D03*
X139031340Y-118108880D03*
X141451340Y-118108880D03*
D12*
X130571340Y-116380020D03*
X128091340Y-116380020D03*
X132961340Y-116380020D03*
X135404860Y-116380020D03*
X140241340Y-116380020D03*
X142611340Y-116380020D03*
X137851340Y-116380020D03*
G04 #@! TA.AperFunction,Conductor*
G36*
X145282620Y-111847862D02*
G01*
X145309640Y-111894662D01*
X145310840Y-111908380D01*
X145310840Y-118929380D01*
X145292358Y-118980160D01*
X145245558Y-119007180D01*
X145231840Y-119008380D01*
X142450840Y-119008380D01*
X142400060Y-118989898D01*
X142373040Y-118943098D01*
X142371840Y-118929380D01*
X142371839Y-118131957D01*
X142371838Y-118131951D01*
X142361506Y-118045901D01*
X142307503Y-117908958D01*
X142307501Y-117908956D01*
X142307500Y-117908953D01*
X142268199Y-117857129D01*
X142218556Y-117791664D01*
X142168911Y-117754017D01*
X142101266Y-117702719D01*
X142101258Y-117702715D01*
X141964317Y-117648713D01*
X141964312Y-117648712D01*
X141878271Y-117638380D01*
X141044417Y-117638380D01*
X140958361Y-117648713D01*
X140821421Y-117702715D01*
X140821413Y-117702719D01*
X140704124Y-117791664D01*
X140615179Y-117908953D01*
X140615175Y-117908961D01*
X140561173Y-118045902D01*
X140561172Y-118045907D01*
X140550840Y-118131945D01*
X140550840Y-118131951D01*
X140550841Y-118929380D01*
X140532359Y-118980160D01*
X140485559Y-119007180D01*
X140471841Y-119008380D01*
X140030840Y-119008380D01*
X139980060Y-118989898D01*
X139953040Y-118943098D01*
X139951840Y-118929380D01*
X139951839Y-118131957D01*
X139951838Y-118131951D01*
X139941506Y-118045901D01*
X139887503Y-117908958D01*
X139887501Y-117908956D01*
X139887500Y-117908953D01*
X139848199Y-117857129D01*
X139798556Y-117791664D01*
X139748911Y-117754017D01*
X139681266Y-117702719D01*
X139681258Y-117702715D01*
X139544317Y-117648713D01*
X139544312Y-117648712D01*
X139458271Y-117638380D01*
X138624417Y-117638380D01*
X138538361Y-117648713D01*
X138401421Y-117702715D01*
X138401413Y-117702719D01*
X138284124Y-117791664D01*
X138195179Y-117908953D01*
X138195175Y-117908961D01*
X138141173Y-118045902D01*
X138141172Y-118045907D01*
X138130840Y-118131945D01*
X138130840Y-118131951D01*
X138130841Y-118929380D01*
X138112359Y-118980160D01*
X138065559Y-119007180D01*
X138051841Y-119008380D01*
X135190840Y-119008380D01*
X135140060Y-118989898D01*
X135113040Y-118943098D01*
X135111840Y-118929380D01*
X135111839Y-118131957D01*
X135111838Y-118131951D01*
X135101506Y-118045901D01*
X135047503Y-117908958D01*
X135047501Y-117908956D01*
X135047500Y-117908953D01*
X135008199Y-117857129D01*
X134958556Y-117791664D01*
X134908911Y-117754017D01*
X134841266Y-117702719D01*
X134841258Y-117702715D01*
X134704317Y-117648713D01*
X134704312Y-117648712D01*
X134618271Y-117638380D01*
X133784417Y-117638380D01*
X133698361Y-117648713D01*
X133561421Y-117702715D01*
X133561413Y-117702719D01*
X133444124Y-117791664D01*
X133355179Y-117908953D01*
X133355175Y-117908961D01*
X133301173Y-118045902D01*
X133301172Y-118045907D01*
X133290840Y-118131945D01*
X133290840Y-118131951D01*
X133290841Y-118929380D01*
X133272359Y-118980160D01*
X133225559Y-119007180D01*
X133211841Y-119008380D01*
X132770840Y-119008380D01*
X132720060Y-118989898D01*
X132693040Y-118943098D01*
X132691840Y-118929380D01*
X132691839Y-118131957D01*
X132691838Y-118131951D01*
X132681506Y-118045901D01*
X132627503Y-117908958D01*
X132627501Y-117908956D01*
X132627500Y-117908953D01*
X132588199Y-117857129D01*
X132538556Y-117791664D01*
X132488911Y-117754017D01*
X132421266Y-117702719D01*
X132421258Y-117702715D01*
X132284317Y-117648713D01*
X132284312Y-117648712D01*
X132198271Y-117638380D01*
X131364417Y-117638380D01*
X131278361Y-117648713D01*
X131141421Y-117702715D01*
X131141413Y-117702719D01*
X131024124Y-117791664D01*
X130935179Y-117908953D01*
X130935175Y-117908961D01*
X130881173Y-118045902D01*
X130881172Y-118045907D01*
X130870840Y-118131945D01*
X130870840Y-118131951D01*
X130870841Y-118929380D01*
X130852359Y-118980160D01*
X130805559Y-119007180D01*
X130791841Y-119008380D01*
X130350840Y-119008380D01*
X130300060Y-118989898D01*
X130273040Y-118943098D01*
X130271840Y-118929380D01*
X130271839Y-118131957D01*
X130271838Y-118131951D01*
X130261506Y-118045901D01*
X130207503Y-117908958D01*
X130207501Y-117908956D01*
X130207500Y-117908953D01*
X130168199Y-117857129D01*
X130118556Y-117791664D01*
X130068911Y-117754017D01*
X130001266Y-117702719D01*
X130001258Y-117702715D01*
X129864317Y-117648713D01*
X129864312Y-117648712D01*
X129778271Y-117638380D01*
X128944417Y-117638380D01*
X128858361Y-117648713D01*
X128721421Y-117702715D01*
X128721413Y-117702719D01*
X128604124Y-117791664D01*
X128515179Y-117908953D01*
X128515175Y-117908961D01*
X128461173Y-118045902D01*
X128461172Y-118045907D01*
X128450840Y-118131945D01*
X128450840Y-118131951D01*
X128450841Y-118929380D01*
X128432359Y-118980160D01*
X128385559Y-119007180D01*
X128371841Y-119008380D01*
X125590840Y-119008380D01*
X125540060Y-118989898D01*
X125513040Y-118943098D01*
X125511840Y-118929380D01*
X125511840Y-111908380D01*
X125530322Y-111857600D01*
X125577122Y-111830580D01*
X125590840Y-111829380D01*
X145231840Y-111829380D01*
X145282620Y-111847862D01*
G37*
G04 #@! TD.AperFunction*
M02*
