G04 #@! TF.GenerationSoftware,KiCad,Pcbnew,9.0.0*
G04 #@! TF.CreationDate,2025-03-27T12:35:43-07:00*
G04 #@! TF.ProjectId,SNES2VGA_Sub_board,534e4553-3256-4474-915f-5375625f626f,1*
G04 #@! TF.SameCoordinates,Original*
G04 #@! TF.FileFunction,Legend,Top*
G04 #@! TF.FilePolarity,Positive*
%FSLAX46Y46*%
G04 Gerber Fmt 4.6, Leading zero omitted, Abs format (unit mm)*
G04 Created by KiCad (PCBNEW 9.0.0) date 2025-03-27 12:35:43*
%MOMM*%
%LPD*%
G01*
G04 APERTURE LIST*
G04 Aperture macros list*
%AMRoundRect*
0 Rectangle with rounded corners*
0 $1 Rounding radius*
0 $2 $3 $4 $5 $6 $7 $8 $9 X,Y pos of 4 corners*
0 Add a 4 corners polygon primitive as box body*
4,1,4,$2,$3,$4,$5,$6,$7,$8,$9,$2,$3,0*
0 Add four circle primitives for the rounded corners*
1,1,$1+$1,$2,$3*
1,1,$1+$1,$4,$5*
1,1,$1+$1,$6,$7*
1,1,$1+$1,$8,$9*
0 Add four rect primitives between the rounded corners*
20,1,$1+$1,$2,$3,$4,$5,0*
20,1,$1+$1,$4,$5,$6,$7,0*
20,1,$1+$1,$6,$7,$8,$9,0*
20,1,$1+$1,$8,$9,$2,$3,0*%
G04 Aperture macros list end*
%ADD10C,0.187500*%
%ADD11C,0.200000*%
%ADD12C,0.150000*%
%ADD13RoundRect,0.475000X-0.475000X-1.125000X0.475000X-1.125000X0.475000X1.125000X-0.475000X1.125000X0*%
%ADD14RoundRect,0.375000X-0.375000X-0.625000X0.375000X-0.625000X0.375000X0.625000X-0.375000X0.625000X0*%
%ADD15C,0.400000*%
G04 APERTURE END LIST*
D10*
X143619840Y-112660309D02*
X143584125Y-112767452D01*
X143584125Y-112767452D02*
X143584125Y-112946023D01*
X143584125Y-112946023D02*
X143619840Y-113017452D01*
X143619840Y-113017452D02*
X143655554Y-113053166D01*
X143655554Y-113053166D02*
X143726982Y-113088880D01*
X143726982Y-113088880D02*
X143798411Y-113088880D01*
X143798411Y-113088880D02*
X143869840Y-113053166D01*
X143869840Y-113053166D02*
X143905554Y-113017452D01*
X143905554Y-113017452D02*
X143941268Y-112946023D01*
X143941268Y-112946023D02*
X143976982Y-112803166D01*
X143976982Y-112803166D02*
X144012697Y-112731737D01*
X144012697Y-112731737D02*
X144048411Y-112696023D01*
X144048411Y-112696023D02*
X144119840Y-112660309D01*
X144119840Y-112660309D02*
X144191268Y-112660309D01*
X144191268Y-112660309D02*
X144262697Y-112696023D01*
X144262697Y-112696023D02*
X144298411Y-112731737D01*
X144298411Y-112731737D02*
X144334125Y-112803166D01*
X144334125Y-112803166D02*
X144334125Y-112981737D01*
X144334125Y-112981737D02*
X144298411Y-113088880D01*
X143584125Y-113410309D02*
X144334125Y-113410309D01*
X144334125Y-113410309D02*
X143584125Y-113838880D01*
X143584125Y-113838880D02*
X144334125Y-113838880D01*
X143976982Y-114196023D02*
X143976982Y-114446023D01*
X143584125Y-114553166D02*
X143584125Y-114196023D01*
X143584125Y-114196023D02*
X144334125Y-114196023D01*
X144334125Y-114196023D02*
X144334125Y-114553166D01*
X143619840Y-114838880D02*
X143584125Y-114946023D01*
X143584125Y-114946023D02*
X143584125Y-115124594D01*
X143584125Y-115124594D02*
X143619840Y-115196023D01*
X143619840Y-115196023D02*
X143655554Y-115231737D01*
X143655554Y-115231737D02*
X143726982Y-115267451D01*
X143726982Y-115267451D02*
X143798411Y-115267451D01*
X143798411Y-115267451D02*
X143869840Y-115231737D01*
X143869840Y-115231737D02*
X143905554Y-115196023D01*
X143905554Y-115196023D02*
X143941268Y-115124594D01*
X143941268Y-115124594D02*
X143976982Y-114981737D01*
X143976982Y-114981737D02*
X144012697Y-114910308D01*
X144012697Y-114910308D02*
X144048411Y-114874594D01*
X144048411Y-114874594D02*
X144119840Y-114838880D01*
X144119840Y-114838880D02*
X144191268Y-114838880D01*
X144191268Y-114838880D02*
X144262697Y-114874594D01*
X144262697Y-114874594D02*
X144298411Y-114910308D01*
X144298411Y-114910308D02*
X144334125Y-114981737D01*
X144334125Y-114981737D02*
X144334125Y-115160308D01*
X144334125Y-115160308D02*
X144298411Y-115267451D01*
X144262697Y-115553166D02*
X144298411Y-115588880D01*
X144298411Y-115588880D02*
X144334125Y-115660309D01*
X144334125Y-115660309D02*
X144334125Y-115838880D01*
X144334125Y-115838880D02*
X144298411Y-115910309D01*
X144298411Y-115910309D02*
X144262697Y-115946023D01*
X144262697Y-115946023D02*
X144191268Y-115981737D01*
X144191268Y-115981737D02*
X144119840Y-115981737D01*
X144119840Y-115981737D02*
X144012697Y-115946023D01*
X144012697Y-115946023D02*
X143584125Y-115517451D01*
X143584125Y-115517451D02*
X143584125Y-115981737D01*
X144334125Y-116196023D02*
X143584125Y-116446023D01*
X143584125Y-116446023D02*
X144334125Y-116696023D01*
X144298411Y-117338880D02*
X144334125Y-117267452D01*
X144334125Y-117267452D02*
X144334125Y-117160309D01*
X144334125Y-117160309D02*
X144298411Y-117053166D01*
X144298411Y-117053166D02*
X144226982Y-116981737D01*
X144226982Y-116981737D02*
X144155554Y-116946023D01*
X144155554Y-116946023D02*
X144012697Y-116910309D01*
X144012697Y-116910309D02*
X143905554Y-116910309D01*
X143905554Y-116910309D02*
X143762697Y-116946023D01*
X143762697Y-116946023D02*
X143691268Y-116981737D01*
X143691268Y-116981737D02*
X143619840Y-117053166D01*
X143619840Y-117053166D02*
X143584125Y-117160309D01*
X143584125Y-117160309D02*
X143584125Y-117231737D01*
X143584125Y-117231737D02*
X143619840Y-117338880D01*
X143619840Y-117338880D02*
X143655554Y-117374594D01*
X143655554Y-117374594D02*
X143905554Y-117374594D01*
X143905554Y-117374594D02*
X143905554Y-117231737D01*
X143798411Y-117660309D02*
X143798411Y-118017452D01*
X143584125Y-117588880D02*
X144334125Y-117838880D01*
X144334125Y-117838880D02*
X143584125Y-118088880D01*
D11*
X127599120Y-114228404D02*
X127599120Y-114799832D01*
X126599120Y-114514118D02*
X127599120Y-114514118D01*
X126599120Y-115276023D02*
X126646740Y-115180785D01*
X126646740Y-115180785D02*
X126694359Y-115133166D01*
X126694359Y-115133166D02*
X126789597Y-115085547D01*
X126789597Y-115085547D02*
X127075311Y-115085547D01*
X127075311Y-115085547D02*
X127170549Y-115133166D01*
X127170549Y-115133166D02*
X127218168Y-115180785D01*
X127218168Y-115180785D02*
X127265787Y-115276023D01*
X127265787Y-115276023D02*
X127265787Y-115418880D01*
X127265787Y-115418880D02*
X127218168Y-115514118D01*
X127218168Y-115514118D02*
X127170549Y-115561737D01*
X127170549Y-115561737D02*
X127075311Y-115609356D01*
X127075311Y-115609356D02*
X126789597Y-115609356D01*
X126789597Y-115609356D02*
X126694359Y-115561737D01*
X126694359Y-115561737D02*
X126646740Y-115514118D01*
X126646740Y-115514118D02*
X126599120Y-115418880D01*
X126599120Y-115418880D02*
X126599120Y-115276023D01*
X127265787Y-116037928D02*
X126265787Y-116037928D01*
X127218168Y-116037928D02*
X127265787Y-116133166D01*
X127265787Y-116133166D02*
X127265787Y-116323642D01*
X127265787Y-116323642D02*
X127218168Y-116418880D01*
X127218168Y-116418880D02*
X127170549Y-116466499D01*
X127170549Y-116466499D02*
X127075311Y-116514118D01*
X127075311Y-116514118D02*
X126789597Y-116514118D01*
X126789597Y-116514118D02*
X126694359Y-116466499D01*
X126694359Y-116466499D02*
X126646740Y-116418880D01*
X126646740Y-116418880D02*
X126599120Y-116323642D01*
X126599120Y-116323642D02*
X126599120Y-116133166D01*
X126599120Y-116133166D02*
X126646740Y-116037928D01*
D12*
X125883245Y-109643699D02*
X125883245Y-108643699D01*
X125883245Y-108643699D02*
X126264197Y-108643699D01*
X126264197Y-108643699D02*
X126359435Y-108691318D01*
X126359435Y-108691318D02*
X126407054Y-108738937D01*
X126407054Y-108738937D02*
X126454673Y-108834175D01*
X126454673Y-108834175D02*
X126454673Y-108977032D01*
X126454673Y-108977032D02*
X126407054Y-109072270D01*
X126407054Y-109072270D02*
X126359435Y-109119889D01*
X126359435Y-109119889D02*
X126264197Y-109167508D01*
X126264197Y-109167508D02*
X125883245Y-109167508D01*
X127407054Y-109643699D02*
X126835626Y-109643699D01*
X127121340Y-109643699D02*
X127121340Y-108643699D01*
X127121340Y-108643699D02*
X127026102Y-108786556D01*
X127026102Y-108786556D02*
X126930864Y-108881794D01*
X126930864Y-108881794D02*
X126835626Y-108929413D01*
%LPC*%
D13*
X129361340Y-113378880D03*
D14*
X129361340Y-118798880D03*
D15*
X129351340Y-118108880D03*
D13*
X131781340Y-113378880D03*
X134201340Y-113378880D03*
X136621340Y-113378880D03*
X139041340Y-113378880D03*
X141461340Y-113378880D03*
D14*
X131781340Y-118798880D03*
X134201340Y-118798880D03*
X136621340Y-118798880D03*
X139041340Y-118798880D03*
X141461340Y-118798880D03*
D15*
X131771340Y-118108880D03*
X134191340Y-118108880D03*
X136611340Y-118108880D03*
X139031340Y-118108880D03*
X141451340Y-118108880D03*
%LPD*%
M02*
