%TF.GenerationSoftware,KiCad,Pcbnew,9.0.0*%
%TF.CreationDate,2025-03-27T12:32:35-07:00*%
%TF.ProjectId,SNES2VGA_Sub_board,534e4553-3256-4474-915f-5375625f626f,1*%
%TF.SameCoordinates,Original*%
%TF.FileFunction,Drillmap*%
%TF.FilePolarity,Positive*%
%FSLAX45Y45*%
G04 Gerber Fmt 4.5, Leading zero omitted, Abs format (unit mm)*
G04 Created by KiCad (PCBNEW 9.0.0) date 2025-03-27 12:32:35*
%MOMM*%
%LPD*%
G01*
G04 APERTURE LIST*
%ADD10C,0.100000*%
%ADD11C,0.200000*%
G04 APERTURE END LIST*
D10*
X12546134Y-11905888D02*
X12546134Y-11177888D01*
X14536134Y-11177888D02*
X14536134Y-11905888D01*
X14536134Y-11905888D02*
X12546134Y-11905888D01*
X12546134Y-11177888D02*
X14536134Y-11177888D01*
D11*
D10*
X12925134Y-11800888D02*
X12945134Y-11820888D01*
X12945134Y-11800888D02*
X12925134Y-11820888D01*
X13167134Y-11800888D02*
X13187134Y-11820888D01*
X13187134Y-11800888D02*
X13167134Y-11820888D01*
X13409134Y-11800888D02*
X13429134Y-11820888D01*
X13429134Y-11800888D02*
X13409134Y-11820888D01*
X13651134Y-11800888D02*
X13671134Y-11820888D01*
X13671134Y-11800888D02*
X13651134Y-11820888D01*
X13893134Y-11800888D02*
X13913134Y-11820888D01*
X13913134Y-11800888D02*
X13893134Y-11820888D01*
X14135134Y-11800888D02*
X14155134Y-11820888D01*
X14155134Y-11800888D02*
X14135134Y-11820888D01*
X12821834Y-11638002D02*
G75*
G02*
X12796434Y-11638002I-12700J0D01*
G01*
X12796434Y-11638002D02*
G75*
G02*
X12821834Y-11638002I12700J0D01*
G01*
X13069834Y-11638002D02*
G75*
G02*
X13044434Y-11638002I-12700J0D01*
G01*
X13044434Y-11638002D02*
G75*
G02*
X13069834Y-11638002I12700J0D01*
G01*
X13308834Y-11638002D02*
G75*
G02*
X13283434Y-11638002I-12700J0D01*
G01*
X13283434Y-11638002D02*
G75*
G02*
X13308834Y-11638002I12700J0D01*
G01*
X13553186Y-11638002D02*
G75*
G02*
X13527786Y-11638002I-12700J0D01*
G01*
X13527786Y-11638002D02*
G75*
G02*
X13553186Y-11638002I12700J0D01*
G01*
X13797834Y-11638002D02*
G75*
G02*
X13772434Y-11638002I-12700J0D01*
G01*
X13772434Y-11638002D02*
G75*
G02*
X13797834Y-11638002I12700J0D01*
G01*
X14036834Y-11638002D02*
G75*
G02*
X14011434Y-11638002I-12700J0D01*
G01*
X14011434Y-11638002D02*
G75*
G02*
X14036834Y-11638002I12700J0D01*
G01*
X14273834Y-11638002D02*
G75*
G02*
X14248434Y-11638002I-12700J0D01*
G01*
X14248434Y-11638002D02*
G75*
G02*
X14273834Y-11638002I12700J0D01*
G01*
X12936134Y-11867388D02*
X12936134Y-11942388D01*
X12898634Y-11904888D02*
X12973634Y-11904888D01*
X13178134Y-11867388D02*
X13178134Y-11942388D01*
X13140634Y-11904888D02*
X13215634Y-11904888D01*
X13420134Y-11867388D02*
X13420134Y-11942388D01*
X13382634Y-11904888D02*
X13457634Y-11904888D01*
X13662134Y-11867388D02*
X13662134Y-11942388D01*
X13624634Y-11904888D02*
X13699634Y-11904888D01*
X13904134Y-11867388D02*
X13904134Y-11942388D01*
X13866634Y-11904888D02*
X13941634Y-11904888D01*
X14146134Y-11867388D02*
X14146134Y-11942388D01*
X14108634Y-11904888D02*
X14183634Y-11904888D01*
D11*
X12801911Y-12222372D02*
X12801911Y-12022372D01*
X12801911Y-12022372D02*
X12849530Y-12022372D01*
X12849530Y-12022372D02*
X12878101Y-12031896D01*
X12878101Y-12031896D02*
X12897149Y-12050943D01*
X12897149Y-12050943D02*
X12906673Y-12069991D01*
X12906673Y-12069991D02*
X12916196Y-12108086D01*
X12916196Y-12108086D02*
X12916196Y-12136657D01*
X12916196Y-12136657D02*
X12906673Y-12174753D01*
X12906673Y-12174753D02*
X12897149Y-12193800D01*
X12897149Y-12193800D02*
X12878101Y-12212848D01*
X12878101Y-12212848D02*
X12849530Y-12222372D01*
X12849530Y-12222372D02*
X12801911Y-12222372D01*
X13001911Y-12222372D02*
X13001911Y-12089038D01*
X13001911Y-12127134D02*
X13011435Y-12108086D01*
X13011435Y-12108086D02*
X13020958Y-12098562D01*
X13020958Y-12098562D02*
X13040006Y-12089038D01*
X13040006Y-12089038D02*
X13059054Y-12089038D01*
X13125720Y-12222372D02*
X13125720Y-12089038D01*
X13125720Y-12022372D02*
X13116196Y-12031896D01*
X13116196Y-12031896D02*
X13125720Y-12041419D01*
X13125720Y-12041419D02*
X13135244Y-12031896D01*
X13135244Y-12031896D02*
X13125720Y-12022372D01*
X13125720Y-12022372D02*
X13125720Y-12041419D01*
X13249530Y-12222372D02*
X13230482Y-12212848D01*
X13230482Y-12212848D02*
X13220958Y-12193800D01*
X13220958Y-12193800D02*
X13220958Y-12022372D01*
X13354292Y-12222372D02*
X13335244Y-12212848D01*
X13335244Y-12212848D02*
X13325720Y-12193800D01*
X13325720Y-12193800D02*
X13325720Y-12022372D01*
X13582863Y-12222372D02*
X13582863Y-12022372D01*
X13582863Y-12022372D02*
X13649530Y-12165229D01*
X13649530Y-12165229D02*
X13716196Y-12022372D01*
X13716196Y-12022372D02*
X13716196Y-12222372D01*
X13897149Y-12222372D02*
X13897149Y-12117610D01*
X13897149Y-12117610D02*
X13887625Y-12098562D01*
X13887625Y-12098562D02*
X13868577Y-12089038D01*
X13868577Y-12089038D02*
X13830482Y-12089038D01*
X13830482Y-12089038D02*
X13811435Y-12098562D01*
X13897149Y-12212848D02*
X13878101Y-12222372D01*
X13878101Y-12222372D02*
X13830482Y-12222372D01*
X13830482Y-12222372D02*
X13811435Y-12212848D01*
X13811435Y-12212848D02*
X13801911Y-12193800D01*
X13801911Y-12193800D02*
X13801911Y-12174753D01*
X13801911Y-12174753D02*
X13811435Y-12155705D01*
X13811435Y-12155705D02*
X13830482Y-12146181D01*
X13830482Y-12146181D02*
X13878101Y-12146181D01*
X13878101Y-12146181D02*
X13897149Y-12136657D01*
X13992387Y-12089038D02*
X13992387Y-12289038D01*
X13992387Y-12098562D02*
X14011435Y-12089038D01*
X14011435Y-12089038D02*
X14049530Y-12089038D01*
X14049530Y-12089038D02*
X14068577Y-12098562D01*
X14068577Y-12098562D02*
X14078101Y-12108086D01*
X14078101Y-12108086D02*
X14087625Y-12127134D01*
X14087625Y-12127134D02*
X14087625Y-12184276D01*
X14087625Y-12184276D02*
X14078101Y-12203324D01*
X14078101Y-12203324D02*
X14068577Y-12212848D01*
X14068577Y-12212848D02*
X14049530Y-12222372D01*
X14049530Y-12222372D02*
X14011435Y-12222372D01*
X14011435Y-12222372D02*
X13992387Y-12212848D01*
X14173339Y-12203324D02*
X14182863Y-12212848D01*
X14182863Y-12212848D02*
X14173339Y-12222372D01*
X14173339Y-12222372D02*
X14163816Y-12212848D01*
X14163816Y-12212848D02*
X14173339Y-12203324D01*
X14173339Y-12203324D02*
X14173339Y-12222372D01*
X14173339Y-12098562D02*
X14182863Y-12108086D01*
X14182863Y-12108086D02*
X14173339Y-12117610D01*
X14173339Y-12117610D02*
X14163816Y-12108086D01*
X14163816Y-12108086D02*
X14173339Y-12098562D01*
X14173339Y-12098562D02*
X14173339Y-12117610D01*
D10*
X12521134Y-12540888D02*
X12541134Y-12560888D01*
X12541134Y-12540888D02*
X12521134Y-12560888D01*
D11*
X12840006Y-12442372D02*
X12859054Y-12442372D01*
X12859054Y-12442372D02*
X12878101Y-12451896D01*
X12878101Y-12451896D02*
X12887625Y-12461419D01*
X12887625Y-12461419D02*
X12897149Y-12480467D01*
X12897149Y-12480467D02*
X12906673Y-12518562D01*
X12906673Y-12518562D02*
X12906673Y-12566181D01*
X12906673Y-12566181D02*
X12897149Y-12604276D01*
X12897149Y-12604276D02*
X12887625Y-12623324D01*
X12887625Y-12623324D02*
X12878101Y-12632848D01*
X12878101Y-12632848D02*
X12859054Y-12642372D01*
X12859054Y-12642372D02*
X12840006Y-12642372D01*
X12840006Y-12642372D02*
X12820958Y-12632848D01*
X12820958Y-12632848D02*
X12811435Y-12623324D01*
X12811435Y-12623324D02*
X12801911Y-12604276D01*
X12801911Y-12604276D02*
X12792387Y-12566181D01*
X12792387Y-12566181D02*
X12792387Y-12518562D01*
X12792387Y-12518562D02*
X12801911Y-12480467D01*
X12801911Y-12480467D02*
X12811435Y-12461419D01*
X12811435Y-12461419D02*
X12820958Y-12451896D01*
X12820958Y-12451896D02*
X12840006Y-12442372D01*
X12992387Y-12623324D02*
X13001911Y-12632848D01*
X13001911Y-12632848D02*
X12992387Y-12642372D01*
X12992387Y-12642372D02*
X12982863Y-12632848D01*
X12982863Y-12632848D02*
X12992387Y-12623324D01*
X12992387Y-12623324D02*
X12992387Y-12642372D01*
X13078101Y-12461419D02*
X13087625Y-12451896D01*
X13087625Y-12451896D02*
X13106673Y-12442372D01*
X13106673Y-12442372D02*
X13154292Y-12442372D01*
X13154292Y-12442372D02*
X13173339Y-12451896D01*
X13173339Y-12451896D02*
X13182863Y-12461419D01*
X13182863Y-12461419D02*
X13192387Y-12480467D01*
X13192387Y-12480467D02*
X13192387Y-12499515D01*
X13192387Y-12499515D02*
X13182863Y-12528086D01*
X13182863Y-12528086D02*
X13068577Y-12642372D01*
X13068577Y-12642372D02*
X13192387Y-12642372D01*
X13316196Y-12442372D02*
X13335244Y-12442372D01*
X13335244Y-12442372D02*
X13354292Y-12451896D01*
X13354292Y-12451896D02*
X13363816Y-12461419D01*
X13363816Y-12461419D02*
X13373339Y-12480467D01*
X13373339Y-12480467D02*
X13382863Y-12518562D01*
X13382863Y-12518562D02*
X13382863Y-12566181D01*
X13382863Y-12566181D02*
X13373339Y-12604276D01*
X13373339Y-12604276D02*
X13363816Y-12623324D01*
X13363816Y-12623324D02*
X13354292Y-12632848D01*
X13354292Y-12632848D02*
X13335244Y-12642372D01*
X13335244Y-12642372D02*
X13316196Y-12642372D01*
X13316196Y-12642372D02*
X13297149Y-12632848D01*
X13297149Y-12632848D02*
X13287625Y-12623324D01*
X13287625Y-12623324D02*
X13278101Y-12604276D01*
X13278101Y-12604276D02*
X13268577Y-12566181D01*
X13268577Y-12566181D02*
X13268577Y-12518562D01*
X13268577Y-12518562D02*
X13278101Y-12480467D01*
X13278101Y-12480467D02*
X13287625Y-12461419D01*
X13287625Y-12461419D02*
X13297149Y-12451896D01*
X13297149Y-12451896D02*
X13316196Y-12442372D01*
X13506673Y-12442372D02*
X13525720Y-12442372D01*
X13525720Y-12442372D02*
X13544768Y-12451896D01*
X13544768Y-12451896D02*
X13554292Y-12461419D01*
X13554292Y-12461419D02*
X13563816Y-12480467D01*
X13563816Y-12480467D02*
X13573339Y-12518562D01*
X13573339Y-12518562D02*
X13573339Y-12566181D01*
X13573339Y-12566181D02*
X13563816Y-12604276D01*
X13563816Y-12604276D02*
X13554292Y-12623324D01*
X13554292Y-12623324D02*
X13544768Y-12632848D01*
X13544768Y-12632848D02*
X13525720Y-12642372D01*
X13525720Y-12642372D02*
X13506673Y-12642372D01*
X13506673Y-12642372D02*
X13487625Y-12632848D01*
X13487625Y-12632848D02*
X13478101Y-12623324D01*
X13478101Y-12623324D02*
X13468577Y-12604276D01*
X13468577Y-12604276D02*
X13459054Y-12566181D01*
X13459054Y-12566181D02*
X13459054Y-12518562D01*
X13459054Y-12518562D02*
X13468577Y-12480467D01*
X13468577Y-12480467D02*
X13478101Y-12461419D01*
X13478101Y-12461419D02*
X13487625Y-12451896D01*
X13487625Y-12451896D02*
X13506673Y-12442372D01*
X13659054Y-12642372D02*
X13659054Y-12509038D01*
X13659054Y-12528086D02*
X13668577Y-12518562D01*
X13668577Y-12518562D02*
X13687625Y-12509038D01*
X13687625Y-12509038D02*
X13716197Y-12509038D01*
X13716197Y-12509038D02*
X13735244Y-12518562D01*
X13735244Y-12518562D02*
X13744768Y-12537610D01*
X13744768Y-12537610D02*
X13744768Y-12642372D01*
X13744768Y-12537610D02*
X13754292Y-12518562D01*
X13754292Y-12518562D02*
X13773339Y-12509038D01*
X13773339Y-12509038D02*
X13801911Y-12509038D01*
X13801911Y-12509038D02*
X13820958Y-12518562D01*
X13820958Y-12518562D02*
X13830482Y-12537610D01*
X13830482Y-12537610D02*
X13830482Y-12642372D01*
X13925720Y-12642372D02*
X13925720Y-12509038D01*
X13925720Y-12528086D02*
X13935244Y-12518562D01*
X13935244Y-12518562D02*
X13954292Y-12509038D01*
X13954292Y-12509038D02*
X13982863Y-12509038D01*
X13982863Y-12509038D02*
X14001911Y-12518562D01*
X14001911Y-12518562D02*
X14011435Y-12537610D01*
X14011435Y-12537610D02*
X14011435Y-12642372D01*
X14011435Y-12537610D02*
X14020958Y-12518562D01*
X14020958Y-12518562D02*
X14040006Y-12509038D01*
X14040006Y-12509038D02*
X14068577Y-12509038D01*
X14068577Y-12509038D02*
X14087625Y-12518562D01*
X14087625Y-12518562D02*
X14097149Y-12537610D01*
X14097149Y-12537610D02*
X14097149Y-12642372D01*
X14487625Y-12432848D02*
X14316197Y-12689991D01*
X14744768Y-12442372D02*
X14763816Y-12442372D01*
X14763816Y-12442372D02*
X14782863Y-12451896D01*
X14782863Y-12451896D02*
X14792387Y-12461419D01*
X14792387Y-12461419D02*
X14801911Y-12480467D01*
X14801911Y-12480467D02*
X14811435Y-12518562D01*
X14811435Y-12518562D02*
X14811435Y-12566181D01*
X14811435Y-12566181D02*
X14801911Y-12604276D01*
X14801911Y-12604276D02*
X14792387Y-12623324D01*
X14792387Y-12623324D02*
X14782863Y-12632848D01*
X14782863Y-12632848D02*
X14763816Y-12642372D01*
X14763816Y-12642372D02*
X14744768Y-12642372D01*
X14744768Y-12642372D02*
X14725720Y-12632848D01*
X14725720Y-12632848D02*
X14716197Y-12623324D01*
X14716197Y-12623324D02*
X14706673Y-12604276D01*
X14706673Y-12604276D02*
X14697149Y-12566181D01*
X14697149Y-12566181D02*
X14697149Y-12518562D01*
X14697149Y-12518562D02*
X14706673Y-12480467D01*
X14706673Y-12480467D02*
X14716197Y-12461419D01*
X14716197Y-12461419D02*
X14725720Y-12451896D01*
X14725720Y-12451896D02*
X14744768Y-12442372D01*
X14897149Y-12623324D02*
X14906673Y-12632848D01*
X14906673Y-12632848D02*
X14897149Y-12642372D01*
X14897149Y-12642372D02*
X14887625Y-12632848D01*
X14887625Y-12632848D02*
X14897149Y-12623324D01*
X14897149Y-12623324D02*
X14897149Y-12642372D01*
X15030482Y-12442372D02*
X15049530Y-12442372D01*
X15049530Y-12442372D02*
X15068578Y-12451896D01*
X15068578Y-12451896D02*
X15078101Y-12461419D01*
X15078101Y-12461419D02*
X15087625Y-12480467D01*
X15087625Y-12480467D02*
X15097149Y-12518562D01*
X15097149Y-12518562D02*
X15097149Y-12566181D01*
X15097149Y-12566181D02*
X15087625Y-12604276D01*
X15087625Y-12604276D02*
X15078101Y-12623324D01*
X15078101Y-12623324D02*
X15068578Y-12632848D01*
X15068578Y-12632848D02*
X15049530Y-12642372D01*
X15049530Y-12642372D02*
X15030482Y-12642372D01*
X15030482Y-12642372D02*
X15011435Y-12632848D01*
X15011435Y-12632848D02*
X15001911Y-12623324D01*
X15001911Y-12623324D02*
X14992387Y-12604276D01*
X14992387Y-12604276D02*
X14982863Y-12566181D01*
X14982863Y-12566181D02*
X14982863Y-12518562D01*
X14982863Y-12518562D02*
X14992387Y-12480467D01*
X14992387Y-12480467D02*
X15001911Y-12461419D01*
X15001911Y-12461419D02*
X15011435Y-12451896D01*
X15011435Y-12451896D02*
X15030482Y-12442372D01*
X15220959Y-12442372D02*
X15240006Y-12442372D01*
X15240006Y-12442372D02*
X15259054Y-12451896D01*
X15259054Y-12451896D02*
X15268578Y-12461419D01*
X15268578Y-12461419D02*
X15278101Y-12480467D01*
X15278101Y-12480467D02*
X15287625Y-12518562D01*
X15287625Y-12518562D02*
X15287625Y-12566181D01*
X15287625Y-12566181D02*
X15278101Y-12604276D01*
X15278101Y-12604276D02*
X15268578Y-12623324D01*
X15268578Y-12623324D02*
X15259054Y-12632848D01*
X15259054Y-12632848D02*
X15240006Y-12642372D01*
X15240006Y-12642372D02*
X15220959Y-12642372D01*
X15220959Y-12642372D02*
X15201911Y-12632848D01*
X15201911Y-12632848D02*
X15192387Y-12623324D01*
X15192387Y-12623324D02*
X15182863Y-12604276D01*
X15182863Y-12604276D02*
X15173340Y-12566181D01*
X15173340Y-12566181D02*
X15173340Y-12518562D01*
X15173340Y-12518562D02*
X15182863Y-12480467D01*
X15182863Y-12480467D02*
X15192387Y-12461419D01*
X15192387Y-12461419D02*
X15201911Y-12451896D01*
X15201911Y-12451896D02*
X15220959Y-12442372D01*
X15354292Y-12442372D02*
X15487625Y-12442372D01*
X15487625Y-12442372D02*
X15401911Y-12642372D01*
X15573340Y-12642372D02*
X15611435Y-12642372D01*
X15611435Y-12642372D02*
X15630482Y-12632848D01*
X15630482Y-12632848D02*
X15640006Y-12623324D01*
X15640006Y-12623324D02*
X15659054Y-12594753D01*
X15659054Y-12594753D02*
X15668578Y-12556657D01*
X15668578Y-12556657D02*
X15668578Y-12480467D01*
X15668578Y-12480467D02*
X15659054Y-12461419D01*
X15659054Y-12461419D02*
X15649530Y-12451896D01*
X15649530Y-12451896D02*
X15630482Y-12442372D01*
X15630482Y-12442372D02*
X15592387Y-12442372D01*
X15592387Y-12442372D02*
X15573340Y-12451896D01*
X15573340Y-12451896D02*
X15563816Y-12461419D01*
X15563816Y-12461419D02*
X15554292Y-12480467D01*
X15554292Y-12480467D02*
X15554292Y-12528086D01*
X15554292Y-12528086D02*
X15563816Y-12547134D01*
X15563816Y-12547134D02*
X15573340Y-12556657D01*
X15573340Y-12556657D02*
X15592387Y-12566181D01*
X15592387Y-12566181D02*
X15630482Y-12566181D01*
X15630482Y-12566181D02*
X15649530Y-12556657D01*
X15649530Y-12556657D02*
X15659054Y-12547134D01*
X15659054Y-12547134D02*
X15668578Y-12528086D01*
X15744768Y-12442372D02*
X15744768Y-12480467D01*
X15820959Y-12442372D02*
X15820959Y-12480467D01*
X16116197Y-12718562D02*
X16106673Y-12709038D01*
X16106673Y-12709038D02*
X16087625Y-12680467D01*
X16087625Y-12680467D02*
X16078102Y-12661419D01*
X16078102Y-12661419D02*
X16068578Y-12632848D01*
X16068578Y-12632848D02*
X16059054Y-12585229D01*
X16059054Y-12585229D02*
X16059054Y-12547134D01*
X16059054Y-12547134D02*
X16068578Y-12499515D01*
X16068578Y-12499515D02*
X16078102Y-12470943D01*
X16078102Y-12470943D02*
X16087625Y-12451896D01*
X16087625Y-12451896D02*
X16106673Y-12423324D01*
X16106673Y-12423324D02*
X16116197Y-12413800D01*
X16278102Y-12442372D02*
X16240006Y-12442372D01*
X16240006Y-12442372D02*
X16220959Y-12451896D01*
X16220959Y-12451896D02*
X16211435Y-12461419D01*
X16211435Y-12461419D02*
X16192387Y-12489991D01*
X16192387Y-12489991D02*
X16182863Y-12528086D01*
X16182863Y-12528086D02*
X16182863Y-12604276D01*
X16182863Y-12604276D02*
X16192387Y-12623324D01*
X16192387Y-12623324D02*
X16201911Y-12632848D01*
X16201911Y-12632848D02*
X16220959Y-12642372D01*
X16220959Y-12642372D02*
X16259054Y-12642372D01*
X16259054Y-12642372D02*
X16278102Y-12632848D01*
X16278102Y-12632848D02*
X16287625Y-12623324D01*
X16287625Y-12623324D02*
X16297149Y-12604276D01*
X16297149Y-12604276D02*
X16297149Y-12556657D01*
X16297149Y-12556657D02*
X16287625Y-12537610D01*
X16287625Y-12537610D02*
X16278102Y-12528086D01*
X16278102Y-12528086D02*
X16259054Y-12518562D01*
X16259054Y-12518562D02*
X16220959Y-12518562D01*
X16220959Y-12518562D02*
X16201911Y-12528086D01*
X16201911Y-12528086D02*
X16192387Y-12537610D01*
X16192387Y-12537610D02*
X16182863Y-12556657D01*
X16535244Y-12642372D02*
X16535244Y-12442372D01*
X16620959Y-12642372D02*
X16620959Y-12537610D01*
X16620959Y-12537610D02*
X16611435Y-12518562D01*
X16611435Y-12518562D02*
X16592387Y-12509038D01*
X16592387Y-12509038D02*
X16563816Y-12509038D01*
X16563816Y-12509038D02*
X16544768Y-12518562D01*
X16544768Y-12518562D02*
X16535244Y-12528086D01*
X16744768Y-12642372D02*
X16725721Y-12632848D01*
X16725721Y-12632848D02*
X16716197Y-12623324D01*
X16716197Y-12623324D02*
X16706673Y-12604276D01*
X16706673Y-12604276D02*
X16706673Y-12547134D01*
X16706673Y-12547134D02*
X16716197Y-12528086D01*
X16716197Y-12528086D02*
X16725721Y-12518562D01*
X16725721Y-12518562D02*
X16744768Y-12509038D01*
X16744768Y-12509038D02*
X16773340Y-12509038D01*
X16773340Y-12509038D02*
X16792387Y-12518562D01*
X16792387Y-12518562D02*
X16801911Y-12528086D01*
X16801911Y-12528086D02*
X16811435Y-12547134D01*
X16811435Y-12547134D02*
X16811435Y-12604276D01*
X16811435Y-12604276D02*
X16801911Y-12623324D01*
X16801911Y-12623324D02*
X16792387Y-12632848D01*
X16792387Y-12632848D02*
X16773340Y-12642372D01*
X16773340Y-12642372D02*
X16744768Y-12642372D01*
X16925721Y-12642372D02*
X16906673Y-12632848D01*
X16906673Y-12632848D02*
X16897149Y-12613800D01*
X16897149Y-12613800D02*
X16897149Y-12442372D01*
X17078102Y-12632848D02*
X17059054Y-12642372D01*
X17059054Y-12642372D02*
X17020959Y-12642372D01*
X17020959Y-12642372D02*
X17001911Y-12632848D01*
X17001911Y-12632848D02*
X16992387Y-12613800D01*
X16992387Y-12613800D02*
X16992387Y-12537610D01*
X16992387Y-12537610D02*
X17001911Y-12518562D01*
X17001911Y-12518562D02*
X17020959Y-12509038D01*
X17020959Y-12509038D02*
X17059054Y-12509038D01*
X17059054Y-12509038D02*
X17078102Y-12518562D01*
X17078102Y-12518562D02*
X17087626Y-12537610D01*
X17087626Y-12537610D02*
X17087626Y-12556657D01*
X17087626Y-12556657D02*
X16992387Y-12575705D01*
X17163816Y-12632848D02*
X17182864Y-12642372D01*
X17182864Y-12642372D02*
X17220959Y-12642372D01*
X17220959Y-12642372D02*
X17240007Y-12632848D01*
X17240007Y-12632848D02*
X17249530Y-12613800D01*
X17249530Y-12613800D02*
X17249530Y-12604276D01*
X17249530Y-12604276D02*
X17240007Y-12585229D01*
X17240007Y-12585229D02*
X17220959Y-12575705D01*
X17220959Y-12575705D02*
X17192387Y-12575705D01*
X17192387Y-12575705D02*
X17173340Y-12566181D01*
X17173340Y-12566181D02*
X17163816Y-12547134D01*
X17163816Y-12547134D02*
X17163816Y-12537610D01*
X17163816Y-12537610D02*
X17173340Y-12518562D01*
X17173340Y-12518562D02*
X17192387Y-12509038D01*
X17192387Y-12509038D02*
X17220959Y-12509038D01*
X17220959Y-12509038D02*
X17240007Y-12518562D01*
X17316197Y-12718562D02*
X17325721Y-12709038D01*
X17325721Y-12709038D02*
X17344768Y-12680467D01*
X17344768Y-12680467D02*
X17354292Y-12661419D01*
X17354292Y-12661419D02*
X17363816Y-12632848D01*
X17363816Y-12632848D02*
X17373340Y-12585229D01*
X17373340Y-12585229D02*
X17373340Y-12547134D01*
X17373340Y-12547134D02*
X17363816Y-12499515D01*
X17363816Y-12499515D02*
X17354292Y-12470943D01*
X17354292Y-12470943D02*
X17344768Y-12451896D01*
X17344768Y-12451896D02*
X17325721Y-12423324D01*
X17325721Y-12423324D02*
X17316197Y-12413800D01*
D10*
X12541134Y-12814888D02*
G75*
G02*
X12515734Y-12814888I-12700J0D01*
G01*
X12515734Y-12814888D02*
G75*
G02*
X12541134Y-12814888I12700J0D01*
G01*
D11*
X12840006Y-12706372D02*
X12859054Y-12706372D01*
X12859054Y-12706372D02*
X12878101Y-12715896D01*
X12878101Y-12715896D02*
X12887625Y-12725419D01*
X12887625Y-12725419D02*
X12897149Y-12744467D01*
X12897149Y-12744467D02*
X12906673Y-12782562D01*
X12906673Y-12782562D02*
X12906673Y-12830181D01*
X12906673Y-12830181D02*
X12897149Y-12868276D01*
X12897149Y-12868276D02*
X12887625Y-12887324D01*
X12887625Y-12887324D02*
X12878101Y-12896848D01*
X12878101Y-12896848D02*
X12859054Y-12906372D01*
X12859054Y-12906372D02*
X12840006Y-12906372D01*
X12840006Y-12906372D02*
X12820958Y-12896848D01*
X12820958Y-12896848D02*
X12811435Y-12887324D01*
X12811435Y-12887324D02*
X12801911Y-12868276D01*
X12801911Y-12868276D02*
X12792387Y-12830181D01*
X12792387Y-12830181D02*
X12792387Y-12782562D01*
X12792387Y-12782562D02*
X12801911Y-12744467D01*
X12801911Y-12744467D02*
X12811435Y-12725419D01*
X12811435Y-12725419D02*
X12820958Y-12715896D01*
X12820958Y-12715896D02*
X12840006Y-12706372D01*
X12992387Y-12887324D02*
X13001911Y-12896848D01*
X13001911Y-12896848D02*
X12992387Y-12906372D01*
X12992387Y-12906372D02*
X12982863Y-12896848D01*
X12982863Y-12896848D02*
X12992387Y-12887324D01*
X12992387Y-12887324D02*
X12992387Y-12906372D01*
X13078101Y-12725419D02*
X13087625Y-12715896D01*
X13087625Y-12715896D02*
X13106673Y-12706372D01*
X13106673Y-12706372D02*
X13154292Y-12706372D01*
X13154292Y-12706372D02*
X13173339Y-12715896D01*
X13173339Y-12715896D02*
X13182863Y-12725419D01*
X13182863Y-12725419D02*
X13192387Y-12744467D01*
X13192387Y-12744467D02*
X13192387Y-12763515D01*
X13192387Y-12763515D02*
X13182863Y-12792086D01*
X13182863Y-12792086D02*
X13068577Y-12906372D01*
X13068577Y-12906372D02*
X13192387Y-12906372D01*
X13373339Y-12706372D02*
X13278101Y-12706372D01*
X13278101Y-12706372D02*
X13268577Y-12801610D01*
X13268577Y-12801610D02*
X13278101Y-12792086D01*
X13278101Y-12792086D02*
X13297149Y-12782562D01*
X13297149Y-12782562D02*
X13344768Y-12782562D01*
X13344768Y-12782562D02*
X13363816Y-12792086D01*
X13363816Y-12792086D02*
X13373339Y-12801610D01*
X13373339Y-12801610D02*
X13382863Y-12820657D01*
X13382863Y-12820657D02*
X13382863Y-12868276D01*
X13382863Y-12868276D02*
X13373339Y-12887324D01*
X13373339Y-12887324D02*
X13363816Y-12896848D01*
X13363816Y-12896848D02*
X13344768Y-12906372D01*
X13344768Y-12906372D02*
X13297149Y-12906372D01*
X13297149Y-12906372D02*
X13278101Y-12896848D01*
X13278101Y-12896848D02*
X13268577Y-12887324D01*
X13554292Y-12773038D02*
X13554292Y-12906372D01*
X13506673Y-12696848D02*
X13459054Y-12839705D01*
X13459054Y-12839705D02*
X13582863Y-12839705D01*
X13659054Y-12906372D02*
X13659054Y-12773038D01*
X13659054Y-12792086D02*
X13668577Y-12782562D01*
X13668577Y-12782562D02*
X13687625Y-12773038D01*
X13687625Y-12773038D02*
X13716197Y-12773038D01*
X13716197Y-12773038D02*
X13735244Y-12782562D01*
X13735244Y-12782562D02*
X13744768Y-12801610D01*
X13744768Y-12801610D02*
X13744768Y-12906372D01*
X13744768Y-12801610D02*
X13754292Y-12782562D01*
X13754292Y-12782562D02*
X13773339Y-12773038D01*
X13773339Y-12773038D02*
X13801911Y-12773038D01*
X13801911Y-12773038D02*
X13820958Y-12782562D01*
X13820958Y-12782562D02*
X13830482Y-12801610D01*
X13830482Y-12801610D02*
X13830482Y-12906372D01*
X13925720Y-12906372D02*
X13925720Y-12773038D01*
X13925720Y-12792086D02*
X13935244Y-12782562D01*
X13935244Y-12782562D02*
X13954292Y-12773038D01*
X13954292Y-12773038D02*
X13982863Y-12773038D01*
X13982863Y-12773038D02*
X14001911Y-12782562D01*
X14001911Y-12782562D02*
X14011435Y-12801610D01*
X14011435Y-12801610D02*
X14011435Y-12906372D01*
X14011435Y-12801610D02*
X14020958Y-12782562D01*
X14020958Y-12782562D02*
X14040006Y-12773038D01*
X14040006Y-12773038D02*
X14068577Y-12773038D01*
X14068577Y-12773038D02*
X14087625Y-12782562D01*
X14087625Y-12782562D02*
X14097149Y-12801610D01*
X14097149Y-12801610D02*
X14097149Y-12906372D01*
X14487625Y-12696848D02*
X14316197Y-12953991D01*
X14744768Y-12706372D02*
X14763816Y-12706372D01*
X14763816Y-12706372D02*
X14782863Y-12715896D01*
X14782863Y-12715896D02*
X14792387Y-12725419D01*
X14792387Y-12725419D02*
X14801911Y-12744467D01*
X14801911Y-12744467D02*
X14811435Y-12782562D01*
X14811435Y-12782562D02*
X14811435Y-12830181D01*
X14811435Y-12830181D02*
X14801911Y-12868276D01*
X14801911Y-12868276D02*
X14792387Y-12887324D01*
X14792387Y-12887324D02*
X14782863Y-12896848D01*
X14782863Y-12896848D02*
X14763816Y-12906372D01*
X14763816Y-12906372D02*
X14744768Y-12906372D01*
X14744768Y-12906372D02*
X14725720Y-12896848D01*
X14725720Y-12896848D02*
X14716197Y-12887324D01*
X14716197Y-12887324D02*
X14706673Y-12868276D01*
X14706673Y-12868276D02*
X14697149Y-12830181D01*
X14697149Y-12830181D02*
X14697149Y-12782562D01*
X14697149Y-12782562D02*
X14706673Y-12744467D01*
X14706673Y-12744467D02*
X14716197Y-12725419D01*
X14716197Y-12725419D02*
X14725720Y-12715896D01*
X14725720Y-12715896D02*
X14744768Y-12706372D01*
X14897149Y-12887324D02*
X14906673Y-12896848D01*
X14906673Y-12896848D02*
X14897149Y-12906372D01*
X14897149Y-12906372D02*
X14887625Y-12896848D01*
X14887625Y-12896848D02*
X14897149Y-12887324D01*
X14897149Y-12887324D02*
X14897149Y-12906372D01*
X15030482Y-12706372D02*
X15049530Y-12706372D01*
X15049530Y-12706372D02*
X15068578Y-12715896D01*
X15068578Y-12715896D02*
X15078101Y-12725419D01*
X15078101Y-12725419D02*
X15087625Y-12744467D01*
X15087625Y-12744467D02*
X15097149Y-12782562D01*
X15097149Y-12782562D02*
X15097149Y-12830181D01*
X15097149Y-12830181D02*
X15087625Y-12868276D01*
X15087625Y-12868276D02*
X15078101Y-12887324D01*
X15078101Y-12887324D02*
X15068578Y-12896848D01*
X15068578Y-12896848D02*
X15049530Y-12906372D01*
X15049530Y-12906372D02*
X15030482Y-12906372D01*
X15030482Y-12906372D02*
X15011435Y-12896848D01*
X15011435Y-12896848D02*
X15001911Y-12887324D01*
X15001911Y-12887324D02*
X14992387Y-12868276D01*
X14992387Y-12868276D02*
X14982863Y-12830181D01*
X14982863Y-12830181D02*
X14982863Y-12782562D01*
X14982863Y-12782562D02*
X14992387Y-12744467D01*
X14992387Y-12744467D02*
X15001911Y-12725419D01*
X15001911Y-12725419D02*
X15011435Y-12715896D01*
X15011435Y-12715896D02*
X15030482Y-12706372D01*
X15287625Y-12906372D02*
X15173340Y-12906372D01*
X15230482Y-12906372D02*
X15230482Y-12706372D01*
X15230482Y-12706372D02*
X15211435Y-12734943D01*
X15211435Y-12734943D02*
X15192387Y-12753991D01*
X15192387Y-12753991D02*
X15173340Y-12763515D01*
X15411435Y-12706372D02*
X15430482Y-12706372D01*
X15430482Y-12706372D02*
X15449530Y-12715896D01*
X15449530Y-12715896D02*
X15459054Y-12725419D01*
X15459054Y-12725419D02*
X15468578Y-12744467D01*
X15468578Y-12744467D02*
X15478101Y-12782562D01*
X15478101Y-12782562D02*
X15478101Y-12830181D01*
X15478101Y-12830181D02*
X15468578Y-12868276D01*
X15468578Y-12868276D02*
X15459054Y-12887324D01*
X15459054Y-12887324D02*
X15449530Y-12896848D01*
X15449530Y-12896848D02*
X15430482Y-12906372D01*
X15430482Y-12906372D02*
X15411435Y-12906372D01*
X15411435Y-12906372D02*
X15392387Y-12896848D01*
X15392387Y-12896848D02*
X15382863Y-12887324D01*
X15382863Y-12887324D02*
X15373340Y-12868276D01*
X15373340Y-12868276D02*
X15363816Y-12830181D01*
X15363816Y-12830181D02*
X15363816Y-12782562D01*
X15363816Y-12782562D02*
X15373340Y-12744467D01*
X15373340Y-12744467D02*
X15382863Y-12725419D01*
X15382863Y-12725419D02*
X15392387Y-12715896D01*
X15392387Y-12715896D02*
X15411435Y-12706372D01*
X15601911Y-12706372D02*
X15620959Y-12706372D01*
X15620959Y-12706372D02*
X15640006Y-12715896D01*
X15640006Y-12715896D02*
X15649530Y-12725419D01*
X15649530Y-12725419D02*
X15659054Y-12744467D01*
X15659054Y-12744467D02*
X15668578Y-12782562D01*
X15668578Y-12782562D02*
X15668578Y-12830181D01*
X15668578Y-12830181D02*
X15659054Y-12868276D01*
X15659054Y-12868276D02*
X15649530Y-12887324D01*
X15649530Y-12887324D02*
X15640006Y-12896848D01*
X15640006Y-12896848D02*
X15620959Y-12906372D01*
X15620959Y-12906372D02*
X15601911Y-12906372D01*
X15601911Y-12906372D02*
X15582863Y-12896848D01*
X15582863Y-12896848D02*
X15573340Y-12887324D01*
X15573340Y-12887324D02*
X15563816Y-12868276D01*
X15563816Y-12868276D02*
X15554292Y-12830181D01*
X15554292Y-12830181D02*
X15554292Y-12782562D01*
X15554292Y-12782562D02*
X15563816Y-12744467D01*
X15563816Y-12744467D02*
X15573340Y-12725419D01*
X15573340Y-12725419D02*
X15582863Y-12715896D01*
X15582863Y-12715896D02*
X15601911Y-12706372D01*
X15744768Y-12706372D02*
X15744768Y-12744467D01*
X15820959Y-12706372D02*
X15820959Y-12744467D01*
X16116197Y-12982562D02*
X16106673Y-12973038D01*
X16106673Y-12973038D02*
X16087625Y-12944467D01*
X16087625Y-12944467D02*
X16078102Y-12925419D01*
X16078102Y-12925419D02*
X16068578Y-12896848D01*
X16068578Y-12896848D02*
X16059054Y-12849229D01*
X16059054Y-12849229D02*
X16059054Y-12811134D01*
X16059054Y-12811134D02*
X16068578Y-12763515D01*
X16068578Y-12763515D02*
X16078102Y-12734943D01*
X16078102Y-12734943D02*
X16087625Y-12715896D01*
X16087625Y-12715896D02*
X16106673Y-12687324D01*
X16106673Y-12687324D02*
X16116197Y-12677800D01*
X16173340Y-12706372D02*
X16306673Y-12706372D01*
X16306673Y-12706372D02*
X16220959Y-12906372D01*
X16535244Y-12906372D02*
X16535244Y-12706372D01*
X16620959Y-12906372D02*
X16620959Y-12801610D01*
X16620959Y-12801610D02*
X16611435Y-12782562D01*
X16611435Y-12782562D02*
X16592387Y-12773038D01*
X16592387Y-12773038D02*
X16563816Y-12773038D01*
X16563816Y-12773038D02*
X16544768Y-12782562D01*
X16544768Y-12782562D02*
X16535244Y-12792086D01*
X16744768Y-12906372D02*
X16725721Y-12896848D01*
X16725721Y-12896848D02*
X16716197Y-12887324D01*
X16716197Y-12887324D02*
X16706673Y-12868276D01*
X16706673Y-12868276D02*
X16706673Y-12811134D01*
X16706673Y-12811134D02*
X16716197Y-12792086D01*
X16716197Y-12792086D02*
X16725721Y-12782562D01*
X16725721Y-12782562D02*
X16744768Y-12773038D01*
X16744768Y-12773038D02*
X16773340Y-12773038D01*
X16773340Y-12773038D02*
X16792387Y-12782562D01*
X16792387Y-12782562D02*
X16801911Y-12792086D01*
X16801911Y-12792086D02*
X16811435Y-12811134D01*
X16811435Y-12811134D02*
X16811435Y-12868276D01*
X16811435Y-12868276D02*
X16801911Y-12887324D01*
X16801911Y-12887324D02*
X16792387Y-12896848D01*
X16792387Y-12896848D02*
X16773340Y-12906372D01*
X16773340Y-12906372D02*
X16744768Y-12906372D01*
X16925721Y-12906372D02*
X16906673Y-12896848D01*
X16906673Y-12896848D02*
X16897149Y-12877800D01*
X16897149Y-12877800D02*
X16897149Y-12706372D01*
X17078102Y-12896848D02*
X17059054Y-12906372D01*
X17059054Y-12906372D02*
X17020959Y-12906372D01*
X17020959Y-12906372D02*
X17001911Y-12896848D01*
X17001911Y-12896848D02*
X16992387Y-12877800D01*
X16992387Y-12877800D02*
X16992387Y-12801610D01*
X16992387Y-12801610D02*
X17001911Y-12782562D01*
X17001911Y-12782562D02*
X17020959Y-12773038D01*
X17020959Y-12773038D02*
X17059054Y-12773038D01*
X17059054Y-12773038D02*
X17078102Y-12782562D01*
X17078102Y-12782562D02*
X17087626Y-12801610D01*
X17087626Y-12801610D02*
X17087626Y-12820657D01*
X17087626Y-12820657D02*
X16992387Y-12839705D01*
X17163816Y-12896848D02*
X17182864Y-12906372D01*
X17182864Y-12906372D02*
X17220959Y-12906372D01*
X17220959Y-12906372D02*
X17240007Y-12896848D01*
X17240007Y-12896848D02*
X17249530Y-12877800D01*
X17249530Y-12877800D02*
X17249530Y-12868276D01*
X17249530Y-12868276D02*
X17240007Y-12849229D01*
X17240007Y-12849229D02*
X17220959Y-12839705D01*
X17220959Y-12839705D02*
X17192387Y-12839705D01*
X17192387Y-12839705D02*
X17173340Y-12830181D01*
X17173340Y-12830181D02*
X17163816Y-12811134D01*
X17163816Y-12811134D02*
X17163816Y-12801610D01*
X17163816Y-12801610D02*
X17173340Y-12782562D01*
X17173340Y-12782562D02*
X17192387Y-12773038D01*
X17192387Y-12773038D02*
X17220959Y-12773038D01*
X17220959Y-12773038D02*
X17240007Y-12782562D01*
X17316197Y-12982562D02*
X17325721Y-12973038D01*
X17325721Y-12973038D02*
X17344768Y-12944467D01*
X17344768Y-12944467D02*
X17354292Y-12925419D01*
X17354292Y-12925419D02*
X17363816Y-12896848D01*
X17363816Y-12896848D02*
X17373340Y-12849229D01*
X17373340Y-12849229D02*
X17373340Y-12811134D01*
X17373340Y-12811134D02*
X17363816Y-12763515D01*
X17363816Y-12763515D02*
X17354292Y-12734943D01*
X17354292Y-12734943D02*
X17344768Y-12715896D01*
X17344768Y-12715896D02*
X17325721Y-12687324D01*
X17325721Y-12687324D02*
X17316197Y-12677800D01*
D10*
X12503634Y-13041388D02*
X12503634Y-13116388D01*
X12466134Y-13078888D02*
X12541134Y-13078888D01*
D11*
X12840006Y-12970372D02*
X12859054Y-12970372D01*
X12859054Y-12970372D02*
X12878101Y-12979896D01*
X12878101Y-12979896D02*
X12887625Y-12989419D01*
X12887625Y-12989419D02*
X12897149Y-13008467D01*
X12897149Y-13008467D02*
X12906673Y-13046562D01*
X12906673Y-13046562D02*
X12906673Y-13094181D01*
X12906673Y-13094181D02*
X12897149Y-13132276D01*
X12897149Y-13132276D02*
X12887625Y-13151324D01*
X12887625Y-13151324D02*
X12878101Y-13160848D01*
X12878101Y-13160848D02*
X12859054Y-13170372D01*
X12859054Y-13170372D02*
X12840006Y-13170372D01*
X12840006Y-13170372D02*
X12820958Y-13160848D01*
X12820958Y-13160848D02*
X12811435Y-13151324D01*
X12811435Y-13151324D02*
X12801911Y-13132276D01*
X12801911Y-13132276D02*
X12792387Y-13094181D01*
X12792387Y-13094181D02*
X12792387Y-13046562D01*
X12792387Y-13046562D02*
X12801911Y-13008467D01*
X12801911Y-13008467D02*
X12811435Y-12989419D01*
X12811435Y-12989419D02*
X12820958Y-12979896D01*
X12820958Y-12979896D02*
X12840006Y-12970372D01*
X12992387Y-13151324D02*
X13001911Y-13160848D01*
X13001911Y-13160848D02*
X12992387Y-13170372D01*
X12992387Y-13170372D02*
X12982863Y-13160848D01*
X12982863Y-13160848D02*
X12992387Y-13151324D01*
X12992387Y-13151324D02*
X12992387Y-13170372D01*
X13068577Y-12970372D02*
X13201911Y-12970372D01*
X13201911Y-12970372D02*
X13116196Y-13170372D01*
X13373339Y-12970372D02*
X13278101Y-12970372D01*
X13278101Y-12970372D02*
X13268577Y-13065610D01*
X13268577Y-13065610D02*
X13278101Y-13056086D01*
X13278101Y-13056086D02*
X13297149Y-13046562D01*
X13297149Y-13046562D02*
X13344768Y-13046562D01*
X13344768Y-13046562D02*
X13363816Y-13056086D01*
X13363816Y-13056086D02*
X13373339Y-13065610D01*
X13373339Y-13065610D02*
X13382863Y-13084657D01*
X13382863Y-13084657D02*
X13382863Y-13132276D01*
X13382863Y-13132276D02*
X13373339Y-13151324D01*
X13373339Y-13151324D02*
X13363816Y-13160848D01*
X13363816Y-13160848D02*
X13344768Y-13170372D01*
X13344768Y-13170372D02*
X13297149Y-13170372D01*
X13297149Y-13170372D02*
X13278101Y-13160848D01*
X13278101Y-13160848D02*
X13268577Y-13151324D01*
X13506673Y-12970372D02*
X13525720Y-12970372D01*
X13525720Y-12970372D02*
X13544768Y-12979896D01*
X13544768Y-12979896D02*
X13554292Y-12989419D01*
X13554292Y-12989419D02*
X13563816Y-13008467D01*
X13563816Y-13008467D02*
X13573339Y-13046562D01*
X13573339Y-13046562D02*
X13573339Y-13094181D01*
X13573339Y-13094181D02*
X13563816Y-13132276D01*
X13563816Y-13132276D02*
X13554292Y-13151324D01*
X13554292Y-13151324D02*
X13544768Y-13160848D01*
X13544768Y-13160848D02*
X13525720Y-13170372D01*
X13525720Y-13170372D02*
X13506673Y-13170372D01*
X13506673Y-13170372D02*
X13487625Y-13160848D01*
X13487625Y-13160848D02*
X13478101Y-13151324D01*
X13478101Y-13151324D02*
X13468577Y-13132276D01*
X13468577Y-13132276D02*
X13459054Y-13094181D01*
X13459054Y-13094181D02*
X13459054Y-13046562D01*
X13459054Y-13046562D02*
X13468577Y-13008467D01*
X13468577Y-13008467D02*
X13478101Y-12989419D01*
X13478101Y-12989419D02*
X13487625Y-12979896D01*
X13487625Y-12979896D02*
X13506673Y-12970372D01*
X13659054Y-13170372D02*
X13659054Y-13037038D01*
X13659054Y-13056086D02*
X13668577Y-13046562D01*
X13668577Y-13046562D02*
X13687625Y-13037038D01*
X13687625Y-13037038D02*
X13716197Y-13037038D01*
X13716197Y-13037038D02*
X13735244Y-13046562D01*
X13735244Y-13046562D02*
X13744768Y-13065610D01*
X13744768Y-13065610D02*
X13744768Y-13170372D01*
X13744768Y-13065610D02*
X13754292Y-13046562D01*
X13754292Y-13046562D02*
X13773339Y-13037038D01*
X13773339Y-13037038D02*
X13801911Y-13037038D01*
X13801911Y-13037038D02*
X13820958Y-13046562D01*
X13820958Y-13046562D02*
X13830482Y-13065610D01*
X13830482Y-13065610D02*
X13830482Y-13170372D01*
X13925720Y-13170372D02*
X13925720Y-13037038D01*
X13925720Y-13056086D02*
X13935244Y-13046562D01*
X13935244Y-13046562D02*
X13954292Y-13037038D01*
X13954292Y-13037038D02*
X13982863Y-13037038D01*
X13982863Y-13037038D02*
X14001911Y-13046562D01*
X14001911Y-13046562D02*
X14011435Y-13065610D01*
X14011435Y-13065610D02*
X14011435Y-13170372D01*
X14011435Y-13065610D02*
X14020958Y-13046562D01*
X14020958Y-13046562D02*
X14040006Y-13037038D01*
X14040006Y-13037038D02*
X14068577Y-13037038D01*
X14068577Y-13037038D02*
X14087625Y-13046562D01*
X14087625Y-13046562D02*
X14097149Y-13065610D01*
X14097149Y-13065610D02*
X14097149Y-13170372D01*
X14487625Y-12960848D02*
X14316197Y-13217991D01*
X14744768Y-12970372D02*
X14763816Y-12970372D01*
X14763816Y-12970372D02*
X14782863Y-12979896D01*
X14782863Y-12979896D02*
X14792387Y-12989419D01*
X14792387Y-12989419D02*
X14801911Y-13008467D01*
X14801911Y-13008467D02*
X14811435Y-13046562D01*
X14811435Y-13046562D02*
X14811435Y-13094181D01*
X14811435Y-13094181D02*
X14801911Y-13132276D01*
X14801911Y-13132276D02*
X14792387Y-13151324D01*
X14792387Y-13151324D02*
X14782863Y-13160848D01*
X14782863Y-13160848D02*
X14763816Y-13170372D01*
X14763816Y-13170372D02*
X14744768Y-13170372D01*
X14744768Y-13170372D02*
X14725720Y-13160848D01*
X14725720Y-13160848D02*
X14716197Y-13151324D01*
X14716197Y-13151324D02*
X14706673Y-13132276D01*
X14706673Y-13132276D02*
X14697149Y-13094181D01*
X14697149Y-13094181D02*
X14697149Y-13046562D01*
X14697149Y-13046562D02*
X14706673Y-13008467D01*
X14706673Y-13008467D02*
X14716197Y-12989419D01*
X14716197Y-12989419D02*
X14725720Y-12979896D01*
X14725720Y-12979896D02*
X14744768Y-12970372D01*
X14897149Y-13151324D02*
X14906673Y-13160848D01*
X14906673Y-13160848D02*
X14897149Y-13170372D01*
X14897149Y-13170372D02*
X14887625Y-13160848D01*
X14887625Y-13160848D02*
X14897149Y-13151324D01*
X14897149Y-13151324D02*
X14897149Y-13170372D01*
X15030482Y-12970372D02*
X15049530Y-12970372D01*
X15049530Y-12970372D02*
X15068578Y-12979896D01*
X15068578Y-12979896D02*
X15078101Y-12989419D01*
X15078101Y-12989419D02*
X15087625Y-13008467D01*
X15087625Y-13008467D02*
X15097149Y-13046562D01*
X15097149Y-13046562D02*
X15097149Y-13094181D01*
X15097149Y-13094181D02*
X15087625Y-13132276D01*
X15087625Y-13132276D02*
X15078101Y-13151324D01*
X15078101Y-13151324D02*
X15068578Y-13160848D01*
X15068578Y-13160848D02*
X15049530Y-13170372D01*
X15049530Y-13170372D02*
X15030482Y-13170372D01*
X15030482Y-13170372D02*
X15011435Y-13160848D01*
X15011435Y-13160848D02*
X15001911Y-13151324D01*
X15001911Y-13151324D02*
X14992387Y-13132276D01*
X14992387Y-13132276D02*
X14982863Y-13094181D01*
X14982863Y-13094181D02*
X14982863Y-13046562D01*
X14982863Y-13046562D02*
X14992387Y-13008467D01*
X14992387Y-13008467D02*
X15001911Y-12989419D01*
X15001911Y-12989419D02*
X15011435Y-12979896D01*
X15011435Y-12979896D02*
X15030482Y-12970372D01*
X15173340Y-12989419D02*
X15182863Y-12979896D01*
X15182863Y-12979896D02*
X15201911Y-12970372D01*
X15201911Y-12970372D02*
X15249530Y-12970372D01*
X15249530Y-12970372D02*
X15268578Y-12979896D01*
X15268578Y-12979896D02*
X15278101Y-12989419D01*
X15278101Y-12989419D02*
X15287625Y-13008467D01*
X15287625Y-13008467D02*
X15287625Y-13027515D01*
X15287625Y-13027515D02*
X15278101Y-13056086D01*
X15278101Y-13056086D02*
X15163816Y-13170372D01*
X15163816Y-13170372D02*
X15287625Y-13170372D01*
X15382863Y-13170372D02*
X15420959Y-13170372D01*
X15420959Y-13170372D02*
X15440006Y-13160848D01*
X15440006Y-13160848D02*
X15449530Y-13151324D01*
X15449530Y-13151324D02*
X15468578Y-13122753D01*
X15468578Y-13122753D02*
X15478101Y-13084657D01*
X15478101Y-13084657D02*
X15478101Y-13008467D01*
X15478101Y-13008467D02*
X15468578Y-12989419D01*
X15468578Y-12989419D02*
X15459054Y-12979896D01*
X15459054Y-12979896D02*
X15440006Y-12970372D01*
X15440006Y-12970372D02*
X15401911Y-12970372D01*
X15401911Y-12970372D02*
X15382863Y-12979896D01*
X15382863Y-12979896D02*
X15373340Y-12989419D01*
X15373340Y-12989419D02*
X15363816Y-13008467D01*
X15363816Y-13008467D02*
X15363816Y-13056086D01*
X15363816Y-13056086D02*
X15373340Y-13075134D01*
X15373340Y-13075134D02*
X15382863Y-13084657D01*
X15382863Y-13084657D02*
X15401911Y-13094181D01*
X15401911Y-13094181D02*
X15440006Y-13094181D01*
X15440006Y-13094181D02*
X15459054Y-13084657D01*
X15459054Y-13084657D02*
X15468578Y-13075134D01*
X15468578Y-13075134D02*
X15478101Y-13056086D01*
X15659054Y-12970372D02*
X15563816Y-12970372D01*
X15563816Y-12970372D02*
X15554292Y-13065610D01*
X15554292Y-13065610D02*
X15563816Y-13056086D01*
X15563816Y-13056086D02*
X15582863Y-13046562D01*
X15582863Y-13046562D02*
X15630482Y-13046562D01*
X15630482Y-13046562D02*
X15649530Y-13056086D01*
X15649530Y-13056086D02*
X15659054Y-13065610D01*
X15659054Y-13065610D02*
X15668578Y-13084657D01*
X15668578Y-13084657D02*
X15668578Y-13132276D01*
X15668578Y-13132276D02*
X15659054Y-13151324D01*
X15659054Y-13151324D02*
X15649530Y-13160848D01*
X15649530Y-13160848D02*
X15630482Y-13170372D01*
X15630482Y-13170372D02*
X15582863Y-13170372D01*
X15582863Y-13170372D02*
X15563816Y-13160848D01*
X15563816Y-13160848D02*
X15554292Y-13151324D01*
X15744768Y-12970372D02*
X15744768Y-13008467D01*
X15820959Y-12970372D02*
X15820959Y-13008467D01*
X16116197Y-13246562D02*
X16106673Y-13237038D01*
X16106673Y-13237038D02*
X16087625Y-13208467D01*
X16087625Y-13208467D02*
X16078102Y-13189419D01*
X16078102Y-13189419D02*
X16068578Y-13160848D01*
X16068578Y-13160848D02*
X16059054Y-13113229D01*
X16059054Y-13113229D02*
X16059054Y-13075134D01*
X16059054Y-13075134D02*
X16068578Y-13027515D01*
X16068578Y-13027515D02*
X16078102Y-12998943D01*
X16078102Y-12998943D02*
X16087625Y-12979896D01*
X16087625Y-12979896D02*
X16106673Y-12951324D01*
X16106673Y-12951324D02*
X16116197Y-12941800D01*
X16278102Y-12970372D02*
X16240006Y-12970372D01*
X16240006Y-12970372D02*
X16220959Y-12979896D01*
X16220959Y-12979896D02*
X16211435Y-12989419D01*
X16211435Y-12989419D02*
X16192387Y-13017991D01*
X16192387Y-13017991D02*
X16182863Y-13056086D01*
X16182863Y-13056086D02*
X16182863Y-13132276D01*
X16182863Y-13132276D02*
X16192387Y-13151324D01*
X16192387Y-13151324D02*
X16201911Y-13160848D01*
X16201911Y-13160848D02*
X16220959Y-13170372D01*
X16220959Y-13170372D02*
X16259054Y-13170372D01*
X16259054Y-13170372D02*
X16278102Y-13160848D01*
X16278102Y-13160848D02*
X16287625Y-13151324D01*
X16287625Y-13151324D02*
X16297149Y-13132276D01*
X16297149Y-13132276D02*
X16297149Y-13084657D01*
X16297149Y-13084657D02*
X16287625Y-13065610D01*
X16287625Y-13065610D02*
X16278102Y-13056086D01*
X16278102Y-13056086D02*
X16259054Y-13046562D01*
X16259054Y-13046562D02*
X16220959Y-13046562D01*
X16220959Y-13046562D02*
X16201911Y-13056086D01*
X16201911Y-13056086D02*
X16192387Y-13065610D01*
X16192387Y-13065610D02*
X16182863Y-13084657D01*
X16535244Y-13170372D02*
X16535244Y-12970372D01*
X16620959Y-13170372D02*
X16620959Y-13065610D01*
X16620959Y-13065610D02*
X16611435Y-13046562D01*
X16611435Y-13046562D02*
X16592387Y-13037038D01*
X16592387Y-13037038D02*
X16563816Y-13037038D01*
X16563816Y-13037038D02*
X16544768Y-13046562D01*
X16544768Y-13046562D02*
X16535244Y-13056086D01*
X16744768Y-13170372D02*
X16725721Y-13160848D01*
X16725721Y-13160848D02*
X16716197Y-13151324D01*
X16716197Y-13151324D02*
X16706673Y-13132276D01*
X16706673Y-13132276D02*
X16706673Y-13075134D01*
X16706673Y-13075134D02*
X16716197Y-13056086D01*
X16716197Y-13056086D02*
X16725721Y-13046562D01*
X16725721Y-13046562D02*
X16744768Y-13037038D01*
X16744768Y-13037038D02*
X16773340Y-13037038D01*
X16773340Y-13037038D02*
X16792387Y-13046562D01*
X16792387Y-13046562D02*
X16801911Y-13056086D01*
X16801911Y-13056086D02*
X16811435Y-13075134D01*
X16811435Y-13075134D02*
X16811435Y-13132276D01*
X16811435Y-13132276D02*
X16801911Y-13151324D01*
X16801911Y-13151324D02*
X16792387Y-13160848D01*
X16792387Y-13160848D02*
X16773340Y-13170372D01*
X16773340Y-13170372D02*
X16744768Y-13170372D01*
X16925721Y-13170372D02*
X16906673Y-13160848D01*
X16906673Y-13160848D02*
X16897149Y-13141800D01*
X16897149Y-13141800D02*
X16897149Y-12970372D01*
X17078102Y-13160848D02*
X17059054Y-13170372D01*
X17059054Y-13170372D02*
X17020959Y-13170372D01*
X17020959Y-13170372D02*
X17001911Y-13160848D01*
X17001911Y-13160848D02*
X16992387Y-13141800D01*
X16992387Y-13141800D02*
X16992387Y-13065610D01*
X16992387Y-13065610D02*
X17001911Y-13046562D01*
X17001911Y-13046562D02*
X17020959Y-13037038D01*
X17020959Y-13037038D02*
X17059054Y-13037038D01*
X17059054Y-13037038D02*
X17078102Y-13046562D01*
X17078102Y-13046562D02*
X17087626Y-13065610D01*
X17087626Y-13065610D02*
X17087626Y-13084657D01*
X17087626Y-13084657D02*
X16992387Y-13103705D01*
X17163816Y-13160848D02*
X17182864Y-13170372D01*
X17182864Y-13170372D02*
X17220959Y-13170372D01*
X17220959Y-13170372D02*
X17240007Y-13160848D01*
X17240007Y-13160848D02*
X17249530Y-13141800D01*
X17249530Y-13141800D02*
X17249530Y-13132276D01*
X17249530Y-13132276D02*
X17240007Y-13113229D01*
X17240007Y-13113229D02*
X17220959Y-13103705D01*
X17220959Y-13103705D02*
X17192387Y-13103705D01*
X17192387Y-13103705D02*
X17173340Y-13094181D01*
X17173340Y-13094181D02*
X17163816Y-13075134D01*
X17163816Y-13075134D02*
X17163816Y-13065610D01*
X17163816Y-13065610D02*
X17173340Y-13046562D01*
X17173340Y-13046562D02*
X17192387Y-13037038D01*
X17192387Y-13037038D02*
X17220959Y-13037038D01*
X17220959Y-13037038D02*
X17240007Y-13046562D01*
X17316197Y-13246562D02*
X17325721Y-13237038D01*
X17325721Y-13237038D02*
X17344768Y-13208467D01*
X17344768Y-13208467D02*
X17354292Y-13189419D01*
X17354292Y-13189419D02*
X17363816Y-13160848D01*
X17363816Y-13160848D02*
X17373340Y-13113229D01*
X17373340Y-13113229D02*
X17373340Y-13075134D01*
X17373340Y-13075134D02*
X17363816Y-13027515D01*
X17363816Y-13027515D02*
X17354292Y-12998943D01*
X17354292Y-12998943D02*
X17344768Y-12979896D01*
X17344768Y-12979896D02*
X17325721Y-12951324D01*
X17325721Y-12951324D02*
X17316197Y-12941800D01*
M02*
