%TF.GenerationSoftware,KiCad,Pcbnew,9.0.0*%
%TF.CreationDate,2025-03-27T12:32:35-07:00*%
%TF.ProjectId,SNES2VGA_Sub_board,534e4553-3256-4474-915f-5375625f626f,1*%
%TF.SameCoordinates,Original*%
%TF.FileFunction,Drillmap*%
%TF.FilePolarity,Positive*%
%FSLAX45Y45*%
G04 Gerber Fmt 4.5, Leading zero omitted, Abs format (unit mm)*
G04 Created by KiCad (PCBNEW 9.0.0) date 2025-03-27 12:32:35*
%MOMM*%
%LPD*%
G01*
G04 APERTURE LIST*
%ADD10C,0.100000*%
%ADD11C,0.200000*%
G04 APERTURE END LIST*
D10*
X12546134Y-11905888D02*
X12546134Y-11177888D01*
X14536134Y-11177888D02*
X14536134Y-11905888D01*
X14536134Y-11905888D02*
X12546134Y-11905888D01*
X12546134Y-11177888D02*
X14536134Y-11177888D01*
D11*
X12801911Y-12222372D02*
X12801911Y-12022372D01*
X12801911Y-12022372D02*
X12849530Y-12022372D01*
X12849530Y-12022372D02*
X12878101Y-12031896D01*
X12878101Y-12031896D02*
X12897149Y-12050943D01*
X12897149Y-12050943D02*
X12906673Y-12069991D01*
X12906673Y-12069991D02*
X12916196Y-12108086D01*
X12916196Y-12108086D02*
X12916196Y-12136657D01*
X12916196Y-12136657D02*
X12906673Y-12174753D01*
X12906673Y-12174753D02*
X12897149Y-12193800D01*
X12897149Y-12193800D02*
X12878101Y-12212848D01*
X12878101Y-12212848D02*
X12849530Y-12222372D01*
X12849530Y-12222372D02*
X12801911Y-12222372D01*
X13001911Y-12222372D02*
X13001911Y-12089038D01*
X13001911Y-12127134D02*
X13011435Y-12108086D01*
X13011435Y-12108086D02*
X13020958Y-12098562D01*
X13020958Y-12098562D02*
X13040006Y-12089038D01*
X13040006Y-12089038D02*
X13059054Y-12089038D01*
X13125720Y-12222372D02*
X13125720Y-12089038D01*
X13125720Y-12022372D02*
X13116196Y-12031896D01*
X13116196Y-12031896D02*
X13125720Y-12041419D01*
X13125720Y-12041419D02*
X13135244Y-12031896D01*
X13135244Y-12031896D02*
X13125720Y-12022372D01*
X13125720Y-12022372D02*
X13125720Y-12041419D01*
X13249530Y-12222372D02*
X13230482Y-12212848D01*
X13230482Y-12212848D02*
X13220958Y-12193800D01*
X13220958Y-12193800D02*
X13220958Y-12022372D01*
X13354292Y-12222372D02*
X13335244Y-12212848D01*
X13335244Y-12212848D02*
X13325720Y-12193800D01*
X13325720Y-12193800D02*
X13325720Y-12022372D01*
X13582863Y-12222372D02*
X13582863Y-12022372D01*
X13582863Y-12022372D02*
X13649530Y-12165229D01*
X13649530Y-12165229D02*
X13716196Y-12022372D01*
X13716196Y-12022372D02*
X13716196Y-12222372D01*
X13897149Y-12222372D02*
X13897149Y-12117610D01*
X13897149Y-12117610D02*
X13887625Y-12098562D01*
X13887625Y-12098562D02*
X13868577Y-12089038D01*
X13868577Y-12089038D02*
X13830482Y-12089038D01*
X13830482Y-12089038D02*
X13811435Y-12098562D01*
X13897149Y-12212848D02*
X13878101Y-12222372D01*
X13878101Y-12222372D02*
X13830482Y-12222372D01*
X13830482Y-12222372D02*
X13811435Y-12212848D01*
X13811435Y-12212848D02*
X13801911Y-12193800D01*
X13801911Y-12193800D02*
X13801911Y-12174753D01*
X13801911Y-12174753D02*
X13811435Y-12155705D01*
X13811435Y-12155705D02*
X13830482Y-12146181D01*
X13830482Y-12146181D02*
X13878101Y-12146181D01*
X13878101Y-12146181D02*
X13897149Y-12136657D01*
X13992387Y-12089038D02*
X13992387Y-12289038D01*
X13992387Y-12098562D02*
X14011435Y-12089038D01*
X14011435Y-12089038D02*
X14049530Y-12089038D01*
X14049530Y-12089038D02*
X14068577Y-12098562D01*
X14068577Y-12098562D02*
X14078101Y-12108086D01*
X14078101Y-12108086D02*
X14087625Y-12127134D01*
X14087625Y-12127134D02*
X14087625Y-12184276D01*
X14087625Y-12184276D02*
X14078101Y-12203324D01*
X14078101Y-12203324D02*
X14068577Y-12212848D01*
X14068577Y-12212848D02*
X14049530Y-12222372D01*
X14049530Y-12222372D02*
X14011435Y-12222372D01*
X14011435Y-12222372D02*
X13992387Y-12212848D01*
X14173339Y-12203324D02*
X14182863Y-12212848D01*
X14182863Y-12212848D02*
X14173339Y-12222372D01*
X14173339Y-12222372D02*
X14163816Y-12212848D01*
X14163816Y-12212848D02*
X14173339Y-12203324D01*
X14173339Y-12203324D02*
X14173339Y-12222372D01*
X14173339Y-12098562D02*
X14182863Y-12108086D01*
X14182863Y-12108086D02*
X14173339Y-12117610D01*
X14173339Y-12117610D02*
X14163816Y-12108086D01*
X14163816Y-12108086D02*
X14173339Y-12098562D01*
X14173339Y-12098562D02*
X14173339Y-12117610D01*
M02*
