G04 #@! TF.GenerationSoftware,KiCad,Pcbnew,9.0.0*
G04 #@! TF.CreationDate,2025-03-27T12:35:43-07:00*
G04 #@! TF.ProjectId,SNES2VGA_Sub_board,534e4553-3256-4474-915f-5375625f626f,1*
G04 #@! TF.SameCoordinates,Original*
G04 #@! TF.FileFunction,Copper,L1,Top*
G04 #@! TF.FilePolarity,Positive*
%FSLAX46Y46*%
G04 Gerber Fmt 4.6, Leading zero omitted, Abs format (unit mm)*
G04 Created by KiCad (PCBNEW 9.0.0) date 2025-03-27 12:35:43*
%MOMM*%
%LPD*%
G01*
G04 APERTURE LIST*
G04 Aperture macros list*
%AMRoundRect*
0 Rectangle with rounded corners*
0 $1 Rounding radius*
0 $2 $3 $4 $5 $6 $7 $8 $9 X,Y pos of 4 corners*
0 Add a 4 corners polygon primitive as box body*
4,1,4,$2,$3,$4,$5,$6,$7,$8,$9,$2,$3,0*
0 Add four circle primitives for the rounded corners*
1,1,$1+$1,$2,$3*
1,1,$1+$1,$4,$5*
1,1,$1+$1,$6,$7*
1,1,$1+$1,$8,$9*
0 Add four rect primitives between the rounded corners*
20,1,$1+$1,$2,$3,$4,$5,0*
20,1,$1+$1,$4,$5,$6,$7,0*
20,1,$1+$1,$6,$7,$8,$9,0*
20,1,$1+$1,$8,$9,$2,$3,0*%
G04 Aperture macros list end*
G04 #@! TA.AperFunction,ConnectorPad*
%ADD10RoundRect,0.475000X-0.475000X-1.125000X0.475000X-1.125000X0.475000X1.125000X-0.475000X1.125000X0*%
G04 #@! TD*
G04 #@! TA.AperFunction,ComponentPad*
%ADD11RoundRect,0.375000X-0.375000X-0.625000X0.375000X-0.625000X0.375000X0.625000X-0.375000X0.625000X0*%
G04 #@! TD*
G04 #@! TA.AperFunction,ComponentPad*
%ADD12C,0.400000*%
G04 #@! TD*
G04 #@! TA.AperFunction,ViaPad*
%ADD13C,0.508000*%
G04 #@! TD*
G04 #@! TA.AperFunction,Conductor*
%ADD14C,0.300000*%
G04 #@! TD*
G04 APERTURE END LIST*
D10*
X129361340Y-113378880D03*
D11*
X129361340Y-118798880D03*
D12*
X129351340Y-118108880D03*
D10*
X131781340Y-113378880D03*
X134201340Y-113378880D03*
X136621340Y-113378880D03*
X139041340Y-113378880D03*
X141461340Y-113378880D03*
D11*
X131781340Y-118798880D03*
X134201340Y-118798880D03*
X136621340Y-118798880D03*
X139041340Y-118798880D03*
X141461340Y-118798880D03*
D12*
X131771340Y-118108880D03*
X134191340Y-118108880D03*
X136611340Y-118108880D03*
X139031340Y-118108880D03*
X141451340Y-118108880D03*
D13*
X130571340Y-116380020D03*
X128091340Y-116380020D03*
X132961340Y-116380020D03*
X135404860Y-116380020D03*
X140241340Y-116380020D03*
X142611340Y-116380020D03*
X137851340Y-116380020D03*
D14*
X141461340Y-113787020D02*
X141461340Y-117908880D01*
X139031340Y-113755700D02*
X139031340Y-117868880D01*
X134181340Y-118038880D02*
X134181340Y-113571400D01*
X131801340Y-117906360D02*
X131801340Y-113448880D01*
X129371340Y-113917020D02*
X129371340Y-118118880D01*
G04 #@! TA.AperFunction,Conductor*
G36*
X134327859Y-117712307D02*
G01*
X134331286Y-117720580D01*
X134331286Y-117720633D01*
X134331141Y-117752343D01*
X134331141Y-117752395D01*
X134330791Y-117791542D01*
X134330657Y-117826781D01*
X134331110Y-117858764D01*
X134332516Y-117888036D01*
X134335243Y-117915099D01*
X134335244Y-117915110D01*
X134339666Y-117940581D01*
X134346143Y-117964973D01*
X134346144Y-117964976D01*
X134346146Y-117964981D01*
X134355055Y-117988877D01*
X134362685Y-118004486D01*
X134363355Y-118005855D01*
X134363910Y-118014793D01*
X134361672Y-118018673D01*
X134204317Y-118199575D01*
X134196302Y-118203568D01*
X134187810Y-118200724D01*
X134187492Y-118200436D01*
X134012880Y-118036133D01*
X134009204Y-118027970D01*
X134009941Y-118023514D01*
X134017075Y-118004478D01*
X134024239Y-117978577D01*
X134029097Y-117952451D01*
X134032038Y-117925453D01*
X134033454Y-117896933D01*
X134033735Y-117866247D01*
X134033274Y-117832745D01*
X134032460Y-117795782D01*
X134031685Y-117754709D01*
X134031429Y-117720668D01*
X134034794Y-117712369D01*
X134043041Y-117708880D01*
X134319586Y-117708880D01*
X134327859Y-117712307D01*
G37*
G04 #@! TD.AperFunction*
G04 #@! TA.AperFunction,Conductor*
G36*
X129517826Y-117732307D02*
G01*
X129521253Y-117740580D01*
X129521253Y-117740667D01*
X129521010Y-117773326D01*
X129521008Y-117773463D01*
X129520250Y-117813130D01*
X129520249Y-117813183D01*
X129519402Y-117848956D01*
X129519116Y-117864601D01*
X129518810Y-117881357D01*
X129518817Y-117911057D01*
X129519768Y-117938694D01*
X129522004Y-117964977D01*
X129525870Y-117990519D01*
X129525873Y-117990534D01*
X129531711Y-118016020D01*
X129537530Y-118034640D01*
X129536727Y-118043559D01*
X129533849Y-118047122D01*
X129349646Y-118200483D01*
X129341095Y-118203142D01*
X129333168Y-118198977D01*
X129332883Y-118198620D01*
X129212618Y-118042113D01*
X129186782Y-118008492D01*
X129184459Y-117999845D01*
X129185868Y-117995619D01*
X129193895Y-117981383D01*
X129203105Y-117960240D01*
X129210019Y-117938459D01*
X129214963Y-117915573D01*
X129218259Y-117891115D01*
X129220230Y-117864618D01*
X129221200Y-117835613D01*
X129221493Y-117803633D01*
X129221432Y-117768211D01*
X129221367Y-117740606D01*
X129224774Y-117732326D01*
X129233039Y-117728880D01*
X129509553Y-117728880D01*
X129517826Y-117732307D01*
G37*
G04 #@! TD.AperFunction*
G04 #@! TA.AperFunction,Conductor*
G36*
X128311350Y-111847862D02*
G01*
X128338370Y-111894662D01*
X128328986Y-111947880D01*
X128328569Y-111948594D01*
X128298469Y-111999489D01*
X128253677Y-112153668D01*
X128253675Y-112153676D01*
X128250840Y-112189699D01*
X128250840Y-112189700D01*
X128250840Y-112189706D01*
X128250840Y-114568052D01*
X128250841Y-114568060D01*
X128253320Y-114599581D01*
X128253675Y-114604085D01*
X128253676Y-114604091D01*
X128298469Y-114758270D01*
X128380205Y-114896478D01*
X128380207Y-114896481D01*
X128493738Y-115010012D01*
X128493741Y-115010014D01*
X128493742Y-115010015D01*
X128631947Y-115091749D01*
X128631949Y-115091750D01*
X128683343Y-115106681D01*
X128786136Y-115136545D01*
X128822159Y-115139380D01*
X128981840Y-115139379D01*
X129032620Y-115157861D01*
X129059640Y-115204660D01*
X129060840Y-115218379D01*
X129060840Y-117559380D01*
X129042358Y-117610160D01*
X128995558Y-117637180D01*
X128981842Y-117638380D01*
X128944417Y-117638380D01*
X128858361Y-117648713D01*
X128721421Y-117702715D01*
X128721413Y-117702719D01*
X128604124Y-117791664D01*
X128515179Y-117908953D01*
X128515175Y-117908961D01*
X128461173Y-118045902D01*
X128461172Y-118045907D01*
X128450840Y-118131945D01*
X128450840Y-118131951D01*
X128450841Y-118929380D01*
X128432359Y-118980160D01*
X128385559Y-119007180D01*
X128371841Y-119008380D01*
X125590840Y-119008380D01*
X125540060Y-118989898D01*
X125513040Y-118943098D01*
X125511840Y-118929380D01*
X125511840Y-111908380D01*
X125530322Y-111857600D01*
X125577122Y-111830580D01*
X125590840Y-111829380D01*
X128260570Y-111829380D01*
X128311350Y-111847862D01*
G37*
G04 #@! TD.AperFunction*
G04 #@! TA.AperFunction,Conductor*
G36*
X130731350Y-111847862D02*
G01*
X130758370Y-111894662D01*
X130748986Y-111947880D01*
X130748569Y-111948594D01*
X130718469Y-111999489D01*
X130673677Y-112153668D01*
X130673675Y-112153676D01*
X130670840Y-112189699D01*
X130670840Y-112189700D01*
X130670840Y-112189706D01*
X130670840Y-114568052D01*
X130670841Y-114568060D01*
X130673320Y-114599581D01*
X130673675Y-114604085D01*
X130673676Y-114604091D01*
X130718469Y-114758270D01*
X130800205Y-114896478D01*
X130800207Y-114896481D01*
X130913738Y-115010012D01*
X130913741Y-115010014D01*
X130913742Y-115010015D01*
X131051947Y-115091749D01*
X131051949Y-115091750D01*
X131103343Y-115106681D01*
X131206136Y-115136545D01*
X131242159Y-115139380D01*
X131411840Y-115139379D01*
X131462620Y-115157861D01*
X131489640Y-115204660D01*
X131490840Y-115218379D01*
X131490840Y-117559380D01*
X131472358Y-117610160D01*
X131425558Y-117637180D01*
X131411842Y-117638380D01*
X131364417Y-117638380D01*
X131278361Y-117648713D01*
X131141421Y-117702715D01*
X131141413Y-117702719D01*
X131024124Y-117791664D01*
X130935179Y-117908953D01*
X130935175Y-117908961D01*
X130881173Y-118045902D01*
X130881172Y-118045907D01*
X130870840Y-118131945D01*
X130870840Y-118131951D01*
X130870841Y-118929380D01*
X130852359Y-118980160D01*
X130805559Y-119007180D01*
X130791841Y-119008380D01*
X130350840Y-119008380D01*
X130300060Y-118989898D01*
X130273040Y-118943098D01*
X130271840Y-118929380D01*
X130271839Y-118131957D01*
X130271838Y-118131951D01*
X130261506Y-118045901D01*
X130207503Y-117908958D01*
X130207501Y-117908956D01*
X130207500Y-117908953D01*
X130168199Y-117857129D01*
X130118556Y-117791664D01*
X130068911Y-117754017D01*
X130001266Y-117702719D01*
X130001258Y-117702715D01*
X129864317Y-117648713D01*
X129864312Y-117648712D01*
X129778274Y-117638380D01*
X129778267Y-117638380D01*
X129760840Y-117638380D01*
X129710060Y-117619898D01*
X129683040Y-117573098D01*
X129681840Y-117559380D01*
X129681840Y-115218379D01*
X129700322Y-115167599D01*
X129747122Y-115140579D01*
X129760840Y-115139379D01*
X129900513Y-115139379D01*
X129900520Y-115139379D01*
X129936544Y-115136545D01*
X130090733Y-115091749D01*
X130228938Y-115010015D01*
X130342475Y-114896478D01*
X130424209Y-114758273D01*
X130469005Y-114604084D01*
X130471840Y-114568061D01*
X130471839Y-112189700D01*
X130469005Y-112153676D01*
X130424209Y-111999487D01*
X130394110Y-111948593D01*
X130384171Y-111895477D01*
X130410699Y-111848398D01*
X130461283Y-111829384D01*
X130462110Y-111829380D01*
X130680570Y-111829380D01*
X130731350Y-111847862D01*
G37*
G04 #@! TD.AperFunction*
G04 #@! TA.AperFunction,Conductor*
G36*
X133151350Y-111847862D02*
G01*
X133178370Y-111894662D01*
X133168986Y-111947880D01*
X133168569Y-111948594D01*
X133138469Y-111999489D01*
X133093677Y-112153668D01*
X133093675Y-112153676D01*
X133090840Y-112189699D01*
X133090840Y-112189700D01*
X133090840Y-112189706D01*
X133090840Y-114568052D01*
X133090841Y-114568060D01*
X133093320Y-114599581D01*
X133093675Y-114604085D01*
X133093676Y-114604091D01*
X133138469Y-114758270D01*
X133220205Y-114896478D01*
X133220207Y-114896481D01*
X133333738Y-115010012D01*
X133333741Y-115010014D01*
X133333742Y-115010015D01*
X133471947Y-115091749D01*
X133471949Y-115091750D01*
X133523343Y-115106681D01*
X133626136Y-115136545D01*
X133662159Y-115139380D01*
X133791840Y-115139379D01*
X133842620Y-115157861D01*
X133869640Y-115204660D01*
X133870840Y-115218379D01*
X133870840Y-117559380D01*
X133852358Y-117610160D01*
X133805558Y-117637180D01*
X133791848Y-117638380D01*
X133784418Y-117638380D01*
X133698361Y-117648713D01*
X133561421Y-117702715D01*
X133561413Y-117702719D01*
X133444124Y-117791664D01*
X133355179Y-117908953D01*
X133355175Y-117908961D01*
X133301173Y-118045902D01*
X133301172Y-118045907D01*
X133290840Y-118131945D01*
X133290840Y-118131951D01*
X133290841Y-118929380D01*
X133272359Y-118980160D01*
X133225559Y-119007180D01*
X133211841Y-119008380D01*
X132770840Y-119008380D01*
X132720060Y-118989898D01*
X132693040Y-118943098D01*
X132691840Y-118929380D01*
X132691839Y-118131957D01*
X132691838Y-118131951D01*
X132681506Y-118045901D01*
X132627503Y-117908958D01*
X132627501Y-117908956D01*
X132627500Y-117908953D01*
X132588199Y-117857129D01*
X132538556Y-117791664D01*
X132488911Y-117754017D01*
X132421266Y-117702719D01*
X132421258Y-117702715D01*
X132284317Y-117648713D01*
X132284312Y-117648712D01*
X132198274Y-117638380D01*
X132198267Y-117638380D01*
X132190840Y-117638380D01*
X132140060Y-117619898D01*
X132113040Y-117573098D01*
X132111840Y-117559380D01*
X132111840Y-115218379D01*
X132130322Y-115167599D01*
X132177122Y-115140579D01*
X132190840Y-115139379D01*
X132320513Y-115139379D01*
X132320520Y-115139379D01*
X132356544Y-115136545D01*
X132510733Y-115091749D01*
X132648938Y-115010015D01*
X132762475Y-114896478D01*
X132844209Y-114758273D01*
X132889005Y-114604084D01*
X132891840Y-114568061D01*
X132891839Y-112189700D01*
X132889005Y-112153676D01*
X132844209Y-111999487D01*
X132814110Y-111948593D01*
X132804171Y-111895477D01*
X132830699Y-111848398D01*
X132881283Y-111829384D01*
X132882110Y-111829380D01*
X133100570Y-111829380D01*
X133151350Y-111847862D01*
G37*
G04 #@! TD.AperFunction*
G04 #@! TA.AperFunction,Conductor*
G36*
X137954035Y-111834280D02*
G01*
X137968365Y-111834431D01*
X137978636Y-111843234D01*
X137991350Y-111847862D01*
X137998515Y-111860273D01*
X138009396Y-111869599D01*
X138011605Y-111882945D01*
X138018370Y-111894662D01*
X138015881Y-111908774D01*
X138018222Y-111922912D01*
X138009117Y-111947135D01*
X138008986Y-111947880D01*
X138008569Y-111948594D01*
X137978469Y-111999489D01*
X137933677Y-112153668D01*
X137933675Y-112153676D01*
X137930840Y-112189699D01*
X137930840Y-112189700D01*
X137930840Y-112189706D01*
X137930840Y-114568052D01*
X137930841Y-114568060D01*
X137933320Y-114599581D01*
X137933675Y-114604085D01*
X137933676Y-114604091D01*
X137978469Y-114758270D01*
X138060205Y-114896478D01*
X138060207Y-114896481D01*
X138173738Y-115010012D01*
X138173741Y-115010014D01*
X138173742Y-115010015D01*
X138311947Y-115091749D01*
X138311949Y-115091750D01*
X138363343Y-115106681D01*
X138466136Y-115136545D01*
X138502159Y-115139380D01*
X138641839Y-115139379D01*
X138692620Y-115157861D01*
X138719640Y-115204660D01*
X138720840Y-115218379D01*
X138720840Y-117559380D01*
X138702358Y-117610160D01*
X138655558Y-117637180D01*
X138641844Y-117638380D01*
X138624417Y-117638380D01*
X138538361Y-117648713D01*
X138401421Y-117702715D01*
X138401413Y-117702719D01*
X138284124Y-117791664D01*
X138195179Y-117908953D01*
X138195175Y-117908961D01*
X138141173Y-118045902D01*
X138141172Y-118045907D01*
X138130840Y-118131945D01*
X138130840Y-118131951D01*
X138130841Y-118929380D01*
X138112359Y-118980160D01*
X138065559Y-119007180D01*
X138051841Y-119008380D01*
X135190840Y-119008380D01*
X135140060Y-118989898D01*
X135113040Y-118943098D01*
X135111840Y-118929380D01*
X135111839Y-118131957D01*
X135111838Y-118131951D01*
X135101506Y-118045901D01*
X135047503Y-117908958D01*
X135047501Y-117908956D01*
X135047500Y-117908953D01*
X135008199Y-117857129D01*
X134958556Y-117791664D01*
X134908911Y-117754017D01*
X134841266Y-117702719D01*
X134841258Y-117702715D01*
X134704317Y-117648713D01*
X134704312Y-117648712D01*
X134618274Y-117638380D01*
X134618267Y-117638380D01*
X134570840Y-117638380D01*
X134520060Y-117619898D01*
X134493040Y-117573098D01*
X134491840Y-117559380D01*
X134491840Y-115218379D01*
X134510322Y-115167599D01*
X134557122Y-115140579D01*
X134570840Y-115139379D01*
X134740513Y-115139379D01*
X134740520Y-115139379D01*
X134776544Y-115136545D01*
X134930733Y-115091749D01*
X135068938Y-115010015D01*
X135182475Y-114896478D01*
X135264209Y-114758273D01*
X135309005Y-114604084D01*
X135311840Y-114568061D01*
X135311839Y-112189700D01*
X135309005Y-112153676D01*
X135264209Y-111999487D01*
X135234110Y-111948593D01*
X135224171Y-111895477D01*
X135250699Y-111848398D01*
X135301283Y-111829384D01*
X135302110Y-111829380D01*
X137940570Y-111829380D01*
X137954035Y-111834280D01*
G37*
G04 #@! TD.AperFunction*
G04 #@! TA.AperFunction,Conductor*
G36*
X140411350Y-111847862D02*
G01*
X140438370Y-111894662D01*
X140428986Y-111947880D01*
X140428569Y-111948594D01*
X140398469Y-111999489D01*
X140353677Y-112153668D01*
X140353675Y-112153676D01*
X140350840Y-112189699D01*
X140350840Y-112189700D01*
X140350840Y-112189706D01*
X140350840Y-114568052D01*
X140350841Y-114568060D01*
X140353320Y-114599581D01*
X140353675Y-114604085D01*
X140353676Y-114604091D01*
X140398469Y-114758270D01*
X140480205Y-114896478D01*
X140480207Y-114896481D01*
X140593738Y-115010012D01*
X140593741Y-115010014D01*
X140593742Y-115010015D01*
X140731947Y-115091749D01*
X140731949Y-115091750D01*
X140783343Y-115106681D01*
X140886136Y-115136545D01*
X140922159Y-115139380D01*
X141071839Y-115139379D01*
X141122620Y-115157861D01*
X141149640Y-115204660D01*
X141150840Y-115218379D01*
X141150840Y-117559380D01*
X141132358Y-117610160D01*
X141085558Y-117637180D01*
X141071843Y-117638380D01*
X141044417Y-117638380D01*
X140958361Y-117648713D01*
X140821421Y-117702715D01*
X140821413Y-117702719D01*
X140704124Y-117791664D01*
X140615179Y-117908953D01*
X140615175Y-117908961D01*
X140561173Y-118045902D01*
X140561172Y-118045907D01*
X140550840Y-118131945D01*
X140550840Y-118131951D01*
X140550841Y-118929380D01*
X140532359Y-118980160D01*
X140485559Y-119007180D01*
X140471841Y-119008380D01*
X140030840Y-119008380D01*
X139980060Y-118989898D01*
X139953040Y-118943098D01*
X139951840Y-118929380D01*
X139951839Y-118131957D01*
X139951838Y-118131951D01*
X139941506Y-118045901D01*
X139887503Y-117908958D01*
X139887501Y-117908956D01*
X139887500Y-117908953D01*
X139848199Y-117857129D01*
X139798556Y-117791664D01*
X139748911Y-117754017D01*
X139681266Y-117702719D01*
X139681258Y-117702715D01*
X139544317Y-117648713D01*
X139544312Y-117648712D01*
X139458274Y-117638380D01*
X139458267Y-117638380D01*
X139420840Y-117638380D01*
X139370060Y-117619898D01*
X139343040Y-117573098D01*
X139341840Y-117559380D01*
X139341840Y-115218379D01*
X139360322Y-115167599D01*
X139407122Y-115140579D01*
X139420840Y-115139379D01*
X139580513Y-115139379D01*
X139580520Y-115139379D01*
X139616544Y-115136545D01*
X139770733Y-115091749D01*
X139908938Y-115010015D01*
X140022475Y-114896478D01*
X140104209Y-114758273D01*
X140149005Y-114604084D01*
X140151840Y-114568061D01*
X140151839Y-112189700D01*
X140149005Y-112153676D01*
X140104209Y-111999487D01*
X140074110Y-111948593D01*
X140064171Y-111895477D01*
X140090699Y-111848398D01*
X140141283Y-111829384D01*
X140142110Y-111829380D01*
X140360570Y-111829380D01*
X140411350Y-111847862D01*
G37*
G04 #@! TD.AperFunction*
G04 #@! TA.AperFunction,Conductor*
G36*
X145282620Y-111847862D02*
G01*
X145309640Y-111894662D01*
X145310840Y-111908380D01*
X145310840Y-118929380D01*
X145292358Y-118980160D01*
X145245558Y-119007180D01*
X145231840Y-119008380D01*
X142450840Y-119008380D01*
X142400060Y-118989898D01*
X142373040Y-118943098D01*
X142371840Y-118929380D01*
X142371839Y-118131957D01*
X142371838Y-118131951D01*
X142361506Y-118045901D01*
X142307503Y-117908958D01*
X142307501Y-117908956D01*
X142307500Y-117908953D01*
X142268199Y-117857129D01*
X142218556Y-117791664D01*
X142168911Y-117754017D01*
X142101266Y-117702719D01*
X142101258Y-117702715D01*
X141964317Y-117648713D01*
X141964312Y-117648712D01*
X141878274Y-117638380D01*
X141878267Y-117638380D01*
X141850840Y-117638380D01*
X141800060Y-117619898D01*
X141773040Y-117573098D01*
X141771840Y-117559380D01*
X141771840Y-115218379D01*
X141790322Y-115167599D01*
X141837122Y-115140579D01*
X141850840Y-115139379D01*
X142000513Y-115139379D01*
X142000520Y-115139379D01*
X142036544Y-115136545D01*
X142190733Y-115091749D01*
X142328938Y-115010015D01*
X142442475Y-114896478D01*
X142524209Y-114758273D01*
X142569005Y-114604084D01*
X142571840Y-114568061D01*
X142571839Y-112189700D01*
X142569005Y-112153676D01*
X142524209Y-111999487D01*
X142494110Y-111948593D01*
X142484171Y-111895477D01*
X142510699Y-111848398D01*
X142561283Y-111829384D01*
X142562110Y-111829380D01*
X145231840Y-111829380D01*
X145282620Y-111847862D01*
G37*
G04 #@! TD.AperFunction*
M02*
