G04 #@! TF.GenerationSoftware,KiCad,Pcbnew,9.0.0*
G04 #@! TF.CreationDate,2025-03-27T12:33:45-07:00*
G04 #@! TF.ProjectId,SNES2VGA,534e4553-3256-4474-912e-6b696361645f,1*
G04 #@! TF.SameCoordinates,Original*
G04 #@! TF.FileFunction,Copper,L1,Top*
G04 #@! TF.FilePolarity,Positive*
%FSLAX46Y46*%
G04 Gerber Fmt 4.6, Leading zero omitted, Abs format (unit mm)*
G04 Created by KiCad (PCBNEW 9.0.0) date 2025-03-27 12:33:45*
%MOMM*%
%LPD*%
G01*
G04 APERTURE LIST*
G04 Aperture macros list*
%AMRoundRect*
0 Rectangle with rounded corners*
0 $1 Rounding radius*
0 $2 $3 $4 $5 $6 $7 $8 $9 X,Y pos of 4 corners*
0 Add a 4 corners polygon primitive as box body*
4,1,4,$2,$3,$4,$5,$6,$7,$8,$9,$2,$3,0*
0 Add four circle primitives for the rounded corners*
1,1,$1+$1,$2,$3*
1,1,$1+$1,$4,$5*
1,1,$1+$1,$6,$7*
1,1,$1+$1,$8,$9*
0 Add four rect primitives between the rounded corners*
20,1,$1+$1,$2,$3,$4,$5,0*
20,1,$1+$1,$4,$5,$6,$7,0*
20,1,$1+$1,$6,$7,$8,$9,0*
20,1,$1+$1,$8,$9,$2,$3,0*%
%AMFreePoly0*
4,1,23,0.550000,-0.750000,0.000000,-0.750000,0.000000,-0.745722,-0.065263,-0.745722,-0.191342,-0.711940,-0.304381,-0.646677,-0.396677,-0.554381,-0.461940,-0.441342,-0.495722,-0.315263,-0.495722,-0.250000,-0.500000,-0.250000,-0.500000,0.250000,-0.495722,0.250000,-0.495722,0.315263,-0.461940,0.441342,-0.396677,0.554381,-0.304381,0.646677,-0.191342,0.711940,-0.065263,0.745722,0.000000,0.745722,
0.000000,0.750000,0.550000,0.750000,0.550000,-0.750000,0.550000,-0.750000,$1*%
%AMFreePoly1*
4,1,23,0.000000,0.745722,0.065263,0.745722,0.191342,0.711940,0.304381,0.646677,0.396677,0.554381,0.461940,0.441342,0.495722,0.315263,0.495722,0.250000,0.500000,0.250000,0.500000,-0.250000,0.495722,-0.250000,0.495722,-0.315263,0.461940,-0.441342,0.396677,-0.554381,0.304381,-0.646677,0.191342,-0.711940,0.065263,-0.745722,0.000000,-0.745722,0.000000,-0.750000,-0.550000,-0.750000,
-0.550000,0.750000,0.000000,0.750000,0.000000,0.745722,0.000000,0.745722,$1*%
%AMFreePoly2*
4,1,23,0.500000,-0.750000,0.000000,-0.750000,0.000000,-0.745722,-0.065263,-0.745722,-0.191342,-0.711940,-0.304381,-0.646677,-0.396677,-0.554381,-0.461940,-0.441342,-0.495722,-0.315263,-0.495722,-0.250000,-0.500000,-0.250000,-0.500000,0.250000,-0.495722,0.250000,-0.495722,0.315263,-0.461940,0.441342,-0.396677,0.554381,-0.304381,0.646677,-0.191342,0.711940,-0.065263,0.745722,0.000000,0.745722,
0.000000,0.750000,0.500000,0.750000,0.500000,-0.750000,0.500000,-0.750000,$1*%
%AMFreePoly3*
4,1,23,0.000000,0.745722,0.065263,0.745722,0.191342,0.711940,0.304381,0.646677,0.396677,0.554381,0.461940,0.441342,0.495722,0.315263,0.495722,0.250000,0.500000,0.250000,0.500000,-0.250000,0.495722,-0.250000,0.495722,-0.315263,0.461940,-0.441342,0.396677,-0.554381,0.304381,-0.646677,0.191342,-0.711940,0.065263,-0.745722,0.000000,-0.745722,0.000000,-0.750000,-0.500000,-0.750000,
-0.500000,0.750000,0.000000,0.750000,0.000000,0.745722,0.000000,0.745722,$1*%
G04 Aperture macros list end*
G04 #@! TA.AperFunction,SMDPad,CuDef*
%ADD10RoundRect,0.225000X0.250000X-0.225000X0.250000X0.225000X-0.250000X0.225000X-0.250000X-0.225000X0*%
G04 #@! TD*
G04 #@! TA.AperFunction,ConnectorPad*
%ADD11RoundRect,0.375000X-0.375000X-0.375000X0.375000X-0.375000X0.375000X0.375000X-0.375000X0.375000X0*%
G04 #@! TD*
G04 #@! TA.AperFunction,SMDPad,CuDef*
%ADD12RoundRect,0.200000X-0.200000X-0.275000X0.200000X-0.275000X0.200000X0.275000X-0.200000X0.275000X0*%
G04 #@! TD*
G04 #@! TA.AperFunction,SMDPad,CuDef*
%ADD13RoundRect,0.200000X0.275000X-0.200000X0.275000X0.200000X-0.275000X0.200000X-0.275000X-0.200000X0*%
G04 #@! TD*
G04 #@! TA.AperFunction,SMDPad,CuDef*
%ADD14FreePoly0,0.000000*%
G04 #@! TD*
G04 #@! TA.AperFunction,SMDPad,CuDef*
%ADD15R,1.000000X1.500000*%
G04 #@! TD*
G04 #@! TA.AperFunction,SMDPad,CuDef*
%ADD16FreePoly1,0.000000*%
G04 #@! TD*
G04 #@! TA.AperFunction,SMDPad,CuDef*
%ADD17FreePoly2,180.000000*%
G04 #@! TD*
G04 #@! TA.AperFunction,SMDPad,CuDef*
%ADD18FreePoly3,180.000000*%
G04 #@! TD*
G04 #@! TA.AperFunction,ComponentPad*
%ADD19R,1.700000X1.700000*%
G04 #@! TD*
G04 #@! TA.AperFunction,ComponentPad*
%ADD20C,1.700000*%
G04 #@! TD*
G04 #@! TA.AperFunction,ComponentPad*
%ADD21C,4.066000*%
G04 #@! TD*
G04 #@! TA.AperFunction,ComponentPad*
%ADD22O,1.800000X2.800000*%
G04 #@! TD*
G04 #@! TA.AperFunction,ViaPad*
%ADD23C,0.700000*%
G04 #@! TD*
G04 #@! TA.AperFunction,Conductor*
%ADD24C,0.200000*%
G04 #@! TD*
G04 APERTURE END LIST*
D10*
X132430000Y-104825000D03*
X132430000Y-103275000D03*
D11*
X146980000Y-95540000D03*
X144560000Y-95540000D03*
X142140000Y-95540000D03*
X139720000Y-95540000D03*
X137300000Y-95540000D03*
X134880000Y-95540000D03*
D12*
X146355000Y-101730000D03*
X148005000Y-101730000D03*
D13*
X145130000Y-99845000D03*
X145130000Y-98195000D03*
X147560000Y-99845000D03*
X147560000Y-98195000D03*
X150010000Y-99845000D03*
X150010000Y-98195000D03*
X152270000Y-99845000D03*
X152270000Y-98195000D03*
D10*
X148060000Y-107860000D03*
X148060000Y-106310000D03*
D14*
X148102800Y-104089200D03*
D15*
X149402800Y-104089200D03*
D16*
X150702800Y-104089200D03*
D17*
X153700000Y-102070000D03*
D18*
X152400000Y-102070000D03*
D19*
X136345000Y-105020000D03*
D20*
X138635000Y-105020000D03*
X140925000Y-105020000D03*
X143215000Y-105020000D03*
X145505000Y-105020000D03*
X135200000Y-107000000D03*
X137490000Y-107000000D03*
X139780000Y-107000000D03*
X142070000Y-107000000D03*
X144360000Y-107000000D03*
X136345000Y-108980000D03*
X138635000Y-108980000D03*
X140925000Y-108980000D03*
X143215000Y-108980000D03*
X145505000Y-108980000D03*
D21*
X153420000Y-107000000D03*
X128430000Y-107000000D03*
D22*
X134450000Y-100550000D03*
X132650000Y-98550000D03*
X126550000Y-98550000D03*
X128950000Y-100550000D03*
X138150000Y-98550000D03*
D23*
X145760000Y-93900000D03*
X145150000Y-100480000D03*
X147550000Y-100469950D03*
X144560000Y-91259991D03*
X149430000Y-93380000D03*
X150010000Y-100490000D03*
X149990000Y-108300000D03*
X152270000Y-100490000D03*
X137310000Y-93809998D03*
X143010000Y-93850000D03*
X137280000Y-91240000D03*
X146200000Y-106939990D03*
X134493000Y-97663000D03*
X132537200Y-94538800D03*
X137540000Y-102880000D03*
X149479000Y-90043000D03*
X139810000Y-103440000D03*
X141470000Y-93030000D03*
X136017000Y-100203000D03*
X154060000Y-98470000D03*
D24*
X146960000Y-95100000D02*
X145760000Y-93900000D01*
X145150000Y-100480000D02*
X145150000Y-99880000D01*
X147550000Y-100470000D02*
X147550000Y-99840000D01*
X147330000Y-91280000D02*
X144580009Y-91280000D01*
X149430000Y-93380000D02*
X147330000Y-91280000D01*
X144580009Y-91280000D02*
X144560000Y-91259991D01*
X150020000Y-100460000D02*
X150020000Y-99820000D01*
X132650000Y-95690000D02*
X128950000Y-99390000D01*
X134470000Y-95690000D02*
X132650000Y-95690000D01*
X140940000Y-110580000D02*
X140940000Y-109250000D01*
X149990000Y-108300000D02*
X149990000Y-109410000D01*
X148170000Y-101560000D02*
X151960000Y-101560000D01*
X148270000Y-111130000D02*
X141490000Y-111130000D01*
X141490000Y-111130000D02*
X140940000Y-110580000D01*
X151960000Y-101560000D02*
X152350000Y-101950000D01*
X149990000Y-109410000D02*
X148270000Y-111130000D01*
X152270000Y-99840000D02*
X152270000Y-101870000D01*
X149060000Y-95080000D02*
X146610000Y-92630000D01*
X155260000Y-103050000D02*
X155260000Y-98180000D01*
X146610000Y-92630000D02*
X143820000Y-92630000D01*
X149060000Y-96290000D02*
X149060000Y-95080000D01*
X150702800Y-103930300D02*
X151182500Y-104410000D01*
X139710000Y-92480000D02*
X139710000Y-95690000D01*
X143820000Y-92630000D02*
X142480000Y-91290000D01*
X155260000Y-98180000D02*
X154010000Y-96930000D01*
X140900000Y-91290000D02*
X139710000Y-92480000D01*
X154010000Y-96930000D02*
X149700000Y-96930000D01*
X151182500Y-104410000D02*
X153900000Y-104410000D01*
X142480000Y-91290000D02*
X140900000Y-91290000D01*
X149700000Y-96930000D02*
X149060000Y-96290000D01*
X153900000Y-104410000D02*
X155260000Y-103050000D01*
X146910000Y-103260000D02*
X144142900Y-103260000D01*
X144142900Y-103260000D02*
X143900000Y-103017100D01*
X148090000Y-103917500D02*
X147567500Y-103917500D01*
X143360000Y-94200000D02*
X143010000Y-93850000D01*
X137310000Y-95470000D02*
X137310000Y-93809998D01*
X147567500Y-103917500D02*
X146910000Y-103260000D01*
X143360000Y-96990000D02*
X143360000Y-94200000D01*
X147567500Y-103917500D02*
X147931100Y-103917500D01*
X143900000Y-103017100D02*
X143900000Y-97530000D01*
X143900000Y-97530000D02*
X143360000Y-96990000D01*
X142070000Y-106760000D02*
X142070000Y-103000000D01*
X142990000Y-98090000D02*
X141910000Y-97010000D01*
X142990000Y-102080000D02*
X142990000Y-98090000D01*
X141910000Y-97010000D02*
X139310000Y-97010000D01*
X139310000Y-97010000D02*
X138510000Y-96210000D01*
X138510000Y-96210000D02*
X138510000Y-92470000D01*
X138510000Y-92470000D02*
X137280000Y-91240000D01*
X142070000Y-103000000D02*
X142990000Y-102080000D01*
X146360000Y-97340000D02*
X146360000Y-101730000D01*
X144560000Y-95540000D02*
X146360000Y-97340000D01*
X136480000Y-111130000D02*
X134460000Y-111130000D01*
X138630000Y-108980000D02*
X136480000Y-111130000D01*
X134460000Y-111130000D02*
X132430000Y-109100000D01*
X132430000Y-109100000D02*
X132430000Y-104825000D01*
X136480000Y-101920000D02*
X135130000Y-103270000D01*
X138150000Y-99060000D02*
X136480000Y-100730000D01*
X136480000Y-100730000D02*
X136480000Y-101920000D01*
X135130000Y-103270000D02*
X132390000Y-103270000D01*
X148020000Y-106250000D02*
X146889990Y-106250000D01*
X146889990Y-106250000D02*
X146200000Y-106939990D01*
X148060000Y-107890000D02*
X146980000Y-108970000D01*
X146980000Y-108970000D02*
X145250000Y-108970000D01*
X150860000Y-102350000D02*
X149730000Y-102350000D01*
X154060000Y-98470000D02*
X153650000Y-98880000D01*
X149380000Y-102700000D02*
X149380000Y-104066400D01*
X152060000Y-103550000D02*
X150860000Y-102350000D01*
X153290000Y-103550000D02*
X152060000Y-103550000D01*
X153650000Y-98880000D02*
X153650000Y-103190000D01*
X153650000Y-103190000D02*
X153290000Y-103550000D01*
X149730000Y-102350000D02*
X149380000Y-102700000D01*
G04 #@! TA.AperFunction,Conductor*
G36*
X136836581Y-106048982D02*
G01*
X136856739Y-106083897D01*
X137304822Y-106531980D01*
X137297007Y-106534075D01*
X137182993Y-106599901D01*
X137089901Y-106692993D01*
X137024075Y-106807007D01*
X137021980Y-106814822D01*
X136583464Y-106376306D01*
X136549195Y-106423476D01*
X136470594Y-106577736D01*
X136470589Y-106577749D01*
X136420133Y-106733036D01*
X136386863Y-106775619D01*
X136334005Y-106786854D01*
X136286291Y-106761484D01*
X136269867Y-106733036D01*
X136219410Y-106577749D01*
X136219405Y-106577736D01*
X136140804Y-106423475D01*
X136106534Y-106376306D01*
X135668018Y-106814821D01*
X135665925Y-106807007D01*
X135600099Y-106692993D01*
X135507007Y-106599901D01*
X135392993Y-106534075D01*
X135385176Y-106531980D01*
X135834644Y-106082512D01*
X135839881Y-106063626D01*
X135884416Y-106033017D01*
X135904198Y-106030500D01*
X136785801Y-106030500D01*
X136836581Y-106048982D01*
G37*
G04 #@! TD.AperFunction*
G04 #@! TA.AperFunction,Conductor*
G36*
X150821280Y-88548982D02*
G01*
X150848300Y-88595782D01*
X150849500Y-88609500D01*
X150849500Y-96099082D01*
X150849500Y-96140918D01*
X150849501Y-96140920D01*
X150879079Y-96170498D01*
X150879081Y-96170499D01*
X150879082Y-96170500D01*
X156220500Y-96170500D01*
X156271280Y-96188982D01*
X156298300Y-96235782D01*
X156299500Y-96249500D01*
X156299500Y-111930500D01*
X156281018Y-111981280D01*
X156234218Y-112008300D01*
X156220500Y-112009500D01*
X125679500Y-112009500D01*
X125628720Y-111991018D01*
X125601700Y-111944218D01*
X125600500Y-111930500D01*
X125600500Y-107149639D01*
X126146999Y-107149639D01*
X126186060Y-107446339D01*
X126263517Y-107735413D01*
X126263518Y-107735416D01*
X126378046Y-108011913D01*
X126527679Y-108271084D01*
X126678941Y-108468214D01*
X126678942Y-108468215D01*
X127165503Y-107981653D01*
X127209588Y-108042330D01*
X127387670Y-108220412D01*
X127448344Y-108264494D01*
X126961783Y-108751056D01*
X126961784Y-108751057D01*
X127158915Y-108902320D01*
X127418086Y-109051953D01*
X127694583Y-109166481D01*
X127694586Y-109166482D01*
X127983660Y-109243939D01*
X128280360Y-109283000D01*
X128579639Y-109283000D01*
X128876339Y-109243939D01*
X129165413Y-109166482D01*
X129165416Y-109166481D01*
X129441913Y-109051953D01*
X129701086Y-108902319D01*
X129701091Y-108902316D01*
X129898214Y-108751056D01*
X129898215Y-108751056D01*
X129411654Y-108264495D01*
X129472330Y-108220412D01*
X129650412Y-108042330D01*
X129694495Y-107981654D01*
X130181056Y-108468215D01*
X130181056Y-108468214D01*
X130332316Y-108271091D01*
X130332319Y-108271086D01*
X130481953Y-108011913D01*
X130596481Y-107735416D01*
X130596482Y-107735413D01*
X130673939Y-107446339D01*
X130713000Y-107149639D01*
X130713000Y-106850360D01*
X130673939Y-106553660D01*
X130596482Y-106264586D01*
X130596481Y-106264583D01*
X130481953Y-105988086D01*
X130332320Y-105728915D01*
X130181057Y-105531784D01*
X130181056Y-105531783D01*
X129694494Y-106018344D01*
X129650412Y-105957670D01*
X129472330Y-105779588D01*
X129411653Y-105735504D01*
X129898215Y-105248942D01*
X129898214Y-105248941D01*
X129701084Y-105097679D01*
X129441913Y-104948046D01*
X129165416Y-104833518D01*
X129165413Y-104833517D01*
X128876339Y-104756060D01*
X128579639Y-104717000D01*
X128280361Y-104717000D01*
X127983660Y-104756060D01*
X127694586Y-104833517D01*
X127694583Y-104833518D01*
X127418086Y-104948046D01*
X127158915Y-105097679D01*
X126961784Y-105248941D01*
X126961783Y-105248942D01*
X127448345Y-105735504D01*
X127387670Y-105779588D01*
X127209588Y-105957670D01*
X127165504Y-106018345D01*
X126678942Y-105531783D01*
X126678941Y-105531784D01*
X126527679Y-105728915D01*
X126378046Y-105988086D01*
X126263518Y-106264583D01*
X126263517Y-106264586D01*
X126186060Y-106553660D01*
X126147000Y-106850360D01*
X126147000Y-107149639D01*
X126146999Y-107149639D01*
X125600500Y-107149639D01*
X125600500Y-104563416D01*
X131794500Y-104563416D01*
X131794500Y-105086583D01*
X131805418Y-105161518D01*
X131861922Y-105277099D01*
X131861926Y-105277105D01*
X131952894Y-105368073D01*
X131952897Y-105368075D01*
X131952898Y-105368076D01*
X132068480Y-105424581D01*
X132068482Y-105424582D01*
X132101891Y-105429449D01*
X132149475Y-105455060D01*
X132169465Y-105505266D01*
X132169500Y-105507624D01*
X132169500Y-109151819D01*
X132209156Y-109247557D01*
X132209161Y-109247564D01*
X133400973Y-110439376D01*
X134312439Y-111350842D01*
X134380140Y-111378884D01*
X134408183Y-111390500D01*
X134408184Y-111390500D01*
X136531817Y-111390500D01*
X136563731Y-111377280D01*
X136627557Y-111350843D01*
X136627558Y-111350842D01*
X136627561Y-111350841D01*
X138081235Y-109897165D01*
X138130210Y-109874328D01*
X138167327Y-109880041D01*
X138340242Y-109951665D01*
X138340244Y-109951665D01*
X138340248Y-109951667D01*
X138535474Y-109990500D01*
X138734526Y-109990500D01*
X138929752Y-109951667D01*
X139113651Y-109875493D01*
X139279156Y-109764906D01*
X139419906Y-109624156D01*
X139530493Y-109458651D01*
X139606667Y-109274752D01*
X139645500Y-109079526D01*
X139645500Y-108880474D01*
X139914500Y-108880474D01*
X139914500Y-109079526D01*
X139931797Y-109166482D01*
X139953333Y-109274753D01*
X139953334Y-109274757D01*
X140029504Y-109458645D01*
X140029507Y-109458651D01*
X140140092Y-109624154D01*
X140140098Y-109624161D01*
X140280838Y-109764901D01*
X140280844Y-109764906D01*
X140446349Y-109875493D01*
X140446354Y-109875495D01*
X140630732Y-109951868D01*
X140670574Y-109988376D01*
X140679500Y-110024854D01*
X140679500Y-110631819D01*
X140719156Y-110727557D01*
X140719158Y-110727560D01*
X140719159Y-110727561D01*
X141269159Y-111277561D01*
X141342436Y-111350838D01*
X141342439Y-111350841D01*
X141342442Y-111350843D01*
X141438180Y-111390499D01*
X141438183Y-111390500D01*
X148321817Y-111390500D01*
X148353731Y-111377280D01*
X148417557Y-111350843D01*
X148417558Y-111350842D01*
X148417561Y-111350841D01*
X150210841Y-109557561D01*
X150250500Y-109461817D01*
X150250500Y-108784686D01*
X150268982Y-108733906D01*
X150277608Y-108725119D01*
X150283377Y-108720092D01*
X150303454Y-108708502D01*
X150398502Y-108613454D01*
X150465710Y-108497046D01*
X150500500Y-108367209D01*
X150500500Y-108232791D01*
X150465710Y-108102954D01*
X150464003Y-108099998D01*
X150417473Y-108019405D01*
X150398502Y-107986546D01*
X150398501Y-107986545D01*
X150398500Y-107986543D01*
X150303456Y-107891499D01*
X150187047Y-107824290D01*
X150187045Y-107824289D01*
X150057209Y-107789500D01*
X149922791Y-107789500D01*
X149922790Y-107789500D01*
X149792954Y-107824289D01*
X149792952Y-107824290D01*
X149676543Y-107891499D01*
X149581499Y-107986543D01*
X149514290Y-108102952D01*
X149514289Y-108102954D01*
X149479500Y-108232790D01*
X149479500Y-108367209D01*
X149514289Y-108497045D01*
X149514290Y-108497047D01*
X149581499Y-108613456D01*
X149676542Y-108708499D01*
X149676546Y-108708502D01*
X149689999Y-108716269D01*
X149724735Y-108757665D01*
X149729500Y-108784686D01*
X149729500Y-109269376D01*
X149711018Y-109320156D01*
X149706361Y-109325237D01*
X148185237Y-110846361D01*
X148136261Y-110869199D01*
X148129376Y-110869500D01*
X141630624Y-110869500D01*
X141579844Y-110851018D01*
X141574763Y-110846361D01*
X141223639Y-110495237D01*
X141200801Y-110446261D01*
X141200500Y-110439376D01*
X141200500Y-110012427D01*
X141218982Y-109961647D01*
X141249268Y-109939441D01*
X141253654Y-109937624D01*
X141403651Y-109875493D01*
X141569156Y-109764906D01*
X141709906Y-109624156D01*
X141820493Y-109458651D01*
X141896667Y-109274752D01*
X141935500Y-109079526D01*
X141935500Y-108880474D01*
X142204500Y-108880474D01*
X142204500Y-109079526D01*
X142221797Y-109166482D01*
X142243333Y-109274753D01*
X142243334Y-109274757D01*
X142319504Y-109458645D01*
X142319507Y-109458651D01*
X142430092Y-109624154D01*
X142430098Y-109624161D01*
X142570838Y-109764901D01*
X142570844Y-109764906D01*
X142736349Y-109875493D01*
X142736354Y-109875495D01*
X142920242Y-109951665D01*
X142920244Y-109951665D01*
X142920248Y-109951667D01*
X143115474Y-109990500D01*
X143314526Y-109990500D01*
X143509752Y-109951667D01*
X143693651Y-109875493D01*
X143859156Y-109764906D01*
X143999906Y-109624156D01*
X144110493Y-109458651D01*
X144186667Y-109274752D01*
X144225500Y-109079526D01*
X144225500Y-108880474D01*
X144494500Y-108880474D01*
X144494500Y-109079526D01*
X144511797Y-109166482D01*
X144533333Y-109274753D01*
X144533334Y-109274757D01*
X144609504Y-109458645D01*
X144609507Y-109458651D01*
X144720092Y-109624154D01*
X144720098Y-109624161D01*
X144860838Y-109764901D01*
X144860844Y-109764906D01*
X145026349Y-109875493D01*
X145026354Y-109875495D01*
X145210242Y-109951665D01*
X145210244Y-109951665D01*
X145210248Y-109951667D01*
X145405474Y-109990500D01*
X145604526Y-109990500D01*
X145799752Y-109951667D01*
X145983651Y-109875493D01*
X146149156Y-109764906D01*
X146289906Y-109624156D01*
X146400493Y-109458651D01*
X146433667Y-109378561D01*
X146474797Y-109279268D01*
X146511305Y-109239426D01*
X146547783Y-109230500D01*
X147031817Y-109230500D01*
X147063731Y-109217280D01*
X147127557Y-109190843D01*
X147127558Y-109190842D01*
X147127561Y-109190841D01*
X147824764Y-108493639D01*
X147873740Y-108470801D01*
X147880625Y-108470500D01*
X148346578Y-108470500D01*
X148346582Y-108470500D01*
X148421518Y-108459582D01*
X148537102Y-108403076D01*
X148628076Y-108312102D01*
X148684582Y-108196518D01*
X148695500Y-108121582D01*
X148695500Y-107598418D01*
X148684582Y-107523482D01*
X148628076Y-107407898D01*
X148628075Y-107407897D01*
X148628073Y-107407894D01*
X148537105Y-107316926D01*
X148537099Y-107316922D01*
X148467387Y-107282842D01*
X148421518Y-107260418D01*
X148421520Y-107260418D01*
X148346583Y-107249500D01*
X148346582Y-107249500D01*
X147773418Y-107249500D01*
X147773416Y-107249500D01*
X147698481Y-107260418D01*
X147582900Y-107316922D01*
X147582894Y-107316926D01*
X147491926Y-107407894D01*
X147491922Y-107407900D01*
X147435418Y-107523481D01*
X147424500Y-107598416D01*
X147424500Y-108124373D01*
X147406018Y-108175153D01*
X147401362Y-108180234D01*
X147020995Y-108560603D01*
X146895237Y-108686361D01*
X146846260Y-108709199D01*
X146839375Y-108709500D01*
X146539499Y-108709500D01*
X146488719Y-108691018D01*
X146466513Y-108660732D01*
X146400495Y-108501354D01*
X146400492Y-108501348D01*
X146379879Y-108470499D01*
X146311688Y-108368443D01*
X146289907Y-108335845D01*
X146289901Y-108335838D01*
X146149161Y-108195098D01*
X146149154Y-108195092D01*
X145983651Y-108084507D01*
X145983645Y-108084504D01*
X145799757Y-108008334D01*
X145799753Y-108008333D01*
X145604526Y-107969500D01*
X145405474Y-107969500D01*
X145210246Y-108008333D01*
X145210242Y-108008334D01*
X145026354Y-108084504D01*
X145026348Y-108084507D01*
X144860845Y-108195092D01*
X144860838Y-108195098D01*
X144720098Y-108335838D01*
X144720092Y-108335845D01*
X144609507Y-108501348D01*
X144609504Y-108501354D01*
X144533334Y-108685242D01*
X144533333Y-108685246D01*
X144518928Y-108757665D01*
X144494500Y-108880474D01*
X144225500Y-108880474D01*
X144186667Y-108685248D01*
X144177334Y-108662717D01*
X144110495Y-108501354D01*
X144110492Y-108501348D01*
X144089879Y-108470499D01*
X144021688Y-108368443D01*
X143999907Y-108335845D01*
X143999901Y-108335838D01*
X143859161Y-108195098D01*
X143859154Y-108195092D01*
X143693651Y-108084507D01*
X143693645Y-108084504D01*
X143509757Y-108008334D01*
X143509753Y-108008333D01*
X143314526Y-107969500D01*
X143115474Y-107969500D01*
X142920246Y-108008333D01*
X142920242Y-108008334D01*
X142736354Y-108084504D01*
X142736348Y-108084507D01*
X142570845Y-108195092D01*
X142570838Y-108195098D01*
X142430098Y-108335838D01*
X142430092Y-108335845D01*
X142319507Y-108501348D01*
X142319504Y-108501354D01*
X142243334Y-108685242D01*
X142243333Y-108685246D01*
X142228928Y-108757665D01*
X142204500Y-108880474D01*
X141935500Y-108880474D01*
X141896667Y-108685248D01*
X141887334Y-108662717D01*
X141820495Y-108501354D01*
X141820492Y-108501348D01*
X141799879Y-108470499D01*
X141731688Y-108368443D01*
X141709907Y-108335845D01*
X141709901Y-108335838D01*
X141569161Y-108195098D01*
X141569154Y-108195092D01*
X141403651Y-108084507D01*
X141403645Y-108084504D01*
X141219757Y-108008334D01*
X141219753Y-108008333D01*
X141024526Y-107969500D01*
X140825474Y-107969500D01*
X140630246Y-108008333D01*
X140630242Y-108008334D01*
X140446354Y-108084504D01*
X140446348Y-108084507D01*
X140280845Y-108195092D01*
X140280838Y-108195098D01*
X140140098Y-108335838D01*
X140140092Y-108335845D01*
X140029507Y-108501348D01*
X140029504Y-108501354D01*
X139953334Y-108685242D01*
X139953333Y-108685246D01*
X139938928Y-108757665D01*
X139914500Y-108880474D01*
X139645500Y-108880474D01*
X139606667Y-108685248D01*
X139597334Y-108662717D01*
X139530495Y-108501354D01*
X139530492Y-108501348D01*
X139509879Y-108470499D01*
X139441688Y-108368443D01*
X139419907Y-108335845D01*
X139419901Y-108335838D01*
X139279161Y-108195098D01*
X139279154Y-108195092D01*
X139113651Y-108084507D01*
X139113645Y-108084504D01*
X138929757Y-108008334D01*
X138929753Y-108008333D01*
X138734526Y-107969500D01*
X138535474Y-107969500D01*
X138340246Y-108008333D01*
X138340242Y-108008334D01*
X138156354Y-108084504D01*
X138156348Y-108084507D01*
X137990845Y-108195092D01*
X137990838Y-108195098D01*
X137850098Y-108335838D01*
X137850092Y-108335845D01*
X137739507Y-108501348D01*
X137739504Y-108501354D01*
X137663334Y-108685242D01*
X137663333Y-108685246D01*
X137648928Y-108757665D01*
X137624500Y-108880474D01*
X137624500Y-109079526D01*
X137641797Y-109166482D01*
X137663333Y-109274753D01*
X137663334Y-109274757D01*
X137732029Y-109440599D01*
X137734387Y-109494586D01*
X137714904Y-109526692D01*
X136395237Y-110846361D01*
X136346261Y-110869199D01*
X136339376Y-110869500D01*
X134600625Y-110869500D01*
X134549845Y-110851018D01*
X134544764Y-110846361D01*
X132713639Y-109015236D01*
X132706351Y-108999608D01*
X132695264Y-108986395D01*
X132692268Y-108969408D01*
X132690801Y-108966260D01*
X132690500Y-108959375D01*
X132690500Y-108880474D01*
X135334500Y-108880474D01*
X135334500Y-109079526D01*
X135351797Y-109166482D01*
X135373333Y-109274753D01*
X135373334Y-109274757D01*
X135449504Y-109458645D01*
X135449507Y-109458651D01*
X135560092Y-109624154D01*
X135560098Y-109624161D01*
X135700838Y-109764901D01*
X135700844Y-109764906D01*
X135866349Y-109875493D01*
X135866354Y-109875495D01*
X136050242Y-109951665D01*
X136050244Y-109951665D01*
X136050248Y-109951667D01*
X136245474Y-109990500D01*
X136444526Y-109990500D01*
X136639752Y-109951667D01*
X136823651Y-109875493D01*
X136989156Y-109764906D01*
X137129906Y-109624156D01*
X137240493Y-109458651D01*
X137316667Y-109274752D01*
X137355500Y-109079526D01*
X137355500Y-108880474D01*
X137316667Y-108685248D01*
X137307334Y-108662717D01*
X137240495Y-108501354D01*
X137240492Y-108501348D01*
X137219879Y-108470499D01*
X137151688Y-108368443D01*
X137129907Y-108335845D01*
X137129901Y-108335838D01*
X136989161Y-108195098D01*
X136989154Y-108195092D01*
X136823651Y-108084507D01*
X136823645Y-108084504D01*
X136639757Y-108008334D01*
X136639753Y-108008333D01*
X136444526Y-107969500D01*
X136245474Y-107969500D01*
X136050246Y-108008333D01*
X136050242Y-108008334D01*
X135866354Y-108084504D01*
X135866348Y-108084507D01*
X135700845Y-108195092D01*
X135700838Y-108195098D01*
X135560098Y-108335838D01*
X135560092Y-108335845D01*
X135449507Y-108501348D01*
X135449504Y-108501354D01*
X135373334Y-108685242D01*
X135373333Y-108685246D01*
X135358928Y-108757665D01*
X135334500Y-108880474D01*
X132690500Y-108880474D01*
X132690500Y-106913432D01*
X134100000Y-106913432D01*
X134100000Y-107086567D01*
X134100001Y-107086583D01*
X134127083Y-107257573D01*
X134127088Y-107257593D01*
X134180589Y-107422250D01*
X134180594Y-107422263D01*
X134259195Y-107576524D01*
X134293464Y-107623692D01*
X134731980Y-107185176D01*
X134734075Y-107192993D01*
X134799901Y-107307007D01*
X134892993Y-107400099D01*
X135007007Y-107465925D01*
X135014821Y-107468018D01*
X134576306Y-107906534D01*
X134623475Y-107940804D01*
X134777736Y-108019405D01*
X134777749Y-108019410D01*
X134942406Y-108072911D01*
X134942426Y-108072916D01*
X135113416Y-108099998D01*
X135113433Y-108100000D01*
X135286567Y-108100000D01*
X135286583Y-108099998D01*
X135457573Y-108072916D01*
X135457593Y-108072911D01*
X135622250Y-108019410D01*
X135622263Y-108019405D01*
X135776525Y-107940803D01*
X135823692Y-107906534D01*
X135385177Y-107468019D01*
X135392993Y-107465925D01*
X135507007Y-107400099D01*
X135600099Y-107307007D01*
X135665925Y-107192993D01*
X135668019Y-107185177D01*
X136106534Y-107623692D01*
X136140803Y-107576525D01*
X136219405Y-107422263D01*
X136219410Y-107422250D01*
X136269867Y-107266963D01*
X136303137Y-107224380D01*
X136355995Y-107213145D01*
X136403709Y-107238515D01*
X136420133Y-107266963D01*
X136470589Y-107422250D01*
X136470594Y-107422263D01*
X136549195Y-107576524D01*
X136583464Y-107623692D01*
X137021980Y-107185176D01*
X137024075Y-107192993D01*
X137089901Y-107307007D01*
X137182993Y-107400099D01*
X137297007Y-107465925D01*
X137304821Y-107468018D01*
X136866306Y-107906534D01*
X136913475Y-107940804D01*
X137067736Y-108019405D01*
X137067749Y-108019410D01*
X137232406Y-108072911D01*
X137232426Y-108072916D01*
X137403416Y-108099998D01*
X137403433Y-108100000D01*
X137576567Y-108100000D01*
X137576583Y-108099998D01*
X137747573Y-108072916D01*
X137747593Y-108072911D01*
X137912250Y-108019410D01*
X137912263Y-108019405D01*
X138066525Y-107940803D01*
X138113692Y-107906534D01*
X137675177Y-107468019D01*
X137682993Y-107465925D01*
X137797007Y-107400099D01*
X137890099Y-107307007D01*
X137955925Y-107192993D01*
X137958019Y-107185177D01*
X138396534Y-107623692D01*
X138430803Y-107576525D01*
X138509405Y-107422263D01*
X138509410Y-107422250D01*
X138559867Y-107266963D01*
X138593137Y-107224380D01*
X138645995Y-107213145D01*
X138693709Y-107238515D01*
X138710133Y-107266963D01*
X138760589Y-107422250D01*
X138760594Y-107422263D01*
X138839195Y-107576524D01*
X138873464Y-107623692D01*
X139311980Y-107185176D01*
X139314075Y-107192993D01*
X139379901Y-107307007D01*
X139472993Y-107400099D01*
X139587007Y-107465925D01*
X139594821Y-107468018D01*
X139156306Y-107906534D01*
X139203475Y-107940804D01*
X139357736Y-108019405D01*
X139357749Y-108019410D01*
X139522406Y-108072911D01*
X139522426Y-108072916D01*
X139693416Y-108099998D01*
X139693433Y-108100000D01*
X139866567Y-108100000D01*
X139866583Y-108099998D01*
X140037573Y-108072916D01*
X140037593Y-108072911D01*
X140202250Y-108019410D01*
X140202263Y-108019405D01*
X140356525Y-107940803D01*
X140403692Y-107906534D01*
X139965177Y-107468019D01*
X139972993Y-107465925D01*
X140087007Y-107400099D01*
X140180099Y-107307007D01*
X140245925Y-107192993D01*
X140248019Y-107185177D01*
X140686534Y-107623692D01*
X140720803Y-107576525D01*
X140799405Y-107422263D01*
X140799410Y-107422250D01*
X140852911Y-107257593D01*
X140852916Y-107257573D01*
X140879998Y-107086583D01*
X140880000Y-107086567D01*
X140880000Y-106913432D01*
X140879998Y-106913416D01*
X140852916Y-106742426D01*
X140852911Y-106742406D01*
X140799410Y-106577749D01*
X140799405Y-106577736D01*
X140720804Y-106423475D01*
X140686534Y-106376306D01*
X140248018Y-106814821D01*
X140245925Y-106807007D01*
X140180099Y-106692993D01*
X140087007Y-106599901D01*
X139972993Y-106534075D01*
X139965176Y-106531980D01*
X140403692Y-106093464D01*
X140356524Y-106059195D01*
X140202263Y-105980594D01*
X140202250Y-105980589D01*
X140037593Y-105927088D01*
X140037573Y-105927083D01*
X139866583Y-105900001D01*
X139866567Y-105900000D01*
X139693433Y-105900000D01*
X139693416Y-105900001D01*
X139522426Y-105927083D01*
X139522406Y-105927088D01*
X139357749Y-105980589D01*
X139357736Y-105980594D01*
X139203476Y-106059195D01*
X139156306Y-106093464D01*
X139594822Y-106531980D01*
X139587007Y-106534075D01*
X139472993Y-106599901D01*
X139379901Y-106692993D01*
X139314075Y-106807007D01*
X139311980Y-106814822D01*
X138873464Y-106376306D01*
X138839195Y-106423476D01*
X138760594Y-106577736D01*
X138760589Y-106577749D01*
X138710133Y-106733036D01*
X138676863Y-106775619D01*
X138624005Y-106786854D01*
X138576291Y-106761484D01*
X138559867Y-106733036D01*
X138509410Y-106577749D01*
X138509405Y-106577736D01*
X138430804Y-106423475D01*
X138396534Y-106376306D01*
X137958018Y-106814821D01*
X137955925Y-106807007D01*
X137890099Y-106692993D01*
X137797007Y-106599901D01*
X137682993Y-106534075D01*
X137675176Y-106531980D01*
X138113692Y-106093464D01*
X138066524Y-106059195D01*
X137912263Y-105980594D01*
X137912250Y-105980589D01*
X137747593Y-105927088D01*
X137747573Y-105927083D01*
X137576583Y-105900001D01*
X137576567Y-105900000D01*
X137434500Y-105900000D01*
X137383720Y-105881518D01*
X137356700Y-105834718D01*
X137355500Y-105821000D01*
X137355500Y-104920474D01*
X137624500Y-104920474D01*
X137624500Y-105119525D01*
X137663333Y-105314753D01*
X137663334Y-105314757D01*
X137739504Y-105498645D01*
X137739507Y-105498651D01*
X137850092Y-105664154D01*
X137850098Y-105664161D01*
X137990838Y-105804901D01*
X137990844Y-105804906D01*
X138156349Y-105915493D01*
X138156354Y-105915495D01*
X138340242Y-105991665D01*
X138340244Y-105991665D01*
X138340248Y-105991667D01*
X138535474Y-106030500D01*
X138734526Y-106030500D01*
X138929752Y-105991667D01*
X139113651Y-105915493D01*
X139279156Y-105804906D01*
X139419906Y-105664156D01*
X139530493Y-105498651D01*
X139606667Y-105314752D01*
X139645500Y-105119526D01*
X139645500Y-104920474D01*
X139606667Y-104725248D01*
X139583989Y-104670500D01*
X139530495Y-104541354D01*
X139530492Y-104541348D01*
X139419907Y-104375845D01*
X139419901Y-104375838D01*
X139279161Y-104235098D01*
X139279154Y-104235092D01*
X139113651Y-104124507D01*
X139113645Y-104124504D01*
X138929757Y-104048334D01*
X138929753Y-104048333D01*
X138734526Y-104009500D01*
X138535474Y-104009500D01*
X138340246Y-104048333D01*
X138340242Y-104048334D01*
X138156354Y-104124504D01*
X138156348Y-104124507D01*
X137990845Y-104235092D01*
X137990838Y-104235098D01*
X137850098Y-104375838D01*
X137850092Y-104375845D01*
X137739507Y-104541348D01*
X137739504Y-104541354D01*
X137663334Y-104725242D01*
X137663333Y-104725246D01*
X137624500Y-104920474D01*
X137355500Y-104920474D01*
X137355500Y-104154194D01*
X137346187Y-104107376D01*
X137310714Y-104054285D01*
X137270984Y-104027740D01*
X137257624Y-104018813D01*
X137257623Y-104018812D01*
X137210806Y-104009500D01*
X135479194Y-104009500D01*
X135432376Y-104018812D01*
X135379285Y-104054285D01*
X135343812Y-104107376D01*
X135334500Y-104154194D01*
X135334500Y-105821000D01*
X135316018Y-105871780D01*
X135269218Y-105898800D01*
X135255500Y-105900000D01*
X135113433Y-105900000D01*
X135113416Y-105900001D01*
X134942426Y-105927083D01*
X134942406Y-105927088D01*
X134777749Y-105980589D01*
X134777736Y-105980594D01*
X134623476Y-106059195D01*
X134576306Y-106093464D01*
X135014822Y-106531980D01*
X135007007Y-106534075D01*
X134892993Y-106599901D01*
X134799901Y-106692993D01*
X134734075Y-106807007D01*
X134731980Y-106814822D01*
X134293464Y-106376306D01*
X134259195Y-106423476D01*
X134180594Y-106577736D01*
X134180589Y-106577749D01*
X134127088Y-106742406D01*
X134127083Y-106742426D01*
X134100001Y-106913416D01*
X134100000Y-106913432D01*
X132690500Y-106913432D01*
X132690500Y-105507624D01*
X132708982Y-105456844D01*
X132755782Y-105429824D01*
X132758079Y-105429453D01*
X132791518Y-105424582D01*
X132907102Y-105368076D01*
X132998076Y-105277102D01*
X133054582Y-105161518D01*
X133065500Y-105086582D01*
X133065500Y-104563418D01*
X133054582Y-104488482D01*
X132998076Y-104372898D01*
X132998075Y-104372897D01*
X132998073Y-104372894D01*
X132907105Y-104281926D01*
X132907099Y-104281922D01*
X132846792Y-104252440D01*
X132791518Y-104225418D01*
X132791520Y-104225418D01*
X132716583Y-104214500D01*
X132716582Y-104214500D01*
X132143418Y-104214500D01*
X132143416Y-104214500D01*
X132068481Y-104225418D01*
X131952900Y-104281922D01*
X131952894Y-104281926D01*
X131861926Y-104372894D01*
X131861922Y-104372900D01*
X131805418Y-104488481D01*
X131794500Y-104563416D01*
X125600500Y-104563416D01*
X125600500Y-103013416D01*
X131794500Y-103013416D01*
X131794500Y-103536583D01*
X131805418Y-103611518D01*
X131861922Y-103727099D01*
X131861926Y-103727105D01*
X131952894Y-103818073D01*
X131952897Y-103818075D01*
X131952898Y-103818076D01*
X132068480Y-103874581D01*
X132068482Y-103874582D01*
X132143418Y-103885500D01*
X132143422Y-103885500D01*
X132716578Y-103885500D01*
X132716582Y-103885500D01*
X132791518Y-103874582D01*
X132907102Y-103818076D01*
X132998076Y-103727102D01*
X133054582Y-103611518D01*
X133056535Y-103598108D01*
X133082146Y-103550525D01*
X133132352Y-103530535D01*
X133134710Y-103530500D01*
X135181817Y-103530500D01*
X135237416Y-103507470D01*
X135277557Y-103490843D01*
X135277558Y-103490842D01*
X135277561Y-103490841D01*
X136700841Y-102067561D01*
X136712583Y-102039214D01*
X136740500Y-101971817D01*
X136740500Y-100870623D01*
X136758982Y-100819843D01*
X136763628Y-100814773D01*
X137568574Y-100009826D01*
X137617549Y-99986989D01*
X137654662Y-99992701D01*
X137753322Y-100033567D01*
X137840661Y-100069744D01*
X137840663Y-100069745D01*
X138045550Y-100110500D01*
X138254450Y-100110500D01*
X138459336Y-100069745D01*
X138459338Y-100069744D01*
X138652335Y-99989803D01*
X138826029Y-99873744D01*
X138973744Y-99726029D01*
X139089803Y-99552335D01*
X139169745Y-99359336D01*
X139173677Y-99339569D01*
X139201710Y-99293370D01*
X139252881Y-99275999D01*
X139303246Y-99295584D01*
X139329186Y-99342622D01*
X139349645Y-99471799D01*
X139349650Y-99471819D01*
X139428955Y-99715892D01*
X139428960Y-99715905D01*
X139545471Y-99944568D01*
X139545475Y-99944574D01*
X139694209Y-100149289D01*
X139696324Y-100152200D01*
X139696328Y-100152204D01*
X139696333Y-100152210D01*
X139877789Y-100333666D01*
X139877795Y-100333671D01*
X139877800Y-100333676D01*
X140085432Y-100484529D01*
X140121829Y-100503074D01*
X140314094Y-100601039D01*
X140314098Y-100601040D01*
X140314105Y-100601044D01*
X140490527Y-100658367D01*
X140558180Y-100680349D01*
X140558183Y-100680349D01*
X140558190Y-100680352D01*
X140558195Y-100680352D01*
X140558200Y-100680354D01*
X140762795Y-100712758D01*
X140811677Y-100720500D01*
X140811682Y-100720500D01*
X141068318Y-100720500D01*
X141068323Y-100720500D01*
X141195066Y-100700426D01*
X141321799Y-100680354D01*
X141321801Y-100680353D01*
X141321810Y-100680352D01*
X141565895Y-100601044D01*
X141794568Y-100484529D01*
X142002200Y-100333676D01*
X142183676Y-100152200D01*
X142334529Y-99944568D01*
X142445878Y-99726034D01*
X142451039Y-99715905D01*
X142451039Y-99715904D01*
X142451044Y-99715895D01*
X142530352Y-99471810D01*
X142550033Y-99347551D01*
X142558614Y-99293370D01*
X142570500Y-99218323D01*
X142570500Y-98961677D01*
X142549357Y-98828183D01*
X142530354Y-98708200D01*
X142530349Y-98708180D01*
X142502915Y-98623747D01*
X142451044Y-98464105D01*
X142451040Y-98464098D01*
X142451039Y-98464094D01*
X142377937Y-98320624D01*
X142334529Y-98235432D01*
X142183676Y-98027800D01*
X142183671Y-98027795D01*
X142183666Y-98027789D01*
X142002210Y-97846333D01*
X142002204Y-97846328D01*
X142002200Y-97846324D01*
X142002192Y-97846318D01*
X141794574Y-97695475D01*
X141794568Y-97695471D01*
X141565905Y-97578960D01*
X141565892Y-97578955D01*
X141321819Y-97499650D01*
X141321799Y-97499645D01*
X141068334Y-97459501D01*
X141068326Y-97459500D01*
X141068323Y-97459500D01*
X140811677Y-97459500D01*
X140811674Y-97459500D01*
X140811665Y-97459501D01*
X140558200Y-97499645D01*
X140558180Y-97499650D01*
X140314107Y-97578955D01*
X140314094Y-97578960D01*
X140085431Y-97695471D01*
X140085425Y-97695475D01*
X139877807Y-97846318D01*
X139877789Y-97846333D01*
X139696333Y-98027789D01*
X139696318Y-98027807D01*
X139545475Y-98235425D01*
X139545471Y-98235431D01*
X139428960Y-98464094D01*
X139428955Y-98464107D01*
X139364633Y-98662069D01*
X139331363Y-98704652D01*
X139278505Y-98715887D01*
X139230791Y-98690517D01*
X139210548Y-98640413D01*
X139210500Y-98637656D01*
X139210500Y-97945550D01*
X139169745Y-97740663D01*
X139169744Y-97740661D01*
X139102764Y-97578956D01*
X139089803Y-97547665D01*
X138973744Y-97373971D01*
X138973739Y-97373965D01*
X138826034Y-97226260D01*
X138826027Y-97226254D01*
X138665749Y-97119160D01*
X138652335Y-97110197D01*
X138652332Y-97110196D01*
X138652331Y-97110195D01*
X138459338Y-97030255D01*
X138459336Y-97030254D01*
X138254450Y-96989500D01*
X138045550Y-96989500D01*
X137840663Y-97030254D01*
X137840661Y-97030255D01*
X137647668Y-97110195D01*
X137647663Y-97110198D01*
X137473972Y-97226254D01*
X137473965Y-97226260D01*
X137326260Y-97373965D01*
X137326254Y-97373972D01*
X137210198Y-97547663D01*
X137210195Y-97547668D01*
X137130255Y-97740661D01*
X137130254Y-97740663D01*
X137096493Y-97910392D01*
X137089500Y-97945550D01*
X137089500Y-99154450D01*
X137093686Y-99175496D01*
X137130254Y-99359336D01*
X137130255Y-99359338D01*
X137211682Y-99555920D01*
X137210713Y-99556321D01*
X137217751Y-99605704D01*
X137196307Y-99645289D01*
X136332439Y-100509159D01*
X136304442Y-100537156D01*
X136259158Y-100582439D01*
X136259156Y-100582442D01*
X136219500Y-100678180D01*
X136219500Y-101779376D01*
X136201018Y-101830156D01*
X136196361Y-101835237D01*
X135045237Y-102986361D01*
X134996261Y-103009199D01*
X134989376Y-103009500D01*
X133133253Y-103009500D01*
X133082473Y-102991018D01*
X133055453Y-102944218D01*
X133055078Y-102941889D01*
X133054582Y-102938482D01*
X132998076Y-102822898D01*
X132998075Y-102822897D01*
X132998073Y-102822894D01*
X132907105Y-102731926D01*
X132907099Y-102731922D01*
X132846792Y-102702440D01*
X132791518Y-102675418D01*
X132791520Y-102675418D01*
X132716583Y-102664500D01*
X132716582Y-102664500D01*
X132143418Y-102664500D01*
X132143416Y-102664500D01*
X132068481Y-102675418D01*
X131952900Y-102731922D01*
X131952894Y-102731926D01*
X131861926Y-102822894D01*
X131861922Y-102822900D01*
X131805418Y-102938481D01*
X131794500Y-103013416D01*
X125600500Y-103013416D01*
X125600500Y-99917569D01*
X125618982Y-99866789D01*
X125665782Y-99839769D01*
X125719000Y-99849153D01*
X125735361Y-99861708D01*
X125800814Y-99927161D01*
X125800832Y-99927176D01*
X125947262Y-100033563D01*
X125947268Y-100033567D01*
X126108542Y-100115742D01*
X126108558Y-100115749D01*
X126280702Y-100171681D01*
X126280698Y-100171681D01*
X126350000Y-100182656D01*
X126350000Y-99511879D01*
X126357007Y-99515925D01*
X126484174Y-99550000D01*
X126615826Y-99550000D01*
X126742993Y-99515925D01*
X126750000Y-99511879D01*
X126750000Y-100182655D01*
X126819299Y-100171681D01*
X126991441Y-100115749D01*
X126991457Y-100115742D01*
X127152731Y-100033567D01*
X127152737Y-100033563D01*
X127273877Y-99945550D01*
X127889500Y-99945550D01*
X127889500Y-101154450D01*
X127890117Y-101157550D01*
X127930254Y-101359336D01*
X127930255Y-101359338D01*
X128010195Y-101552331D01*
X128010198Y-101552336D01*
X128126254Y-101726027D01*
X128126260Y-101726034D01*
X128273965Y-101873739D01*
X128273971Y-101873744D01*
X128447665Y-101989803D01*
X128448515Y-101990155D01*
X128640661Y-102069744D01*
X128640663Y-102069745D01*
X128845550Y-102110500D01*
X129054450Y-102110500D01*
X129259336Y-102069745D01*
X129259338Y-102069744D01*
X129264601Y-102067564D01*
X129452335Y-101989803D01*
X129626029Y-101873744D01*
X129773744Y-101726029D01*
X129889803Y-101552335D01*
X129969745Y-101359336D01*
X130010500Y-101154450D01*
X130010500Y-99945550D01*
X129969745Y-99740664D01*
X129959485Y-99715895D01*
X129891737Y-99552335D01*
X129889803Y-99547665D01*
X129773744Y-99373971D01*
X129773739Y-99373965D01*
X129626034Y-99226260D01*
X129626030Y-99226257D01*
X129619811Y-99222101D01*
X129587860Y-99178519D01*
X129591397Y-99124596D01*
X129607841Y-99100559D01*
X130762851Y-97945550D01*
X131589500Y-97945550D01*
X131589500Y-99154450D01*
X131593686Y-99175496D01*
X131630254Y-99359336D01*
X131630255Y-99359338D01*
X131710195Y-99552331D01*
X131710197Y-99552335D01*
X131741866Y-99599731D01*
X131826254Y-99726027D01*
X131826260Y-99726034D01*
X131973965Y-99873739D01*
X131973972Y-99873745D01*
X132014167Y-99900602D01*
X132147665Y-99989803D01*
X132154664Y-99992702D01*
X132340661Y-100069744D01*
X132340663Y-100069745D01*
X132545550Y-100110500D01*
X132754450Y-100110500D01*
X132959336Y-100069745D01*
X132959338Y-100069744D01*
X133152335Y-99989803D01*
X133266611Y-99913445D01*
X133319100Y-99900602D01*
X133367567Y-99924502D01*
X133389331Y-99973965D01*
X133389500Y-99979132D01*
X133389500Y-101154450D01*
X133390117Y-101157550D01*
X133430254Y-101359336D01*
X133430255Y-101359338D01*
X133510195Y-101552331D01*
X133510198Y-101552336D01*
X133626254Y-101726027D01*
X133626260Y-101726034D01*
X133773965Y-101873739D01*
X133773971Y-101873744D01*
X133947665Y-101989803D01*
X133948515Y-101990155D01*
X134140661Y-102069744D01*
X134140663Y-102069745D01*
X134345550Y-102110500D01*
X134554450Y-102110500D01*
X134759336Y-102069745D01*
X134759338Y-102069744D01*
X134764601Y-102067564D01*
X134952335Y-101989803D01*
X135126029Y-101873744D01*
X135273744Y-101726029D01*
X135389803Y-101552335D01*
X135469745Y-101359336D01*
X135510500Y-101154450D01*
X135510500Y-99945550D01*
X135469745Y-99740664D01*
X135459485Y-99715895D01*
X135391737Y-99552335D01*
X135389803Y-99547665D01*
X135273744Y-99373971D01*
X135273739Y-99373965D01*
X135126034Y-99226260D01*
X135126027Y-99226254D01*
X134997689Y-99140502D01*
X134952335Y-99110197D01*
X134952332Y-99110196D01*
X134952331Y-99110195D01*
X134759338Y-99030255D01*
X134759336Y-99030254D01*
X134554450Y-98989500D01*
X134345550Y-98989500D01*
X134140663Y-99030254D01*
X134140661Y-99030255D01*
X133947668Y-99110195D01*
X133947663Y-99110198D01*
X133833390Y-99186553D01*
X133780899Y-99199397D01*
X133732433Y-99175496D01*
X133710669Y-99126034D01*
X133710500Y-99120867D01*
X133710500Y-97945550D01*
X133669745Y-97740663D01*
X133669744Y-97740661D01*
X133602764Y-97578956D01*
X133589803Y-97547665D01*
X133473744Y-97373971D01*
X133473739Y-97373965D01*
X133326034Y-97226260D01*
X133326027Y-97226254D01*
X133165749Y-97119160D01*
X133152335Y-97110197D01*
X133152332Y-97110196D01*
X133152331Y-97110195D01*
X132959338Y-97030255D01*
X132959336Y-97030254D01*
X132754450Y-96989500D01*
X132545550Y-96989500D01*
X132340663Y-97030254D01*
X132340661Y-97030255D01*
X132147668Y-97110195D01*
X132147663Y-97110198D01*
X131973972Y-97226254D01*
X131973965Y-97226260D01*
X131826260Y-97373965D01*
X131826254Y-97373972D01*
X131710198Y-97547663D01*
X131710195Y-97547668D01*
X131630255Y-97740661D01*
X131630254Y-97740663D01*
X131596493Y-97910392D01*
X131589500Y-97945550D01*
X130762851Y-97945550D01*
X132734763Y-95973639D01*
X132783739Y-95950801D01*
X132790624Y-95950500D01*
X133898648Y-95950500D01*
X133949428Y-95968982D01*
X133976448Y-96015782D01*
X133977085Y-96020083D01*
X133979833Y-96042978D01*
X134033835Y-96179918D01*
X134033839Y-96179926D01*
X134048818Y-96199678D01*
X134122784Y-96297216D01*
X134181599Y-96341817D01*
X134240073Y-96386160D01*
X134240076Y-96386161D01*
X134240078Y-96386163D01*
X134377021Y-96440166D01*
X134377023Y-96440166D01*
X134377027Y-96440167D01*
X134412438Y-96444419D01*
X134463073Y-96450500D01*
X135296926Y-96450499D01*
X135382979Y-96440166D01*
X135519922Y-96386163D01*
X135637216Y-96297216D01*
X135726163Y-96179922D01*
X135780166Y-96042979D01*
X135790500Y-95956927D01*
X135790499Y-95123074D01*
X135790498Y-95123065D01*
X136389500Y-95123065D01*
X136389500Y-95956922D01*
X136399833Y-96042978D01*
X136453835Y-96179918D01*
X136453839Y-96179926D01*
X136468818Y-96199678D01*
X136542784Y-96297216D01*
X136601599Y-96341817D01*
X136660073Y-96386160D01*
X136660076Y-96386161D01*
X136660078Y-96386163D01*
X136797021Y-96440166D01*
X136797023Y-96440166D01*
X136797027Y-96440167D01*
X136832438Y-96444419D01*
X136883073Y-96450500D01*
X137716926Y-96450499D01*
X137802979Y-96440166D01*
X137939922Y-96386163D01*
X138057216Y-96297216D01*
X138108967Y-96228971D01*
X138154377Y-96199678D01*
X138207993Y-96206427D01*
X138244727Y-96246060D01*
X138249396Y-96261294D01*
X138249500Y-96261819D01*
X138289156Y-96357557D01*
X138289161Y-96357564D01*
X138780973Y-96849376D01*
X139162439Y-97230842D01*
X139258183Y-97270500D01*
X139361817Y-97270500D01*
X141769376Y-97270500D01*
X141820156Y-97288982D01*
X141825237Y-97293639D01*
X142706361Y-98174763D01*
X142729199Y-98223739D01*
X142729500Y-98230624D01*
X142729500Y-101939375D01*
X142711018Y-101990155D01*
X142706361Y-101995236D01*
X142272948Y-102428650D01*
X141922439Y-102779159D01*
X141893696Y-102807902D01*
X141849158Y-102852439D01*
X141849156Y-102852442D01*
X141809500Y-102948180D01*
X141809500Y-104284715D01*
X141791018Y-104335495D01*
X141744218Y-104362515D01*
X141691000Y-104353131D01*
X141674639Y-104340576D01*
X141569161Y-104235098D01*
X141569154Y-104235092D01*
X141403651Y-104124507D01*
X141403645Y-104124504D01*
X141219757Y-104048334D01*
X141219753Y-104048333D01*
X141024526Y-104009500D01*
X140825474Y-104009500D01*
X140630246Y-104048333D01*
X140630242Y-104048334D01*
X140446354Y-104124504D01*
X140446348Y-104124507D01*
X140280845Y-104235092D01*
X140280838Y-104235098D01*
X140140098Y-104375838D01*
X140140092Y-104375845D01*
X140029507Y-104541348D01*
X140029504Y-104541354D01*
X139953334Y-104725242D01*
X139953333Y-104725246D01*
X139914500Y-104920474D01*
X139914500Y-105119525D01*
X139953333Y-105314753D01*
X139953334Y-105314757D01*
X140029504Y-105498645D01*
X140029507Y-105498651D01*
X140140092Y-105664154D01*
X140140098Y-105664161D01*
X140280838Y-105804901D01*
X140280844Y-105804906D01*
X140446349Y-105915493D01*
X140446354Y-105915495D01*
X140630242Y-105991665D01*
X140630244Y-105991665D01*
X140630248Y-105991667D01*
X140825474Y-106030500D01*
X141024526Y-106030500D01*
X141219752Y-105991667D01*
X141403651Y-105915493D01*
X141569156Y-105804906D01*
X141618777Y-105755285D01*
X141674639Y-105699424D01*
X141723615Y-105676586D01*
X141775813Y-105690572D01*
X141806808Y-105734838D01*
X141809500Y-105755285D01*
X141809500Y-105961359D01*
X141791018Y-106012139D01*
X141760732Y-106034345D01*
X141591354Y-106104504D01*
X141591348Y-106104507D01*
X141425845Y-106215092D01*
X141425838Y-106215098D01*
X141285098Y-106355838D01*
X141285092Y-106355845D01*
X141174507Y-106521348D01*
X141174504Y-106521354D01*
X141098334Y-106705242D01*
X141098333Y-106705246D01*
X141081093Y-106791917D01*
X141059500Y-106900474D01*
X141059500Y-107099526D01*
X141069468Y-107149639D01*
X141098333Y-107294753D01*
X141098334Y-107294757D01*
X141174504Y-107478645D01*
X141174507Y-107478651D01*
X141285092Y-107644154D01*
X141285098Y-107644161D01*
X141425838Y-107784901D01*
X141425844Y-107784906D01*
X141591349Y-107895493D01*
X141591354Y-107895495D01*
X141775242Y-107971665D01*
X141775244Y-107971665D01*
X141775248Y-107971667D01*
X141970474Y-108010500D01*
X142169526Y-108010500D01*
X142364752Y-107971667D01*
X142548651Y-107895493D01*
X142714156Y-107784906D01*
X142854906Y-107644156D01*
X142965493Y-107478651D01*
X143041667Y-107294752D01*
X143080500Y-107099526D01*
X143080500Y-106913432D01*
X143260000Y-106913432D01*
X143260000Y-107086567D01*
X143260001Y-107086583D01*
X143287083Y-107257573D01*
X143287088Y-107257593D01*
X143340589Y-107422250D01*
X143340594Y-107422263D01*
X143419195Y-107576524D01*
X143453464Y-107623692D01*
X143891980Y-107185176D01*
X143894075Y-107192993D01*
X143959901Y-107307007D01*
X144052993Y-107400099D01*
X144167007Y-107465925D01*
X144174821Y-107468018D01*
X143736306Y-107906534D01*
X143783475Y-107940804D01*
X143937736Y-108019405D01*
X143937749Y-108019410D01*
X144102406Y-108072911D01*
X144102426Y-108072916D01*
X144273416Y-108099998D01*
X144273433Y-108100000D01*
X144446567Y-108100000D01*
X144446583Y-108099998D01*
X144617573Y-108072916D01*
X144617593Y-108072911D01*
X144782250Y-108019410D01*
X144782263Y-108019405D01*
X144936525Y-107940803D01*
X144983692Y-107906534D01*
X144545177Y-107468019D01*
X144552993Y-107465925D01*
X144667007Y-107400099D01*
X144760099Y-107307007D01*
X144825925Y-107192993D01*
X144828019Y-107185177D01*
X145266534Y-107623692D01*
X145300803Y-107576525D01*
X145379405Y-107422263D01*
X145379410Y-107422250D01*
X145432911Y-107257593D01*
X145432916Y-107257573D01*
X145459998Y-107086583D01*
X145460000Y-107086567D01*
X145460000Y-106913432D01*
X145459998Y-106913416D01*
X145454700Y-106879961D01*
X145453563Y-106872780D01*
X145689500Y-106872780D01*
X145689500Y-107007199D01*
X145724289Y-107137035D01*
X145724290Y-107137037D01*
X145791499Y-107253446D01*
X145886543Y-107348490D01*
X145989440Y-107407898D01*
X146002954Y-107415700D01*
X146132791Y-107450490D01*
X146132793Y-107450490D01*
X146267207Y-107450490D01*
X146267209Y-107450490D01*
X146397046Y-107415700D01*
X146513454Y-107348492D01*
X146608502Y-107253444D01*
X146675710Y-107137036D01*
X146710500Y-107007199D01*
X146710500Y-106872781D01*
X146706479Y-106857775D01*
X146711186Y-106803943D01*
X146726922Y-106781468D01*
X146974754Y-106533638D01*
X147023730Y-106510801D01*
X147030615Y-106510500D01*
X147347276Y-106510500D01*
X147398056Y-106528982D01*
X147425076Y-106575782D01*
X147425451Y-106578110D01*
X147435418Y-106646518D01*
X147491922Y-106762099D01*
X147491926Y-106762105D01*
X147582894Y-106853073D01*
X147582897Y-106853075D01*
X147582898Y-106853076D01*
X147698480Y-106909581D01*
X147698482Y-106909582D01*
X147773418Y-106920500D01*
X147773422Y-106920500D01*
X148346578Y-106920500D01*
X148346582Y-106920500D01*
X148421518Y-106909582D01*
X148537102Y-106853076D01*
X148539818Y-106850360D01*
X148598262Y-106791917D01*
X148628073Y-106762105D01*
X148628076Y-106762102D01*
X148684582Y-106646518D01*
X148695500Y-106571582D01*
X148695500Y-106048418D01*
X148684582Y-105973482D01*
X148628076Y-105857898D01*
X148628075Y-105857897D01*
X148628073Y-105857894D01*
X148537105Y-105766926D01*
X148537099Y-105766922D01*
X148476792Y-105737440D01*
X148421518Y-105710418D01*
X148421520Y-105710418D01*
X148346583Y-105699500D01*
X148346582Y-105699500D01*
X147773418Y-105699500D01*
X147773416Y-105699500D01*
X147698481Y-105710418D01*
X147582900Y-105766922D01*
X147582894Y-105766926D01*
X147491926Y-105857894D01*
X147491923Y-105857898D01*
X147449246Y-105945197D01*
X147410339Y-105982700D01*
X147378273Y-105989500D01*
X146838173Y-105989500D01*
X146761675Y-106021187D01*
X146759794Y-106021966D01*
X146742430Y-106029157D01*
X146742428Y-106029159D01*
X146358522Y-106413064D01*
X146309546Y-106435901D01*
X146282216Y-106433511D01*
X146275599Y-106431738D01*
X146267209Y-106429490D01*
X146132791Y-106429490D01*
X146132790Y-106429490D01*
X146002954Y-106464279D01*
X146002952Y-106464280D01*
X145886543Y-106531489D01*
X145791499Y-106626533D01*
X145724290Y-106742942D01*
X145724289Y-106742944D01*
X145689500Y-106872780D01*
X145453563Y-106872780D01*
X145432915Y-106742424D01*
X145432911Y-106742406D01*
X145379410Y-106577749D01*
X145379405Y-106577736D01*
X145300804Y-106423475D01*
X145266534Y-106376306D01*
X144828018Y-106814821D01*
X144825925Y-106807007D01*
X144760099Y-106692993D01*
X144667007Y-106599901D01*
X144552993Y-106534075D01*
X144545176Y-106531980D01*
X144998155Y-106079001D01*
X145000440Y-106070760D01*
X145044973Y-106040148D01*
X145089172Y-106041497D01*
X145247407Y-106092911D01*
X145247426Y-106092916D01*
X145418416Y-106119998D01*
X145418433Y-106120000D01*
X145591567Y-106120000D01*
X145591583Y-106119998D01*
X145762573Y-106092916D01*
X145762593Y-106092911D01*
X145927250Y-106039410D01*
X145927263Y-106039405D01*
X146081525Y-105960803D01*
X146128692Y-105926534D01*
X145690177Y-105488019D01*
X145697993Y-105485925D01*
X145812007Y-105420099D01*
X145905099Y-105327007D01*
X145970925Y-105212993D01*
X145973019Y-105205177D01*
X146411534Y-105643692D01*
X146445803Y-105596525D01*
X146524405Y-105442263D01*
X146524410Y-105442250D01*
X146577911Y-105277593D01*
X146577916Y-105277573D01*
X146604998Y-105106583D01*
X146605000Y-105106567D01*
X146605000Y-104933432D01*
X146604998Y-104933416D01*
X146577916Y-104762426D01*
X146577911Y-104762406D01*
X146524410Y-104597749D01*
X146524405Y-104597736D01*
X146445804Y-104443475D01*
X146411534Y-104396306D01*
X145973018Y-104834821D01*
X145970925Y-104827007D01*
X145905099Y-104712993D01*
X145812007Y-104619901D01*
X145697993Y-104554075D01*
X145690176Y-104551980D01*
X146128692Y-104113464D01*
X146081524Y-104079195D01*
X145927263Y-104000594D01*
X145927250Y-104000589D01*
X145762593Y-103947088D01*
X145762573Y-103947083D01*
X145591583Y-103920001D01*
X145591567Y-103920000D01*
X145418433Y-103920000D01*
X145418416Y-103920001D01*
X145247426Y-103947083D01*
X145247406Y-103947088D01*
X145082749Y-104000589D01*
X145082736Y-104000594D01*
X144928476Y-104079195D01*
X144881306Y-104113464D01*
X145319822Y-104551980D01*
X145312007Y-104554075D01*
X145197993Y-104619901D01*
X145104901Y-104712993D01*
X145039075Y-104827007D01*
X145036980Y-104834822D01*
X144598464Y-104396306D01*
X144564195Y-104443476D01*
X144485594Y-104597736D01*
X144485589Y-104597749D01*
X144432088Y-104762406D01*
X144432083Y-104762426D01*
X144405001Y-104933416D01*
X144405000Y-104933432D01*
X144405000Y-105106567D01*
X144405001Y-105106583D01*
X144432083Y-105277573D01*
X144432088Y-105277593D01*
X144485589Y-105442250D01*
X144485594Y-105442263D01*
X144564195Y-105596524D01*
X144598464Y-105643692D01*
X145036980Y-105205176D01*
X145039075Y-105212993D01*
X145104901Y-105327007D01*
X145197993Y-105420099D01*
X145312007Y-105485925D01*
X145319821Y-105488018D01*
X144866838Y-105941002D01*
X144864551Y-105949248D01*
X144820014Y-105979854D01*
X144775826Y-105978502D01*
X144617592Y-105927088D01*
X144617573Y-105927083D01*
X144446583Y-105900001D01*
X144446567Y-105900000D01*
X144273433Y-105900000D01*
X144273416Y-105900001D01*
X144102426Y-105927083D01*
X144102406Y-105927088D01*
X143937749Y-105980589D01*
X143937736Y-105980594D01*
X143783476Y-106059195D01*
X143736306Y-106093464D01*
X144174822Y-106531980D01*
X144167007Y-106534075D01*
X144052993Y-106599901D01*
X143959901Y-106692993D01*
X143894075Y-106807007D01*
X143891980Y-106814822D01*
X143453464Y-106376306D01*
X143419195Y-106423476D01*
X143340594Y-106577736D01*
X143340589Y-106577749D01*
X143287088Y-106742406D01*
X143287083Y-106742426D01*
X143260001Y-106913416D01*
X143260000Y-106913432D01*
X143080500Y-106913432D01*
X143080500Y-106900474D01*
X143041667Y-106705248D01*
X143008564Y-106625332D01*
X142965495Y-106521354D01*
X142965492Y-106521348D01*
X142854907Y-106355845D01*
X142854901Y-106355838D01*
X142714161Y-106215098D01*
X142714154Y-106215092D01*
X142675491Y-106189259D01*
X142548651Y-106104507D01*
X142548645Y-106104504D01*
X142379268Y-106034345D01*
X142339426Y-105997837D01*
X142330500Y-105961359D01*
X142330500Y-105755285D01*
X142348982Y-105704505D01*
X142395782Y-105677485D01*
X142449000Y-105686869D01*
X142465361Y-105699424D01*
X142570838Y-105804901D01*
X142570844Y-105804906D01*
X142736349Y-105915493D01*
X142736354Y-105915495D01*
X142920242Y-105991665D01*
X142920244Y-105991665D01*
X142920248Y-105991667D01*
X143115474Y-106030500D01*
X143314526Y-106030500D01*
X143509752Y-105991667D01*
X143693651Y-105915493D01*
X143859156Y-105804906D01*
X143999906Y-105664156D01*
X144110493Y-105498651D01*
X144186667Y-105314752D01*
X144225500Y-105119526D01*
X144225500Y-104920474D01*
X144186667Y-104725248D01*
X144163989Y-104670500D01*
X144110495Y-104541354D01*
X144110492Y-104541348D01*
X143999907Y-104375845D01*
X143999901Y-104375838D01*
X143859161Y-104235098D01*
X143859154Y-104235092D01*
X143820491Y-104209259D01*
X143693651Y-104124507D01*
X143693645Y-104124504D01*
X143509757Y-104048334D01*
X143509753Y-104048333D01*
X143314526Y-104009500D01*
X143115474Y-104009500D01*
X142920246Y-104048333D01*
X142920242Y-104048334D01*
X142736354Y-104124504D01*
X142736348Y-104124507D01*
X142570845Y-104235092D01*
X142570838Y-104235098D01*
X142465361Y-104340576D01*
X142416385Y-104363414D01*
X142364187Y-104349428D01*
X142333192Y-104305162D01*
X142330500Y-104284715D01*
X142330500Y-103140624D01*
X142348982Y-103089844D01*
X142353627Y-103084774D01*
X143210841Y-102227562D01*
X143222456Y-102199518D01*
X143250500Y-102131817D01*
X143250500Y-98038183D01*
X143224777Y-97976082D01*
X143224777Y-97976081D01*
X143224777Y-97976080D01*
X143210844Y-97942443D01*
X143210843Y-97942441D01*
X143210842Y-97942439D01*
X142642368Y-97373965D01*
X142057564Y-96789161D01*
X142057557Y-96789156D01*
X141961818Y-96749500D01*
X141961817Y-96749500D01*
X139450625Y-96749500D01*
X139399845Y-96731018D01*
X139394774Y-96726371D01*
X139253763Y-96585360D01*
X139230926Y-96536384D01*
X139244912Y-96484186D01*
X139289179Y-96453191D01*
X139309617Y-96450499D01*
X140136926Y-96450499D01*
X140222979Y-96440166D01*
X140359922Y-96386163D01*
X140477216Y-96297216D01*
X140566163Y-96179922D01*
X140620166Y-96042979D01*
X140630500Y-95956927D01*
X140630499Y-95123074D01*
X140620166Y-95037021D01*
X140566163Y-94900078D01*
X140566161Y-94900076D01*
X140566160Y-94900073D01*
X140514593Y-94832073D01*
X140477216Y-94782784D01*
X140427571Y-94745137D01*
X140359926Y-94693839D01*
X140359918Y-94693835D01*
X140222977Y-94639833D01*
X140222972Y-94639832D01*
X140136934Y-94629500D01*
X140136927Y-94629500D01*
X140049500Y-94629500D01*
X139998720Y-94611018D01*
X139971700Y-94564218D01*
X139970500Y-94550500D01*
X139970500Y-92620624D01*
X139988982Y-92569844D01*
X139993639Y-92564763D01*
X140984763Y-91573639D01*
X141033739Y-91550801D01*
X141040624Y-91550500D01*
X142339376Y-91550500D01*
X142390156Y-91568982D01*
X142395237Y-91573639D01*
X143599159Y-92777561D01*
X143672439Y-92850841D01*
X143672442Y-92850843D01*
X143768180Y-92890499D01*
X143768183Y-92890500D01*
X146469376Y-92890500D01*
X146520156Y-92908982D01*
X146525237Y-92913639D01*
X148776361Y-95164763D01*
X148799199Y-95213739D01*
X148799500Y-95220624D01*
X148799500Y-96341819D01*
X148839156Y-96437557D01*
X148839161Y-96437564D01*
X149552435Y-97150839D01*
X149552437Y-97150840D01*
X149552439Y-97150842D01*
X149648183Y-97190500D01*
X149751817Y-97190500D01*
X153869376Y-97190500D01*
X153920156Y-97208982D01*
X153925237Y-97213639D01*
X154976361Y-98264763D01*
X154999199Y-98313739D01*
X154999500Y-98320624D01*
X154999500Y-102909376D01*
X154981018Y-102960156D01*
X154976361Y-102965237D01*
X153815237Y-104126361D01*
X153766261Y-104149199D01*
X153759376Y-104149500D01*
X151447300Y-104149500D01*
X151396520Y-104131018D01*
X151369500Y-104084218D01*
X151368300Y-104070500D01*
X151368300Y-103773370D01*
X151362662Y-103730549D01*
X151362661Y-103730541D01*
X151362661Y-103730539D01*
X151328586Y-103603372D01*
X151312052Y-103563457D01*
X151246226Y-103449443D01*
X151219925Y-103415167D01*
X151219922Y-103415164D01*
X151219916Y-103415157D01*
X151126842Y-103322083D01*
X151126835Y-103322077D01*
X151126833Y-103322075D01*
X151092557Y-103295774D01*
X151081169Y-103289199D01*
X150978549Y-103229951D01*
X150978546Y-103229949D01*
X150978543Y-103229948D01*
X150962395Y-103223259D01*
X150938625Y-103213412D01*
X150811458Y-103179338D01*
X150811450Y-103179337D01*
X150768630Y-103173700D01*
X150768626Y-103173700D01*
X150152800Y-103173700D01*
X150132851Y-103174907D01*
X150051591Y-103205724D01*
X149997557Y-103206448D01*
X149979690Y-103197545D01*
X149978708Y-103196889D01*
X149965424Y-103188013D01*
X149965421Y-103188012D01*
X149965423Y-103188012D01*
X149918606Y-103178700D01*
X149719500Y-103178700D01*
X149668720Y-103160218D01*
X149641700Y-103113418D01*
X149640500Y-103099700D01*
X149640500Y-102840625D01*
X149658982Y-102789845D01*
X149663639Y-102784763D01*
X149814765Y-102633638D01*
X149863741Y-102610801D01*
X149870626Y-102610500D01*
X150719376Y-102610500D01*
X150770156Y-102628982D01*
X150775236Y-102633638D01*
X151839159Y-103697561D01*
X151912436Y-103770838D01*
X151912439Y-103770841D01*
X151912442Y-103770843D01*
X152008180Y-103810499D01*
X152008183Y-103810500D01*
X153341817Y-103810500D01*
X153373731Y-103797280D01*
X153437557Y-103770843D01*
X153437558Y-103770842D01*
X153437561Y-103770841D01*
X153870842Y-103337561D01*
X153910500Y-103241817D01*
X153910500Y-103138183D01*
X153910500Y-103009062D01*
X153928982Y-102958282D01*
X153959263Y-102936078D01*
X153975743Y-102929252D01*
X154089757Y-102863426D01*
X154124033Y-102837125D01*
X154217125Y-102744033D01*
X154243426Y-102709757D01*
X154309252Y-102595743D01*
X154325786Y-102555828D01*
X154359861Y-102428661D01*
X154365500Y-102385826D01*
X154365500Y-101754174D01*
X154365500Y-101754170D01*
X154361978Y-101727422D01*
X154359861Y-101711339D01*
X154325786Y-101584172D01*
X154309252Y-101544257D01*
X154243426Y-101430243D01*
X154217125Y-101395967D01*
X154217122Y-101395964D01*
X154217116Y-101395957D01*
X154124042Y-101302883D01*
X154124035Y-101302877D01*
X154124033Y-101302875D01*
X154089757Y-101276574D01*
X154030949Y-101242621D01*
X153975745Y-101210749D01*
X153959265Y-101203922D01*
X153919425Y-101167412D01*
X153910500Y-101130937D01*
X153910500Y-99059500D01*
X153928982Y-99008720D01*
X153975782Y-98981700D01*
X153989500Y-98980500D01*
X154127207Y-98980500D01*
X154127209Y-98980500D01*
X154257046Y-98945710D01*
X154373454Y-98878502D01*
X154468502Y-98783454D01*
X154535710Y-98667046D01*
X154570500Y-98537209D01*
X154570500Y-98402791D01*
X154535710Y-98272954D01*
X154468502Y-98156546D01*
X154468501Y-98156545D01*
X154468500Y-98156543D01*
X154373456Y-98061499D01*
X154257047Y-97994290D01*
X154257045Y-97994289D01*
X154127209Y-97959500D01*
X153992791Y-97959500D01*
X153992790Y-97959500D01*
X153862954Y-97994289D01*
X153862952Y-97994290D01*
X153746543Y-98061499D01*
X153651499Y-98156543D01*
X153584290Y-98272952D01*
X153584289Y-98272954D01*
X153549500Y-98402790D01*
X153549500Y-98537209D01*
X153553521Y-98552217D01*
X153550649Y-98585019D01*
X153548811Y-98606046D01*
X153548809Y-98606048D01*
X153548809Y-98606051D01*
X153536418Y-98623747D01*
X153533075Y-98628521D01*
X153502440Y-98659158D01*
X153502438Y-98659159D01*
X153429161Y-98732435D01*
X153429156Y-98732442D01*
X153389500Y-98828180D01*
X153389500Y-101075500D01*
X153371018Y-101126280D01*
X153324218Y-101153300D01*
X153310500Y-101154500D01*
X153200000Y-101154500D01*
X153193350Y-101154902D01*
X153180049Y-101155707D01*
X153105984Y-101183796D01*
X153098090Y-101189245D01*
X153097278Y-101188069D01*
X153059230Y-101208691D01*
X153006284Y-101197877D01*
X152995226Y-101189682D01*
X152993405Y-101188069D01*
X152976912Y-101173457D01*
X152976911Y-101173456D01*
X152900003Y-101154500D01*
X152900000Y-101154500D01*
X152609500Y-101154500D01*
X152590212Y-101147480D01*
X152570000Y-101143916D01*
X152565418Y-101138455D01*
X152558720Y-101136018D01*
X152548458Y-101118243D01*
X152535264Y-101102520D01*
X152533454Y-101092256D01*
X152531700Y-101089218D01*
X152530500Y-101075500D01*
X152530500Y-100974686D01*
X152548982Y-100923906D01*
X152570001Y-100906269D01*
X152572954Y-100904563D01*
X152583454Y-100898502D01*
X152678502Y-100803454D01*
X152745710Y-100687046D01*
X152780500Y-100557209D01*
X152780500Y-100422791D01*
X152770439Y-100385244D01*
X152775148Y-100331412D01*
X152790887Y-100308936D01*
X152803012Y-100296812D01*
X152842449Y-100257375D01*
X152895291Y-100149286D01*
X152905500Y-100079215D01*
X152905499Y-99610786D01*
X152895291Y-99540714D01*
X152842449Y-99432625D01*
X152842446Y-99432621D01*
X152757378Y-99347553D01*
X152757372Y-99347549D01*
X152699548Y-99319281D01*
X152649286Y-99294709D01*
X152649288Y-99294709D01*
X152614250Y-99289604D01*
X152579215Y-99284500D01*
X152579213Y-99284500D01*
X151960790Y-99284500D01*
X151960783Y-99284501D01*
X151890712Y-99294709D01*
X151890710Y-99294710D01*
X151782625Y-99347550D01*
X151782621Y-99347553D01*
X151697553Y-99432621D01*
X151697549Y-99432627D01*
X151644709Y-99540713D01*
X151634500Y-99610784D01*
X151634500Y-100079209D01*
X151634501Y-100079216D01*
X151644709Y-100149287D01*
X151644710Y-100149289D01*
X151697550Y-100257374D01*
X151697551Y-100257375D01*
X151749113Y-100308937D01*
X151771951Y-100357912D01*
X151769560Y-100385244D01*
X151759500Y-100422788D01*
X151759500Y-100557209D01*
X151794289Y-100687045D01*
X151794290Y-100687047D01*
X151861499Y-100803456D01*
X151956542Y-100898499D01*
X151956546Y-100898502D01*
X151969999Y-100906269D01*
X152004735Y-100947665D01*
X152009500Y-100974686D01*
X152009500Y-101220500D01*
X151991018Y-101271280D01*
X151944218Y-101298300D01*
X151930500Y-101299500D01*
X148579568Y-101299500D01*
X148528788Y-101281018D01*
X148508595Y-101255196D01*
X148502450Y-101242627D01*
X148502446Y-101242621D01*
X148417378Y-101157553D01*
X148417372Y-101157549D01*
X148336970Y-101118243D01*
X148309286Y-101104709D01*
X148309288Y-101104709D01*
X148239215Y-101094500D01*
X147784078Y-101094500D01*
X147733298Y-101076018D01*
X147706278Y-101029218D01*
X147715662Y-100976000D01*
X147744578Y-100947084D01*
X147747043Y-100945660D01*
X147747046Y-100945660D01*
X147863454Y-100878452D01*
X147958502Y-100783404D01*
X148025710Y-100666996D01*
X148060500Y-100537159D01*
X148060500Y-100402741D01*
X148056790Y-100388895D01*
X148061500Y-100335061D01*
X148077234Y-100312589D01*
X148132449Y-100257375D01*
X148185291Y-100149286D01*
X148195500Y-100079215D01*
X148195499Y-99610786D01*
X148195499Y-99610784D01*
X149374500Y-99610784D01*
X149374500Y-100079209D01*
X149374501Y-100079216D01*
X149384709Y-100149287D01*
X149384710Y-100149289D01*
X149437550Y-100257374D01*
X149437551Y-100257375D01*
X149489113Y-100308937D01*
X149511951Y-100357912D01*
X149509560Y-100385244D01*
X149499500Y-100422788D01*
X149499500Y-100557209D01*
X149534289Y-100687045D01*
X149534290Y-100687047D01*
X149601499Y-100803456D01*
X149696543Y-100898500D01*
X149696545Y-100898501D01*
X149696546Y-100898502D01*
X149812954Y-100965710D01*
X149942791Y-101000500D01*
X149942793Y-101000500D01*
X150077207Y-101000500D01*
X150077209Y-101000500D01*
X150207046Y-100965710D01*
X150323454Y-100898502D01*
X150418502Y-100803454D01*
X150485710Y-100687046D01*
X150520500Y-100557209D01*
X150520500Y-100422791D01*
X150510439Y-100385244D01*
X150515148Y-100331412D01*
X150530887Y-100308936D01*
X150543012Y-100296812D01*
X150582449Y-100257375D01*
X150635291Y-100149286D01*
X150645500Y-100079215D01*
X150645499Y-99610786D01*
X150635291Y-99540714D01*
X150582449Y-99432625D01*
X150582446Y-99432621D01*
X150497378Y-99347553D01*
X150497372Y-99347549D01*
X150439548Y-99319281D01*
X150389286Y-99294709D01*
X150389288Y-99294709D01*
X150354250Y-99289604D01*
X150319215Y-99284500D01*
X150319213Y-99284500D01*
X149700790Y-99284500D01*
X149700783Y-99284501D01*
X149630712Y-99294709D01*
X149630710Y-99294710D01*
X149522625Y-99347550D01*
X149522621Y-99347553D01*
X149437553Y-99432621D01*
X149437549Y-99432627D01*
X149384709Y-99540713D01*
X149374500Y-99610784D01*
X148195499Y-99610784D01*
X148185291Y-99540714D01*
X148132449Y-99432625D01*
X148132446Y-99432621D01*
X148047378Y-99347553D01*
X148047372Y-99347549D01*
X147989548Y-99319281D01*
X147939286Y-99294709D01*
X147939288Y-99294709D01*
X147904250Y-99289604D01*
X147869215Y-99284500D01*
X147869213Y-99284500D01*
X147250790Y-99284500D01*
X147250783Y-99284501D01*
X147180712Y-99294709D01*
X147180710Y-99294710D01*
X147072625Y-99347550D01*
X147072621Y-99347553D01*
X146987553Y-99432621D01*
X146987549Y-99432627D01*
X146934709Y-99540713D01*
X146924500Y-99610784D01*
X146924500Y-100079209D01*
X146924501Y-100079216D01*
X146934709Y-100149287D01*
X146934710Y-100149289D01*
X146987550Y-100257374D01*
X146987551Y-100257375D01*
X147026989Y-100296813D01*
X147049827Y-100345788D01*
X147047436Y-100373119D01*
X147039500Y-100402741D01*
X147039500Y-100402742D01*
X147039500Y-100402743D01*
X147039500Y-100537159D01*
X147074289Y-100666995D01*
X147074290Y-100666997D01*
X147141499Y-100783406D01*
X147236543Y-100878450D01*
X147236545Y-100878451D01*
X147236546Y-100878452D01*
X147352954Y-100945660D01*
X147482791Y-100980450D01*
X147482793Y-100980450D01*
X147613418Y-100980450D01*
X147664198Y-100998932D01*
X147691218Y-101045732D01*
X147681834Y-101098950D01*
X147648115Y-101130423D01*
X147592625Y-101157550D01*
X147592621Y-101157553D01*
X147507553Y-101242621D01*
X147507549Y-101242627D01*
X147454709Y-101350713D01*
X147444500Y-101420783D01*
X147444500Y-102039209D01*
X147444501Y-102039213D01*
X147454709Y-102109287D01*
X147454710Y-102109289D01*
X147507550Y-102217374D01*
X147507553Y-102217378D01*
X147592621Y-102302446D01*
X147592624Y-102302448D01*
X147592625Y-102302449D01*
X147700712Y-102355290D01*
X147700714Y-102355291D01*
X147770785Y-102365500D01*
X148239214Y-102365499D01*
X148309286Y-102355291D01*
X148417375Y-102302449D01*
X148502449Y-102217375D01*
X148555291Y-102109286D01*
X148565500Y-102039215D01*
X148565500Y-101899500D01*
X148583982Y-101848720D01*
X148630782Y-101821700D01*
X148644500Y-101820500D01*
X151655500Y-101820500D01*
X151706280Y-101838982D01*
X151733300Y-101885782D01*
X151734500Y-101899500D01*
X151734500Y-102385829D01*
X151740137Y-102428650D01*
X151740138Y-102428658D01*
X151774212Y-102555825D01*
X151784059Y-102579595D01*
X151790748Y-102595743D01*
X151790749Y-102595746D01*
X151790751Y-102595749D01*
X151821024Y-102648183D01*
X151856574Y-102709757D01*
X151882875Y-102744033D01*
X151882877Y-102744035D01*
X151882883Y-102744042D01*
X151975957Y-102837116D01*
X151975964Y-102837122D01*
X151975967Y-102837125D01*
X152010243Y-102863426D01*
X152124257Y-102929252D01*
X152154764Y-102941889D01*
X152164174Y-102945787D01*
X152217800Y-102960156D01*
X152291339Y-102979861D01*
X152334170Y-102985499D01*
X152334171Y-102985500D01*
X152334174Y-102985500D01*
X152899999Y-102985500D01*
X152900000Y-102985500D01*
X152919949Y-102984293D01*
X152994015Y-102956204D01*
X152994017Y-102956201D01*
X153001910Y-102950755D01*
X153002722Y-102951931D01*
X153040756Y-102931310D01*
X153093704Y-102942115D01*
X153104770Y-102950315D01*
X153123088Y-102966543D01*
X153200000Y-102985500D01*
X153295374Y-102985500D01*
X153346154Y-103003982D01*
X153373174Y-103050782D01*
X153363790Y-103104000D01*
X153351236Y-103120361D01*
X153205237Y-103266361D01*
X153156261Y-103289199D01*
X153149375Y-103289500D01*
X152200624Y-103289500D01*
X152149844Y-103271018D01*
X152144763Y-103266361D01*
X151007564Y-102129161D01*
X151007557Y-102129156D01*
X150911818Y-102089500D01*
X150911817Y-102089500D01*
X149781817Y-102089500D01*
X149678183Y-102089500D01*
X149582444Y-102129156D01*
X149582437Y-102129159D01*
X149232439Y-102479159D01*
X149232438Y-102479159D01*
X149159161Y-102552435D01*
X149159156Y-102552442D01*
X149119500Y-102648180D01*
X149119500Y-103099700D01*
X149101018Y-103150480D01*
X149054218Y-103177500D01*
X149040500Y-103178700D01*
X148886994Y-103178700D01*
X148840176Y-103188012D01*
X148824882Y-103198232D01*
X148772391Y-103211075D01*
X148738708Y-103196153D01*
X148738204Y-103197114D01*
X148729710Y-103192655D01*
X148652803Y-103173700D01*
X148652800Y-103173700D01*
X148036974Y-103173700D01*
X148036970Y-103173700D01*
X147994149Y-103179337D01*
X147994141Y-103179338D01*
X147866974Y-103213412D01*
X147827050Y-103229951D01*
X147713047Y-103295771D01*
X147678764Y-103322077D01*
X147678757Y-103322083D01*
X147585683Y-103415157D01*
X147585675Y-103415166D01*
X147574472Y-103429767D01*
X147528896Y-103458802D01*
X147475319Y-103451748D01*
X147455939Y-103437537D01*
X147057561Y-103039159D01*
X147057560Y-103039158D01*
X147057557Y-103039156D01*
X146961818Y-102999500D01*
X146961817Y-102999500D01*
X144283524Y-102999500D01*
X144267316Y-102993601D01*
X144250137Y-102992098D01*
X144236012Y-102982207D01*
X144232744Y-102981018D01*
X144227663Y-102976361D01*
X144183639Y-102932337D01*
X144160801Y-102883361D01*
X144160500Y-102876476D01*
X144160500Y-99610784D01*
X144494500Y-99610784D01*
X144494500Y-100079209D01*
X144494501Y-100079216D01*
X144504709Y-100149287D01*
X144504710Y-100149289D01*
X144557550Y-100257374D01*
X144557551Y-100257375D01*
X144622773Y-100322597D01*
X144645611Y-100371572D01*
X144643221Y-100398901D01*
X144639500Y-100412788D01*
X144639500Y-100547209D01*
X144674289Y-100677045D01*
X144674290Y-100677047D01*
X144741499Y-100793456D01*
X144836543Y-100888500D01*
X144836545Y-100888501D01*
X144836546Y-100888502D01*
X144897868Y-100923906D01*
X144939019Y-100947665D01*
X144952954Y-100955710D01*
X145082791Y-100990500D01*
X145082793Y-100990500D01*
X145217207Y-100990500D01*
X145217209Y-100990500D01*
X145347046Y-100955710D01*
X145463454Y-100888502D01*
X145558502Y-100793454D01*
X145625710Y-100677046D01*
X145660500Y-100547209D01*
X145660500Y-100412791D01*
X145648326Y-100367358D01*
X145653035Y-100313526D01*
X145668773Y-100291050D01*
X145702449Y-100257375D01*
X145755291Y-100149286D01*
X145765500Y-100079215D01*
X145765499Y-99610786D01*
X145755291Y-99540714D01*
X145702449Y-99432625D01*
X145702446Y-99432621D01*
X145617378Y-99347553D01*
X145617372Y-99347549D01*
X145559548Y-99319281D01*
X145509286Y-99294709D01*
X145509288Y-99294709D01*
X145474250Y-99289604D01*
X145439215Y-99284500D01*
X145439213Y-99284500D01*
X144820790Y-99284500D01*
X144820783Y-99284501D01*
X144750712Y-99294709D01*
X144750710Y-99294710D01*
X144642625Y-99347550D01*
X144642621Y-99347553D01*
X144557553Y-99432621D01*
X144557549Y-99432627D01*
X144504709Y-99540713D01*
X144494500Y-99610784D01*
X144160500Y-99610784D01*
X144160500Y-98449198D01*
X144405001Y-98449198D01*
X144407851Y-98479605D01*
X144407851Y-98479607D01*
X144452654Y-98607647D01*
X144533207Y-98716792D01*
X144642352Y-98797345D01*
X144770392Y-98842148D01*
X144800800Y-98844999D01*
X144930000Y-98844999D01*
X145330000Y-98844999D01*
X145459199Y-98844999D01*
X145489605Y-98842148D01*
X145489607Y-98842148D01*
X145617647Y-98797345D01*
X145726792Y-98716792D01*
X145807345Y-98607647D01*
X145852148Y-98479607D01*
X145855000Y-98449199D01*
X145855000Y-98395000D01*
X145330000Y-98395000D01*
X145330000Y-98844999D01*
X144930000Y-98844999D01*
X144930000Y-98395000D01*
X144405001Y-98395000D01*
X144405001Y-98449198D01*
X144160500Y-98449198D01*
X144160500Y-97940800D01*
X144405000Y-97940800D01*
X144405000Y-97995000D01*
X144930000Y-97995000D01*
X145330000Y-97995000D01*
X145854999Y-97995000D01*
X145854999Y-97940801D01*
X145852148Y-97910394D01*
X145852148Y-97910392D01*
X145807345Y-97782352D01*
X145726792Y-97673207D01*
X145617647Y-97592654D01*
X145489607Y-97547851D01*
X145459199Y-97545000D01*
X145330000Y-97545000D01*
X145330000Y-97995000D01*
X144930000Y-97995000D01*
X144930000Y-97545000D01*
X144800801Y-97545000D01*
X144770394Y-97547851D01*
X144770392Y-97547851D01*
X144642352Y-97592654D01*
X144533207Y-97673207D01*
X144452654Y-97782352D01*
X144407851Y-97910392D01*
X144405000Y-97940800D01*
X144160500Y-97940800D01*
X144160500Y-97478182D01*
X144160499Y-97478180D01*
X144120843Y-97382442D01*
X144120841Y-97382439D01*
X144112367Y-97373965D01*
X144047561Y-97309159D01*
X143643639Y-96905237D01*
X143620801Y-96856261D01*
X143620500Y-96849376D01*
X143620500Y-96291758D01*
X143638982Y-96240978D01*
X143685782Y-96213958D01*
X143739000Y-96223342D01*
X143762443Y-96244018D01*
X143802784Y-96297216D01*
X143849103Y-96332341D01*
X143920073Y-96386160D01*
X143920076Y-96386161D01*
X143920078Y-96386163D01*
X144057021Y-96440166D01*
X144057023Y-96440166D01*
X144057027Y-96440167D01*
X144092438Y-96444419D01*
X144143073Y-96450500D01*
X144976926Y-96450499D01*
X145050551Y-96441658D01*
X145103172Y-96453954D01*
X145115831Y-96464233D01*
X146076361Y-97424763D01*
X146099199Y-97473739D01*
X146099500Y-97480624D01*
X146099500Y-101031545D01*
X146081018Y-101082325D01*
X146055196Y-101102518D01*
X145942627Y-101157549D01*
X145942621Y-101157553D01*
X145857553Y-101242621D01*
X145857549Y-101242627D01*
X145804709Y-101350713D01*
X145794500Y-101420783D01*
X145794500Y-102039209D01*
X145794501Y-102039213D01*
X145804709Y-102109287D01*
X145804710Y-102109289D01*
X145857550Y-102217374D01*
X145857553Y-102217378D01*
X145942621Y-102302446D01*
X145942624Y-102302448D01*
X145942625Y-102302449D01*
X146050712Y-102355290D01*
X146050714Y-102355291D01*
X146120785Y-102365500D01*
X146589214Y-102365499D01*
X146659286Y-102355291D01*
X146767375Y-102302449D01*
X146852449Y-102217375D01*
X146905291Y-102109286D01*
X146915500Y-102039215D01*
X146915499Y-101420786D01*
X146905291Y-101350714D01*
X146852449Y-101242625D01*
X146852446Y-101242621D01*
X146767378Y-101157553D01*
X146767374Y-101157550D01*
X146664803Y-101107406D01*
X146627300Y-101068499D01*
X146620500Y-101036433D01*
X146620500Y-98449198D01*
X146835001Y-98449198D01*
X146837851Y-98479605D01*
X146837851Y-98479607D01*
X146882654Y-98607647D01*
X146963207Y-98716792D01*
X147072352Y-98797345D01*
X147200392Y-98842148D01*
X147230800Y-98844999D01*
X147360000Y-98844999D01*
X147760000Y-98844999D01*
X147889199Y-98844999D01*
X147919605Y-98842148D01*
X147919607Y-98842148D01*
X148047647Y-98797345D01*
X148156792Y-98716792D01*
X148237345Y-98607647D01*
X148282148Y-98479607D01*
X148285000Y-98449199D01*
X148285000Y-98449198D01*
X149285001Y-98449198D01*
X149287851Y-98479605D01*
X149287851Y-98479607D01*
X149332654Y-98607647D01*
X149413207Y-98716792D01*
X149522352Y-98797345D01*
X149650392Y-98842148D01*
X149680800Y-98844999D01*
X149810000Y-98844999D01*
X150210000Y-98844999D01*
X150339199Y-98844999D01*
X150369605Y-98842148D01*
X150369607Y-98842148D01*
X150497647Y-98797345D01*
X150606792Y-98716792D01*
X150687345Y-98607647D01*
X150732148Y-98479607D01*
X150735000Y-98449199D01*
X150735000Y-98449198D01*
X151545001Y-98449198D01*
X151547851Y-98479605D01*
X151547851Y-98479607D01*
X151592654Y-98607647D01*
X151673207Y-98716792D01*
X151782352Y-98797345D01*
X151910392Y-98842148D01*
X151940800Y-98844999D01*
X152070000Y-98844999D01*
X152470000Y-98844999D01*
X152599199Y-98844999D01*
X152629605Y-98842148D01*
X152629607Y-98842148D01*
X152757647Y-98797345D01*
X152866792Y-98716792D01*
X152947345Y-98607647D01*
X152992148Y-98479607D01*
X152995000Y-98449199D01*
X152995000Y-98395000D01*
X152470000Y-98395000D01*
X152470000Y-98844999D01*
X152070000Y-98844999D01*
X152070000Y-98395000D01*
X151545001Y-98395000D01*
X151545001Y-98449198D01*
X150735000Y-98449198D01*
X150735000Y-98395000D01*
X150210000Y-98395000D01*
X150210000Y-98844999D01*
X149810000Y-98844999D01*
X149810000Y-98395000D01*
X149285001Y-98395000D01*
X149285001Y-98449198D01*
X148285000Y-98449198D01*
X148285000Y-98395000D01*
X147760000Y-98395000D01*
X147760000Y-98844999D01*
X147360000Y-98844999D01*
X147360000Y-98395000D01*
X146835001Y-98395000D01*
X146835001Y-98449198D01*
X146620500Y-98449198D01*
X146620500Y-97940800D01*
X146835000Y-97940800D01*
X146835000Y-97995000D01*
X147360000Y-97995000D01*
X147760000Y-97995000D01*
X148284999Y-97995000D01*
X148284999Y-97940801D01*
X148284999Y-97940800D01*
X149285000Y-97940800D01*
X149285000Y-97995000D01*
X149810000Y-97995000D01*
X150210000Y-97995000D01*
X150734999Y-97995000D01*
X150734999Y-97940801D01*
X150734999Y-97940800D01*
X151545000Y-97940800D01*
X151545000Y-97995000D01*
X152070000Y-97995000D01*
X152470000Y-97995000D01*
X152994999Y-97995000D01*
X152994999Y-97940801D01*
X152992148Y-97910394D01*
X152992148Y-97910392D01*
X152947345Y-97782352D01*
X152866792Y-97673207D01*
X152757647Y-97592654D01*
X152629607Y-97547851D01*
X152599199Y-97545000D01*
X152470000Y-97545000D01*
X152470000Y-97995000D01*
X152070000Y-97995000D01*
X152070000Y-97545000D01*
X151940801Y-97545000D01*
X151910394Y-97547851D01*
X151910392Y-97547851D01*
X151782352Y-97592654D01*
X151673207Y-97673207D01*
X151592654Y-97782352D01*
X151547851Y-97910392D01*
X151545000Y-97940800D01*
X150734999Y-97940800D01*
X150732148Y-97910394D01*
X150732148Y-97910392D01*
X150687345Y-97782352D01*
X150606792Y-97673207D01*
X150497647Y-97592654D01*
X150369607Y-97547851D01*
X150339199Y-97545000D01*
X150210000Y-97545000D01*
X150210000Y-97995000D01*
X149810000Y-97995000D01*
X149810000Y-97545000D01*
X149680801Y-97545000D01*
X149650394Y-97547851D01*
X149650392Y-97547851D01*
X149522352Y-97592654D01*
X149413207Y-97673207D01*
X149332654Y-97782352D01*
X149287851Y-97910392D01*
X149285000Y-97940800D01*
X148284999Y-97940800D01*
X148282148Y-97910394D01*
X148282148Y-97910392D01*
X148237345Y-97782352D01*
X148156792Y-97673207D01*
X148047647Y-97592654D01*
X147919607Y-97547851D01*
X147889199Y-97545000D01*
X147760000Y-97545000D01*
X147760000Y-97995000D01*
X147360000Y-97995000D01*
X147360000Y-97545000D01*
X147230801Y-97545000D01*
X147200394Y-97547851D01*
X147200392Y-97547851D01*
X147072352Y-97592654D01*
X146963207Y-97673207D01*
X146882654Y-97782352D01*
X146837851Y-97910392D01*
X146835000Y-97940800D01*
X146620500Y-97940800D01*
X146620500Y-97288182D01*
X146620499Y-97288180D01*
X146580843Y-97192442D01*
X146580841Y-97192439D01*
X146561225Y-97172823D01*
X146507561Y-97119159D01*
X145484234Y-96095832D01*
X145461396Y-96046856D01*
X145461659Y-96030552D01*
X145470499Y-95956934D01*
X145470500Y-95956927D01*
X145470499Y-95123074D01*
X145460166Y-95037021D01*
X145406163Y-94900078D01*
X145406161Y-94900076D01*
X145406160Y-94900073D01*
X145354593Y-94832073D01*
X145317216Y-94782784D01*
X145267571Y-94745137D01*
X145199926Y-94693839D01*
X145199918Y-94693835D01*
X145062977Y-94639833D01*
X145062972Y-94639832D01*
X144976931Y-94629500D01*
X144143077Y-94629500D01*
X144057021Y-94639833D01*
X143920081Y-94693835D01*
X143920073Y-94693839D01*
X143802784Y-94782784D01*
X143762447Y-94835976D01*
X143717037Y-94865270D01*
X143663421Y-94858521D01*
X143626687Y-94818887D01*
X143620500Y-94788241D01*
X143620500Y-94148182D01*
X143615378Y-94135817D01*
X143610256Y-94123452D01*
X143599319Y-94097047D01*
X143580844Y-94052443D01*
X143580843Y-94052441D01*
X143580842Y-94052439D01*
X143536926Y-94008523D01*
X143514088Y-93959547D01*
X143513901Y-93948427D01*
X143514343Y-93940184D01*
X143520500Y-93917209D01*
X143520500Y-93832790D01*
X145249500Y-93832790D01*
X145249500Y-93967209D01*
X145284289Y-94097045D01*
X145284290Y-94097047D01*
X145351499Y-94213456D01*
X145446543Y-94308500D01*
X145446545Y-94308501D01*
X145446546Y-94308502D01*
X145562954Y-94375710D01*
X145692791Y-94410500D01*
X145692793Y-94410500D01*
X145827207Y-94410500D01*
X145827209Y-94410500D01*
X145842213Y-94406479D01*
X145896045Y-94411186D01*
X145918523Y-94426925D01*
X146196328Y-94704730D01*
X146219166Y-94753706D01*
X146205180Y-94805904D01*
X146203415Y-94808326D01*
X146133836Y-94900078D01*
X146133835Y-94900081D01*
X146079833Y-95037022D01*
X146079832Y-95037027D01*
X146069500Y-95123065D01*
X146069500Y-95956922D01*
X146079833Y-96042978D01*
X146133835Y-96179918D01*
X146133839Y-96179926D01*
X146148818Y-96199678D01*
X146222784Y-96297216D01*
X146281599Y-96341817D01*
X146340073Y-96386160D01*
X146340076Y-96386161D01*
X146340078Y-96386163D01*
X146477021Y-96440166D01*
X146477023Y-96440166D01*
X146477027Y-96440167D01*
X146512438Y-96444419D01*
X146563073Y-96450500D01*
X147396926Y-96450499D01*
X147482979Y-96440166D01*
X147619922Y-96386163D01*
X147737216Y-96297216D01*
X147826163Y-96179922D01*
X147880166Y-96042979D01*
X147890500Y-95956927D01*
X147890499Y-95123074D01*
X147880166Y-95037021D01*
X147826163Y-94900078D01*
X147826161Y-94900076D01*
X147826160Y-94900073D01*
X147774593Y-94832073D01*
X147737216Y-94782784D01*
X147687571Y-94745137D01*
X147619926Y-94693839D01*
X147619918Y-94693835D01*
X147482977Y-94639833D01*
X147482972Y-94639832D01*
X147396934Y-94629500D01*
X147396927Y-94629500D01*
X146890624Y-94629500D01*
X146839844Y-94611018D01*
X146834763Y-94606361D01*
X146286925Y-94058523D01*
X146264087Y-94009547D01*
X146266478Y-93982215D01*
X146270500Y-93967209D01*
X146270500Y-93832791D01*
X146235710Y-93702954D01*
X146168502Y-93586546D01*
X146168501Y-93586545D01*
X146168500Y-93586543D01*
X146073456Y-93491499D01*
X145957047Y-93424290D01*
X145957045Y-93424289D01*
X145827209Y-93389500D01*
X145692791Y-93389500D01*
X145692790Y-93389500D01*
X145562954Y-93424289D01*
X145562952Y-93424290D01*
X145446543Y-93491499D01*
X145351499Y-93586543D01*
X145284290Y-93702952D01*
X145284289Y-93702954D01*
X145249500Y-93832790D01*
X143520500Y-93832790D01*
X143520500Y-93782791D01*
X143485710Y-93652954D01*
X143418502Y-93536546D01*
X143418501Y-93536545D01*
X143418500Y-93536543D01*
X143323456Y-93441499D01*
X143207047Y-93374290D01*
X143207045Y-93374289D01*
X143077209Y-93339500D01*
X142942791Y-93339500D01*
X142942790Y-93339500D01*
X142812954Y-93374289D01*
X142812952Y-93374290D01*
X142696543Y-93441499D01*
X142601499Y-93536543D01*
X142534290Y-93652952D01*
X142534289Y-93652954D01*
X142499500Y-93782790D01*
X142499500Y-93917209D01*
X142534289Y-94047045D01*
X142534290Y-94047047D01*
X142601499Y-94163456D01*
X142696543Y-94258500D01*
X142696545Y-94258501D01*
X142696546Y-94258502D01*
X142812954Y-94325710D01*
X142942791Y-94360500D01*
X142942793Y-94360500D01*
X143020500Y-94360500D01*
X143071280Y-94378982D01*
X143098300Y-94425782D01*
X143099500Y-94439500D01*
X143099500Y-97041819D01*
X143139156Y-97137557D01*
X143139160Y-97137563D01*
X143616361Y-97614763D01*
X143639199Y-97663739D01*
X143639500Y-97670624D01*
X143639500Y-103068919D01*
X143679156Y-103164657D01*
X143679158Y-103164660D01*
X143679159Y-103164661D01*
X143922059Y-103407561D01*
X143963941Y-103449443D01*
X143995339Y-103480841D01*
X143995342Y-103480843D01*
X144091080Y-103520499D01*
X144091083Y-103520500D01*
X146769376Y-103520500D01*
X146820156Y-103538982D01*
X146825237Y-103543639D01*
X147414161Y-104132563D01*
X147436999Y-104181539D01*
X147437300Y-104188424D01*
X147437300Y-104405029D01*
X147442937Y-104447850D01*
X147442938Y-104447858D01*
X147477012Y-104575025D01*
X147486420Y-104597736D01*
X147493548Y-104614943D01*
X147493549Y-104614946D01*
X147493551Y-104614949D01*
X147559371Y-104728952D01*
X147559374Y-104728957D01*
X147585056Y-104762426D01*
X147585677Y-104763235D01*
X147585683Y-104763242D01*
X147678757Y-104856316D01*
X147678764Y-104856322D01*
X147678767Y-104856325D01*
X147713043Y-104882626D01*
X147827057Y-104948452D01*
X147861589Y-104962756D01*
X147866974Y-104964987D01*
X147925991Y-104980800D01*
X147994139Y-104999061D01*
X148036970Y-105004699D01*
X148036971Y-105004700D01*
X148036974Y-105004700D01*
X148652799Y-105004700D01*
X148652800Y-105004700D01*
X148672749Y-105003493D01*
X148746815Y-104975404D01*
X148746815Y-104975403D01*
X148754008Y-104972676D01*
X148808043Y-104971950D01*
X148825910Y-104980855D01*
X148840176Y-104990387D01*
X148886994Y-104999700D01*
X149918606Y-104999700D01*
X149965424Y-104990387D01*
X149980718Y-104980168D01*
X150033204Y-104967323D01*
X150066891Y-104982246D01*
X150067396Y-104981286D01*
X150075889Y-104985744D01*
X150147899Y-105003492D01*
X150152800Y-105004700D01*
X150768629Y-105004700D01*
X150768629Y-105004699D01*
X150811461Y-104999061D01*
X150913683Y-104971670D01*
X150938625Y-104964987D01*
X150938626Y-104964986D01*
X150938628Y-104964986D01*
X150978543Y-104948452D01*
X151092557Y-104882626D01*
X151126833Y-104856325D01*
X151219925Y-104763233D01*
X151246226Y-104728957D01*
X151257171Y-104710000D01*
X151298567Y-104675264D01*
X151325587Y-104670500D01*
X152692912Y-104670500D01*
X152743692Y-104688982D01*
X152770712Y-104735782D01*
X152761328Y-104789000D01*
X152719932Y-104823736D01*
X152713359Y-104825808D01*
X152684586Y-104833517D01*
X152684583Y-104833518D01*
X152408086Y-104948046D01*
X152148915Y-105097679D01*
X151951784Y-105248941D01*
X151951783Y-105248942D01*
X152438345Y-105735504D01*
X152377670Y-105779588D01*
X152199588Y-105957670D01*
X152155504Y-106018345D01*
X151668942Y-105531783D01*
X151668941Y-105531784D01*
X151517679Y-105728915D01*
X151368046Y-105988086D01*
X151253518Y-106264583D01*
X151253517Y-106264586D01*
X151176060Y-106553660D01*
X151137000Y-106850360D01*
X151137000Y-107149639D01*
X151136999Y-107149639D01*
X151176060Y-107446339D01*
X151253517Y-107735413D01*
X151253518Y-107735416D01*
X151368046Y-108011913D01*
X151517679Y-108271084D01*
X151668941Y-108468214D01*
X151668942Y-108468215D01*
X152155503Y-107981653D01*
X152199588Y-108042330D01*
X152377670Y-108220412D01*
X152438344Y-108264494D01*
X151951783Y-108751056D01*
X151951784Y-108751057D01*
X152148915Y-108902320D01*
X152408086Y-109051953D01*
X152684583Y-109166481D01*
X152684586Y-109166482D01*
X152973660Y-109243939D01*
X153270360Y-109283000D01*
X153569639Y-109283000D01*
X153866339Y-109243939D01*
X154155413Y-109166482D01*
X154155416Y-109166481D01*
X154431913Y-109051953D01*
X154691086Y-108902319D01*
X154691091Y-108902316D01*
X154888214Y-108751056D01*
X154888215Y-108751056D01*
X154401654Y-108264495D01*
X154462330Y-108220412D01*
X154640412Y-108042330D01*
X154684495Y-107981654D01*
X155171056Y-108468215D01*
X155171056Y-108468214D01*
X155322316Y-108271091D01*
X155322319Y-108271086D01*
X155471953Y-108011913D01*
X155586481Y-107735416D01*
X155586482Y-107735413D01*
X155663939Y-107446339D01*
X155703000Y-107149639D01*
X155703000Y-106850360D01*
X155663939Y-106553660D01*
X155586482Y-106264586D01*
X155586481Y-106264583D01*
X155471953Y-105988086D01*
X155322320Y-105728915D01*
X155171057Y-105531784D01*
X155171056Y-105531783D01*
X154684494Y-106018344D01*
X154640412Y-105957670D01*
X154462330Y-105779588D01*
X154401653Y-105735504D01*
X154888215Y-105248942D01*
X154888214Y-105248941D01*
X154691084Y-105097679D01*
X154431913Y-104948046D01*
X154155416Y-104833518D01*
X154155413Y-104833517D01*
X154017612Y-104796593D01*
X153973346Y-104765597D01*
X153959360Y-104713399D01*
X153982198Y-104664423D01*
X154007826Y-104647299D01*
X154047561Y-104630841D01*
X155480841Y-103197561D01*
X155488389Y-103179339D01*
X155520500Y-103101817D01*
X155520500Y-98128183D01*
X155518268Y-98122795D01*
X155507498Y-98096791D01*
X155507498Y-98096790D01*
X155480843Y-98032441D01*
X155480838Y-98032434D01*
X154157564Y-96709161D01*
X154157557Y-96709156D01*
X154061818Y-96669500D01*
X154061817Y-96669500D01*
X149840625Y-96669500D01*
X149789845Y-96651018D01*
X149784764Y-96646361D01*
X149343639Y-96205236D01*
X149320801Y-96156260D01*
X149320500Y-96149375D01*
X149320500Y-95028182D01*
X149320499Y-95028180D01*
X149280843Y-94932442D01*
X149280841Y-94932439D01*
X149248475Y-94900073D01*
X149207561Y-94859159D01*
X148001354Y-93652952D01*
X146757564Y-92409161D01*
X146757557Y-92409156D01*
X146661818Y-92369500D01*
X146661817Y-92369500D01*
X143960624Y-92369500D01*
X143909844Y-92351018D01*
X143904763Y-92346361D01*
X142801868Y-91243465D01*
X142751184Y-91192781D01*
X144049500Y-91192781D01*
X144049500Y-91327200D01*
X144084289Y-91457036D01*
X144084290Y-91457038D01*
X144151499Y-91573447D01*
X144246543Y-91668491D01*
X144246545Y-91668492D01*
X144246546Y-91668493D01*
X144362954Y-91735701D01*
X144492791Y-91770491D01*
X144492793Y-91770491D01*
X144627207Y-91770491D01*
X144627209Y-91770491D01*
X144757046Y-91735701D01*
X144873454Y-91668493D01*
X144968502Y-91573445D01*
X144968505Y-91573438D01*
X144970064Y-91571409D01*
X144971372Y-91570575D01*
X144972164Y-91569784D01*
X144972339Y-91569959D01*
X145015639Y-91542373D01*
X145032740Y-91540500D01*
X147189376Y-91540500D01*
X147240156Y-91558982D01*
X147245237Y-91563639D01*
X148903074Y-93221477D01*
X148925912Y-93270453D01*
X148923522Y-93297778D01*
X148919500Y-93312791D01*
X148919500Y-93312793D01*
X148919500Y-93447209D01*
X148954289Y-93577045D01*
X148954290Y-93577047D01*
X149021499Y-93693456D01*
X149116543Y-93788500D01*
X149116545Y-93788501D01*
X149116546Y-93788502D01*
X149232954Y-93855710D01*
X149362791Y-93890500D01*
X149362793Y-93890500D01*
X149497207Y-93890500D01*
X149497209Y-93890500D01*
X149627046Y-93855710D01*
X149743454Y-93788502D01*
X149838502Y-93693454D01*
X149905710Y-93577046D01*
X149940500Y-93447209D01*
X149940500Y-93312791D01*
X149905710Y-93182954D01*
X149838502Y-93066546D01*
X149838501Y-93066545D01*
X149838500Y-93066543D01*
X149743456Y-92971499D01*
X149627047Y-92904290D01*
X149627045Y-92904289D01*
X149497209Y-92869500D01*
X149362791Y-92869500D01*
X149347780Y-92873521D01*
X149293950Y-92868811D01*
X149271477Y-92853074D01*
X147477564Y-91059161D01*
X147477557Y-91059156D01*
X147381818Y-91019500D01*
X147381817Y-91019500D01*
X145056238Y-91019500D01*
X145005458Y-91001018D01*
X144987822Y-90980000D01*
X144968500Y-90946534D01*
X144873456Y-90851490D01*
X144757047Y-90784281D01*
X144757045Y-90784280D01*
X144627209Y-90749491D01*
X144492791Y-90749491D01*
X144492790Y-90749491D01*
X144362954Y-90784280D01*
X144362952Y-90784281D01*
X144246543Y-90851490D01*
X144151499Y-90946534D01*
X144084290Y-91062943D01*
X144084289Y-91062945D01*
X144049500Y-91192781D01*
X142751184Y-91192781D01*
X142627564Y-91069161D01*
X142627557Y-91069156D01*
X142531818Y-91029500D01*
X142531817Y-91029500D01*
X140848183Y-91029500D01*
X140776581Y-91059159D01*
X140767662Y-91062853D01*
X140752439Y-91069158D01*
X140752435Y-91069161D01*
X139562439Y-92259159D01*
X139525798Y-92295799D01*
X139489158Y-92332439D01*
X139489156Y-92332442D01*
X139449500Y-92428180D01*
X139449500Y-94550500D01*
X139431018Y-94601280D01*
X139384218Y-94628300D01*
X139370501Y-94629500D01*
X139303078Y-94629500D01*
X139217021Y-94639833D01*
X139080081Y-94693835D01*
X139080073Y-94693839D01*
X138962784Y-94782784D01*
X138912447Y-94849162D01*
X138867036Y-94878456D01*
X138813420Y-94871707D01*
X138776686Y-94832073D01*
X138770500Y-94801427D01*
X138770500Y-92418184D01*
X138770500Y-92418183D01*
X138750335Y-92369500D01*
X138750335Y-92369499D01*
X138750335Y-92369498D01*
X138730844Y-92322443D01*
X138730843Y-92322441D01*
X138730842Y-92322439D01*
X137806926Y-91398523D01*
X137784088Y-91349547D01*
X137786479Y-91322215D01*
X137790500Y-91307209D01*
X137790500Y-91172791D01*
X137755710Y-91042954D01*
X137688502Y-90926546D01*
X137688501Y-90926545D01*
X137688500Y-90926543D01*
X137593456Y-90831499D01*
X137477047Y-90764290D01*
X137477045Y-90764289D01*
X137347209Y-90729500D01*
X137212791Y-90729500D01*
X137212790Y-90729500D01*
X137082954Y-90764289D01*
X137082952Y-90764290D01*
X136966543Y-90831499D01*
X136871499Y-90926543D01*
X136804290Y-91042952D01*
X136804289Y-91042954D01*
X136769500Y-91172790D01*
X136769500Y-91307209D01*
X136804289Y-91437045D01*
X136804290Y-91437047D01*
X136871499Y-91553456D01*
X136966543Y-91648500D01*
X136966545Y-91648501D01*
X136966546Y-91648502D01*
X137082954Y-91715710D01*
X137212791Y-91750500D01*
X137212793Y-91750500D01*
X137347208Y-91750500D01*
X137347209Y-91750500D01*
X137362215Y-91746479D01*
X137416048Y-91751188D01*
X137438523Y-91766926D01*
X138226361Y-92554763D01*
X138249199Y-92603739D01*
X138249500Y-92610624D01*
X138249500Y-94801427D01*
X138231018Y-94852207D01*
X138184218Y-94879227D01*
X138131000Y-94869843D01*
X138107553Y-94849162D01*
X138071353Y-94801427D01*
X138057216Y-94782784D01*
X138007571Y-94745137D01*
X137939926Y-94693839D01*
X137939918Y-94693835D01*
X137802977Y-94639833D01*
X137802972Y-94639832D01*
X137716934Y-94629500D01*
X137716927Y-94629500D01*
X137649500Y-94629500D01*
X137598720Y-94611018D01*
X137571700Y-94564218D01*
X137570500Y-94550500D01*
X137570500Y-94294684D01*
X137588982Y-94243904D01*
X137610001Y-94226267D01*
X137612954Y-94224561D01*
X137623454Y-94218500D01*
X137718502Y-94123452D01*
X137785710Y-94007044D01*
X137820500Y-93877207D01*
X137820500Y-93742789D01*
X137785710Y-93612952D01*
X137718502Y-93496544D01*
X137718501Y-93496543D01*
X137718500Y-93496541D01*
X137623456Y-93401497D01*
X137507047Y-93334288D01*
X137507045Y-93334287D01*
X137377209Y-93299498D01*
X137242791Y-93299498D01*
X137242790Y-93299498D01*
X137112954Y-93334287D01*
X137112952Y-93334288D01*
X136996543Y-93401497D01*
X136901499Y-93496541D01*
X136834290Y-93612950D01*
X136834289Y-93612952D01*
X136799500Y-93742788D01*
X136799500Y-93877207D01*
X136834289Y-94007043D01*
X136834290Y-94007045D01*
X136901499Y-94123454D01*
X136996542Y-94218497D01*
X136996546Y-94218500D01*
X137009999Y-94226267D01*
X137044735Y-94267663D01*
X137049500Y-94294684D01*
X137049500Y-94550500D01*
X137031018Y-94601280D01*
X136984218Y-94628300D01*
X136970501Y-94629500D01*
X136883077Y-94629500D01*
X136797021Y-94639833D01*
X136660081Y-94693835D01*
X136660073Y-94693839D01*
X136542784Y-94782784D01*
X136453839Y-94900073D01*
X136453835Y-94900081D01*
X136399833Y-95037022D01*
X136399832Y-95037027D01*
X136389500Y-95123065D01*
X135790498Y-95123065D01*
X135780166Y-95037021D01*
X135726163Y-94900078D01*
X135726161Y-94900076D01*
X135726160Y-94900073D01*
X135674593Y-94832073D01*
X135637216Y-94782784D01*
X135587571Y-94745137D01*
X135519926Y-94693839D01*
X135519918Y-94693835D01*
X135382977Y-94639833D01*
X135382972Y-94639832D01*
X135296931Y-94629500D01*
X134463077Y-94629500D01*
X134377021Y-94639833D01*
X134240081Y-94693835D01*
X134240073Y-94693839D01*
X134122784Y-94782784D01*
X134033839Y-94900073D01*
X134033835Y-94900081D01*
X133979833Y-95037022D01*
X133979832Y-95037027D01*
X133969500Y-95123065D01*
X133969500Y-95350500D01*
X133951018Y-95401280D01*
X133904218Y-95428300D01*
X133890500Y-95429500D01*
X132598182Y-95429500D01*
X132502442Y-95469156D01*
X132502435Y-95469161D01*
X129005237Y-98966361D01*
X128956261Y-98989199D01*
X128949376Y-98989500D01*
X128845550Y-98989500D01*
X128640663Y-99030254D01*
X128640661Y-99030255D01*
X128447668Y-99110195D01*
X128447663Y-99110198D01*
X128273972Y-99226254D01*
X128273965Y-99226260D01*
X128126260Y-99373965D01*
X128126254Y-99373972D01*
X128010198Y-99547663D01*
X128010195Y-99547668D01*
X127930255Y-99740661D01*
X127930254Y-99740663D01*
X127900716Y-99889162D01*
X127889500Y-99945550D01*
X127273877Y-99945550D01*
X127299167Y-99927176D01*
X127299185Y-99927161D01*
X127340539Y-99885808D01*
X127427161Y-99799185D01*
X127427176Y-99799167D01*
X127533563Y-99652737D01*
X127533567Y-99652731D01*
X127615742Y-99491457D01*
X127615749Y-99491441D01*
X127671679Y-99319304D01*
X127671685Y-99319281D01*
X127699998Y-99140518D01*
X127700000Y-99140502D01*
X127700000Y-98750000D01*
X127050000Y-98750000D01*
X127050000Y-98350000D01*
X127700000Y-98350000D01*
X127700000Y-97959497D01*
X127699998Y-97959481D01*
X127671685Y-97780718D01*
X127671679Y-97780695D01*
X127615749Y-97608558D01*
X127615742Y-97608542D01*
X127533567Y-97447268D01*
X127533563Y-97447262D01*
X127427176Y-97300832D01*
X127427161Y-97300814D01*
X127299185Y-97172838D01*
X127299167Y-97172823D01*
X127152737Y-97066436D01*
X127152731Y-97066432D01*
X126991457Y-96984257D01*
X126991441Y-96984250D01*
X126819304Y-96928320D01*
X126819283Y-96928315D01*
X126750000Y-96917341D01*
X126750000Y-97588120D01*
X126742993Y-97584075D01*
X126615826Y-97550000D01*
X126484174Y-97550000D01*
X126357007Y-97584075D01*
X126350000Y-97588120D01*
X126350000Y-96917341D01*
X126280716Y-96928315D01*
X126280695Y-96928320D01*
X126108558Y-96984250D01*
X126108542Y-96984257D01*
X125947268Y-97066432D01*
X125947262Y-97066436D01*
X125800832Y-97172823D01*
X125800814Y-97172838D01*
X125735361Y-97238292D01*
X125686385Y-97261130D01*
X125634187Y-97247144D01*
X125603192Y-97202878D01*
X125600500Y-97182431D01*
X125600500Y-96249500D01*
X125618982Y-96198720D01*
X125665782Y-96171700D01*
X125679500Y-96170500D01*
X131010917Y-96170500D01*
X131010918Y-96170500D01*
X131040500Y-96140918D01*
X131040500Y-88609500D01*
X131058982Y-88558720D01*
X131105782Y-88531700D01*
X131119500Y-88530500D01*
X150770500Y-88530500D01*
X150821280Y-88548982D01*
G37*
G04 #@! TD.AperFunction*
M02*
