G04 #@! TF.GenerationSoftware,KiCad,Pcbnew,9.0.0*
G04 #@! TF.CreationDate,2025-03-27T12:33:45-07:00*
G04 #@! TF.ProjectId,SNES2VGA,534e4553-3256-4474-912e-6b696361645f,1*
G04 #@! TF.SameCoordinates,Original*
G04 #@! TF.FileFunction,Legend,Bot*
G04 #@! TF.FilePolarity,Positive*
%FSLAX46Y46*%
G04 Gerber Fmt 4.6, Leading zero omitted, Abs format (unit mm)*
G04 Created by KiCad (PCBNEW 9.0.0) date 2025-03-27 12:33:45*
%MOMM*%
%LPD*%
G01*
G04 APERTURE LIST*
G04 Aperture macros list*
%AMRoundRect*
0 Rectangle with rounded corners*
0 $1 Rounding radius*
0 $2 $3 $4 $5 $6 $7 $8 $9 X,Y pos of 4 corners*
0 Add a 4 corners polygon primitive as box body*
4,1,4,$2,$3,$4,$5,$6,$7,$8,$9,$2,$3,0*
0 Add four circle primitives for the rounded corners*
1,1,$1+$1,$2,$3*
1,1,$1+$1,$4,$5*
1,1,$1+$1,$6,$7*
1,1,$1+$1,$8,$9*
0 Add four rect primitives between the rounded corners*
20,1,$1+$1,$2,$3,$4,$5,0*
20,1,$1+$1,$4,$5,$6,$7,0*
20,1,$1+$1,$6,$7,$8,$9,0*
20,1,$1+$1,$8,$9,$2,$3,0*%
G04 Aperture macros list end*
%ADD10C,0.127000*%
%ADD11C,0.200000*%
%ADD12C,0.100000*%
%ADD13C,0.150000*%
%ADD14C,0.120000*%
%ADD15RoundRect,0.475000X-0.475000X-1.125000X0.475000X-1.125000X0.475000X1.125000X-0.475000X1.125000X0*%
%ADD16RoundRect,0.250000X-0.650000X0.325000X-0.650000X-0.325000X0.650000X-0.325000X0.650000X0.325000X0*%
%ADD17R,1.700000X1.700000*%
%ADD18C,1.700000*%
%ADD19C,4.066000*%
%ADD20O,1.800000X2.800000*%
G04 APERTURE END LIST*
D10*
X143690000Y-96730000D02*
X143690000Y-103150000D01*
X154310000Y-96730000D02*
X143690000Y-96730000D01*
X154310000Y-103150000D02*
X154310000Y-96730000D01*
X143690000Y-103150000D02*
X154310000Y-103150000D01*
X151440000Y-97530000D02*
X151440000Y-102870000D01*
D11*
X145105713Y-93397600D02*
X144934285Y-93454742D01*
X144934285Y-93454742D02*
X144648570Y-93454742D01*
X144648570Y-93454742D02*
X144534285Y-93397600D01*
X144534285Y-93397600D02*
X144477142Y-93340457D01*
X144477142Y-93340457D02*
X144419999Y-93226171D01*
X144419999Y-93226171D02*
X144419999Y-93111885D01*
X144419999Y-93111885D02*
X144477142Y-92997600D01*
X144477142Y-92997600D02*
X144534285Y-92940457D01*
X144534285Y-92940457D02*
X144648570Y-92883314D01*
X144648570Y-92883314D02*
X144877142Y-92826171D01*
X144877142Y-92826171D02*
X144991427Y-92769028D01*
X144991427Y-92769028D02*
X145048570Y-92711885D01*
X145048570Y-92711885D02*
X145105713Y-92597600D01*
X145105713Y-92597600D02*
X145105713Y-92483314D01*
X145105713Y-92483314D02*
X145048570Y-92369028D01*
X145048570Y-92369028D02*
X144991427Y-92311885D01*
X144991427Y-92311885D02*
X144877142Y-92254742D01*
X144877142Y-92254742D02*
X144591427Y-92254742D01*
X144591427Y-92254742D02*
X144419999Y-92311885D01*
X143905713Y-93454742D02*
X143905713Y-92254742D01*
X143905713Y-92254742D02*
X143219999Y-93454742D01*
X143219999Y-93454742D02*
X143219999Y-92254742D01*
X142648570Y-92826171D02*
X142248570Y-92826171D01*
X142077142Y-93454742D02*
X142648570Y-93454742D01*
X142648570Y-93454742D02*
X142648570Y-92254742D01*
X142648570Y-92254742D02*
X142077142Y-92254742D01*
X141619999Y-93397600D02*
X141448571Y-93454742D01*
X141448571Y-93454742D02*
X141162856Y-93454742D01*
X141162856Y-93454742D02*
X141048571Y-93397600D01*
X141048571Y-93397600D02*
X140991428Y-93340457D01*
X140991428Y-93340457D02*
X140934285Y-93226171D01*
X140934285Y-93226171D02*
X140934285Y-93111885D01*
X140934285Y-93111885D02*
X140991428Y-92997600D01*
X140991428Y-92997600D02*
X141048571Y-92940457D01*
X141048571Y-92940457D02*
X141162856Y-92883314D01*
X141162856Y-92883314D02*
X141391428Y-92826171D01*
X141391428Y-92826171D02*
X141505713Y-92769028D01*
X141505713Y-92769028D02*
X141562856Y-92711885D01*
X141562856Y-92711885D02*
X141619999Y-92597600D01*
X141619999Y-92597600D02*
X141619999Y-92483314D01*
X141619999Y-92483314D02*
X141562856Y-92369028D01*
X141562856Y-92369028D02*
X141505713Y-92311885D01*
X141505713Y-92311885D02*
X141391428Y-92254742D01*
X141391428Y-92254742D02*
X141105713Y-92254742D01*
X141105713Y-92254742D02*
X140934285Y-92311885D01*
X140477142Y-92369028D02*
X140419999Y-92311885D01*
X140419999Y-92311885D02*
X140305714Y-92254742D01*
X140305714Y-92254742D02*
X140019999Y-92254742D01*
X140019999Y-92254742D02*
X139905714Y-92311885D01*
X139905714Y-92311885D02*
X139848571Y-92369028D01*
X139848571Y-92369028D02*
X139791428Y-92483314D01*
X139791428Y-92483314D02*
X139791428Y-92597600D01*
X139791428Y-92597600D02*
X139848571Y-92769028D01*
X139848571Y-92769028D02*
X140534285Y-93454742D01*
X140534285Y-93454742D02*
X139791428Y-93454742D01*
X139448571Y-92254742D02*
X139048571Y-93454742D01*
X139048571Y-93454742D02*
X138648571Y-92254742D01*
X137620000Y-92311885D02*
X137734286Y-92254742D01*
X137734286Y-92254742D02*
X137905714Y-92254742D01*
X137905714Y-92254742D02*
X138077143Y-92311885D01*
X138077143Y-92311885D02*
X138191428Y-92426171D01*
X138191428Y-92426171D02*
X138248571Y-92540457D01*
X138248571Y-92540457D02*
X138305714Y-92769028D01*
X138305714Y-92769028D02*
X138305714Y-92940457D01*
X138305714Y-92940457D02*
X138248571Y-93169028D01*
X138248571Y-93169028D02*
X138191428Y-93283314D01*
X138191428Y-93283314D02*
X138077143Y-93397600D01*
X138077143Y-93397600D02*
X137905714Y-93454742D01*
X137905714Y-93454742D02*
X137791428Y-93454742D01*
X137791428Y-93454742D02*
X137620000Y-93397600D01*
X137620000Y-93397600D02*
X137562857Y-93340457D01*
X137562857Y-93340457D02*
X137562857Y-92940457D01*
X137562857Y-92940457D02*
X137791428Y-92940457D01*
X137105714Y-93111885D02*
X136534286Y-93111885D01*
X137220000Y-93454742D02*
X136820000Y-92254742D01*
X136820000Y-92254742D02*
X136420000Y-93454742D01*
D12*
X151177618Y-104816109D02*
X151177618Y-104316109D01*
X151177618Y-104316109D02*
X150987142Y-104316109D01*
X150987142Y-104316109D02*
X150939523Y-104339919D01*
X150939523Y-104339919D02*
X150915713Y-104363728D01*
X150915713Y-104363728D02*
X150891904Y-104411347D01*
X150891904Y-104411347D02*
X150891904Y-104482776D01*
X150891904Y-104482776D02*
X150915713Y-104530395D01*
X150915713Y-104530395D02*
X150939523Y-104554204D01*
X150939523Y-104554204D02*
X150987142Y-104578014D01*
X150987142Y-104578014D02*
X151177618Y-104578014D01*
X150701427Y-104673252D02*
X150463332Y-104673252D01*
X150749046Y-104816109D02*
X150582380Y-104316109D01*
X150582380Y-104316109D02*
X150415713Y-104816109D01*
X150010952Y-104816109D02*
X150249047Y-104816109D01*
X150249047Y-104816109D02*
X150249047Y-104316109D01*
X149929522Y-97033728D02*
X149905713Y-97009919D01*
X149905713Y-97009919D02*
X149858094Y-96986109D01*
X149858094Y-96986109D02*
X149739046Y-96986109D01*
X149739046Y-96986109D02*
X149691427Y-97009919D01*
X149691427Y-97009919D02*
X149667618Y-97033728D01*
X149667618Y-97033728D02*
X149643808Y-97081347D01*
X149643808Y-97081347D02*
X149643808Y-97128966D01*
X149643808Y-97128966D02*
X149667618Y-97200395D01*
X149667618Y-97200395D02*
X149953332Y-97486109D01*
X149953332Y-97486109D02*
X149643808Y-97486109D01*
X149453332Y-97033728D02*
X149429523Y-97009919D01*
X149429523Y-97009919D02*
X149381904Y-96986109D01*
X149381904Y-96986109D02*
X149262856Y-96986109D01*
X149262856Y-96986109D02*
X149215237Y-97009919D01*
X149215237Y-97009919D02*
X149191428Y-97033728D01*
X149191428Y-97033728D02*
X149167618Y-97081347D01*
X149167618Y-97081347D02*
X149167618Y-97128966D01*
X149167618Y-97128966D02*
X149191428Y-97200395D01*
X149191428Y-97200395D02*
X149477142Y-97486109D01*
X149477142Y-97486109D02*
X149167618Y-97486109D01*
X148858095Y-96986109D02*
X148810476Y-96986109D01*
X148810476Y-96986109D02*
X148762857Y-97009919D01*
X148762857Y-97009919D02*
X148739047Y-97033728D01*
X148739047Y-97033728D02*
X148715238Y-97081347D01*
X148715238Y-97081347D02*
X148691428Y-97176585D01*
X148691428Y-97176585D02*
X148691428Y-97295633D01*
X148691428Y-97295633D02*
X148715238Y-97390871D01*
X148715238Y-97390871D02*
X148739047Y-97438490D01*
X148739047Y-97438490D02*
X148762857Y-97462300D01*
X148762857Y-97462300D02*
X148810476Y-97486109D01*
X148810476Y-97486109D02*
X148858095Y-97486109D01*
X148858095Y-97486109D02*
X148905714Y-97462300D01*
X148905714Y-97462300D02*
X148929523Y-97438490D01*
X148929523Y-97438490D02*
X148953333Y-97390871D01*
X148953333Y-97390871D02*
X148977142Y-97295633D01*
X148977142Y-97295633D02*
X148977142Y-97176585D01*
X148977142Y-97176585D02*
X148953333Y-97081347D01*
X148953333Y-97081347D02*
X148929523Y-97033728D01*
X148929523Y-97033728D02*
X148905714Y-97009919D01*
X148905714Y-97009919D02*
X148858095Y-96986109D01*
X148262857Y-97152776D02*
X148262857Y-97486109D01*
X148477143Y-97152776D02*
X148477143Y-97414680D01*
X148477143Y-97414680D02*
X148453333Y-97462300D01*
X148453333Y-97462300D02*
X148405714Y-97486109D01*
X148405714Y-97486109D02*
X148334286Y-97486109D01*
X148334286Y-97486109D02*
X148286667Y-97462300D01*
X148286667Y-97462300D02*
X148262857Y-97438490D01*
X147858095Y-97224204D02*
X148024762Y-97224204D01*
X148024762Y-97486109D02*
X148024762Y-96986109D01*
X148024762Y-96986109D02*
X147786667Y-96986109D01*
D10*
X149696191Y-94803491D02*
X149696191Y-95374919D01*
X149696191Y-95374919D02*
X149734286Y-95489205D01*
X149734286Y-95489205D02*
X149810477Y-95565396D01*
X149810477Y-95565396D02*
X149924762Y-95603491D01*
X149924762Y-95603491D02*
X150000953Y-95603491D01*
X149010476Y-95565396D02*
X149086667Y-95603491D01*
X149086667Y-95603491D02*
X149239048Y-95603491D01*
X149239048Y-95603491D02*
X149315238Y-95565396D01*
X149315238Y-95565396D02*
X149353334Y-95489205D01*
X149353334Y-95489205D02*
X149353334Y-95184443D01*
X149353334Y-95184443D02*
X149315238Y-95108253D01*
X149315238Y-95108253D02*
X149239048Y-95070157D01*
X149239048Y-95070157D02*
X149086667Y-95070157D01*
X149086667Y-95070157D02*
X149010476Y-95108253D01*
X149010476Y-95108253D02*
X148972381Y-95184443D01*
X148972381Y-95184443D02*
X148972381Y-95260634D01*
X148972381Y-95260634D02*
X149353334Y-95336824D01*
X148743810Y-95070157D02*
X148439048Y-95070157D01*
X148629524Y-95603491D02*
X148629524Y-94917776D01*
X148629524Y-94917776D02*
X148591429Y-94841586D01*
X148591429Y-94841586D02*
X148515239Y-94803491D01*
X148515239Y-94803491D02*
X148439048Y-94803491D01*
X148286667Y-95070157D02*
X147981905Y-95070157D01*
X148172381Y-95603491D02*
X148172381Y-94917776D01*
X148172381Y-94917776D02*
X148134286Y-94841586D01*
X148134286Y-94841586D02*
X148058096Y-94803491D01*
X148058096Y-94803491D02*
X147981905Y-94803491D01*
X146648571Y-95527300D02*
X146686667Y-95565396D01*
X146686667Y-95565396D02*
X146800952Y-95603491D01*
X146800952Y-95603491D02*
X146877143Y-95603491D01*
X146877143Y-95603491D02*
X146991429Y-95565396D01*
X146991429Y-95565396D02*
X147067619Y-95489205D01*
X147067619Y-95489205D02*
X147105714Y-95413015D01*
X147105714Y-95413015D02*
X147143810Y-95260634D01*
X147143810Y-95260634D02*
X147143810Y-95146348D01*
X147143810Y-95146348D02*
X147105714Y-94993967D01*
X147105714Y-94993967D02*
X147067619Y-94917776D01*
X147067619Y-94917776D02*
X146991429Y-94841586D01*
X146991429Y-94841586D02*
X146877143Y-94803491D01*
X146877143Y-94803491D02*
X146800952Y-94803491D01*
X146800952Y-94803491D02*
X146686667Y-94841586D01*
X146686667Y-94841586D02*
X146648571Y-94879681D01*
X146305714Y-95603491D02*
X146305714Y-94803491D01*
X145962857Y-95603491D02*
X145962857Y-95184443D01*
X145962857Y-95184443D02*
X146000952Y-95108253D01*
X146000952Y-95108253D02*
X146077143Y-95070157D01*
X146077143Y-95070157D02*
X146191429Y-95070157D01*
X146191429Y-95070157D02*
X146267619Y-95108253D01*
X146267619Y-95108253D02*
X146305714Y-95146348D01*
X145277142Y-95565396D02*
X145353333Y-95603491D01*
X145353333Y-95603491D02*
X145505714Y-95603491D01*
X145505714Y-95603491D02*
X145581904Y-95565396D01*
X145581904Y-95565396D02*
X145620000Y-95489205D01*
X145620000Y-95489205D02*
X145620000Y-95184443D01*
X145620000Y-95184443D02*
X145581904Y-95108253D01*
X145581904Y-95108253D02*
X145505714Y-95070157D01*
X145505714Y-95070157D02*
X145353333Y-95070157D01*
X145353333Y-95070157D02*
X145277142Y-95108253D01*
X145277142Y-95108253D02*
X145239047Y-95184443D01*
X145239047Y-95184443D02*
X145239047Y-95260634D01*
X145239047Y-95260634D02*
X145620000Y-95336824D01*
X144896190Y-95070157D02*
X144896190Y-95603491D01*
X144896190Y-95146348D02*
X144858095Y-95108253D01*
X144858095Y-95108253D02*
X144781905Y-95070157D01*
X144781905Y-95070157D02*
X144667619Y-95070157D01*
X144667619Y-95070157D02*
X144591428Y-95108253D01*
X144591428Y-95108253D02*
X144553333Y-95184443D01*
X144553333Y-95184443D02*
X144553333Y-95603491D01*
X144134285Y-95565396D02*
X144134285Y-95603491D01*
X144134285Y-95603491D02*
X144172380Y-95679681D01*
X144172380Y-95679681D02*
X144210476Y-95717776D01*
X143220000Y-94879681D02*
X143181904Y-94841586D01*
X143181904Y-94841586D02*
X143105714Y-94803491D01*
X143105714Y-94803491D02*
X142915238Y-94803491D01*
X142915238Y-94803491D02*
X142839047Y-94841586D01*
X142839047Y-94841586D02*
X142800952Y-94879681D01*
X142800952Y-94879681D02*
X142762857Y-94955872D01*
X142762857Y-94955872D02*
X142762857Y-95032062D01*
X142762857Y-95032062D02*
X142800952Y-95146348D01*
X142800952Y-95146348D02*
X143258095Y-95603491D01*
X143258095Y-95603491D02*
X142762857Y-95603491D01*
X142267618Y-94803491D02*
X142191428Y-94803491D01*
X142191428Y-94803491D02*
X142115237Y-94841586D01*
X142115237Y-94841586D02*
X142077142Y-94879681D01*
X142077142Y-94879681D02*
X142039047Y-94955872D01*
X142039047Y-94955872D02*
X142000952Y-95108253D01*
X142000952Y-95108253D02*
X142000952Y-95298729D01*
X142000952Y-95298729D02*
X142039047Y-95451110D01*
X142039047Y-95451110D02*
X142077142Y-95527300D01*
X142077142Y-95527300D02*
X142115237Y-95565396D01*
X142115237Y-95565396D02*
X142191428Y-95603491D01*
X142191428Y-95603491D02*
X142267618Y-95603491D01*
X142267618Y-95603491D02*
X142343809Y-95565396D01*
X142343809Y-95565396D02*
X142381904Y-95527300D01*
X142381904Y-95527300D02*
X142419999Y-95451110D01*
X142419999Y-95451110D02*
X142458095Y-95298729D01*
X142458095Y-95298729D02*
X142458095Y-95108253D01*
X142458095Y-95108253D02*
X142419999Y-94955872D01*
X142419999Y-94955872D02*
X142381904Y-94879681D01*
X142381904Y-94879681D02*
X142343809Y-94841586D01*
X142343809Y-94841586D02*
X142267618Y-94803491D01*
X141696190Y-94879681D02*
X141658094Y-94841586D01*
X141658094Y-94841586D02*
X141581904Y-94803491D01*
X141581904Y-94803491D02*
X141391428Y-94803491D01*
X141391428Y-94803491D02*
X141315237Y-94841586D01*
X141315237Y-94841586D02*
X141277142Y-94879681D01*
X141277142Y-94879681D02*
X141239047Y-94955872D01*
X141239047Y-94955872D02*
X141239047Y-95032062D01*
X141239047Y-95032062D02*
X141277142Y-95146348D01*
X141277142Y-95146348D02*
X141734285Y-95603491D01*
X141734285Y-95603491D02*
X141239047Y-95603491D01*
X140477142Y-95603491D02*
X140934285Y-95603491D01*
X140705713Y-95603491D02*
X140705713Y-94803491D01*
X140705713Y-94803491D02*
X140781904Y-94917776D01*
X140781904Y-94917776D02*
X140858094Y-94993967D01*
X140858094Y-94993967D02*
X140934285Y-95032062D01*
D13*
X131325714Y-96871164D02*
X130861428Y-96871164D01*
X130861428Y-96871164D02*
X131111428Y-97156878D01*
X131111428Y-97156878D02*
X131004285Y-97156878D01*
X131004285Y-97156878D02*
X130932857Y-97192592D01*
X130932857Y-97192592D02*
X130897142Y-97228307D01*
X130897142Y-97228307D02*
X130861428Y-97299735D01*
X130861428Y-97299735D02*
X130861428Y-97478307D01*
X130861428Y-97478307D02*
X130897142Y-97549735D01*
X130897142Y-97549735D02*
X130932857Y-97585450D01*
X130932857Y-97585450D02*
X131004285Y-97621164D01*
X131004285Y-97621164D02*
X131218571Y-97621164D01*
X131218571Y-97621164D02*
X131289999Y-97585450D01*
X131289999Y-97585450D02*
X131325714Y-97549735D01*
X130539999Y-97549735D02*
X130504285Y-97585450D01*
X130504285Y-97585450D02*
X130539999Y-97621164D01*
X130539999Y-97621164D02*
X130575713Y-97585450D01*
X130575713Y-97585450D02*
X130539999Y-97549735D01*
X130539999Y-97549735D02*
X130539999Y-97621164D01*
X129825713Y-96871164D02*
X130182856Y-96871164D01*
X130182856Y-96871164D02*
X130218570Y-97228307D01*
X130218570Y-97228307D02*
X130182856Y-97192592D01*
X130182856Y-97192592D02*
X130111428Y-97156878D01*
X130111428Y-97156878D02*
X129932856Y-97156878D01*
X129932856Y-97156878D02*
X129861428Y-97192592D01*
X129861428Y-97192592D02*
X129825713Y-97228307D01*
X129825713Y-97228307D02*
X129789999Y-97299735D01*
X129789999Y-97299735D02*
X129789999Y-97478307D01*
X129789999Y-97478307D02*
X129825713Y-97549735D01*
X129825713Y-97549735D02*
X129861428Y-97585450D01*
X129861428Y-97585450D02*
X129932856Y-97621164D01*
X129932856Y-97621164D02*
X130111428Y-97621164D01*
X130111428Y-97621164D02*
X130182856Y-97585450D01*
X130182856Y-97585450D02*
X130218570Y-97549735D01*
X129468570Y-97621164D02*
X129468570Y-97121164D01*
X129468570Y-97192592D02*
X129432856Y-97156878D01*
X129432856Y-97156878D02*
X129361427Y-97121164D01*
X129361427Y-97121164D02*
X129254284Y-97121164D01*
X129254284Y-97121164D02*
X129182856Y-97156878D01*
X129182856Y-97156878D02*
X129147142Y-97228307D01*
X129147142Y-97228307D02*
X129147142Y-97621164D01*
X129147142Y-97228307D02*
X129111427Y-97156878D01*
X129111427Y-97156878D02*
X129039999Y-97121164D01*
X129039999Y-97121164D02*
X128932856Y-97121164D01*
X128932856Y-97121164D02*
X128861427Y-97156878D01*
X128861427Y-97156878D02*
X128825713Y-97228307D01*
X128825713Y-97228307D02*
X128825713Y-97621164D01*
X128468570Y-97621164D02*
X128468570Y-97121164D01*
X128468570Y-97192592D02*
X128432856Y-97156878D01*
X128432856Y-97156878D02*
X128361427Y-97121164D01*
X128361427Y-97121164D02*
X128254284Y-97121164D01*
X128254284Y-97121164D02*
X128182856Y-97156878D01*
X128182856Y-97156878D02*
X128147142Y-97228307D01*
X128147142Y-97228307D02*
X128147142Y-97621164D01*
X128147142Y-97228307D02*
X128111427Y-97156878D01*
X128111427Y-97156878D02*
X128039999Y-97121164D01*
X128039999Y-97121164D02*
X127932856Y-97121164D01*
X127932856Y-97121164D02*
X127861427Y-97156878D01*
X127861427Y-97156878D02*
X127825713Y-97228307D01*
X127825713Y-97228307D02*
X127825713Y-97621164D01*
D12*
X150320951Y-102946585D02*
X150344760Y-102922776D01*
X150344760Y-102922776D02*
X150392379Y-102851347D01*
X150392379Y-102851347D02*
X150416189Y-102803728D01*
X150416189Y-102803728D02*
X150439998Y-102732300D01*
X150439998Y-102732300D02*
X150463808Y-102613252D01*
X150463808Y-102613252D02*
X150463808Y-102518014D01*
X150463808Y-102518014D02*
X150439998Y-102398966D01*
X150439998Y-102398966D02*
X150416189Y-102327538D01*
X150416189Y-102327538D02*
X150392379Y-102279919D01*
X150392379Y-102279919D02*
X150344760Y-102208490D01*
X150344760Y-102208490D02*
X150320951Y-102184680D01*
X150154284Y-102732300D02*
X150082856Y-102756109D01*
X150082856Y-102756109D02*
X149963808Y-102756109D01*
X149963808Y-102756109D02*
X149916189Y-102732300D01*
X149916189Y-102732300D02*
X149892380Y-102708490D01*
X149892380Y-102708490D02*
X149868570Y-102660871D01*
X149868570Y-102660871D02*
X149868570Y-102613252D01*
X149868570Y-102613252D02*
X149892380Y-102565633D01*
X149892380Y-102565633D02*
X149916189Y-102541823D01*
X149916189Y-102541823D02*
X149963808Y-102518014D01*
X149963808Y-102518014D02*
X150059046Y-102494204D01*
X150059046Y-102494204D02*
X150106665Y-102470395D01*
X150106665Y-102470395D02*
X150130475Y-102446585D01*
X150130475Y-102446585D02*
X150154284Y-102398966D01*
X150154284Y-102398966D02*
X150154284Y-102351347D01*
X150154284Y-102351347D02*
X150130475Y-102303728D01*
X150130475Y-102303728D02*
X150106665Y-102279919D01*
X150106665Y-102279919D02*
X150059046Y-102256109D01*
X150059046Y-102256109D02*
X149939999Y-102256109D01*
X149939999Y-102256109D02*
X149868570Y-102279919D01*
X149654285Y-102756109D02*
X149654285Y-102256109D01*
X149439999Y-102756109D02*
X149439999Y-102494204D01*
X149439999Y-102494204D02*
X149463809Y-102446585D01*
X149463809Y-102446585D02*
X149511428Y-102422776D01*
X149511428Y-102422776D02*
X149582856Y-102422776D01*
X149582856Y-102422776D02*
X149630475Y-102446585D01*
X149630475Y-102446585D02*
X149654285Y-102470395D01*
X149130475Y-102756109D02*
X149178094Y-102732300D01*
X149178094Y-102732300D02*
X149201904Y-102708490D01*
X149201904Y-102708490D02*
X149225713Y-102660871D01*
X149225713Y-102660871D02*
X149225713Y-102518014D01*
X149225713Y-102518014D02*
X149201904Y-102470395D01*
X149201904Y-102470395D02*
X149178094Y-102446585D01*
X149178094Y-102446585D02*
X149130475Y-102422776D01*
X149130475Y-102422776D02*
X149059047Y-102422776D01*
X149059047Y-102422776D02*
X149011428Y-102446585D01*
X149011428Y-102446585D02*
X148987618Y-102470395D01*
X148987618Y-102470395D02*
X148963809Y-102518014D01*
X148963809Y-102518014D02*
X148963809Y-102660871D01*
X148963809Y-102660871D02*
X148987618Y-102708490D01*
X148987618Y-102708490D02*
X149011428Y-102732300D01*
X149011428Y-102732300D02*
X149059047Y-102756109D01*
X149059047Y-102756109D02*
X149130475Y-102756109D01*
X148749523Y-102756109D02*
X148749523Y-102422776D01*
X148749523Y-102518014D02*
X148725713Y-102470395D01*
X148725713Y-102470395D02*
X148701904Y-102446585D01*
X148701904Y-102446585D02*
X148654285Y-102422776D01*
X148654285Y-102422776D02*
X148606666Y-102422776D01*
X148511427Y-102422776D02*
X148320951Y-102422776D01*
X148439999Y-102256109D02*
X148439999Y-102684680D01*
X148439999Y-102684680D02*
X148416189Y-102732300D01*
X148416189Y-102732300D02*
X148368570Y-102756109D01*
X148368570Y-102756109D02*
X148320951Y-102756109D01*
X147844761Y-102422776D02*
X147654285Y-102422776D01*
X147773333Y-102756109D02*
X147773333Y-102327538D01*
X147773333Y-102327538D02*
X147749523Y-102279919D01*
X147749523Y-102279919D02*
X147701904Y-102256109D01*
X147701904Y-102256109D02*
X147654285Y-102256109D01*
X147416190Y-102756109D02*
X147463809Y-102732300D01*
X147463809Y-102732300D02*
X147487619Y-102708490D01*
X147487619Y-102708490D02*
X147511428Y-102660871D01*
X147511428Y-102660871D02*
X147511428Y-102518014D01*
X147511428Y-102518014D02*
X147487619Y-102470395D01*
X147487619Y-102470395D02*
X147463809Y-102446585D01*
X147463809Y-102446585D02*
X147416190Y-102422776D01*
X147416190Y-102422776D02*
X147344762Y-102422776D01*
X147344762Y-102422776D02*
X147297143Y-102446585D01*
X147297143Y-102446585D02*
X147273333Y-102470395D01*
X147273333Y-102470395D02*
X147249524Y-102518014D01*
X147249524Y-102518014D02*
X147249524Y-102660871D01*
X147249524Y-102660871D02*
X147273333Y-102708490D01*
X147273333Y-102708490D02*
X147297143Y-102732300D01*
X147297143Y-102732300D02*
X147344762Y-102756109D01*
X147344762Y-102756109D02*
X147416190Y-102756109D01*
X147035238Y-102756109D02*
X147035238Y-102422776D01*
X147035238Y-102518014D02*
X147011428Y-102470395D01*
X147011428Y-102470395D02*
X146987619Y-102446585D01*
X146987619Y-102446585D02*
X146940000Y-102422776D01*
X146940000Y-102422776D02*
X146892381Y-102422776D01*
X146344762Y-102756109D02*
X146344762Y-102256109D01*
X146344762Y-102256109D02*
X146154286Y-102256109D01*
X146154286Y-102256109D02*
X146106667Y-102279919D01*
X146106667Y-102279919D02*
X146082857Y-102303728D01*
X146082857Y-102303728D02*
X146059048Y-102351347D01*
X146059048Y-102351347D02*
X146059048Y-102422776D01*
X146059048Y-102422776D02*
X146082857Y-102470395D01*
X146082857Y-102470395D02*
X146106667Y-102494204D01*
X146106667Y-102494204D02*
X146154286Y-102518014D01*
X146154286Y-102518014D02*
X146344762Y-102518014D01*
X145868571Y-102613252D02*
X145630476Y-102613252D01*
X145916190Y-102756109D02*
X145749524Y-102256109D01*
X145749524Y-102256109D02*
X145582857Y-102756109D01*
X145178096Y-102756109D02*
X145416191Y-102756109D01*
X145416191Y-102756109D02*
X145416191Y-102256109D01*
X145059048Y-102946585D02*
X145035238Y-102922776D01*
X145035238Y-102922776D02*
X144987619Y-102851347D01*
X144987619Y-102851347D02*
X144963810Y-102803728D01*
X144963810Y-102803728D02*
X144940000Y-102732300D01*
X144940000Y-102732300D02*
X144916191Y-102613252D01*
X144916191Y-102613252D02*
X144916191Y-102518014D01*
X144916191Y-102518014D02*
X144940000Y-102398966D01*
X144940000Y-102398966D02*
X144963810Y-102327538D01*
X144963810Y-102327538D02*
X144987619Y-102279919D01*
X144987619Y-102279919D02*
X145035238Y-102208490D01*
X145035238Y-102208490D02*
X145059048Y-102184680D01*
D13*
X135022143Y-109525435D02*
X134772143Y-110275435D01*
X134772143Y-110275435D02*
X134522143Y-109525435D01*
X133879286Y-109561149D02*
X133950715Y-109525435D01*
X133950715Y-109525435D02*
X134057857Y-109525435D01*
X134057857Y-109525435D02*
X134165000Y-109561149D01*
X134165000Y-109561149D02*
X134236429Y-109632578D01*
X134236429Y-109632578D02*
X134272143Y-109704006D01*
X134272143Y-109704006D02*
X134307857Y-109846863D01*
X134307857Y-109846863D02*
X134307857Y-109954006D01*
X134307857Y-109954006D02*
X134272143Y-110096863D01*
X134272143Y-110096863D02*
X134236429Y-110168292D01*
X134236429Y-110168292D02*
X134165000Y-110239721D01*
X134165000Y-110239721D02*
X134057857Y-110275435D01*
X134057857Y-110275435D02*
X133986429Y-110275435D01*
X133986429Y-110275435D02*
X133879286Y-110239721D01*
X133879286Y-110239721D02*
X133843572Y-110204006D01*
X133843572Y-110204006D02*
X133843572Y-109954006D01*
X133843572Y-109954006D02*
X133986429Y-109954006D01*
X133557857Y-110061149D02*
X133200715Y-110061149D01*
X133629286Y-110275435D02*
X133379286Y-109525435D01*
X133379286Y-109525435D02*
X133129286Y-110275435D01*
X131700714Y-110275435D02*
X131736429Y-110275435D01*
X131736429Y-110275435D02*
X131807857Y-110239721D01*
X131807857Y-110239721D02*
X131915000Y-110132578D01*
X131915000Y-110132578D02*
X132093571Y-109918292D01*
X132093571Y-109918292D02*
X132165000Y-109811149D01*
X132165000Y-109811149D02*
X132200714Y-109704006D01*
X132200714Y-109704006D02*
X132200714Y-109632578D01*
X132200714Y-109632578D02*
X132165000Y-109561149D01*
X132165000Y-109561149D02*
X132093571Y-109525435D01*
X132093571Y-109525435D02*
X132057857Y-109525435D01*
X132057857Y-109525435D02*
X131986429Y-109561149D01*
X131986429Y-109561149D02*
X131950714Y-109632578D01*
X131950714Y-109632578D02*
X131950714Y-109668292D01*
X131950714Y-109668292D02*
X131986429Y-109739721D01*
X131986429Y-109739721D02*
X132022143Y-109775435D01*
X132022143Y-109775435D02*
X132236429Y-109918292D01*
X132236429Y-109918292D02*
X132272143Y-109954006D01*
X132272143Y-109954006D02*
X132307857Y-110025435D01*
X132307857Y-110025435D02*
X132307857Y-110132578D01*
X132307857Y-110132578D02*
X132272143Y-110204006D01*
X132272143Y-110204006D02*
X132236429Y-110239721D01*
X132236429Y-110239721D02*
X132165000Y-110275435D01*
X132165000Y-110275435D02*
X132057857Y-110275435D01*
X132057857Y-110275435D02*
X131986429Y-110239721D01*
X131986429Y-110239721D02*
X131950714Y-110204006D01*
X131950714Y-110204006D02*
X131843571Y-110061149D01*
X131843571Y-110061149D02*
X131807857Y-109954006D01*
X131807857Y-109954006D02*
X131807857Y-109882578D01*
X130879286Y-109525435D02*
X130415000Y-109525435D01*
X130415000Y-109525435D02*
X130665000Y-109811149D01*
X130665000Y-109811149D02*
X130557857Y-109811149D01*
X130557857Y-109811149D02*
X130486429Y-109846863D01*
X130486429Y-109846863D02*
X130450714Y-109882578D01*
X130450714Y-109882578D02*
X130415000Y-109954006D01*
X130415000Y-109954006D02*
X130415000Y-110132578D01*
X130415000Y-110132578D02*
X130450714Y-110204006D01*
X130450714Y-110204006D02*
X130486429Y-110239721D01*
X130486429Y-110239721D02*
X130557857Y-110275435D01*
X130557857Y-110275435D02*
X130772143Y-110275435D01*
X130772143Y-110275435D02*
X130843571Y-110239721D01*
X130843571Y-110239721D02*
X130879286Y-110204006D01*
X130093571Y-110204006D02*
X130057857Y-110239721D01*
X130057857Y-110239721D02*
X130093571Y-110275435D01*
X130093571Y-110275435D02*
X130129285Y-110239721D01*
X130129285Y-110239721D02*
X130093571Y-110204006D01*
X130093571Y-110204006D02*
X130093571Y-110275435D01*
X129379285Y-109525435D02*
X129736428Y-109525435D01*
X129736428Y-109525435D02*
X129772142Y-109882578D01*
X129772142Y-109882578D02*
X129736428Y-109846863D01*
X129736428Y-109846863D02*
X129665000Y-109811149D01*
X129665000Y-109811149D02*
X129486428Y-109811149D01*
X129486428Y-109811149D02*
X129415000Y-109846863D01*
X129415000Y-109846863D02*
X129379285Y-109882578D01*
X129379285Y-109882578D02*
X129343571Y-109954006D01*
X129343571Y-109954006D02*
X129343571Y-110132578D01*
X129343571Y-110132578D02*
X129379285Y-110204006D01*
X129379285Y-110204006D02*
X129415000Y-110239721D01*
X129415000Y-110239721D02*
X129486428Y-110275435D01*
X129486428Y-110275435D02*
X129665000Y-110275435D01*
X129665000Y-110275435D02*
X129736428Y-110239721D01*
X129736428Y-110239721D02*
X129772142Y-110204006D01*
X129022142Y-110275435D02*
X129022142Y-109525435D01*
X129022142Y-109525435D02*
X128772142Y-110061149D01*
X128772142Y-110061149D02*
X128522142Y-109525435D01*
X128522142Y-109525435D02*
X128522142Y-110275435D01*
X128164999Y-110275435D02*
X128164999Y-109525435D01*
X128164999Y-109525435D02*
X127914999Y-110061149D01*
X127914999Y-110061149D02*
X127664999Y-109525435D01*
X127664999Y-109525435D02*
X127664999Y-110275435D01*
X134790000Y-110732893D02*
X134647143Y-110732893D01*
X134647143Y-110732893D02*
X134575714Y-110768607D01*
X134575714Y-110768607D02*
X134504286Y-110840036D01*
X134504286Y-110840036D02*
X134468571Y-110982893D01*
X134468571Y-110982893D02*
X134468571Y-111232893D01*
X134468571Y-111232893D02*
X134504286Y-111375750D01*
X134504286Y-111375750D02*
X134575714Y-111447179D01*
X134575714Y-111447179D02*
X134647143Y-111482893D01*
X134647143Y-111482893D02*
X134790000Y-111482893D01*
X134790000Y-111482893D02*
X134861429Y-111447179D01*
X134861429Y-111447179D02*
X134932857Y-111375750D01*
X134932857Y-111375750D02*
X134968571Y-111232893D01*
X134968571Y-111232893D02*
X134968571Y-110982893D01*
X134968571Y-110982893D02*
X134932857Y-110840036D01*
X134932857Y-110840036D02*
X134861429Y-110768607D01*
X134861429Y-110768607D02*
X134790000Y-110732893D01*
X134147143Y-111482893D02*
X134147143Y-110732893D01*
X134147143Y-110732893D02*
X133718572Y-111482893D01*
X133718572Y-111482893D02*
X133718572Y-110732893D01*
X132897143Y-110732893D02*
X132468572Y-110732893D01*
X132682857Y-111482893D02*
X132682857Y-110732893D01*
X132218571Y-111482893D02*
X132218571Y-110732893D01*
X132218571Y-111090036D02*
X131790000Y-111090036D01*
X131790000Y-111482893D02*
X131790000Y-110732893D01*
X131432857Y-111482893D02*
X131432857Y-110732893D01*
X131111428Y-111447179D02*
X131004286Y-111482893D01*
X131004286Y-111482893D02*
X130825714Y-111482893D01*
X130825714Y-111482893D02*
X130754286Y-111447179D01*
X130754286Y-111447179D02*
X130718571Y-111411464D01*
X130718571Y-111411464D02*
X130682857Y-111340036D01*
X130682857Y-111340036D02*
X130682857Y-111268607D01*
X130682857Y-111268607D02*
X130718571Y-111197179D01*
X130718571Y-111197179D02*
X130754286Y-111161464D01*
X130754286Y-111161464D02*
X130825714Y-111125750D01*
X130825714Y-111125750D02*
X130968571Y-111090036D01*
X130968571Y-111090036D02*
X131040000Y-111054321D01*
X131040000Y-111054321D02*
X131075714Y-111018607D01*
X131075714Y-111018607D02*
X131111428Y-110947179D01*
X131111428Y-110947179D02*
X131111428Y-110875750D01*
X131111428Y-110875750D02*
X131075714Y-110804321D01*
X131075714Y-110804321D02*
X131040000Y-110768607D01*
X131040000Y-110768607D02*
X130968571Y-110732893D01*
X130968571Y-110732893D02*
X130790000Y-110732893D01*
X130790000Y-110732893D02*
X130682857Y-110768607D01*
X129825713Y-111447179D02*
X129718571Y-111482893D01*
X129718571Y-111482893D02*
X129539999Y-111482893D01*
X129539999Y-111482893D02*
X129468571Y-111447179D01*
X129468571Y-111447179D02*
X129432856Y-111411464D01*
X129432856Y-111411464D02*
X129397142Y-111340036D01*
X129397142Y-111340036D02*
X129397142Y-111268607D01*
X129397142Y-111268607D02*
X129432856Y-111197179D01*
X129432856Y-111197179D02*
X129468571Y-111161464D01*
X129468571Y-111161464D02*
X129539999Y-111125750D01*
X129539999Y-111125750D02*
X129682856Y-111090036D01*
X129682856Y-111090036D02*
X129754285Y-111054321D01*
X129754285Y-111054321D02*
X129789999Y-111018607D01*
X129789999Y-111018607D02*
X129825713Y-110947179D01*
X129825713Y-110947179D02*
X129825713Y-110875750D01*
X129825713Y-110875750D02*
X129789999Y-110804321D01*
X129789999Y-110804321D02*
X129754285Y-110768607D01*
X129754285Y-110768607D02*
X129682856Y-110732893D01*
X129682856Y-110732893D02*
X129504285Y-110732893D01*
X129504285Y-110732893D02*
X129397142Y-110768607D01*
X129075713Y-111482893D02*
X129075713Y-110732893D01*
X128718570Y-111482893D02*
X128718570Y-110732893D01*
X128718570Y-110732893D02*
X128539999Y-110732893D01*
X128539999Y-110732893D02*
X128432856Y-110768607D01*
X128432856Y-110768607D02*
X128361427Y-110840036D01*
X128361427Y-110840036D02*
X128325713Y-110911464D01*
X128325713Y-110911464D02*
X128289999Y-111054321D01*
X128289999Y-111054321D02*
X128289999Y-111161464D01*
X128289999Y-111161464D02*
X128325713Y-111304321D01*
X128325713Y-111304321D02*
X128361427Y-111375750D01*
X128361427Y-111375750D02*
X128432856Y-111447179D01*
X128432856Y-111447179D02*
X128539999Y-111482893D01*
X128539999Y-111482893D02*
X128718570Y-111482893D01*
X127968570Y-111090036D02*
X127718570Y-111090036D01*
X127611427Y-111482893D02*
X127968570Y-111482893D01*
X127968570Y-111482893D02*
X127968570Y-110732893D01*
X127968570Y-110732893D02*
X127611427Y-110732893D01*
D12*
X153397618Y-97586109D02*
X153397618Y-97086109D01*
X153397618Y-97086109D02*
X153207142Y-97086109D01*
X153207142Y-97086109D02*
X153159523Y-97109919D01*
X153159523Y-97109919D02*
X153135713Y-97133728D01*
X153135713Y-97133728D02*
X153111904Y-97181347D01*
X153111904Y-97181347D02*
X153111904Y-97252776D01*
X153111904Y-97252776D02*
X153135713Y-97300395D01*
X153135713Y-97300395D02*
X153159523Y-97324204D01*
X153159523Y-97324204D02*
X153207142Y-97348014D01*
X153207142Y-97348014D02*
X153397618Y-97348014D01*
X152921427Y-97443252D02*
X152683332Y-97443252D01*
X152969046Y-97586109D02*
X152802380Y-97086109D01*
X152802380Y-97086109D02*
X152635713Y-97586109D01*
X152230952Y-97586109D02*
X152469047Y-97586109D01*
X152469047Y-97586109D02*
X152469047Y-97086109D01*
X153729046Y-102772300D02*
X153657618Y-102796109D01*
X153657618Y-102796109D02*
X153538570Y-102796109D01*
X153538570Y-102796109D02*
X153490951Y-102772300D01*
X153490951Y-102772300D02*
X153467142Y-102748490D01*
X153467142Y-102748490D02*
X153443332Y-102700871D01*
X153443332Y-102700871D02*
X153443332Y-102653252D01*
X153443332Y-102653252D02*
X153467142Y-102605633D01*
X153467142Y-102605633D02*
X153490951Y-102581823D01*
X153490951Y-102581823D02*
X153538570Y-102558014D01*
X153538570Y-102558014D02*
X153633808Y-102534204D01*
X153633808Y-102534204D02*
X153681427Y-102510395D01*
X153681427Y-102510395D02*
X153705237Y-102486585D01*
X153705237Y-102486585D02*
X153729046Y-102438966D01*
X153729046Y-102438966D02*
X153729046Y-102391347D01*
X153729046Y-102391347D02*
X153705237Y-102343728D01*
X153705237Y-102343728D02*
X153681427Y-102319919D01*
X153681427Y-102319919D02*
X153633808Y-102296109D01*
X153633808Y-102296109D02*
X153514761Y-102296109D01*
X153514761Y-102296109D02*
X153443332Y-102319919D01*
X153133809Y-102558014D02*
X153133809Y-102796109D01*
X153300475Y-102296109D02*
X153133809Y-102558014D01*
X153133809Y-102558014D02*
X152967142Y-102296109D01*
X152800476Y-102796109D02*
X152800476Y-102296109D01*
X152800476Y-102296109D02*
X152514762Y-102796109D01*
X152514762Y-102796109D02*
X152514762Y-102296109D01*
X151990952Y-102748490D02*
X152014761Y-102772300D01*
X152014761Y-102772300D02*
X152086190Y-102796109D01*
X152086190Y-102796109D02*
X152133809Y-102796109D01*
X152133809Y-102796109D02*
X152205237Y-102772300D01*
X152205237Y-102772300D02*
X152252856Y-102724680D01*
X152252856Y-102724680D02*
X152276666Y-102677061D01*
X152276666Y-102677061D02*
X152300475Y-102581823D01*
X152300475Y-102581823D02*
X152300475Y-102510395D01*
X152300475Y-102510395D02*
X152276666Y-102415157D01*
X152276666Y-102415157D02*
X152252856Y-102367538D01*
X152252856Y-102367538D02*
X152205237Y-102319919D01*
X152205237Y-102319919D02*
X152133809Y-102296109D01*
X152133809Y-102296109D02*
X152086190Y-102296109D01*
X152086190Y-102296109D02*
X152014761Y-102319919D01*
X152014761Y-102319919D02*
X151990952Y-102343728D01*
X145314090Y-99846666D02*
X145337900Y-99822857D01*
X145337900Y-99822857D02*
X145361709Y-99751428D01*
X145361709Y-99751428D02*
X145361709Y-99703809D01*
X145361709Y-99703809D02*
X145337900Y-99632381D01*
X145337900Y-99632381D02*
X145290280Y-99584762D01*
X145290280Y-99584762D02*
X145242661Y-99560952D01*
X145242661Y-99560952D02*
X145147423Y-99537143D01*
X145147423Y-99537143D02*
X145075995Y-99537143D01*
X145075995Y-99537143D02*
X144980757Y-99560952D01*
X144980757Y-99560952D02*
X144933138Y-99584762D01*
X144933138Y-99584762D02*
X144885519Y-99632381D01*
X144885519Y-99632381D02*
X144861709Y-99703809D01*
X144861709Y-99703809D02*
X144861709Y-99751428D01*
X144861709Y-99751428D02*
X144885519Y-99822857D01*
X144885519Y-99822857D02*
X144909328Y-99846666D01*
X145361709Y-100322857D02*
X145361709Y-100037143D01*
X145361709Y-100180000D02*
X144861709Y-100180000D01*
X144861709Y-100180000D02*
X144933138Y-100132381D01*
X144933138Y-100132381D02*
X144980757Y-100084762D01*
X144980757Y-100084762D02*
X145004566Y-100037143D01*
X147744090Y-99846666D02*
X147767900Y-99822857D01*
X147767900Y-99822857D02*
X147791709Y-99751428D01*
X147791709Y-99751428D02*
X147791709Y-99703809D01*
X147791709Y-99703809D02*
X147767900Y-99632381D01*
X147767900Y-99632381D02*
X147720280Y-99584762D01*
X147720280Y-99584762D02*
X147672661Y-99560952D01*
X147672661Y-99560952D02*
X147577423Y-99537143D01*
X147577423Y-99537143D02*
X147505995Y-99537143D01*
X147505995Y-99537143D02*
X147410757Y-99560952D01*
X147410757Y-99560952D02*
X147363138Y-99584762D01*
X147363138Y-99584762D02*
X147315519Y-99632381D01*
X147315519Y-99632381D02*
X147291709Y-99703809D01*
X147291709Y-99703809D02*
X147291709Y-99751428D01*
X147291709Y-99751428D02*
X147315519Y-99822857D01*
X147315519Y-99822857D02*
X147339328Y-99846666D01*
X147339328Y-100037143D02*
X147315519Y-100060952D01*
X147315519Y-100060952D02*
X147291709Y-100108571D01*
X147291709Y-100108571D02*
X147291709Y-100227619D01*
X147291709Y-100227619D02*
X147315519Y-100275238D01*
X147315519Y-100275238D02*
X147339328Y-100299047D01*
X147339328Y-100299047D02*
X147386947Y-100322857D01*
X147386947Y-100322857D02*
X147434566Y-100322857D01*
X147434566Y-100322857D02*
X147505995Y-100299047D01*
X147505995Y-100299047D02*
X147791709Y-100013333D01*
X147791709Y-100013333D02*
X147791709Y-100322857D01*
X150184090Y-99846666D02*
X150207900Y-99822857D01*
X150207900Y-99822857D02*
X150231709Y-99751428D01*
X150231709Y-99751428D02*
X150231709Y-99703809D01*
X150231709Y-99703809D02*
X150207900Y-99632381D01*
X150207900Y-99632381D02*
X150160280Y-99584762D01*
X150160280Y-99584762D02*
X150112661Y-99560952D01*
X150112661Y-99560952D02*
X150017423Y-99537143D01*
X150017423Y-99537143D02*
X149945995Y-99537143D01*
X149945995Y-99537143D02*
X149850757Y-99560952D01*
X149850757Y-99560952D02*
X149803138Y-99584762D01*
X149803138Y-99584762D02*
X149755519Y-99632381D01*
X149755519Y-99632381D02*
X149731709Y-99703809D01*
X149731709Y-99703809D02*
X149731709Y-99751428D01*
X149731709Y-99751428D02*
X149755519Y-99822857D01*
X149755519Y-99822857D02*
X149779328Y-99846666D01*
X149731709Y-100013333D02*
X149731709Y-100322857D01*
X149731709Y-100322857D02*
X149922185Y-100156190D01*
X149922185Y-100156190D02*
X149922185Y-100227619D01*
X149922185Y-100227619D02*
X149945995Y-100275238D01*
X149945995Y-100275238D02*
X149969804Y-100299047D01*
X149969804Y-100299047D02*
X150017423Y-100322857D01*
X150017423Y-100322857D02*
X150136471Y-100322857D01*
X150136471Y-100322857D02*
X150184090Y-100299047D01*
X150184090Y-100299047D02*
X150207900Y-100275238D01*
X150207900Y-100275238D02*
X150231709Y-100227619D01*
X150231709Y-100227619D02*
X150231709Y-100084762D01*
X150231709Y-100084762D02*
X150207900Y-100037143D01*
X150207900Y-100037143D02*
X150184090Y-100013333D01*
D13*
X141581094Y-111427419D02*
X141581094Y-110427419D01*
X141581094Y-110427419D02*
X141200142Y-110427419D01*
X141200142Y-110427419D02*
X141104904Y-110475038D01*
X141104904Y-110475038D02*
X141057285Y-110522657D01*
X141057285Y-110522657D02*
X141009666Y-110617895D01*
X141009666Y-110617895D02*
X141009666Y-110760752D01*
X141009666Y-110760752D02*
X141057285Y-110855990D01*
X141057285Y-110855990D02*
X141104904Y-110903609D01*
X141104904Y-110903609D02*
X141200142Y-110951228D01*
X141200142Y-110951228D02*
X141581094Y-110951228D01*
X140628713Y-110522657D02*
X140581094Y-110475038D01*
X140581094Y-110475038D02*
X140485856Y-110427419D01*
X140485856Y-110427419D02*
X140247761Y-110427419D01*
X140247761Y-110427419D02*
X140152523Y-110475038D01*
X140152523Y-110475038D02*
X140104904Y-110522657D01*
X140104904Y-110522657D02*
X140057285Y-110617895D01*
X140057285Y-110617895D02*
X140057285Y-110713133D01*
X140057285Y-110713133D02*
X140104904Y-110855990D01*
X140104904Y-110855990D02*
X140676332Y-111427419D01*
X140676332Y-111427419D02*
X140057285Y-111427419D01*
X126876133Y-103366219D02*
X126876133Y-104080504D01*
X126876133Y-104080504D02*
X126923752Y-104223361D01*
X126923752Y-104223361D02*
X127018990Y-104318600D01*
X127018990Y-104318600D02*
X127161847Y-104366219D01*
X127161847Y-104366219D02*
X127257085Y-104366219D01*
X125876133Y-104366219D02*
X126447561Y-104366219D01*
X126161847Y-104366219D02*
X126161847Y-103366219D01*
X126161847Y-103366219D02*
X126257085Y-103509076D01*
X126257085Y-103509076D02*
X126352323Y-103604314D01*
X126352323Y-103604314D02*
X126447561Y-103651933D01*
D12*
X153054090Y-99846666D02*
X153077900Y-99822857D01*
X153077900Y-99822857D02*
X153101709Y-99751428D01*
X153101709Y-99751428D02*
X153101709Y-99703809D01*
X153101709Y-99703809D02*
X153077900Y-99632381D01*
X153077900Y-99632381D02*
X153030280Y-99584762D01*
X153030280Y-99584762D02*
X152982661Y-99560952D01*
X152982661Y-99560952D02*
X152887423Y-99537143D01*
X152887423Y-99537143D02*
X152815995Y-99537143D01*
X152815995Y-99537143D02*
X152720757Y-99560952D01*
X152720757Y-99560952D02*
X152673138Y-99584762D01*
X152673138Y-99584762D02*
X152625519Y-99632381D01*
X152625519Y-99632381D02*
X152601709Y-99703809D01*
X152601709Y-99703809D02*
X152601709Y-99751428D01*
X152601709Y-99751428D02*
X152625519Y-99822857D01*
X152625519Y-99822857D02*
X152649328Y-99846666D01*
X152601709Y-100275238D02*
X152601709Y-100180000D01*
X152601709Y-100180000D02*
X152625519Y-100132381D01*
X152625519Y-100132381D02*
X152649328Y-100108571D01*
X152649328Y-100108571D02*
X152720757Y-100060952D01*
X152720757Y-100060952D02*
X152815995Y-100037143D01*
X152815995Y-100037143D02*
X153006471Y-100037143D01*
X153006471Y-100037143D02*
X153054090Y-100060952D01*
X153054090Y-100060952D02*
X153077900Y-100084762D01*
X153077900Y-100084762D02*
X153101709Y-100132381D01*
X153101709Y-100132381D02*
X153101709Y-100227619D01*
X153101709Y-100227619D02*
X153077900Y-100275238D01*
X153077900Y-100275238D02*
X153054090Y-100299047D01*
X153054090Y-100299047D02*
X153006471Y-100322857D01*
X153006471Y-100322857D02*
X152887423Y-100322857D01*
X152887423Y-100322857D02*
X152839804Y-100299047D01*
X152839804Y-100299047D02*
X152815995Y-100275238D01*
X152815995Y-100275238D02*
X152792185Y-100227619D01*
X152792185Y-100227619D02*
X152792185Y-100132381D01*
X152792185Y-100132381D02*
X152815995Y-100084762D01*
X152815995Y-100084762D02*
X152839804Y-100060952D01*
X152839804Y-100060952D02*
X152887423Y-100037143D01*
D14*
X144220000Y-99218748D02*
X144220000Y-100641252D01*
X146040000Y-99218748D02*
X146040000Y-100641252D01*
X146650000Y-99218748D02*
X146650000Y-100641252D01*
X148470000Y-99218748D02*
X148470000Y-100641252D01*
X149090000Y-99218748D02*
X149090000Y-100641252D01*
X150910000Y-99218748D02*
X150910000Y-100641252D01*
X121230000Y-96330000D02*
X121230000Y-102570000D01*
X121230000Y-102570000D02*
X125230000Y-102570000D01*
X125230000Y-94430000D02*
X125230000Y-96330000D01*
X125230000Y-96330000D02*
X121230000Y-96330000D01*
X125230000Y-102570000D02*
X125230000Y-102870000D01*
X125230000Y-102870000D02*
X139470000Y-102870000D01*
X139470000Y-94430000D02*
X125230000Y-94430000D01*
X139470000Y-102870000D02*
X139470000Y-94430000D01*
X151960000Y-99218748D02*
X151960000Y-100641252D01*
X153780000Y-99218748D02*
X153780000Y-100641252D01*
%LPC*%
D15*
X146980000Y-90140000D03*
X144560000Y-90140000D03*
X142140000Y-90140000D03*
X139720000Y-90140000D03*
X137300000Y-90140000D03*
X134880000Y-90140000D03*
D16*
X145130000Y-98455000D03*
X145130000Y-101405000D03*
X147560000Y-98455000D03*
X147560000Y-101405000D03*
X150000000Y-98455000D03*
X150000000Y-101405000D03*
D17*
X136345000Y-105020000D03*
D18*
X138635000Y-105020000D03*
X140925000Y-105020000D03*
X143215000Y-105020000D03*
X145505000Y-105020000D03*
X135200000Y-107000000D03*
X137490000Y-107000000D03*
X139780000Y-107000000D03*
X142070000Y-107000000D03*
X144360000Y-107000000D03*
X136345000Y-108980000D03*
X138635000Y-108980000D03*
X140925000Y-108980000D03*
X143215000Y-108980000D03*
X145505000Y-108980000D03*
D19*
X153420000Y-107000000D03*
X128430000Y-107000000D03*
D20*
X134450000Y-100550000D03*
X132650000Y-98550000D03*
X126550000Y-98550000D03*
X128950000Y-100550000D03*
X138150000Y-98550000D03*
D16*
X152870000Y-98455000D03*
X152870000Y-101405000D03*
%LPD*%
M02*
