M48
; DRILL file {KiCad 9.0.0} date 2025-03-27T12:33:42-0700
; FORMAT={-:-/ absolute / metric / decimal}
; #@! TF.CreationDate,2025-03-27T12:33:42-07:00
; #@! TF.GenerationSoftware,Kicad,Pcbnew,9.0.0
; #@! TF.FileFunction,Plated,1,2,PTH
FMAT,2
METRIC
; #@! TA.AperFunction,Plated,PTH,ViaDrill
T1C0.300
; #@! TA.AperFunction,Plated,PTH,ComponentDrill
T2C1.000
; #@! TA.AperFunction,Plated,PTH,ComponentDrill
T3C3.200
%
G90
G05
T1
X132.537Y-94.539
X134.493Y-97.663
X136.017Y-100.203
X137.28Y-91.24
X137.31Y-93.81
X137.54Y-102.88
X139.81Y-103.44
X141.47Y-93.03
X143.01Y-93.85
X144.56Y-91.26
X145.15Y-100.48
X145.76Y-93.9
X146.2Y-106.94
X147.55Y-100.47
X149.43Y-93.38
X149.479Y-90.043
X149.99Y-108.3
X150.01Y-100.49
X152.27Y-100.49
X154.06Y-98.47
T2
X135.2Y-107.0
X136.345Y-105.02
X136.345Y-108.98
X137.49Y-107.0
X138.635Y-105.02
X138.635Y-108.98
X139.78Y-107.0
X140.925Y-105.02
X140.925Y-108.98
X142.07Y-107.0
X143.215Y-105.02
X143.215Y-108.98
X144.36Y-107.0
X145.505Y-105.02
X145.505Y-108.98
T3
X128.43Y-107.0
X153.42Y-107.0
T2
X126.55Y-98.05G85X126.55Y-99.05
G05
X128.95Y-100.05G85X128.95Y-101.05
G05
X132.65Y-98.05G85X132.65Y-99.05
G05
X134.45Y-100.05G85X134.45Y-101.05
G05
X138.15Y-98.05G85X138.15Y-99.05
G05
M30
