G04 #@! TF.GenerationSoftware,KiCad,Pcbnew,9.0.0*
G04 #@! TF.CreationDate,2025-03-27T12:33:45-07:00*
G04 #@! TF.ProjectId,SNES2VGA,534e4553-3256-4474-912e-6b696361645f,1*
G04 #@! TF.SameCoordinates,Original*
G04 #@! TF.FileFunction,Copper,L2,Bot*
G04 #@! TF.FilePolarity,Positive*
%FSLAX46Y46*%
G04 Gerber Fmt 4.6, Leading zero omitted, Abs format (unit mm)*
G04 Created by KiCad (PCBNEW 9.0.0) date 2025-03-27 12:33:45*
%MOMM*%
%LPD*%
G01*
G04 APERTURE LIST*
G04 Aperture macros list*
%AMRoundRect*
0 Rectangle with rounded corners*
0 $1 Rounding radius*
0 $2 $3 $4 $5 $6 $7 $8 $9 X,Y pos of 4 corners*
0 Add a 4 corners polygon primitive as box body*
4,1,4,$2,$3,$4,$5,$6,$7,$8,$9,$2,$3,0*
0 Add four circle primitives for the rounded corners*
1,1,$1+$1,$2,$3*
1,1,$1+$1,$4,$5*
1,1,$1+$1,$6,$7*
1,1,$1+$1,$8,$9*
0 Add four rect primitives between the rounded corners*
20,1,$1+$1,$2,$3,$4,$5,0*
20,1,$1+$1,$4,$5,$6,$7,0*
20,1,$1+$1,$6,$7,$8,$9,0*
20,1,$1+$1,$8,$9,$2,$3,0*%
G04 Aperture macros list end*
G04 #@! TA.AperFunction,ConnectorPad*
%ADD10RoundRect,0.475000X-0.475000X-1.125000X0.475000X-1.125000X0.475000X1.125000X-0.475000X1.125000X0*%
G04 #@! TD*
G04 #@! TA.AperFunction,SMDPad,CuDef*
%ADD11RoundRect,0.250000X-0.650000X0.325000X-0.650000X-0.325000X0.650000X-0.325000X0.650000X0.325000X0*%
G04 #@! TD*
G04 #@! TA.AperFunction,ComponentPad*
%ADD12R,1.700000X1.700000*%
G04 #@! TD*
G04 #@! TA.AperFunction,ComponentPad*
%ADD13C,1.700000*%
G04 #@! TD*
G04 #@! TA.AperFunction,ComponentPad*
%ADD14C,4.066000*%
G04 #@! TD*
G04 #@! TA.AperFunction,ComponentPad*
%ADD15O,1.800000X2.800000*%
G04 #@! TD*
G04 #@! TA.AperFunction,ViaPad*
%ADD16C,0.700000*%
G04 #@! TD*
G04 #@! TA.AperFunction,Conductor*
%ADD17C,0.200000*%
G04 #@! TD*
G04 APERTURE END LIST*
D10*
X146980000Y-90140000D03*
X144560000Y-90140000D03*
X142140000Y-90140000D03*
X139720000Y-90140000D03*
X137300000Y-90140000D03*
X134880000Y-90140000D03*
D11*
X145130000Y-98455000D03*
X145130000Y-101405000D03*
X147560000Y-98455000D03*
X147560000Y-101405000D03*
X150000000Y-98455000D03*
X150000000Y-101405000D03*
D12*
X136345000Y-105020000D03*
D13*
X138635000Y-105020000D03*
X140925000Y-105020000D03*
X143215000Y-105020000D03*
X145505000Y-105020000D03*
X135200000Y-107000000D03*
X137490000Y-107000000D03*
X139780000Y-107000000D03*
X142070000Y-107000000D03*
X144360000Y-107000000D03*
X136345000Y-108980000D03*
X138635000Y-108980000D03*
X140925000Y-108980000D03*
X143215000Y-108980000D03*
X145505000Y-108980000D03*
D14*
X153420000Y-107000000D03*
X128430000Y-107000000D03*
D15*
X134450000Y-100550000D03*
X132650000Y-98550000D03*
X126550000Y-98550000D03*
X128950000Y-100550000D03*
X138150000Y-98550000D03*
D11*
X152870000Y-98455000D03*
X152870000Y-101405000D03*
D16*
X145760000Y-93900000D03*
X145150000Y-100480000D03*
X147550000Y-100469950D03*
X144560000Y-91259991D03*
X149430000Y-93380000D03*
X150010000Y-100490000D03*
X149990000Y-108300000D03*
X152270000Y-100490000D03*
X137310000Y-93809998D03*
X143010000Y-93850000D03*
X137280000Y-91240000D03*
X146200000Y-106939990D03*
X134493000Y-97663000D03*
X132537200Y-94538800D03*
X137540000Y-102880000D03*
X149479000Y-90043000D03*
X139810000Y-103440000D03*
X141470000Y-93030000D03*
X136017000Y-100203000D03*
X154060000Y-98470000D03*
D17*
X144940000Y-98180000D02*
X145760000Y-97360000D01*
X145760000Y-97360000D02*
X145760000Y-93900000D01*
X136340000Y-102400000D02*
X137390000Y-101350000D01*
X136340000Y-104780000D02*
X136340000Y-102400000D01*
X145150000Y-100480000D02*
X145150000Y-101280000D01*
X137390000Y-101350000D02*
X145150000Y-101350000D01*
X146970000Y-92650000D02*
X146970000Y-90930000D01*
X147590000Y-93270000D02*
X146970000Y-92650000D01*
X147590000Y-98030000D02*
X147590000Y-93270000D01*
X146890000Y-102450000D02*
X139170000Y-102450000D01*
X147550000Y-101340000D02*
X147550000Y-100469950D01*
X139170000Y-102450000D02*
X138640000Y-102980000D01*
X138640000Y-102980000D02*
X138640000Y-104750000D01*
X147580000Y-101760000D02*
X146890000Y-102450000D01*
X149430000Y-93380000D02*
X149440000Y-93390000D01*
X149440000Y-97360000D02*
X149980000Y-97900000D01*
X149980000Y-97900000D02*
X149980000Y-98470000D01*
X149440000Y-93390000D02*
X149440000Y-97360000D01*
X150010000Y-100490000D02*
X150010000Y-101320000D01*
X141390000Y-103440000D02*
X140925000Y-103905000D01*
X149550000Y-101670000D02*
X147780000Y-103440000D01*
X147780000Y-103440000D02*
X141390000Y-103440000D01*
X140925000Y-103905000D02*
X140925000Y-105020000D01*
X134880000Y-93530000D02*
X135830000Y-94480000D01*
X135830000Y-94480000D02*
X135830000Y-99250000D01*
X134880000Y-90700000D02*
X134880000Y-93530000D01*
X135830000Y-99250000D02*
X134490000Y-100590000D01*
X149990000Y-108300000D02*
X149990000Y-104270000D01*
X149990000Y-104270000D02*
X152870000Y-101390000D01*
X143010000Y-93850000D02*
X137350002Y-93850000D01*
X137350002Y-93850000D02*
X137310000Y-93809998D01*
X134980000Y-110710000D02*
X146150000Y-110710000D01*
X146150000Y-110710000D02*
X147320000Y-109540000D01*
X147320000Y-108059990D02*
X146200000Y-106939990D01*
X132650000Y-98550000D02*
X132650000Y-108380000D01*
X147320000Y-109540000D02*
X147320000Y-108059990D01*
X132650000Y-108380000D02*
X134980000Y-110710000D01*
X154060000Y-98470000D02*
X152870000Y-98470000D01*
G04 #@! TA.AperFunction,Conductor*
G36*
X136836581Y-106048982D02*
G01*
X136856739Y-106083897D01*
X137304822Y-106531980D01*
X137297007Y-106534075D01*
X137182993Y-106599901D01*
X137089901Y-106692993D01*
X137024075Y-106807007D01*
X137021980Y-106814822D01*
X136583464Y-106376306D01*
X136549195Y-106423476D01*
X136470594Y-106577736D01*
X136470589Y-106577749D01*
X136420133Y-106733036D01*
X136386863Y-106775619D01*
X136334005Y-106786854D01*
X136286291Y-106761484D01*
X136269867Y-106733036D01*
X136219410Y-106577749D01*
X136219405Y-106577736D01*
X136140804Y-106423475D01*
X136106534Y-106376306D01*
X135668018Y-106814821D01*
X135665925Y-106807007D01*
X135600099Y-106692993D01*
X135507007Y-106599901D01*
X135392993Y-106534075D01*
X135385176Y-106531980D01*
X135834644Y-106082512D01*
X135839881Y-106063626D01*
X135884416Y-106033017D01*
X135904198Y-106030500D01*
X136785801Y-106030500D01*
X136836581Y-106048982D01*
G37*
G04 #@! TD.AperFunction*
G04 #@! TA.AperFunction,Conductor*
G36*
X133865494Y-88548982D02*
G01*
X133892514Y-88595782D01*
X133883130Y-88649000D01*
X133882713Y-88649714D01*
X133817129Y-88760609D01*
X133772337Y-88914788D01*
X133772335Y-88914796D01*
X133769500Y-88950819D01*
X133769500Y-88950820D01*
X133769500Y-88950826D01*
X133769500Y-91329172D01*
X133769501Y-91329180D01*
X133771980Y-91360701D01*
X133772335Y-91365205D01*
X133772336Y-91365211D01*
X133817129Y-91519390D01*
X133898865Y-91657598D01*
X133898867Y-91657601D01*
X134012398Y-91771132D01*
X134012401Y-91771134D01*
X134012402Y-91771135D01*
X134150607Y-91852869D01*
X134150609Y-91852870D01*
X134202003Y-91867801D01*
X134304796Y-91897665D01*
X134340819Y-91900500D01*
X134540500Y-91900499D01*
X134591280Y-91918981D01*
X134618300Y-91965780D01*
X134619500Y-91979499D01*
X134619500Y-93581819D01*
X134659156Y-93677557D01*
X134659161Y-93677564D01*
X135546361Y-94564763D01*
X135569199Y-94613739D01*
X135569500Y-94620624D01*
X135569500Y-99109374D01*
X135551018Y-99160154D01*
X135546361Y-99165235D01*
X135361546Y-99350050D01*
X135312570Y-99372888D01*
X135260372Y-99358902D01*
X135249824Y-99350050D01*
X135126034Y-99226260D01*
X135126027Y-99226254D01*
X134997689Y-99140502D01*
X134952335Y-99110197D01*
X134952332Y-99110196D01*
X134952331Y-99110195D01*
X134759338Y-99030255D01*
X134759336Y-99030254D01*
X134554450Y-98989500D01*
X134345550Y-98989500D01*
X134140663Y-99030254D01*
X134140661Y-99030255D01*
X133947668Y-99110195D01*
X133947663Y-99110198D01*
X133833390Y-99186553D01*
X133780899Y-99199397D01*
X133732433Y-99175496D01*
X133710669Y-99126034D01*
X133710500Y-99120867D01*
X133710500Y-97945550D01*
X133669745Y-97740663D01*
X133669744Y-97740661D01*
X133602764Y-97578956D01*
X133589803Y-97547665D01*
X133473744Y-97373971D01*
X133473739Y-97373965D01*
X133326034Y-97226260D01*
X133326027Y-97226254D01*
X133152336Y-97110198D01*
X133152335Y-97110197D01*
X133152332Y-97110196D01*
X133152331Y-97110195D01*
X132959338Y-97030255D01*
X132959336Y-97030254D01*
X132754450Y-96989500D01*
X132545550Y-96989500D01*
X132340663Y-97030254D01*
X132340661Y-97030255D01*
X132147668Y-97110195D01*
X132147663Y-97110198D01*
X131973972Y-97226254D01*
X131973965Y-97226260D01*
X131826260Y-97373965D01*
X131826254Y-97373972D01*
X131710198Y-97547663D01*
X131710195Y-97547668D01*
X131630255Y-97740661D01*
X131630254Y-97740663D01*
X131589500Y-97945550D01*
X131589500Y-99154449D01*
X131630254Y-99359336D01*
X131630255Y-99359338D01*
X131710195Y-99552331D01*
X131710198Y-99552336D01*
X131826254Y-99726027D01*
X131826260Y-99726034D01*
X131973965Y-99873739D01*
X131973972Y-99873745D01*
X132042963Y-99919843D01*
X132147665Y-99989803D01*
X132340664Y-100069745D01*
X132340669Y-100069746D01*
X132340732Y-100069772D01*
X132380574Y-100106281D01*
X132389500Y-100142759D01*
X132389500Y-108431819D01*
X132429156Y-108527557D01*
X132429161Y-108527564D01*
X134832434Y-110930838D01*
X134832437Y-110930840D01*
X134832439Y-110930842D01*
X134928183Y-110970500D01*
X134928185Y-110970500D01*
X146201817Y-110970500D01*
X146233731Y-110957280D01*
X146297557Y-110930843D01*
X146297558Y-110930842D01*
X146297561Y-110930841D01*
X147540842Y-109687561D01*
X147580500Y-109591817D01*
X147580500Y-109488183D01*
X147580500Y-108232790D01*
X149479500Y-108232790D01*
X149479500Y-108367209D01*
X149514289Y-108497045D01*
X149514290Y-108497047D01*
X149581499Y-108613456D01*
X149676543Y-108708500D01*
X149676545Y-108708501D01*
X149676546Y-108708502D01*
X149792954Y-108775710D01*
X149922791Y-108810500D01*
X149922793Y-108810500D01*
X150057207Y-108810500D01*
X150057209Y-108810500D01*
X150187046Y-108775710D01*
X150303454Y-108708502D01*
X150303456Y-108708500D01*
X150347312Y-108664645D01*
X150398500Y-108613456D01*
X150398502Y-108613454D01*
X150465710Y-108497046D01*
X150500500Y-108367209D01*
X150500500Y-108232791D01*
X150465710Y-108102954D01*
X150464003Y-108099998D01*
X150417473Y-108019405D01*
X150398502Y-107986546D01*
X150398501Y-107986545D01*
X150398500Y-107986543D01*
X150303456Y-107891499D01*
X150303454Y-107891498D01*
X150289999Y-107883729D01*
X150255264Y-107842332D01*
X150250500Y-107815314D01*
X150250500Y-107149639D01*
X151136999Y-107149639D01*
X151176060Y-107446339D01*
X151253517Y-107735413D01*
X151253518Y-107735416D01*
X151368046Y-108011913D01*
X151517679Y-108271084D01*
X151668941Y-108468214D01*
X151668942Y-108468215D01*
X152155503Y-107981653D01*
X152199588Y-108042330D01*
X152377670Y-108220412D01*
X152438344Y-108264494D01*
X151951783Y-108751056D01*
X151951784Y-108751057D01*
X152148915Y-108902320D01*
X152408086Y-109051953D01*
X152684583Y-109166481D01*
X152684586Y-109166482D01*
X152973660Y-109243939D01*
X153270360Y-109283000D01*
X153569639Y-109283000D01*
X153866339Y-109243939D01*
X154155413Y-109166482D01*
X154155416Y-109166481D01*
X154431913Y-109051953D01*
X154691086Y-108902319D01*
X154691091Y-108902316D01*
X154888214Y-108751056D01*
X154888215Y-108751056D01*
X154401654Y-108264495D01*
X154462330Y-108220412D01*
X154640412Y-108042330D01*
X154684495Y-107981654D01*
X155171056Y-108468215D01*
X155171056Y-108468214D01*
X155322316Y-108271091D01*
X155322319Y-108271086D01*
X155471953Y-108011913D01*
X155586481Y-107735416D01*
X155586482Y-107735413D01*
X155663939Y-107446339D01*
X155703000Y-107149639D01*
X155703000Y-106850360D01*
X155663939Y-106553660D01*
X155586482Y-106264586D01*
X155586481Y-106264583D01*
X155471953Y-105988086D01*
X155322320Y-105728915D01*
X155171057Y-105531784D01*
X155171056Y-105531783D01*
X154684494Y-106018344D01*
X154640412Y-105957670D01*
X154462330Y-105779588D01*
X154401653Y-105735504D01*
X154888215Y-105248942D01*
X154888214Y-105248941D01*
X154691084Y-105097679D01*
X154431913Y-104948046D01*
X154155416Y-104833518D01*
X154155413Y-104833517D01*
X153866339Y-104756060D01*
X153569639Y-104717000D01*
X153270361Y-104717000D01*
X152973660Y-104756060D01*
X152684586Y-104833517D01*
X152684583Y-104833518D01*
X152408086Y-104948046D01*
X152148915Y-105097679D01*
X151951784Y-105248941D01*
X151951783Y-105248942D01*
X152438345Y-105735504D01*
X152377670Y-105779588D01*
X152199588Y-105957670D01*
X152155504Y-106018345D01*
X151668942Y-105531783D01*
X151668941Y-105531784D01*
X151517679Y-105728915D01*
X151368046Y-105988086D01*
X151253518Y-106264583D01*
X151253517Y-106264586D01*
X151176060Y-106553660D01*
X151137000Y-106850360D01*
X151137000Y-107149639D01*
X151136999Y-107149639D01*
X150250500Y-107149639D01*
X150250500Y-104410623D01*
X150268982Y-104359843D01*
X150273628Y-104354773D01*
X152464763Y-102163637D01*
X152513739Y-102140800D01*
X152520624Y-102140499D01*
X153552303Y-102140499D01*
X153552306Y-102140499D01*
X153648433Y-102125275D01*
X153764294Y-102066241D01*
X153856241Y-101974294D01*
X153915275Y-101858433D01*
X153930500Y-101762307D01*
X153930499Y-101047694D01*
X153915275Y-100951567D01*
X153856241Y-100835706D01*
X153856240Y-100835705D01*
X153856239Y-100835703D01*
X153764296Y-100743760D01*
X153762169Y-100742676D01*
X153648433Y-100684725D01*
X153648429Y-100684724D01*
X153648426Y-100684723D01*
X153552318Y-100669501D01*
X153552310Y-100669500D01*
X153552307Y-100669500D01*
X153552302Y-100669500D01*
X152853366Y-100669500D01*
X152802586Y-100651018D01*
X152775566Y-100604218D01*
X152777058Y-100570053D01*
X152780500Y-100557209D01*
X152780500Y-100422791D01*
X152745710Y-100292954D01*
X152678502Y-100176546D01*
X152678501Y-100176545D01*
X152678500Y-100176543D01*
X152583456Y-100081499D01*
X152467047Y-100014290D01*
X152467045Y-100014289D01*
X152337209Y-99979500D01*
X152202791Y-99979500D01*
X152202790Y-99979500D01*
X152072954Y-100014289D01*
X152072952Y-100014290D01*
X151956543Y-100081499D01*
X151861499Y-100176543D01*
X151794290Y-100292952D01*
X151794289Y-100292954D01*
X151759500Y-100422790D01*
X151759500Y-100557209D01*
X151794289Y-100687045D01*
X151794290Y-100687047D01*
X151860605Y-100801908D01*
X151869989Y-100855126D01*
X151862579Y-100877272D01*
X151824726Y-100951565D01*
X151824723Y-100951573D01*
X151809501Y-101047681D01*
X151809500Y-101047697D01*
X151809500Y-101762303D01*
X151818995Y-101822253D01*
X151824725Y-101858433D01*
X151837700Y-101883897D01*
X151869024Y-101945375D01*
X151875609Y-101999012D01*
X151854495Y-102037101D01*
X150230760Y-103660838D01*
X149842439Y-104049159D01*
X149818430Y-104073168D01*
X149769158Y-104122439D01*
X149769156Y-104122442D01*
X149729500Y-104218180D01*
X149729500Y-107815314D01*
X149711018Y-107866094D01*
X149690001Y-107883729D01*
X149676545Y-107891498D01*
X149676544Y-107891499D01*
X149581499Y-107986543D01*
X149514290Y-108102952D01*
X149514289Y-108102954D01*
X149479500Y-108232790D01*
X147580500Y-108232790D01*
X147580500Y-108008173D01*
X147571542Y-107986546D01*
X147540843Y-107912432D01*
X147540841Y-107912429D01*
X147512141Y-107883729D01*
X147467561Y-107839149D01*
X146726925Y-107098513D01*
X146704087Y-107049537D01*
X146706478Y-107022205D01*
X146710500Y-107007199D01*
X146710500Y-106872781D01*
X146675710Y-106742944D01*
X146675399Y-106742406D01*
X146608500Y-106626533D01*
X146513456Y-106531489D01*
X146397047Y-106464280D01*
X146397045Y-106464279D01*
X146267209Y-106429490D01*
X146132791Y-106429490D01*
X146132790Y-106429490D01*
X146002954Y-106464279D01*
X146002952Y-106464280D01*
X145886543Y-106531489D01*
X145791499Y-106626533D01*
X145724290Y-106742942D01*
X145724289Y-106742944D01*
X145689500Y-106872780D01*
X145689500Y-107007199D01*
X145724289Y-107137035D01*
X145724290Y-107137037D01*
X145791499Y-107253446D01*
X145886543Y-107348490D01*
X145886545Y-107348491D01*
X145886546Y-107348492D01*
X146002954Y-107415700D01*
X146132791Y-107450490D01*
X146132793Y-107450490D01*
X146267207Y-107450490D01*
X146267209Y-107450490D01*
X146282213Y-107446469D01*
X146336045Y-107451176D01*
X146358523Y-107466915D01*
X147036361Y-108144753D01*
X147059199Y-108193729D01*
X147059500Y-108200614D01*
X147059500Y-109399375D01*
X147041018Y-109450155D01*
X147036361Y-109455236D01*
X146065237Y-110426361D01*
X146016261Y-110449199D01*
X146009376Y-110449500D01*
X135120625Y-110449500D01*
X135069845Y-110431018D01*
X135064764Y-110426361D01*
X133518877Y-108880474D01*
X135334500Y-108880474D01*
X135334500Y-109079526D01*
X135351797Y-109166482D01*
X135373333Y-109274753D01*
X135373334Y-109274757D01*
X135449504Y-109458645D01*
X135449507Y-109458651D01*
X135560092Y-109624154D01*
X135560098Y-109624161D01*
X135700838Y-109764901D01*
X135700844Y-109764906D01*
X135866349Y-109875493D01*
X135866354Y-109875495D01*
X136050242Y-109951665D01*
X136050244Y-109951665D01*
X136050248Y-109951667D01*
X136245474Y-109990500D01*
X136444526Y-109990500D01*
X136639752Y-109951667D01*
X136823651Y-109875493D01*
X136989156Y-109764906D01*
X137129906Y-109624156D01*
X137240493Y-109458651D01*
X137316667Y-109274752D01*
X137355500Y-109079526D01*
X137355500Y-108880474D01*
X137624500Y-108880474D01*
X137624500Y-109079526D01*
X137641797Y-109166482D01*
X137663333Y-109274753D01*
X137663334Y-109274757D01*
X137739504Y-109458645D01*
X137739507Y-109458651D01*
X137850092Y-109624154D01*
X137850098Y-109624161D01*
X137990838Y-109764901D01*
X137990844Y-109764906D01*
X138156349Y-109875493D01*
X138156354Y-109875495D01*
X138340242Y-109951665D01*
X138340244Y-109951665D01*
X138340248Y-109951667D01*
X138535474Y-109990500D01*
X138734526Y-109990500D01*
X138929752Y-109951667D01*
X139113651Y-109875493D01*
X139279156Y-109764906D01*
X139419906Y-109624156D01*
X139530493Y-109458651D01*
X139606667Y-109274752D01*
X139645500Y-109079526D01*
X139645500Y-108880474D01*
X139914500Y-108880474D01*
X139914500Y-109079526D01*
X139931797Y-109166482D01*
X139953333Y-109274753D01*
X139953334Y-109274757D01*
X140029504Y-109458645D01*
X140029507Y-109458651D01*
X140140092Y-109624154D01*
X140140098Y-109624161D01*
X140280838Y-109764901D01*
X140280844Y-109764906D01*
X140446349Y-109875493D01*
X140446354Y-109875495D01*
X140630242Y-109951665D01*
X140630244Y-109951665D01*
X140630248Y-109951667D01*
X140825474Y-109990500D01*
X141024526Y-109990500D01*
X141219752Y-109951667D01*
X141403651Y-109875493D01*
X141569156Y-109764906D01*
X141709906Y-109624156D01*
X141820493Y-109458651D01*
X141896667Y-109274752D01*
X141935500Y-109079526D01*
X141935500Y-108880474D01*
X142204500Y-108880474D01*
X142204500Y-109079526D01*
X142221797Y-109166482D01*
X142243333Y-109274753D01*
X142243334Y-109274757D01*
X142319504Y-109458645D01*
X142319507Y-109458651D01*
X142430092Y-109624154D01*
X142430098Y-109624161D01*
X142570838Y-109764901D01*
X142570844Y-109764906D01*
X142736349Y-109875493D01*
X142736354Y-109875495D01*
X142920242Y-109951665D01*
X142920244Y-109951665D01*
X142920248Y-109951667D01*
X143115474Y-109990500D01*
X143314526Y-109990500D01*
X143509752Y-109951667D01*
X143693651Y-109875493D01*
X143859156Y-109764906D01*
X143999906Y-109624156D01*
X144110493Y-109458651D01*
X144186667Y-109274752D01*
X144225500Y-109079526D01*
X144225500Y-108880474D01*
X144494500Y-108880474D01*
X144494500Y-109079526D01*
X144511797Y-109166482D01*
X144533333Y-109274753D01*
X144533334Y-109274757D01*
X144609504Y-109458645D01*
X144609507Y-109458651D01*
X144720092Y-109624154D01*
X144720098Y-109624161D01*
X144860838Y-109764901D01*
X144860844Y-109764906D01*
X145026349Y-109875493D01*
X145026354Y-109875495D01*
X145210242Y-109951665D01*
X145210244Y-109951665D01*
X145210248Y-109951667D01*
X145405474Y-109990500D01*
X145604526Y-109990500D01*
X145799752Y-109951667D01*
X145983651Y-109875493D01*
X146149156Y-109764906D01*
X146289906Y-109624156D01*
X146400493Y-109458651D01*
X146476667Y-109274752D01*
X146515500Y-109079526D01*
X146515500Y-108880474D01*
X146476667Y-108685248D01*
X146400493Y-108501349D01*
X146311688Y-108368443D01*
X146289907Y-108335845D01*
X146289901Y-108335838D01*
X146149161Y-108195098D01*
X146149154Y-108195092D01*
X145983651Y-108084507D01*
X145983645Y-108084504D01*
X145799757Y-108008334D01*
X145799753Y-108008333D01*
X145604526Y-107969500D01*
X145405474Y-107969500D01*
X145210246Y-108008333D01*
X145210242Y-108008334D01*
X145026354Y-108084504D01*
X145026348Y-108084507D01*
X144860845Y-108195092D01*
X144860838Y-108195098D01*
X144720098Y-108335838D01*
X144720092Y-108335845D01*
X144609507Y-108501348D01*
X144609504Y-108501354D01*
X144533334Y-108685242D01*
X144533333Y-108685246D01*
X144515339Y-108775709D01*
X144494500Y-108880474D01*
X144225500Y-108880474D01*
X144186667Y-108685248D01*
X144110493Y-108501349D01*
X144021688Y-108368443D01*
X143999907Y-108335845D01*
X143999901Y-108335838D01*
X143859161Y-108195098D01*
X143859154Y-108195092D01*
X143693651Y-108084507D01*
X143693645Y-108084504D01*
X143509757Y-108008334D01*
X143509753Y-108008333D01*
X143314526Y-107969500D01*
X143115474Y-107969500D01*
X142920246Y-108008333D01*
X142920242Y-108008334D01*
X142736354Y-108084504D01*
X142736348Y-108084507D01*
X142570845Y-108195092D01*
X142570838Y-108195098D01*
X142430098Y-108335838D01*
X142430092Y-108335845D01*
X142319507Y-108501348D01*
X142319504Y-108501354D01*
X142243334Y-108685242D01*
X142243333Y-108685246D01*
X142225339Y-108775709D01*
X142204500Y-108880474D01*
X141935500Y-108880474D01*
X141896667Y-108685248D01*
X141820493Y-108501349D01*
X141731688Y-108368443D01*
X141709907Y-108335845D01*
X141709901Y-108335838D01*
X141569161Y-108195098D01*
X141569154Y-108195092D01*
X141403651Y-108084507D01*
X141403645Y-108084504D01*
X141219757Y-108008334D01*
X141219753Y-108008333D01*
X141024526Y-107969500D01*
X140825474Y-107969500D01*
X140630246Y-108008333D01*
X140630242Y-108008334D01*
X140446354Y-108084504D01*
X140446348Y-108084507D01*
X140280845Y-108195092D01*
X140280838Y-108195098D01*
X140140098Y-108335838D01*
X140140092Y-108335845D01*
X140029507Y-108501348D01*
X140029504Y-108501354D01*
X139953334Y-108685242D01*
X139953333Y-108685246D01*
X139935339Y-108775709D01*
X139914500Y-108880474D01*
X139645500Y-108880474D01*
X139606667Y-108685248D01*
X139530493Y-108501349D01*
X139441688Y-108368443D01*
X139419907Y-108335845D01*
X139419901Y-108335838D01*
X139279161Y-108195098D01*
X139279154Y-108195092D01*
X139113651Y-108084507D01*
X139113645Y-108084504D01*
X138929757Y-108008334D01*
X138929753Y-108008333D01*
X138734526Y-107969500D01*
X138535474Y-107969500D01*
X138340246Y-108008333D01*
X138340242Y-108008334D01*
X138156354Y-108084504D01*
X138156348Y-108084507D01*
X137990845Y-108195092D01*
X137990838Y-108195098D01*
X137850098Y-108335838D01*
X137850092Y-108335845D01*
X137739507Y-108501348D01*
X137739504Y-108501354D01*
X137663334Y-108685242D01*
X137663333Y-108685246D01*
X137645339Y-108775709D01*
X137624500Y-108880474D01*
X137355500Y-108880474D01*
X137316667Y-108685248D01*
X137240493Y-108501349D01*
X137151688Y-108368443D01*
X137129907Y-108335845D01*
X137129901Y-108335838D01*
X136989161Y-108195098D01*
X136989154Y-108195092D01*
X136823651Y-108084507D01*
X136823645Y-108084504D01*
X136639757Y-108008334D01*
X136639753Y-108008333D01*
X136444526Y-107969500D01*
X136245474Y-107969500D01*
X136050246Y-108008333D01*
X136050242Y-108008334D01*
X135866354Y-108084504D01*
X135866348Y-108084507D01*
X135700845Y-108195092D01*
X135700838Y-108195098D01*
X135560098Y-108335838D01*
X135560092Y-108335845D01*
X135449507Y-108501348D01*
X135449504Y-108501354D01*
X135373334Y-108685242D01*
X135373333Y-108685246D01*
X135355339Y-108775709D01*
X135334500Y-108880474D01*
X133518877Y-108880474D01*
X132933639Y-108295236D01*
X132910801Y-108246260D01*
X132910500Y-108239375D01*
X132910500Y-106913432D01*
X134100000Y-106913432D01*
X134100000Y-107086567D01*
X134100001Y-107086583D01*
X134127083Y-107257573D01*
X134127088Y-107257593D01*
X134180589Y-107422250D01*
X134180594Y-107422263D01*
X134259195Y-107576524D01*
X134293464Y-107623692D01*
X134731980Y-107185176D01*
X134734075Y-107192993D01*
X134799901Y-107307007D01*
X134892993Y-107400099D01*
X135007007Y-107465925D01*
X135014821Y-107468018D01*
X134576306Y-107906534D01*
X134623475Y-107940804D01*
X134777736Y-108019405D01*
X134777749Y-108019410D01*
X134942406Y-108072911D01*
X134942426Y-108072916D01*
X135113416Y-108099998D01*
X135113433Y-108100000D01*
X135286567Y-108100000D01*
X135286583Y-108099998D01*
X135457573Y-108072916D01*
X135457593Y-108072911D01*
X135622250Y-108019410D01*
X135622263Y-108019405D01*
X135776525Y-107940803D01*
X135823692Y-107906534D01*
X135385177Y-107468019D01*
X135392993Y-107465925D01*
X135507007Y-107400099D01*
X135600099Y-107307007D01*
X135665925Y-107192993D01*
X135668019Y-107185177D01*
X136106534Y-107623692D01*
X136140803Y-107576525D01*
X136219405Y-107422263D01*
X136219410Y-107422250D01*
X136269867Y-107266963D01*
X136303137Y-107224380D01*
X136355995Y-107213145D01*
X136403709Y-107238515D01*
X136420133Y-107266963D01*
X136470589Y-107422250D01*
X136470594Y-107422263D01*
X136549195Y-107576524D01*
X136583464Y-107623692D01*
X137021980Y-107185176D01*
X137024075Y-107192993D01*
X137089901Y-107307007D01*
X137182993Y-107400099D01*
X137297007Y-107465925D01*
X137304821Y-107468018D01*
X136866306Y-107906534D01*
X136913475Y-107940804D01*
X137067736Y-108019405D01*
X137067749Y-108019410D01*
X137232406Y-108072911D01*
X137232426Y-108072916D01*
X137403416Y-108099998D01*
X137403433Y-108100000D01*
X137576567Y-108100000D01*
X137576583Y-108099998D01*
X137747573Y-108072916D01*
X137747593Y-108072911D01*
X137912250Y-108019410D01*
X137912263Y-108019405D01*
X138066525Y-107940803D01*
X138113692Y-107906534D01*
X137675177Y-107468019D01*
X137682993Y-107465925D01*
X137797007Y-107400099D01*
X137890099Y-107307007D01*
X137955925Y-107192993D01*
X137958019Y-107185177D01*
X138396534Y-107623692D01*
X138430803Y-107576525D01*
X138509405Y-107422263D01*
X138509410Y-107422250D01*
X138559867Y-107266963D01*
X138593137Y-107224380D01*
X138645995Y-107213145D01*
X138693709Y-107238515D01*
X138710133Y-107266963D01*
X138760589Y-107422250D01*
X138760594Y-107422263D01*
X138839195Y-107576524D01*
X138873464Y-107623692D01*
X139311980Y-107185176D01*
X139314075Y-107192993D01*
X139379901Y-107307007D01*
X139472993Y-107400099D01*
X139587007Y-107465925D01*
X139594821Y-107468018D01*
X139156306Y-107906534D01*
X139203475Y-107940804D01*
X139357736Y-108019405D01*
X139357749Y-108019410D01*
X139522406Y-108072911D01*
X139522426Y-108072916D01*
X139693416Y-108099998D01*
X139693433Y-108100000D01*
X139866567Y-108100000D01*
X139866583Y-108099998D01*
X140037573Y-108072916D01*
X140037593Y-108072911D01*
X140202250Y-108019410D01*
X140202263Y-108019405D01*
X140356525Y-107940803D01*
X140403692Y-107906534D01*
X139965177Y-107468019D01*
X139972993Y-107465925D01*
X140087007Y-107400099D01*
X140180099Y-107307007D01*
X140245925Y-107192993D01*
X140248019Y-107185177D01*
X140686534Y-107623692D01*
X140720803Y-107576525D01*
X140799405Y-107422263D01*
X140799410Y-107422250D01*
X140852911Y-107257593D01*
X140852916Y-107257573D01*
X140879998Y-107086583D01*
X140880000Y-107086567D01*
X140880000Y-106913432D01*
X140879999Y-106913428D01*
X140879291Y-106908956D01*
X140879291Y-106908951D01*
X140877948Y-106900474D01*
X141059500Y-106900474D01*
X141059500Y-107099526D01*
X141069468Y-107149639D01*
X141098333Y-107294753D01*
X141098334Y-107294757D01*
X141174504Y-107478645D01*
X141174507Y-107478651D01*
X141285092Y-107644154D01*
X141285098Y-107644161D01*
X141425838Y-107784901D01*
X141425844Y-107784906D01*
X141591349Y-107895493D01*
X141591354Y-107895495D01*
X141775242Y-107971665D01*
X141775244Y-107971665D01*
X141775248Y-107971667D01*
X141970474Y-108010500D01*
X142169526Y-108010500D01*
X142364752Y-107971667D01*
X142548651Y-107895493D01*
X142714156Y-107784906D01*
X142854906Y-107644156D01*
X142965493Y-107478651D01*
X143041667Y-107294752D01*
X143080500Y-107099526D01*
X143080500Y-106913432D01*
X143260000Y-106913432D01*
X143260000Y-107086567D01*
X143260001Y-107086583D01*
X143287083Y-107257573D01*
X143287088Y-107257593D01*
X143340589Y-107422250D01*
X143340594Y-107422263D01*
X143419195Y-107576524D01*
X143453464Y-107623692D01*
X143891980Y-107185176D01*
X143894075Y-107192993D01*
X143959901Y-107307007D01*
X144052993Y-107400099D01*
X144167007Y-107465925D01*
X144174821Y-107468018D01*
X143736306Y-107906534D01*
X143783475Y-107940804D01*
X143937736Y-108019405D01*
X143937749Y-108019410D01*
X144102406Y-108072911D01*
X144102426Y-108072916D01*
X144273416Y-108099998D01*
X144273433Y-108100000D01*
X144446567Y-108100000D01*
X144446583Y-108099998D01*
X144617573Y-108072916D01*
X144617593Y-108072911D01*
X144782250Y-108019410D01*
X144782263Y-108019405D01*
X144936525Y-107940803D01*
X144983692Y-107906534D01*
X144545177Y-107468019D01*
X144552993Y-107465925D01*
X144667007Y-107400099D01*
X144760099Y-107307007D01*
X144825925Y-107192993D01*
X144828019Y-107185177D01*
X145266534Y-107623692D01*
X145300803Y-107576525D01*
X145379405Y-107422263D01*
X145379410Y-107422250D01*
X145432911Y-107257593D01*
X145432916Y-107257573D01*
X145459998Y-107086583D01*
X145460000Y-107086567D01*
X145460000Y-106913432D01*
X145459998Y-106913416D01*
X145432916Y-106742426D01*
X145432911Y-106742406D01*
X145379410Y-106577749D01*
X145379405Y-106577736D01*
X145300804Y-106423475D01*
X145266534Y-106376306D01*
X144828018Y-106814821D01*
X144825925Y-106807007D01*
X144760099Y-106692993D01*
X144667007Y-106599901D01*
X144552993Y-106534075D01*
X144545176Y-106531980D01*
X144998155Y-106079001D01*
X145000440Y-106070760D01*
X145044973Y-106040148D01*
X145089172Y-106041497D01*
X145247407Y-106092911D01*
X145247426Y-106092916D01*
X145418416Y-106119998D01*
X145418433Y-106120000D01*
X145591567Y-106120000D01*
X145591583Y-106119998D01*
X145762573Y-106092916D01*
X145762593Y-106092911D01*
X145927250Y-106039410D01*
X145927263Y-106039405D01*
X146081525Y-105960803D01*
X146128692Y-105926534D01*
X145690177Y-105488019D01*
X145697993Y-105485925D01*
X145812007Y-105420099D01*
X145905099Y-105327007D01*
X145970925Y-105212993D01*
X145973019Y-105205177D01*
X146411534Y-105643692D01*
X146445803Y-105596525D01*
X146524405Y-105442263D01*
X146524410Y-105442250D01*
X146577911Y-105277593D01*
X146577916Y-105277573D01*
X146604998Y-105106583D01*
X146605000Y-105106567D01*
X146605000Y-104933432D01*
X146604998Y-104933416D01*
X146577916Y-104762426D01*
X146577911Y-104762406D01*
X146524410Y-104597749D01*
X146524405Y-104597736D01*
X146445804Y-104443475D01*
X146411534Y-104396306D01*
X145973018Y-104834821D01*
X145970925Y-104827007D01*
X145905099Y-104712993D01*
X145812007Y-104619901D01*
X145697993Y-104554075D01*
X145690176Y-104551980D01*
X146128692Y-104113464D01*
X146081524Y-104079195D01*
X145927263Y-104000594D01*
X145927250Y-104000589D01*
X145762593Y-103947088D01*
X145762573Y-103947083D01*
X145591583Y-103920001D01*
X145591567Y-103920000D01*
X145418433Y-103920000D01*
X145418416Y-103920001D01*
X145247426Y-103947083D01*
X145247406Y-103947088D01*
X145082749Y-104000589D01*
X145082736Y-104000594D01*
X144928476Y-104079195D01*
X144881306Y-104113464D01*
X145319822Y-104551980D01*
X145312007Y-104554075D01*
X145197993Y-104619901D01*
X145104901Y-104712993D01*
X145039075Y-104827007D01*
X145036980Y-104834822D01*
X144598464Y-104396306D01*
X144564195Y-104443476D01*
X144485594Y-104597736D01*
X144485589Y-104597749D01*
X144432088Y-104762406D01*
X144432083Y-104762426D01*
X144405001Y-104933416D01*
X144405000Y-104933432D01*
X144405000Y-105106567D01*
X144405001Y-105106583D01*
X144432083Y-105277573D01*
X144432088Y-105277593D01*
X144485589Y-105442250D01*
X144485594Y-105442263D01*
X144564195Y-105596524D01*
X144598464Y-105643692D01*
X145036980Y-105205176D01*
X145039075Y-105212993D01*
X145104901Y-105327007D01*
X145197993Y-105420099D01*
X145312007Y-105485925D01*
X145319821Y-105488018D01*
X144866838Y-105941002D01*
X144864551Y-105949248D01*
X144820014Y-105979854D01*
X144775826Y-105978502D01*
X144617592Y-105927088D01*
X144617573Y-105927083D01*
X144446583Y-105900001D01*
X144446567Y-105900000D01*
X144273433Y-105900000D01*
X144273416Y-105900001D01*
X144102426Y-105927083D01*
X144102406Y-105927088D01*
X143937749Y-105980589D01*
X143937736Y-105980594D01*
X143783476Y-106059195D01*
X143736306Y-106093464D01*
X144174822Y-106531980D01*
X144167007Y-106534075D01*
X144052993Y-106599901D01*
X143959901Y-106692993D01*
X143894075Y-106807007D01*
X143891980Y-106814822D01*
X143453464Y-106376306D01*
X143419195Y-106423476D01*
X143340594Y-106577736D01*
X143340589Y-106577749D01*
X143287088Y-106742406D01*
X143287083Y-106742426D01*
X143260001Y-106913416D01*
X143260000Y-106913432D01*
X143080500Y-106913432D01*
X143080500Y-106900474D01*
X143041667Y-106705248D01*
X143008564Y-106625332D01*
X142965495Y-106521354D01*
X142965492Y-106521348D01*
X142854907Y-106355845D01*
X142854901Y-106355838D01*
X142714161Y-106215098D01*
X142714154Y-106215092D01*
X142675491Y-106189259D01*
X142548651Y-106104507D01*
X142548645Y-106104504D01*
X142364757Y-106028334D01*
X142364753Y-106028333D01*
X142169526Y-105989500D01*
X141970474Y-105989500D01*
X141775246Y-106028333D01*
X141775242Y-106028334D01*
X141591354Y-106104504D01*
X141591348Y-106104507D01*
X141425845Y-106215092D01*
X141425838Y-106215098D01*
X141285098Y-106355838D01*
X141285092Y-106355845D01*
X141174507Y-106521348D01*
X141174504Y-106521354D01*
X141098334Y-106705242D01*
X141098333Y-106705246D01*
X141078092Y-106807007D01*
X141059500Y-106900474D01*
X140877948Y-106900474D01*
X140852916Y-106742426D01*
X140852911Y-106742406D01*
X140799410Y-106577749D01*
X140799405Y-106577736D01*
X140720804Y-106423475D01*
X140686534Y-106376306D01*
X140248018Y-106814821D01*
X140245925Y-106807007D01*
X140180099Y-106692993D01*
X140087007Y-106599901D01*
X139972993Y-106534075D01*
X139965176Y-106531980D01*
X140403692Y-106093464D01*
X140356524Y-106059195D01*
X140202263Y-105980594D01*
X140202250Y-105980589D01*
X140037593Y-105927088D01*
X140037573Y-105927083D01*
X139866583Y-105900001D01*
X139866567Y-105900000D01*
X139693433Y-105900000D01*
X139693416Y-105900001D01*
X139522426Y-105927083D01*
X139522406Y-105927088D01*
X139357749Y-105980589D01*
X139357736Y-105980594D01*
X139203476Y-106059195D01*
X139156306Y-106093464D01*
X139594822Y-106531980D01*
X139587007Y-106534075D01*
X139472993Y-106599901D01*
X139379901Y-106692993D01*
X139314075Y-106807007D01*
X139311980Y-106814822D01*
X138873464Y-106376306D01*
X138839195Y-106423476D01*
X138760594Y-106577736D01*
X138760589Y-106577749D01*
X138710133Y-106733036D01*
X138676863Y-106775619D01*
X138624005Y-106786854D01*
X138576291Y-106761484D01*
X138559867Y-106733036D01*
X138509410Y-106577749D01*
X138509405Y-106577736D01*
X138430804Y-106423475D01*
X138396534Y-106376306D01*
X137958018Y-106814821D01*
X137955925Y-106807007D01*
X137890099Y-106692993D01*
X137797007Y-106599901D01*
X137682993Y-106534075D01*
X137675176Y-106531980D01*
X138113692Y-106093464D01*
X138066524Y-106059195D01*
X137912263Y-105980594D01*
X137912250Y-105980589D01*
X137747593Y-105927088D01*
X137747573Y-105927083D01*
X137576583Y-105900001D01*
X137576567Y-105900000D01*
X137434500Y-105900000D01*
X137383720Y-105881518D01*
X137356700Y-105834718D01*
X137355500Y-105821000D01*
X137355500Y-104154194D01*
X137346187Y-104107376D01*
X137310714Y-104054285D01*
X137270984Y-104027740D01*
X137257624Y-104018813D01*
X137257623Y-104018812D01*
X137210806Y-104009500D01*
X136679500Y-104009500D01*
X136628720Y-103991018D01*
X136601700Y-103944218D01*
X136600500Y-103930500D01*
X136600500Y-102540624D01*
X136618982Y-102489844D01*
X136623639Y-102484763D01*
X137474763Y-101633639D01*
X137523739Y-101610801D01*
X137530624Y-101610500D01*
X143990501Y-101610500D01*
X144041281Y-101628982D01*
X144068301Y-101675782D01*
X144069501Y-101689500D01*
X144069501Y-101762306D01*
X144084725Y-101858433D01*
X144129024Y-101945375D01*
X144143760Y-101974296D01*
X144224103Y-102054639D01*
X144246941Y-102103615D01*
X144232955Y-102155813D01*
X144188689Y-102186808D01*
X144168242Y-102189500D01*
X139118182Y-102189500D01*
X139022442Y-102229156D01*
X139022436Y-102229161D01*
X138743696Y-102507902D01*
X138492439Y-102759159D01*
X138455798Y-102795799D01*
X138419158Y-102832439D01*
X138419156Y-102832442D01*
X138379500Y-102928180D01*
X138379500Y-103979287D01*
X138361018Y-104030067D01*
X138330733Y-104052273D01*
X138156351Y-104124505D01*
X138156348Y-104124507D01*
X137990845Y-104235092D01*
X137990838Y-104235098D01*
X137850098Y-104375838D01*
X137850092Y-104375845D01*
X137739507Y-104541348D01*
X137739504Y-104541354D01*
X137663334Y-104725242D01*
X137663333Y-104725246D01*
X137624500Y-104920474D01*
X137624500Y-105119525D01*
X137663333Y-105314753D01*
X137663334Y-105314757D01*
X137739504Y-105498645D01*
X137739507Y-105498651D01*
X137850092Y-105664154D01*
X137850098Y-105664161D01*
X137990838Y-105804901D01*
X137990844Y-105804906D01*
X138156349Y-105915493D01*
X138156354Y-105915495D01*
X138340242Y-105991665D01*
X138340244Y-105991665D01*
X138340248Y-105991667D01*
X138535474Y-106030500D01*
X138734526Y-106030500D01*
X138929752Y-105991667D01*
X139113651Y-105915493D01*
X139279156Y-105804906D01*
X139419906Y-105664156D01*
X139530493Y-105498651D01*
X139606667Y-105314752D01*
X139645500Y-105119526D01*
X139645500Y-104920474D01*
X139914500Y-104920474D01*
X139914500Y-105119525D01*
X139953333Y-105314753D01*
X139953334Y-105314757D01*
X140029504Y-105498645D01*
X140029507Y-105498651D01*
X140140092Y-105664154D01*
X140140098Y-105664161D01*
X140280838Y-105804901D01*
X140280844Y-105804906D01*
X140446349Y-105915493D01*
X140446354Y-105915495D01*
X140630242Y-105991665D01*
X140630244Y-105991665D01*
X140630248Y-105991667D01*
X140825474Y-106030500D01*
X141024526Y-106030500D01*
X141219752Y-105991667D01*
X141403651Y-105915493D01*
X141569156Y-105804906D01*
X141709906Y-105664156D01*
X141820493Y-105498651D01*
X141896667Y-105314752D01*
X141935500Y-105119526D01*
X141935500Y-104920474D01*
X142204500Y-104920474D01*
X142204500Y-105119525D01*
X142243333Y-105314753D01*
X142243334Y-105314757D01*
X142319504Y-105498645D01*
X142319507Y-105498651D01*
X142430092Y-105664154D01*
X142430098Y-105664161D01*
X142570838Y-105804901D01*
X142570844Y-105804906D01*
X142736349Y-105915493D01*
X142736354Y-105915495D01*
X142920242Y-105991665D01*
X142920244Y-105991665D01*
X142920248Y-105991667D01*
X143115474Y-106030500D01*
X143314526Y-106030500D01*
X143509752Y-105991667D01*
X143693651Y-105915493D01*
X143859156Y-105804906D01*
X143999906Y-105664156D01*
X144110493Y-105498651D01*
X144186667Y-105314752D01*
X144225500Y-105119526D01*
X144225500Y-104920474D01*
X144186667Y-104725248D01*
X144133849Y-104597736D01*
X144110495Y-104541354D01*
X144110492Y-104541348D01*
X143999907Y-104375845D01*
X143999901Y-104375838D01*
X143859161Y-104235098D01*
X143859154Y-104235092D01*
X143820491Y-104209259D01*
X143693651Y-104124507D01*
X143693645Y-104124504D01*
X143509757Y-104048334D01*
X143509753Y-104048333D01*
X143314526Y-104009500D01*
X143115474Y-104009500D01*
X142920246Y-104048333D01*
X142920242Y-104048334D01*
X142736354Y-104124504D01*
X142736348Y-104124507D01*
X142570845Y-104235092D01*
X142570838Y-104235098D01*
X142430098Y-104375838D01*
X142430092Y-104375845D01*
X142319507Y-104541348D01*
X142319504Y-104541354D01*
X142243334Y-104725242D01*
X142243333Y-104725246D01*
X142204500Y-104920474D01*
X141935500Y-104920474D01*
X141896667Y-104725248D01*
X141843849Y-104597736D01*
X141820495Y-104541354D01*
X141820492Y-104541348D01*
X141709907Y-104375845D01*
X141709901Y-104375838D01*
X141569161Y-104235098D01*
X141569154Y-104235092D01*
X141403651Y-104124507D01*
X141403645Y-104124504D01*
X141279709Y-104073168D01*
X141239867Y-104036660D01*
X141232814Y-103983083D01*
X141254077Y-103944324D01*
X141474764Y-103723637D01*
X141523739Y-103700801D01*
X141530624Y-103700500D01*
X147831817Y-103700500D01*
X147871267Y-103684159D01*
X147927557Y-103660843D01*
X147927557Y-103660842D01*
X147927561Y-103660841D01*
X149424763Y-102163637D01*
X149473739Y-102140800D01*
X149480624Y-102140499D01*
X150682303Y-102140499D01*
X150682306Y-102140499D01*
X150778433Y-102125275D01*
X150894294Y-102066241D01*
X150986241Y-101974294D01*
X151045275Y-101858433D01*
X151060500Y-101762307D01*
X151060499Y-101047694D01*
X151045275Y-100951567D01*
X150986241Y-100835706D01*
X150986240Y-100835705D01*
X150986239Y-100835703D01*
X150894296Y-100743760D01*
X150892169Y-100742676D01*
X150778433Y-100684725D01*
X150778429Y-100684724D01*
X150778426Y-100684723D01*
X150682318Y-100669501D01*
X150682310Y-100669500D01*
X150682307Y-100669500D01*
X150682302Y-100669500D01*
X150593366Y-100669500D01*
X150542586Y-100651018D01*
X150515566Y-100604218D01*
X150517058Y-100570053D01*
X150520500Y-100557209D01*
X150520500Y-100422791D01*
X150485710Y-100292954D01*
X150418502Y-100176546D01*
X150418501Y-100176545D01*
X150418500Y-100176543D01*
X150323456Y-100081499D01*
X150207047Y-100014290D01*
X150207045Y-100014289D01*
X150077209Y-99979500D01*
X149942791Y-99979500D01*
X149942790Y-99979500D01*
X149812954Y-100014289D01*
X149812952Y-100014290D01*
X149696543Y-100081499D01*
X149601499Y-100176543D01*
X149534290Y-100292952D01*
X149534289Y-100292954D01*
X149499500Y-100422790D01*
X149499500Y-100557211D01*
X149502942Y-100570057D01*
X149498230Y-100623890D01*
X149460017Y-100662100D01*
X149426634Y-100669500D01*
X149317696Y-100669500D01*
X149249166Y-100680354D01*
X149221567Y-100684725D01*
X149164698Y-100713700D01*
X149105703Y-100743760D01*
X149013760Y-100835703D01*
X149003864Y-100855126D01*
X148954725Y-100951567D01*
X148954725Y-100951568D01*
X148954723Y-100951573D01*
X148939501Y-101047681D01*
X148939500Y-101047697D01*
X148939500Y-101762303D01*
X148953684Y-101851861D01*
X148943372Y-101904907D01*
X148931517Y-101920079D01*
X147695237Y-103156361D01*
X147646261Y-103179199D01*
X147639376Y-103179500D01*
X141338182Y-103179500D01*
X141242442Y-103219156D01*
X141242436Y-103219160D01*
X140800760Y-103660838D01*
X140777439Y-103684159D01*
X140740798Y-103720799D01*
X140704158Y-103757439D01*
X140704156Y-103757442D01*
X140664500Y-103853180D01*
X140664500Y-103981359D01*
X140646018Y-104032139D01*
X140615732Y-104054345D01*
X140446354Y-104124504D01*
X140446348Y-104124507D01*
X140280845Y-104235092D01*
X140280838Y-104235098D01*
X140140098Y-104375838D01*
X140140092Y-104375845D01*
X140029507Y-104541348D01*
X140029504Y-104541354D01*
X139953334Y-104725242D01*
X139953333Y-104725246D01*
X139914500Y-104920474D01*
X139645500Y-104920474D01*
X139606667Y-104725248D01*
X139553849Y-104597736D01*
X139530495Y-104541354D01*
X139530492Y-104541348D01*
X139419907Y-104375845D01*
X139419901Y-104375838D01*
X139279161Y-104235098D01*
X139279154Y-104235092D01*
X139113651Y-104124507D01*
X139113648Y-104124505D01*
X138949267Y-104056415D01*
X138909426Y-104019906D01*
X138900500Y-103983429D01*
X138900500Y-103120624D01*
X138918982Y-103069844D01*
X138923639Y-103064763D01*
X139254763Y-102733639D01*
X139303739Y-102710801D01*
X139310624Y-102710500D01*
X146941817Y-102710500D01*
X146973731Y-102697280D01*
X147037557Y-102670843D01*
X147037558Y-102670842D01*
X147037561Y-102670841D01*
X147544763Y-102163637D01*
X147593739Y-102140800D01*
X147600624Y-102140499D01*
X148242303Y-102140499D01*
X148242306Y-102140499D01*
X148338433Y-102125275D01*
X148454294Y-102066241D01*
X148546241Y-101974294D01*
X148605275Y-101858433D01*
X148620500Y-101762307D01*
X148620499Y-101047694D01*
X148605275Y-100951567D01*
X148546241Y-100835706D01*
X148546240Y-100835705D01*
X148546239Y-100835703D01*
X148454296Y-100743760D01*
X148452169Y-100742676D01*
X148338433Y-100684725D01*
X148338429Y-100684724D01*
X148338426Y-100684723D01*
X148242318Y-100669501D01*
X148242310Y-100669500D01*
X148242307Y-100669500D01*
X148242302Y-100669500D01*
X148127994Y-100669500D01*
X148077214Y-100651018D01*
X148050194Y-100604218D01*
X148051686Y-100570054D01*
X148055128Y-100557207D01*
X148060500Y-100537159D01*
X148060500Y-100402741D01*
X148025710Y-100272904D01*
X147958502Y-100156496D01*
X147958501Y-100156495D01*
X147958500Y-100156493D01*
X147863456Y-100061449D01*
X147747047Y-99994240D01*
X147747045Y-99994239D01*
X147617209Y-99959450D01*
X147482791Y-99959450D01*
X147482790Y-99959450D01*
X147352954Y-99994239D01*
X147352952Y-99994240D01*
X147236543Y-100061449D01*
X147141499Y-100156493D01*
X147074290Y-100272902D01*
X147074289Y-100272904D01*
X147039500Y-100402740D01*
X147039500Y-100537161D01*
X147048314Y-100570054D01*
X147043604Y-100623887D01*
X147005392Y-100662098D01*
X146972007Y-100669500D01*
X146877696Y-100669500D01*
X146809166Y-100680354D01*
X146781567Y-100684725D01*
X146724698Y-100713700D01*
X146665703Y-100743760D01*
X146573760Y-100835703D01*
X146563864Y-100855126D01*
X146514725Y-100951567D01*
X146514725Y-100951568D01*
X146514723Y-100951573D01*
X146499501Y-101047681D01*
X146499500Y-101047697D01*
X146499500Y-101762303D01*
X146508995Y-101822253D01*
X146514725Y-101858433D01*
X146559024Y-101945375D01*
X146573760Y-101974296D01*
X146654103Y-102054639D01*
X146676941Y-102103615D01*
X146662955Y-102155813D01*
X146618689Y-102186808D01*
X146598242Y-102189500D01*
X146091758Y-102189500D01*
X146040978Y-102171018D01*
X146013958Y-102124218D01*
X146023342Y-102071000D01*
X146035897Y-102054639D01*
X146116239Y-101974296D01*
X146116241Y-101974294D01*
X146175275Y-101858433D01*
X146190500Y-101762307D01*
X146190499Y-101047694D01*
X146175275Y-100951567D01*
X146116241Y-100835706D01*
X146116240Y-100835705D01*
X146116239Y-100835703D01*
X146024296Y-100743760D01*
X146022169Y-100742676D01*
X145908433Y-100684725D01*
X145908429Y-100684724D01*
X145908426Y-100684723D01*
X145812318Y-100669501D01*
X145812310Y-100669500D01*
X145812307Y-100669500D01*
X145812302Y-100669500D01*
X145730687Y-100669500D01*
X145679907Y-100651018D01*
X145652887Y-100604218D01*
X145654379Y-100570053D01*
X145655642Y-100565335D01*
X145660500Y-100547209D01*
X145660500Y-100412791D01*
X145625710Y-100282954D01*
X145619906Y-100272902D01*
X145567803Y-100182656D01*
X145558502Y-100166546D01*
X145558501Y-100166545D01*
X145558500Y-100166543D01*
X145463456Y-100071499D01*
X145347047Y-100004290D01*
X145347045Y-100004289D01*
X145217209Y-99969500D01*
X145082791Y-99969500D01*
X145082790Y-99969500D01*
X144952954Y-100004289D01*
X144952952Y-100004290D01*
X144836543Y-100071499D01*
X144741499Y-100166543D01*
X144674290Y-100282952D01*
X144674289Y-100282954D01*
X144639500Y-100412790D01*
X144639500Y-100547211D01*
X144645621Y-100570054D01*
X144640911Y-100623888D01*
X144602699Y-100662099D01*
X144569314Y-100669500D01*
X144447696Y-100669500D01*
X144379166Y-100680354D01*
X144351567Y-100684725D01*
X144294698Y-100713700D01*
X144235703Y-100743760D01*
X144143760Y-100835703D01*
X144133864Y-100855126D01*
X144084725Y-100951567D01*
X144084725Y-100951568D01*
X144084723Y-100951573D01*
X144073433Y-101022858D01*
X144047235Y-101070122D01*
X143996785Y-101089488D01*
X143995406Y-101089500D01*
X137338182Y-101089500D01*
X137255093Y-101123916D01*
X137255094Y-101123917D01*
X137242439Y-101129159D01*
X137242435Y-101129162D01*
X136695816Y-101675782D01*
X136192439Y-102179159D01*
X136155798Y-102215799D01*
X136119158Y-102252439D01*
X136119156Y-102252442D01*
X136079500Y-102348180D01*
X136079500Y-103930500D01*
X136061018Y-103981280D01*
X136014218Y-104008300D01*
X136000500Y-104009500D01*
X135479194Y-104009500D01*
X135432376Y-104018812D01*
X135379285Y-104054285D01*
X135343812Y-104107376D01*
X135334500Y-104154194D01*
X135334500Y-105821000D01*
X135316018Y-105871780D01*
X135269218Y-105898800D01*
X135255500Y-105900000D01*
X135113433Y-105900000D01*
X135113416Y-105900001D01*
X134942426Y-105927083D01*
X134942406Y-105927088D01*
X134777749Y-105980589D01*
X134777736Y-105980594D01*
X134623476Y-106059195D01*
X134576306Y-106093464D01*
X135014822Y-106531980D01*
X135007007Y-106534075D01*
X134892993Y-106599901D01*
X134799901Y-106692993D01*
X134734075Y-106807007D01*
X134731980Y-106814822D01*
X134293464Y-106376306D01*
X134259195Y-106423476D01*
X134180594Y-106577736D01*
X134180589Y-106577749D01*
X134127088Y-106742406D01*
X134127083Y-106742426D01*
X134100001Y-106913416D01*
X134100000Y-106913432D01*
X132910500Y-106913432D01*
X132910500Y-100142759D01*
X132928982Y-100091979D01*
X132959268Y-100069772D01*
X132959330Y-100069746D01*
X132959336Y-100069745D01*
X133152335Y-99989803D01*
X133266611Y-99913445D01*
X133319100Y-99900602D01*
X133367567Y-99924502D01*
X133389331Y-99973965D01*
X133389500Y-99979132D01*
X133389500Y-101154449D01*
X133430254Y-101359336D01*
X133430255Y-101359338D01*
X133510195Y-101552331D01*
X133510198Y-101552336D01*
X133626254Y-101726027D01*
X133626260Y-101726034D01*
X133773965Y-101873739D01*
X133773972Y-101873745D01*
X133831869Y-101912430D01*
X133947665Y-101989803D01*
X133969898Y-101999012D01*
X134140661Y-102069744D01*
X134140663Y-102069745D01*
X134345550Y-102110500D01*
X134554450Y-102110500D01*
X134759336Y-102069745D01*
X134759338Y-102069744D01*
X134795805Y-102054639D01*
X134952335Y-101989803D01*
X135126029Y-101873744D01*
X135273744Y-101726029D01*
X135389803Y-101552335D01*
X135469745Y-101359336D01*
X135510500Y-101154450D01*
X135510500Y-99970623D01*
X135528982Y-99919843D01*
X135533639Y-99914762D01*
X135773087Y-99675314D01*
X136050841Y-99397561D01*
X136060612Y-99373971D01*
X136090500Y-99301817D01*
X136090500Y-97945550D01*
X137089500Y-97945550D01*
X137089500Y-99154449D01*
X137130254Y-99359336D01*
X137130255Y-99359338D01*
X137210195Y-99552331D01*
X137210198Y-99552336D01*
X137326254Y-99726027D01*
X137326260Y-99726034D01*
X137473965Y-99873739D01*
X137473972Y-99873745D01*
X137514167Y-99900602D01*
X137647665Y-99989803D01*
X137744164Y-100029774D01*
X137840661Y-100069744D01*
X137840663Y-100069745D01*
X138045550Y-100110500D01*
X138254450Y-100110500D01*
X138459336Y-100069745D01*
X138459338Y-100069744D01*
X138652335Y-99989803D01*
X138826029Y-99873744D01*
X138973744Y-99726029D01*
X139089803Y-99552335D01*
X139169745Y-99359336D01*
X139173677Y-99339569D01*
X139201710Y-99293370D01*
X139252881Y-99275999D01*
X139303246Y-99295584D01*
X139329186Y-99342622D01*
X139349645Y-99471799D01*
X139349650Y-99471819D01*
X139428955Y-99715892D01*
X139428960Y-99715905D01*
X139545471Y-99944568D01*
X139545475Y-99944574D01*
X139644956Y-100081498D01*
X139696324Y-100152200D01*
X139696328Y-100152204D01*
X139696333Y-100152210D01*
X139877789Y-100333666D01*
X139877795Y-100333671D01*
X139877800Y-100333676D01*
X140085432Y-100484529D01*
X140121829Y-100503074D01*
X140314094Y-100601039D01*
X140314098Y-100601040D01*
X140314105Y-100601044D01*
X140467909Y-100651018D01*
X140558180Y-100680349D01*
X140558183Y-100680349D01*
X140558190Y-100680352D01*
X140558195Y-100680352D01*
X140558200Y-100680354D01*
X140762795Y-100712758D01*
X140811677Y-100720500D01*
X140811682Y-100720500D01*
X141068318Y-100720500D01*
X141068323Y-100720500D01*
X141195066Y-100700426D01*
X141321799Y-100680354D01*
X141321801Y-100680353D01*
X141321810Y-100680352D01*
X141565895Y-100601044D01*
X141794568Y-100484529D01*
X142002200Y-100333676D01*
X142183676Y-100152200D01*
X142334529Y-99944568D01*
X142445878Y-99726034D01*
X142451039Y-99715905D01*
X142451039Y-99715904D01*
X142451044Y-99715895D01*
X142530352Y-99471810D01*
X142570500Y-99218323D01*
X142570500Y-98961677D01*
X142546844Y-98812318D01*
X142530354Y-98708200D01*
X142530349Y-98708180D01*
X142474796Y-98537206D01*
X142451044Y-98464105D01*
X142451040Y-98464098D01*
X142451039Y-98464094D01*
X142334528Y-98235431D01*
X142334524Y-98235425D01*
X142265938Y-98141024D01*
X142234459Y-98097697D01*
X144069500Y-98097697D01*
X144069500Y-98812303D01*
X144078995Y-98872253D01*
X144084725Y-98908433D01*
X144121445Y-98980500D01*
X144143760Y-99024296D01*
X144235703Y-99116239D01*
X144235705Y-99116240D01*
X144235706Y-99116241D01*
X144351567Y-99175275D01*
X144447693Y-99190500D01*
X145812306Y-99190499D01*
X145908433Y-99175275D01*
X146024294Y-99116241D01*
X146116241Y-99024294D01*
X146175275Y-98908433D01*
X146190500Y-98812307D01*
X146190499Y-98097694D01*
X146175275Y-98001567D01*
X146116241Y-97885706D01*
X146116240Y-97885705D01*
X146116239Y-97885703D01*
X146024296Y-97793760D01*
X146008844Y-97785887D01*
X145908433Y-97734725D01*
X145908430Y-97734724D01*
X145902893Y-97731903D01*
X145904410Y-97728925D01*
X145871674Y-97703377D01*
X145860410Y-97650524D01*
X145882785Y-97605616D01*
X145980841Y-97507561D01*
X145984119Y-97499648D01*
X146020500Y-97411817D01*
X146020500Y-94384686D01*
X146038982Y-94333906D01*
X146060001Y-94316269D01*
X146062954Y-94314563D01*
X146073454Y-94308502D01*
X146168502Y-94213454D01*
X146235710Y-94097046D01*
X146270500Y-93967209D01*
X146270500Y-93832791D01*
X146235710Y-93702954D01*
X146168502Y-93586546D01*
X146168501Y-93586545D01*
X146168500Y-93586543D01*
X146073456Y-93491499D01*
X145957047Y-93424290D01*
X145957045Y-93424289D01*
X145827209Y-93389500D01*
X145692791Y-93389500D01*
X145692790Y-93389500D01*
X145562954Y-93424289D01*
X145562952Y-93424290D01*
X145446543Y-93491499D01*
X145351499Y-93586543D01*
X145284290Y-93702952D01*
X145284289Y-93702954D01*
X145249500Y-93832790D01*
X145249500Y-93967209D01*
X145284289Y-94097045D01*
X145284290Y-94097047D01*
X145351499Y-94213456D01*
X145446542Y-94308499D01*
X145446546Y-94308502D01*
X145459999Y-94316269D01*
X145494735Y-94357665D01*
X145499500Y-94384686D01*
X145499500Y-97219375D01*
X145481018Y-97270155D01*
X145476361Y-97275237D01*
X145055235Y-97696362D01*
X145006259Y-97719199D01*
X144999374Y-97719500D01*
X144447696Y-97719500D01*
X144369656Y-97731860D01*
X144351567Y-97734725D01*
X144294698Y-97763700D01*
X144235703Y-97793760D01*
X144143760Y-97885703D01*
X144113700Y-97944698D01*
X144084725Y-98001567D01*
X144084725Y-98001568D01*
X144084723Y-98001573D01*
X144069501Y-98097681D01*
X144069500Y-98097697D01*
X142234459Y-98097697D01*
X142183681Y-98027807D01*
X142183676Y-98027800D01*
X142183671Y-98027795D01*
X142183666Y-98027789D01*
X142002210Y-97846333D01*
X142002204Y-97846328D01*
X142002200Y-97846324D01*
X141929852Y-97793760D01*
X141794574Y-97695475D01*
X141794568Y-97695471D01*
X141565905Y-97578960D01*
X141565892Y-97578955D01*
X141321819Y-97499650D01*
X141321799Y-97499645D01*
X141068334Y-97459501D01*
X141068326Y-97459500D01*
X141068323Y-97459500D01*
X140811677Y-97459500D01*
X140811674Y-97459500D01*
X140811665Y-97459501D01*
X140558200Y-97499645D01*
X140558180Y-97499650D01*
X140314107Y-97578955D01*
X140314094Y-97578960D01*
X140085431Y-97695471D01*
X140085425Y-97695475D01*
X139877807Y-97846318D01*
X139877789Y-97846333D01*
X139696333Y-98027789D01*
X139696318Y-98027807D01*
X139545475Y-98235425D01*
X139545471Y-98235431D01*
X139428960Y-98464094D01*
X139428955Y-98464107D01*
X139364633Y-98662069D01*
X139331363Y-98704652D01*
X139278505Y-98715887D01*
X139230791Y-98690517D01*
X139210548Y-98640413D01*
X139210500Y-98637656D01*
X139210500Y-97945550D01*
X139169745Y-97740663D01*
X139169744Y-97740661D01*
X139102764Y-97578956D01*
X139089803Y-97547665D01*
X138973744Y-97373971D01*
X138973739Y-97373965D01*
X138826034Y-97226260D01*
X138826027Y-97226254D01*
X138652336Y-97110198D01*
X138652335Y-97110197D01*
X138652332Y-97110196D01*
X138652331Y-97110195D01*
X138459338Y-97030255D01*
X138459336Y-97030254D01*
X138254450Y-96989500D01*
X138045550Y-96989500D01*
X137840663Y-97030254D01*
X137840661Y-97030255D01*
X137647668Y-97110195D01*
X137647663Y-97110198D01*
X137473972Y-97226254D01*
X137473965Y-97226260D01*
X137326260Y-97373965D01*
X137326254Y-97373972D01*
X137210198Y-97547663D01*
X137210195Y-97547668D01*
X137130255Y-97740661D01*
X137130254Y-97740663D01*
X137089500Y-97945550D01*
X136090500Y-97945550D01*
X136090500Y-94428183D01*
X136050842Y-94332439D01*
X136050840Y-94332437D01*
X136050838Y-94332434D01*
X135461192Y-93742788D01*
X136799500Y-93742788D01*
X136799500Y-93877207D01*
X136834289Y-94007043D01*
X136834290Y-94007045D01*
X136901499Y-94123454D01*
X136996543Y-94218498D01*
X136996545Y-94218499D01*
X136996546Y-94218500D01*
X137112954Y-94285708D01*
X137242791Y-94320498D01*
X137242793Y-94320498D01*
X137377207Y-94320498D01*
X137377209Y-94320498D01*
X137507046Y-94285708D01*
X137623454Y-94218500D01*
X137628500Y-94213454D01*
X137708316Y-94133639D01*
X137757292Y-94110801D01*
X137764177Y-94110500D01*
X142525314Y-94110500D01*
X142576094Y-94128982D01*
X142593729Y-94149999D01*
X142601498Y-94163454D01*
X142601499Y-94163456D01*
X142696543Y-94258500D01*
X142803926Y-94320498D01*
X142812954Y-94325710D01*
X142942791Y-94360500D01*
X142942793Y-94360500D01*
X143077207Y-94360500D01*
X143077209Y-94360500D01*
X143207046Y-94325710D01*
X143323454Y-94258502D01*
X143418502Y-94163454D01*
X143485710Y-94047046D01*
X143520500Y-93917209D01*
X143520500Y-93782791D01*
X143485710Y-93652954D01*
X143418502Y-93536546D01*
X143418501Y-93536545D01*
X143418500Y-93536543D01*
X143323456Y-93441499D01*
X143207047Y-93374290D01*
X143207045Y-93374289D01*
X143077209Y-93339500D01*
X142942791Y-93339500D01*
X142942790Y-93339500D01*
X142812954Y-93374289D01*
X142812952Y-93374290D01*
X142696543Y-93441499D01*
X142601499Y-93536544D01*
X142601498Y-93536545D01*
X142593729Y-93550001D01*
X142552332Y-93584736D01*
X142525314Y-93589500D01*
X137817781Y-93589500D01*
X137767001Y-93571018D01*
X137749365Y-93550000D01*
X137718500Y-93496541D01*
X137623456Y-93401497D01*
X137507047Y-93334288D01*
X137507045Y-93334287D01*
X137377209Y-93299498D01*
X137242791Y-93299498D01*
X137242790Y-93299498D01*
X137112954Y-93334287D01*
X137112952Y-93334288D01*
X136996543Y-93401497D01*
X136901499Y-93496541D01*
X136834290Y-93612950D01*
X136834289Y-93612952D01*
X136799500Y-93742788D01*
X135461192Y-93742788D01*
X135163639Y-93445235D01*
X135140801Y-93396259D01*
X135140500Y-93389374D01*
X135140500Y-91979499D01*
X135158982Y-91928719D01*
X135205782Y-91901699D01*
X135219500Y-91900499D01*
X135419173Y-91900499D01*
X135419180Y-91900499D01*
X135455204Y-91897665D01*
X135609393Y-91852869D01*
X135747598Y-91771135D01*
X135861135Y-91657598D01*
X135942869Y-91519393D01*
X135987665Y-91365204D01*
X135990500Y-91329181D01*
X135990499Y-88950820D01*
X135987665Y-88914796D01*
X135942869Y-88760607D01*
X135877286Y-88649713D01*
X135867347Y-88596597D01*
X135893875Y-88549518D01*
X135944459Y-88530504D01*
X135945286Y-88530500D01*
X136234714Y-88530500D01*
X136285494Y-88548982D01*
X136312514Y-88595782D01*
X136303130Y-88649000D01*
X136302713Y-88649714D01*
X136237129Y-88760609D01*
X136192337Y-88914788D01*
X136192335Y-88914796D01*
X136189500Y-88950819D01*
X136189500Y-88950820D01*
X136189500Y-88950826D01*
X136189500Y-91329172D01*
X136189501Y-91329180D01*
X136191980Y-91360701D01*
X136192335Y-91365205D01*
X136192336Y-91365211D01*
X136237129Y-91519390D01*
X136318865Y-91657598D01*
X136318867Y-91657601D01*
X136432398Y-91771132D01*
X136432401Y-91771134D01*
X136432402Y-91771135D01*
X136570607Y-91852869D01*
X136570609Y-91852870D01*
X136622003Y-91867801D01*
X136724796Y-91897665D01*
X136760819Y-91900500D01*
X137839180Y-91900499D01*
X137875204Y-91897665D01*
X138029393Y-91852869D01*
X138167598Y-91771135D01*
X138281135Y-91657598D01*
X138362869Y-91519393D01*
X138407665Y-91365204D01*
X138410500Y-91329181D01*
X138410499Y-88950820D01*
X138407665Y-88914796D01*
X138362869Y-88760607D01*
X138297286Y-88649713D01*
X138287347Y-88596597D01*
X138313875Y-88549518D01*
X138364459Y-88530504D01*
X138365286Y-88530500D01*
X138654714Y-88530500D01*
X138705494Y-88548982D01*
X138732514Y-88595782D01*
X138723130Y-88649000D01*
X138722713Y-88649714D01*
X138657129Y-88760609D01*
X138612337Y-88914788D01*
X138612335Y-88914796D01*
X138609500Y-88950819D01*
X138609500Y-88950820D01*
X138609500Y-88950826D01*
X138609500Y-91329172D01*
X138609501Y-91329180D01*
X138611980Y-91360701D01*
X138612335Y-91365205D01*
X138612336Y-91365211D01*
X138657129Y-91519390D01*
X138738865Y-91657598D01*
X138738867Y-91657601D01*
X138852398Y-91771132D01*
X138852401Y-91771134D01*
X138852402Y-91771135D01*
X138990607Y-91852869D01*
X138990609Y-91852870D01*
X139042003Y-91867801D01*
X139144796Y-91897665D01*
X139180819Y-91900500D01*
X140259180Y-91900499D01*
X140295204Y-91897665D01*
X140449393Y-91852869D01*
X140587598Y-91771135D01*
X140701135Y-91657598D01*
X140782869Y-91519393D01*
X140827665Y-91365204D01*
X140830500Y-91329181D01*
X140830499Y-88950820D01*
X140827665Y-88914796D01*
X140782869Y-88760607D01*
X140717286Y-88649713D01*
X140707347Y-88596597D01*
X140733875Y-88549518D01*
X140784459Y-88530504D01*
X140785286Y-88530500D01*
X143494714Y-88530500D01*
X143545494Y-88548982D01*
X143572514Y-88595782D01*
X143563130Y-88649000D01*
X143562713Y-88649714D01*
X143497129Y-88760609D01*
X143452337Y-88914788D01*
X143452335Y-88914796D01*
X143449500Y-88950819D01*
X143449500Y-88950820D01*
X143449500Y-88950826D01*
X143449500Y-91329172D01*
X143449501Y-91329180D01*
X143451980Y-91360701D01*
X143452335Y-91365205D01*
X143452336Y-91365211D01*
X143497129Y-91519390D01*
X143578865Y-91657598D01*
X143578867Y-91657601D01*
X143692398Y-91771132D01*
X143692401Y-91771134D01*
X143692402Y-91771135D01*
X143830607Y-91852869D01*
X143830609Y-91852870D01*
X143882003Y-91867801D01*
X143984796Y-91897665D01*
X144020819Y-91900500D01*
X145099180Y-91900499D01*
X145135204Y-91897665D01*
X145289393Y-91852869D01*
X145427598Y-91771135D01*
X145541135Y-91657598D01*
X145622869Y-91519393D01*
X145667665Y-91365204D01*
X145670500Y-91329181D01*
X145670499Y-88950820D01*
X145667665Y-88914796D01*
X145622869Y-88760607D01*
X145557286Y-88649713D01*
X145547347Y-88596597D01*
X145573875Y-88549518D01*
X145624459Y-88530504D01*
X145625286Y-88530500D01*
X145914714Y-88530500D01*
X145965494Y-88548982D01*
X145992514Y-88595782D01*
X145983130Y-88649000D01*
X145982713Y-88649714D01*
X145917129Y-88760609D01*
X145872337Y-88914788D01*
X145872335Y-88914796D01*
X145869500Y-88950819D01*
X145869500Y-88950820D01*
X145869500Y-88950826D01*
X145869500Y-91329172D01*
X145869501Y-91329180D01*
X145871980Y-91360701D01*
X145872335Y-91365205D01*
X145872336Y-91365211D01*
X145917129Y-91519390D01*
X145998865Y-91657598D01*
X145998867Y-91657601D01*
X146112398Y-91771132D01*
X146112401Y-91771134D01*
X146112402Y-91771135D01*
X146250607Y-91852869D01*
X146250609Y-91852870D01*
X146302003Y-91867801D01*
X146404796Y-91897665D01*
X146440819Y-91900500D01*
X146630500Y-91900499D01*
X146681280Y-91918981D01*
X146708300Y-91965780D01*
X146709500Y-91979499D01*
X146709500Y-92701819D01*
X146749156Y-92797557D01*
X146749161Y-92797563D01*
X147306361Y-93354763D01*
X147329199Y-93403739D01*
X147329500Y-93410624D01*
X147329500Y-97640500D01*
X147311018Y-97691280D01*
X147264218Y-97718300D01*
X147250500Y-97719500D01*
X146877696Y-97719500D01*
X146799656Y-97731860D01*
X146781567Y-97734725D01*
X146724698Y-97763700D01*
X146665703Y-97793760D01*
X146573760Y-97885703D01*
X146543700Y-97944698D01*
X146514725Y-98001567D01*
X146514725Y-98001568D01*
X146514723Y-98001573D01*
X146499501Y-98097681D01*
X146499500Y-98097697D01*
X146499500Y-98812303D01*
X146508995Y-98872253D01*
X146514725Y-98908433D01*
X146551445Y-98980500D01*
X146573760Y-99024296D01*
X146665703Y-99116239D01*
X146665705Y-99116240D01*
X146665706Y-99116241D01*
X146781567Y-99175275D01*
X146877693Y-99190500D01*
X148242306Y-99190499D01*
X148338433Y-99175275D01*
X148454294Y-99116241D01*
X148546241Y-99024294D01*
X148605275Y-98908433D01*
X148620500Y-98812307D01*
X148620499Y-98097694D01*
X148605275Y-98001567D01*
X148546241Y-97885706D01*
X148546240Y-97885705D01*
X148546239Y-97885703D01*
X148454296Y-97793760D01*
X148438844Y-97785887D01*
X148338433Y-97734725D01*
X148338429Y-97734724D01*
X148338426Y-97734723D01*
X148242318Y-97719501D01*
X148242310Y-97719500D01*
X148242307Y-97719500D01*
X148242302Y-97719500D01*
X147929500Y-97719500D01*
X147878720Y-97701018D01*
X147851700Y-97654218D01*
X147850500Y-97640500D01*
X147850500Y-93312790D01*
X148919500Y-93312790D01*
X148919500Y-93447209D01*
X148954289Y-93577045D01*
X148954290Y-93577047D01*
X149021499Y-93693456D01*
X149116543Y-93788500D01*
X149116545Y-93788501D01*
X149116546Y-93788502D01*
X149139999Y-93802042D01*
X149174735Y-93843436D01*
X149179500Y-93870458D01*
X149179500Y-97411819D01*
X149219156Y-97507557D01*
X149219158Y-97507560D01*
X149219159Y-97507561D01*
X149305958Y-97594360D01*
X149328796Y-97643335D01*
X149314810Y-97695533D01*
X149270544Y-97726529D01*
X149262456Y-97728248D01*
X149221573Y-97734723D01*
X149221568Y-97734724D01*
X149221567Y-97734725D01*
X149164698Y-97763700D01*
X149105703Y-97793760D01*
X149013760Y-97885703D01*
X148983700Y-97944698D01*
X148954725Y-98001567D01*
X148954725Y-98001568D01*
X148954723Y-98001573D01*
X148939501Y-98097681D01*
X148939500Y-98097697D01*
X148939500Y-98812303D01*
X148948995Y-98872253D01*
X148954725Y-98908433D01*
X148991445Y-98980500D01*
X149013760Y-99024296D01*
X149105703Y-99116239D01*
X149105705Y-99116240D01*
X149105706Y-99116241D01*
X149221567Y-99175275D01*
X149317693Y-99190500D01*
X150682306Y-99190499D01*
X150778433Y-99175275D01*
X150894294Y-99116241D01*
X150986241Y-99024294D01*
X151045275Y-98908433D01*
X151060500Y-98812307D01*
X151060499Y-98097697D01*
X151809500Y-98097697D01*
X151809500Y-98812303D01*
X151818995Y-98872253D01*
X151824725Y-98908433D01*
X151861445Y-98980500D01*
X151883760Y-99024296D01*
X151975703Y-99116239D01*
X151975705Y-99116240D01*
X151975706Y-99116241D01*
X152091567Y-99175275D01*
X152187693Y-99190500D01*
X153552306Y-99190499D01*
X153648433Y-99175275D01*
X153764294Y-99116241D01*
X153856241Y-99024294D01*
X153863234Y-99010567D01*
X153902751Y-98973714D01*
X153954068Y-98970124D01*
X153992791Y-98980500D01*
X153992793Y-98980500D01*
X154127207Y-98980500D01*
X154127209Y-98980500D01*
X154257046Y-98945710D01*
X154373454Y-98878502D01*
X154468502Y-98783454D01*
X154535710Y-98667046D01*
X154570500Y-98537209D01*
X154570500Y-98402791D01*
X154535710Y-98272954D01*
X154468502Y-98156546D01*
X154468501Y-98156545D01*
X154468500Y-98156543D01*
X154373456Y-98061499D01*
X154257047Y-97994290D01*
X154257045Y-97994289D01*
X154127209Y-97959500D01*
X153992791Y-97959500D01*
X153992788Y-97959500D01*
X153967520Y-97966271D01*
X153913686Y-97961561D01*
X153876685Y-97925828D01*
X153856242Y-97885707D01*
X153856240Y-97885704D01*
X153764296Y-97793760D01*
X153748844Y-97785887D01*
X153648433Y-97734725D01*
X153648429Y-97734724D01*
X153648426Y-97734723D01*
X153552318Y-97719501D01*
X153552310Y-97719500D01*
X153552307Y-97719500D01*
X153552302Y-97719500D01*
X152187696Y-97719500D01*
X152109656Y-97731860D01*
X152091567Y-97734725D01*
X152034698Y-97763700D01*
X151975703Y-97793760D01*
X151883760Y-97885703D01*
X151853700Y-97944698D01*
X151824725Y-98001567D01*
X151824725Y-98001568D01*
X151824723Y-98001573D01*
X151809501Y-98097681D01*
X151809500Y-98097697D01*
X151060499Y-98097697D01*
X151060499Y-98097694D01*
X151045275Y-98001567D01*
X150986241Y-97885706D01*
X150986240Y-97885705D01*
X150986239Y-97885703D01*
X150894296Y-97793760D01*
X150878844Y-97785887D01*
X150778433Y-97734725D01*
X150778429Y-97734724D01*
X150778426Y-97734723D01*
X150682318Y-97719501D01*
X150682310Y-97719500D01*
X150682307Y-97719500D01*
X150682302Y-97719500D01*
X150200624Y-97719500D01*
X150149844Y-97701018D01*
X150144763Y-97696361D01*
X149723639Y-97275237D01*
X149700801Y-97226261D01*
X149700500Y-97219376D01*
X149700500Y-93858911D01*
X149718982Y-93808131D01*
X149740002Y-93790494D01*
X149743454Y-93788502D01*
X149838502Y-93693454D01*
X149905710Y-93577046D01*
X149940500Y-93447209D01*
X149940500Y-93312791D01*
X149905710Y-93182954D01*
X149838502Y-93066546D01*
X149838501Y-93066545D01*
X149838500Y-93066543D01*
X149743456Y-92971499D01*
X149627047Y-92904290D01*
X149627045Y-92904289D01*
X149497209Y-92869500D01*
X149362791Y-92869500D01*
X149362790Y-92869500D01*
X149232954Y-92904289D01*
X149232952Y-92904290D01*
X149116543Y-92971499D01*
X149021499Y-93066543D01*
X148954290Y-93182952D01*
X148954289Y-93182954D01*
X148919500Y-93312790D01*
X147850500Y-93312790D01*
X147850500Y-93218182D01*
X147850499Y-93218180D01*
X147810843Y-93122442D01*
X147810841Y-93122439D01*
X147737561Y-93049159D01*
X147253639Y-92565237D01*
X147230801Y-92516261D01*
X147230500Y-92509376D01*
X147230500Y-91979499D01*
X147248982Y-91928719D01*
X147295782Y-91901699D01*
X147309500Y-91900499D01*
X147519173Y-91900499D01*
X147519180Y-91900499D01*
X147555204Y-91897665D01*
X147709393Y-91852869D01*
X147847598Y-91771135D01*
X147961135Y-91657598D01*
X148042869Y-91519393D01*
X148087665Y-91365204D01*
X148090500Y-91329181D01*
X148090499Y-88950820D01*
X148087665Y-88914796D01*
X148042869Y-88760607D01*
X147977286Y-88649713D01*
X147967347Y-88596597D01*
X147993875Y-88549518D01*
X148044459Y-88530504D01*
X148045286Y-88530500D01*
X150770500Y-88530500D01*
X150821280Y-88548982D01*
X150848300Y-88595782D01*
X150849500Y-88609500D01*
X150849500Y-96099082D01*
X150849500Y-96140918D01*
X150849501Y-96140920D01*
X150879079Y-96170498D01*
X150879081Y-96170499D01*
X150879082Y-96170500D01*
X156220500Y-96170500D01*
X156271280Y-96188982D01*
X156298300Y-96235782D01*
X156299500Y-96249500D01*
X156299500Y-111930500D01*
X156281018Y-111981280D01*
X156234218Y-112008300D01*
X156220500Y-112009500D01*
X125679500Y-112009500D01*
X125628720Y-111991018D01*
X125601700Y-111944218D01*
X125600500Y-111930500D01*
X125600500Y-107149639D01*
X126146999Y-107149639D01*
X126186060Y-107446339D01*
X126263517Y-107735413D01*
X126263518Y-107735416D01*
X126378046Y-108011913D01*
X126527679Y-108271084D01*
X126678941Y-108468214D01*
X126678942Y-108468215D01*
X127165503Y-107981653D01*
X127209588Y-108042330D01*
X127387670Y-108220412D01*
X127448344Y-108264494D01*
X126961783Y-108751056D01*
X126961784Y-108751057D01*
X127158915Y-108902320D01*
X127418086Y-109051953D01*
X127694583Y-109166481D01*
X127694586Y-109166482D01*
X127983660Y-109243939D01*
X128280360Y-109283000D01*
X128579639Y-109283000D01*
X128876339Y-109243939D01*
X129165413Y-109166482D01*
X129165416Y-109166481D01*
X129441913Y-109051953D01*
X129701086Y-108902319D01*
X129701091Y-108902316D01*
X129898214Y-108751056D01*
X129898215Y-108751056D01*
X129411654Y-108264495D01*
X129472330Y-108220412D01*
X129650412Y-108042330D01*
X129694495Y-107981654D01*
X130181056Y-108468215D01*
X130181056Y-108468214D01*
X130332316Y-108271091D01*
X130332319Y-108271086D01*
X130481953Y-108011913D01*
X130596481Y-107735416D01*
X130596482Y-107735413D01*
X130673939Y-107446339D01*
X130713000Y-107149639D01*
X130713000Y-106850360D01*
X130673939Y-106553660D01*
X130596482Y-106264586D01*
X130596481Y-106264583D01*
X130481953Y-105988086D01*
X130332320Y-105728915D01*
X130181057Y-105531784D01*
X130181056Y-105531783D01*
X129694494Y-106018344D01*
X129650412Y-105957670D01*
X129472330Y-105779588D01*
X129411653Y-105735504D01*
X129898215Y-105248942D01*
X129898214Y-105248941D01*
X129701084Y-105097679D01*
X129441913Y-104948046D01*
X129165416Y-104833518D01*
X129165413Y-104833517D01*
X128876339Y-104756060D01*
X128579639Y-104717000D01*
X128280361Y-104717000D01*
X127983660Y-104756060D01*
X127694586Y-104833517D01*
X127694583Y-104833518D01*
X127418086Y-104948046D01*
X127158915Y-105097679D01*
X126961784Y-105248941D01*
X126961783Y-105248942D01*
X127448345Y-105735504D01*
X127387670Y-105779588D01*
X127209588Y-105957670D01*
X127165504Y-106018345D01*
X126678942Y-105531783D01*
X126678941Y-105531784D01*
X126527679Y-105728915D01*
X126378046Y-105988086D01*
X126263518Y-106264583D01*
X126263517Y-106264586D01*
X126186060Y-106553660D01*
X126147000Y-106850360D01*
X126147000Y-107149639D01*
X126146999Y-107149639D01*
X125600500Y-107149639D01*
X125600500Y-99917569D01*
X125618982Y-99866789D01*
X125665782Y-99839769D01*
X125719000Y-99849153D01*
X125735361Y-99861708D01*
X125800814Y-99927161D01*
X125800832Y-99927176D01*
X125947262Y-100033563D01*
X125947268Y-100033567D01*
X126108542Y-100115742D01*
X126108558Y-100115749D01*
X126280702Y-100171681D01*
X126280698Y-100171681D01*
X126350000Y-100182656D01*
X126350000Y-99511879D01*
X126357007Y-99515925D01*
X126484174Y-99550000D01*
X126615826Y-99550000D01*
X126742993Y-99515925D01*
X126750000Y-99511879D01*
X126750000Y-100182655D01*
X126819299Y-100171681D01*
X126991441Y-100115749D01*
X126991457Y-100115742D01*
X127152731Y-100033567D01*
X127152737Y-100033563D01*
X127273877Y-99945550D01*
X127889500Y-99945550D01*
X127889500Y-101154449D01*
X127930254Y-101359336D01*
X127930255Y-101359338D01*
X128010195Y-101552331D01*
X128010198Y-101552336D01*
X128126254Y-101726027D01*
X128126260Y-101726034D01*
X128273965Y-101873739D01*
X128273972Y-101873745D01*
X128331869Y-101912430D01*
X128447665Y-101989803D01*
X128469898Y-101999012D01*
X128640661Y-102069744D01*
X128640663Y-102069745D01*
X128845550Y-102110500D01*
X129054450Y-102110500D01*
X129259336Y-102069745D01*
X129259338Y-102069744D01*
X129295805Y-102054639D01*
X129452335Y-101989803D01*
X129626029Y-101873744D01*
X129773744Y-101726029D01*
X129889803Y-101552335D01*
X129969745Y-101359336D01*
X130010500Y-101154450D01*
X130010500Y-99945550D01*
X130006313Y-99924502D01*
X129969745Y-99740663D01*
X129969744Y-99740661D01*
X129891737Y-99552335D01*
X129889803Y-99547665D01*
X129789507Y-99397562D01*
X129773745Y-99373972D01*
X129773739Y-99373965D01*
X129626034Y-99226260D01*
X129626027Y-99226254D01*
X129497689Y-99140502D01*
X129452335Y-99110197D01*
X129452332Y-99110196D01*
X129452331Y-99110195D01*
X129259338Y-99030255D01*
X129259336Y-99030254D01*
X129054450Y-98989500D01*
X128845550Y-98989500D01*
X128640663Y-99030254D01*
X128640661Y-99030255D01*
X128447668Y-99110195D01*
X128447663Y-99110198D01*
X128273972Y-99226254D01*
X128273965Y-99226260D01*
X128126260Y-99373965D01*
X128126254Y-99373972D01*
X128010198Y-99547663D01*
X128010195Y-99547668D01*
X127930255Y-99740661D01*
X127930254Y-99740663D01*
X127889500Y-99945550D01*
X127273877Y-99945550D01*
X127299167Y-99927176D01*
X127299185Y-99927161D01*
X127340539Y-99885808D01*
X127427161Y-99799185D01*
X127427176Y-99799167D01*
X127533563Y-99652737D01*
X127533567Y-99652731D01*
X127615742Y-99491457D01*
X127615749Y-99491441D01*
X127671679Y-99319304D01*
X127671685Y-99319281D01*
X127699998Y-99140518D01*
X127700000Y-99140502D01*
X127700000Y-98750000D01*
X127050000Y-98750000D01*
X127050000Y-98350000D01*
X127700000Y-98350000D01*
X127700000Y-97959497D01*
X127699998Y-97959481D01*
X127671685Y-97780718D01*
X127671679Y-97780695D01*
X127615749Y-97608558D01*
X127615742Y-97608542D01*
X127533567Y-97447268D01*
X127533563Y-97447262D01*
X127427176Y-97300832D01*
X127427161Y-97300814D01*
X127299185Y-97172838D01*
X127299167Y-97172823D01*
X127152737Y-97066436D01*
X127152731Y-97066432D01*
X126991457Y-96984257D01*
X126991441Y-96984250D01*
X126819304Y-96928320D01*
X126819283Y-96928315D01*
X126750000Y-96917341D01*
X126750000Y-97588120D01*
X126742993Y-97584075D01*
X126615826Y-97550000D01*
X126484174Y-97550000D01*
X126357007Y-97584075D01*
X126350000Y-97588120D01*
X126350000Y-96917341D01*
X126280716Y-96928315D01*
X126280695Y-96928320D01*
X126108558Y-96984250D01*
X126108542Y-96984257D01*
X125947268Y-97066432D01*
X125947262Y-97066436D01*
X125800832Y-97172823D01*
X125800814Y-97172838D01*
X125735361Y-97238292D01*
X125686385Y-97261130D01*
X125634187Y-97247144D01*
X125603192Y-97202878D01*
X125600500Y-97182431D01*
X125600500Y-96249500D01*
X125618982Y-96198720D01*
X125665782Y-96171700D01*
X125679500Y-96170500D01*
X131010917Y-96170500D01*
X131010918Y-96170500D01*
X131040500Y-96140918D01*
X131040500Y-88609500D01*
X131058982Y-88558720D01*
X131105782Y-88531700D01*
X131119500Y-88530500D01*
X133814714Y-88530500D01*
X133865494Y-88548982D01*
G37*
G04 #@! TD.AperFunction*
M02*
