%TF.GenerationSoftware,KiCad,Pcbnew,9.0.0*%
%TF.CreationDate,2025-03-27T12:33:42-07:00*%
%TF.ProjectId,SNES2VGA,534e4553-3256-4474-912e-6b696361645f,1*%
%TF.SameCoordinates,Original*%
%TF.FileFunction,Drillmap*%
%TF.FilePolarity,Positive*%
%FSLAX45Y45*%
G04 Gerber Fmt 4.5, Leading zero omitted, Abs format (unit mm)*
G04 Created by KiCad (PCBNEW 9.0.0) date 2025-03-27 12:33:42*
%MOMM*%
%LPD*%
G01*
G04 APERTURE LIST*
%ADD10C,0.100000*%
%ADD11C,0.200000*%
G04 APERTURE END LIST*
D10*
X12555000Y-9612000D02*
X12555000Y-11206000D01*
X15090000Y-8848000D02*
X15090000Y-9612000D01*
X12555000Y-11206000D02*
X15635000Y-11206000D01*
X14252000Y-9909000D02*
G75*
G02*
X13936000Y-9909000I-158000J0D01*
G01*
X13936000Y-9909000D02*
G75*
G02*
X14252000Y-9909000I158000J0D01*
G01*
X12555000Y-9612000D02*
X13099000Y-9612000D01*
X15635000Y-9612000D02*
X15635000Y-11206000D01*
X13099000Y-8848000D02*
X15090000Y-8848000D01*
X13099000Y-8848000D02*
X13099000Y-9612000D01*
X15090000Y-9612000D02*
X15635000Y-9612000D01*
D11*
X12810777Y-11522484D02*
X12810777Y-11322484D01*
X12810777Y-11322484D02*
X12858396Y-11322484D01*
X12858396Y-11322484D02*
X12886967Y-11332008D01*
X12886967Y-11332008D02*
X12906015Y-11351055D01*
X12906015Y-11351055D02*
X12915539Y-11370103D01*
X12915539Y-11370103D02*
X12925062Y-11408198D01*
X12925062Y-11408198D02*
X12925062Y-11436769D01*
X12925062Y-11436769D02*
X12915539Y-11474865D01*
X12915539Y-11474865D02*
X12906015Y-11493912D01*
X12906015Y-11493912D02*
X12886967Y-11512960D01*
X12886967Y-11512960D02*
X12858396Y-11522484D01*
X12858396Y-11522484D02*
X12810777Y-11522484D01*
X13010777Y-11522484D02*
X13010777Y-11389150D01*
X13010777Y-11427246D02*
X13020301Y-11408198D01*
X13020301Y-11408198D02*
X13029824Y-11398674D01*
X13029824Y-11398674D02*
X13048872Y-11389150D01*
X13048872Y-11389150D02*
X13067920Y-11389150D01*
X13134586Y-11522484D02*
X13134586Y-11389150D01*
X13134586Y-11322484D02*
X13125062Y-11332008D01*
X13125062Y-11332008D02*
X13134586Y-11341531D01*
X13134586Y-11341531D02*
X13144110Y-11332008D01*
X13144110Y-11332008D02*
X13134586Y-11322484D01*
X13134586Y-11322484D02*
X13134586Y-11341531D01*
X13258396Y-11522484D02*
X13239348Y-11512960D01*
X13239348Y-11512960D02*
X13229824Y-11493912D01*
X13229824Y-11493912D02*
X13229824Y-11322484D01*
X13363158Y-11522484D02*
X13344110Y-11512960D01*
X13344110Y-11512960D02*
X13334586Y-11493912D01*
X13334586Y-11493912D02*
X13334586Y-11322484D01*
X13591729Y-11522484D02*
X13591729Y-11322484D01*
X13591729Y-11322484D02*
X13658396Y-11465341D01*
X13658396Y-11465341D02*
X13725062Y-11322484D01*
X13725062Y-11322484D02*
X13725062Y-11522484D01*
X13906015Y-11522484D02*
X13906015Y-11417722D01*
X13906015Y-11417722D02*
X13896491Y-11398674D01*
X13896491Y-11398674D02*
X13877443Y-11389150D01*
X13877443Y-11389150D02*
X13839348Y-11389150D01*
X13839348Y-11389150D02*
X13820301Y-11398674D01*
X13906015Y-11512960D02*
X13886967Y-11522484D01*
X13886967Y-11522484D02*
X13839348Y-11522484D01*
X13839348Y-11522484D02*
X13820301Y-11512960D01*
X13820301Y-11512960D02*
X13810777Y-11493912D01*
X13810777Y-11493912D02*
X13810777Y-11474865D01*
X13810777Y-11474865D02*
X13820301Y-11455817D01*
X13820301Y-11455817D02*
X13839348Y-11446293D01*
X13839348Y-11446293D02*
X13886967Y-11446293D01*
X13886967Y-11446293D02*
X13906015Y-11436769D01*
X14001253Y-11389150D02*
X14001253Y-11589150D01*
X14001253Y-11398674D02*
X14020301Y-11389150D01*
X14020301Y-11389150D02*
X14058396Y-11389150D01*
X14058396Y-11389150D02*
X14077443Y-11398674D01*
X14077443Y-11398674D02*
X14086967Y-11408198D01*
X14086967Y-11408198D02*
X14096491Y-11427246D01*
X14096491Y-11427246D02*
X14096491Y-11484388D01*
X14096491Y-11484388D02*
X14086967Y-11503436D01*
X14086967Y-11503436D02*
X14077443Y-11512960D01*
X14077443Y-11512960D02*
X14058396Y-11522484D01*
X14058396Y-11522484D02*
X14020301Y-11522484D01*
X14020301Y-11522484D02*
X14001253Y-11512960D01*
X14182205Y-11503436D02*
X14191729Y-11512960D01*
X14191729Y-11512960D02*
X14182205Y-11522484D01*
X14182205Y-11522484D02*
X14172682Y-11512960D01*
X14172682Y-11512960D02*
X14182205Y-11503436D01*
X14182205Y-11503436D02*
X14182205Y-11522484D01*
X14182205Y-11398674D02*
X14191729Y-11408198D01*
X14191729Y-11408198D02*
X14182205Y-11417722D01*
X14182205Y-11417722D02*
X14172682Y-11408198D01*
X14172682Y-11408198D02*
X14182205Y-11398674D01*
X14182205Y-11398674D02*
X14182205Y-11417722D01*
M02*
