G04 #@! TF.GenerationSoftware,KiCad,Pcbnew,9.0.0*
G04 #@! TF.CreationDate,2025-03-27T12:33:45-07:00*
G04 #@! TF.ProjectId,SNES2VGA,534e4553-3256-4474-912e-6b696361645f,1*
G04 #@! TF.SameCoordinates,Original*
G04 #@! TF.FileFunction,Legend,Top*
G04 #@! TF.FilePolarity,Positive*
%FSLAX46Y46*%
G04 Gerber Fmt 4.6, Leading zero omitted, Abs format (unit mm)*
G04 Created by KiCad (PCBNEW 9.0.0) date 2025-03-27 12:33:45*
%MOMM*%
%LPD*%
G01*
G04 APERTURE LIST*
G04 Aperture macros list*
%AMRoundRect*
0 Rectangle with rounded corners*
0 $1 Rounding radius*
0 $2 $3 $4 $5 $6 $7 $8 $9 X,Y pos of 4 corners*
0 Add a 4 corners polygon primitive as box body*
4,1,4,$2,$3,$4,$5,$6,$7,$8,$9,$2,$3,0*
0 Add four circle primitives for the rounded corners*
1,1,$1+$1,$2,$3*
1,1,$1+$1,$4,$5*
1,1,$1+$1,$6,$7*
1,1,$1+$1,$8,$9*
0 Add four rect primitives between the rounded corners*
20,1,$1+$1,$2,$3,$4,$5,0*
20,1,$1+$1,$4,$5,$6,$7,0*
20,1,$1+$1,$6,$7,$8,$9,0*
20,1,$1+$1,$8,$9,$2,$3,0*%
%AMFreePoly0*
4,1,23,0.550000,-0.750000,0.000000,-0.750000,0.000000,-0.745722,-0.065263,-0.745722,-0.191342,-0.711940,-0.304381,-0.646677,-0.396677,-0.554381,-0.461940,-0.441342,-0.495722,-0.315263,-0.495722,-0.250000,-0.500000,-0.250000,-0.500000,0.250000,-0.495722,0.250000,-0.495722,0.315263,-0.461940,0.441342,-0.396677,0.554381,-0.304381,0.646677,-0.191342,0.711940,-0.065263,0.745722,0.000000,0.745722,
0.000000,0.750000,0.550000,0.750000,0.550000,-0.750000,0.550000,-0.750000,$1*%
%AMFreePoly1*
4,1,23,0.000000,0.745722,0.065263,0.745722,0.191342,0.711940,0.304381,0.646677,0.396677,0.554381,0.461940,0.441342,0.495722,0.315263,0.495722,0.250000,0.500000,0.250000,0.500000,-0.250000,0.495722,-0.250000,0.495722,-0.315263,0.461940,-0.441342,0.396677,-0.554381,0.304381,-0.646677,0.191342,-0.711940,0.065263,-0.745722,0.000000,-0.745722,0.000000,-0.750000,-0.550000,-0.750000,
-0.550000,0.750000,0.000000,0.750000,0.000000,0.745722,0.000000,0.745722,$1*%
%AMFreePoly2*
4,1,23,0.500000,-0.750000,0.000000,-0.750000,0.000000,-0.745722,-0.065263,-0.745722,-0.191342,-0.711940,-0.304381,-0.646677,-0.396677,-0.554381,-0.461940,-0.441342,-0.495722,-0.315263,-0.495722,-0.250000,-0.500000,-0.250000,-0.500000,0.250000,-0.495722,0.250000,-0.495722,0.315263,-0.461940,0.441342,-0.396677,0.554381,-0.304381,0.646677,-0.191342,0.711940,-0.065263,0.745722,0.000000,0.745722,
0.000000,0.750000,0.500000,0.750000,0.500000,-0.750000,0.500000,-0.750000,$1*%
%AMFreePoly3*
4,1,23,0.000000,0.745722,0.065263,0.745722,0.191342,0.711940,0.304381,0.646677,0.396677,0.554381,0.461940,0.441342,0.495722,0.315263,0.495722,0.250000,0.500000,0.250000,0.500000,-0.250000,0.495722,-0.250000,0.495722,-0.315263,0.461940,-0.441342,0.396677,-0.554381,0.304381,-0.646677,0.191342,-0.711940,0.065263,-0.745722,0.000000,-0.745722,0.000000,-0.750000,-0.500000,-0.750000,
-0.500000,0.750000,0.000000,0.750000,0.000000,0.745722,0.000000,0.745722,$1*%
G04 Aperture macros list end*
%ADD10C,0.127000*%
%ADD11C,0.125000*%
%ADD12C,0.100000*%
%ADD13C,0.150000*%
%ADD14C,0.120000*%
%ADD15RoundRect,0.225000X0.250000X-0.225000X0.250000X0.225000X-0.250000X0.225000X-0.250000X-0.225000X0*%
%ADD16RoundRect,0.375000X-0.375000X-0.375000X0.375000X-0.375000X0.375000X0.375000X-0.375000X0.375000X0*%
%ADD17RoundRect,0.200000X-0.200000X-0.275000X0.200000X-0.275000X0.200000X0.275000X-0.200000X0.275000X0*%
%ADD18RoundRect,0.200000X0.275000X-0.200000X0.275000X0.200000X-0.275000X0.200000X-0.275000X-0.200000X0*%
%ADD19FreePoly0,0.000000*%
%ADD20R,1.000000X1.500000*%
%ADD21FreePoly1,0.000000*%
%ADD22FreePoly2,180.000000*%
%ADD23FreePoly3,180.000000*%
%ADD24R,1.700000X1.700000*%
%ADD25C,1.700000*%
%ADD26C,4.066000*%
%ADD27O,1.800000X2.800000*%
G04 APERTURE END LIST*
D10*
X153210000Y-96774000D02*
X143640000Y-96774000D01*
X148120000Y-95930000D02*
X150540000Y-95930000D01*
X131510400Y-88874600D02*
X136510400Y-88874600D01*
X136510400Y-93874600D01*
X131510400Y-93874600D01*
X131510400Y-88874600D01*
G36*
X131510400Y-88874600D02*
G01*
X136510400Y-88874600D01*
X136510400Y-93874600D01*
X131510400Y-93874600D01*
X131510400Y-88874600D01*
G37*
X131380000Y-95930000D02*
X133830000Y-95930000D01*
X143640000Y-96774000D02*
X143640000Y-100830000D01*
X153210000Y-96774000D02*
X153210000Y-100840000D01*
X143640000Y-100838000D02*
X153210000Y-100840000D01*
D11*
X152099286Y-104630464D02*
X151742143Y-104630464D01*
X151742143Y-104630464D02*
X151742143Y-103880464D01*
X152349286Y-103880464D02*
X152349286Y-104487607D01*
X152349286Y-104487607D02*
X152385000Y-104559035D01*
X152385000Y-104559035D02*
X152420715Y-104594750D01*
X152420715Y-104594750D02*
X152492143Y-104630464D01*
X152492143Y-104630464D02*
X152635000Y-104630464D01*
X152635000Y-104630464D02*
X152706429Y-104594750D01*
X152706429Y-104594750D02*
X152742143Y-104559035D01*
X152742143Y-104559035D02*
X152777857Y-104487607D01*
X152777857Y-104487607D02*
X152777857Y-103880464D01*
X153135000Y-104630464D02*
X153135000Y-103880464D01*
X153135000Y-103880464D02*
X153385000Y-104416178D01*
X153385000Y-104416178D02*
X153635000Y-103880464D01*
X153635000Y-103880464D02*
X153635000Y-104630464D01*
X153956429Y-104416178D02*
X154313572Y-104416178D01*
X153885000Y-104630464D02*
X154135000Y-103880464D01*
X154135000Y-103880464D02*
X154385000Y-104630464D01*
X147902144Y-110185306D02*
X147866430Y-110221021D01*
X147866430Y-110221021D02*
X147759287Y-110256735D01*
X147759287Y-110256735D02*
X147687859Y-110256735D01*
X147687859Y-110256735D02*
X147580716Y-110221021D01*
X147580716Y-110221021D02*
X147509287Y-110149592D01*
X147509287Y-110149592D02*
X147473573Y-110078163D01*
X147473573Y-110078163D02*
X147437859Y-109935306D01*
X147437859Y-109935306D02*
X147437859Y-109828163D01*
X147437859Y-109828163D02*
X147473573Y-109685306D01*
X147473573Y-109685306D02*
X147509287Y-109613878D01*
X147509287Y-109613878D02*
X147580716Y-109542449D01*
X147580716Y-109542449D02*
X147687859Y-109506735D01*
X147687859Y-109506735D02*
X147759287Y-109506735D01*
X147759287Y-109506735D02*
X147866430Y-109542449D01*
X147866430Y-109542449D02*
X147902144Y-109578163D01*
X148223573Y-110256735D02*
X148223573Y-109506735D01*
X148223573Y-109863878D02*
X148652144Y-109863878D01*
X148652144Y-110256735D02*
X148652144Y-109506735D01*
X149152144Y-109506735D02*
X149295001Y-109506735D01*
X149295001Y-109506735D02*
X149366430Y-109542449D01*
X149366430Y-109542449D02*
X149437858Y-109613878D01*
X149437858Y-109613878D02*
X149473573Y-109756735D01*
X149473573Y-109756735D02*
X149473573Y-110006735D01*
X149473573Y-110006735D02*
X149437858Y-110149592D01*
X149437858Y-110149592D02*
X149366430Y-110221021D01*
X149366430Y-110221021D02*
X149295001Y-110256735D01*
X149295001Y-110256735D02*
X149152144Y-110256735D01*
X149152144Y-110256735D02*
X149080716Y-110221021D01*
X149080716Y-110221021D02*
X149009287Y-110149592D01*
X149009287Y-110149592D02*
X148973573Y-110006735D01*
X148973573Y-110006735D02*
X148973573Y-109756735D01*
X148973573Y-109756735D02*
X149009287Y-109613878D01*
X149009287Y-109613878D02*
X149080716Y-109542449D01*
X149080716Y-109542449D02*
X149152144Y-109506735D01*
X149937858Y-109506735D02*
X150080715Y-109506735D01*
X150080715Y-109506735D02*
X150152144Y-109542449D01*
X150152144Y-109542449D02*
X150223572Y-109613878D01*
X150223572Y-109613878D02*
X150259287Y-109756735D01*
X150259287Y-109756735D02*
X150259287Y-110006735D01*
X150259287Y-110006735D02*
X150223572Y-110149592D01*
X150223572Y-110149592D02*
X150152144Y-110221021D01*
X150152144Y-110221021D02*
X150080715Y-110256735D01*
X150080715Y-110256735D02*
X149937858Y-110256735D01*
X149937858Y-110256735D02*
X149866430Y-110221021D01*
X149866430Y-110221021D02*
X149795001Y-110149592D01*
X149795001Y-110149592D02*
X149759287Y-110006735D01*
X149759287Y-110006735D02*
X149759287Y-109756735D01*
X149759287Y-109756735D02*
X149795001Y-109613878D01*
X149795001Y-109613878D02*
X149866430Y-109542449D01*
X149866430Y-109542449D02*
X149937858Y-109506735D01*
X150545001Y-110221021D02*
X150652144Y-110256735D01*
X150652144Y-110256735D02*
X150830715Y-110256735D01*
X150830715Y-110256735D02*
X150902144Y-110221021D01*
X150902144Y-110221021D02*
X150937858Y-110185306D01*
X150937858Y-110185306D02*
X150973572Y-110113878D01*
X150973572Y-110113878D02*
X150973572Y-110042449D01*
X150973572Y-110042449D02*
X150937858Y-109971021D01*
X150937858Y-109971021D02*
X150902144Y-109935306D01*
X150902144Y-109935306D02*
X150830715Y-109899592D01*
X150830715Y-109899592D02*
X150687858Y-109863878D01*
X150687858Y-109863878D02*
X150616429Y-109828163D01*
X150616429Y-109828163D02*
X150580715Y-109792449D01*
X150580715Y-109792449D02*
X150545001Y-109721021D01*
X150545001Y-109721021D02*
X150545001Y-109649592D01*
X150545001Y-109649592D02*
X150580715Y-109578163D01*
X150580715Y-109578163D02*
X150616429Y-109542449D01*
X150616429Y-109542449D02*
X150687858Y-109506735D01*
X150687858Y-109506735D02*
X150866429Y-109506735D01*
X150866429Y-109506735D02*
X150973572Y-109542449D01*
X151295001Y-109863878D02*
X151545001Y-109863878D01*
X151652144Y-110256735D02*
X151295001Y-110256735D01*
X151295001Y-110256735D02*
X151295001Y-109506735D01*
X151295001Y-109506735D02*
X151652144Y-109506735D01*
X152687858Y-109506735D02*
X152830715Y-109506735D01*
X152830715Y-109506735D02*
X152902144Y-109542449D01*
X152902144Y-109542449D02*
X152973572Y-109613878D01*
X152973572Y-109613878D02*
X153009287Y-109756735D01*
X153009287Y-109756735D02*
X153009287Y-110006735D01*
X153009287Y-110006735D02*
X152973572Y-110149592D01*
X152973572Y-110149592D02*
X152902144Y-110221021D01*
X152902144Y-110221021D02*
X152830715Y-110256735D01*
X152830715Y-110256735D02*
X152687858Y-110256735D01*
X152687858Y-110256735D02*
X152616430Y-110221021D01*
X152616430Y-110221021D02*
X152545001Y-110149592D01*
X152545001Y-110149592D02*
X152509287Y-110006735D01*
X152509287Y-110006735D02*
X152509287Y-109756735D01*
X152509287Y-109756735D02*
X152545001Y-109613878D01*
X152545001Y-109613878D02*
X152616430Y-109542449D01*
X152616430Y-109542449D02*
X152687858Y-109506735D01*
X153330715Y-110256735D02*
X153330715Y-109506735D01*
X153330715Y-109506735D02*
X153759286Y-110256735D01*
X153759286Y-110256735D02*
X153759286Y-109506735D01*
X154116429Y-109863878D02*
X154366429Y-109863878D01*
X154473572Y-110256735D02*
X154116429Y-110256735D01*
X154116429Y-110256735D02*
X154116429Y-109506735D01*
X154116429Y-109506735D02*
X154473572Y-109506735D01*
X154795000Y-110185306D02*
X154830714Y-110221021D01*
X154830714Y-110221021D02*
X154795000Y-110256735D01*
X154795000Y-110256735D02*
X154759286Y-110221021D01*
X154759286Y-110221021D02*
X154795000Y-110185306D01*
X154795000Y-110185306D02*
X154795000Y-110256735D01*
X154795000Y-109792449D02*
X154830714Y-109828163D01*
X154830714Y-109828163D02*
X154795000Y-109863878D01*
X154795000Y-109863878D02*
X154759286Y-109828163D01*
X154759286Y-109828163D02*
X154795000Y-109792449D01*
X154795000Y-109792449D02*
X154795000Y-109863878D01*
X143402142Y-111392764D02*
X143366428Y-111428479D01*
X143366428Y-111428479D02*
X143259285Y-111464193D01*
X143259285Y-111464193D02*
X143187857Y-111464193D01*
X143187857Y-111464193D02*
X143080714Y-111428479D01*
X143080714Y-111428479D02*
X143009285Y-111357050D01*
X143009285Y-111357050D02*
X142973571Y-111285621D01*
X142973571Y-111285621D02*
X142937857Y-111142764D01*
X142937857Y-111142764D02*
X142937857Y-111035621D01*
X142937857Y-111035621D02*
X142973571Y-110892764D01*
X142973571Y-110892764D02*
X143009285Y-110821336D01*
X143009285Y-110821336D02*
X143080714Y-110749907D01*
X143080714Y-110749907D02*
X143187857Y-110714193D01*
X143187857Y-110714193D02*
X143259285Y-110714193D01*
X143259285Y-110714193D02*
X143366428Y-110749907D01*
X143366428Y-110749907D02*
X143402142Y-110785621D01*
X143687857Y-111428479D02*
X143795000Y-111464193D01*
X143795000Y-111464193D02*
X143973571Y-111464193D01*
X143973571Y-111464193D02*
X144045000Y-111428479D01*
X144045000Y-111428479D02*
X144080714Y-111392764D01*
X144080714Y-111392764D02*
X144116428Y-111321336D01*
X144116428Y-111321336D02*
X144116428Y-111249907D01*
X144116428Y-111249907D02*
X144080714Y-111178479D01*
X144080714Y-111178479D02*
X144045000Y-111142764D01*
X144045000Y-111142764D02*
X143973571Y-111107050D01*
X143973571Y-111107050D02*
X143830714Y-111071336D01*
X143830714Y-111071336D02*
X143759285Y-111035621D01*
X143759285Y-111035621D02*
X143723571Y-110999907D01*
X143723571Y-110999907D02*
X143687857Y-110928479D01*
X143687857Y-110928479D02*
X143687857Y-110857050D01*
X143687857Y-110857050D02*
X143723571Y-110785621D01*
X143723571Y-110785621D02*
X143759285Y-110749907D01*
X143759285Y-110749907D02*
X143830714Y-110714193D01*
X143830714Y-110714193D02*
X144009285Y-110714193D01*
X144009285Y-110714193D02*
X144116428Y-110749907D01*
X144580714Y-111107050D02*
X144580714Y-111464193D01*
X144330714Y-110714193D02*
X144580714Y-111107050D01*
X144580714Y-111107050D02*
X144830714Y-110714193D01*
X145080714Y-111464193D02*
X145080714Y-110714193D01*
X145080714Y-110714193D02*
X145509285Y-111464193D01*
X145509285Y-111464193D02*
X145509285Y-110714193D01*
X146294999Y-111392764D02*
X146259285Y-111428479D01*
X146259285Y-111428479D02*
X146152142Y-111464193D01*
X146152142Y-111464193D02*
X146080714Y-111464193D01*
X146080714Y-111464193D02*
X145973571Y-111428479D01*
X145973571Y-111428479D02*
X145902142Y-111357050D01*
X145902142Y-111357050D02*
X145866428Y-111285621D01*
X145866428Y-111285621D02*
X145830714Y-111142764D01*
X145830714Y-111142764D02*
X145830714Y-111035621D01*
X145830714Y-111035621D02*
X145866428Y-110892764D01*
X145866428Y-110892764D02*
X145902142Y-110821336D01*
X145902142Y-110821336D02*
X145973571Y-110749907D01*
X145973571Y-110749907D02*
X146080714Y-110714193D01*
X146080714Y-110714193D02*
X146152142Y-110714193D01*
X146152142Y-110714193D02*
X146259285Y-110749907D01*
X146259285Y-110749907D02*
X146294999Y-110785621D01*
X147723571Y-110678479D02*
X147080714Y-111642764D01*
X148973571Y-111392764D02*
X148937857Y-111428479D01*
X148937857Y-111428479D02*
X148830714Y-111464193D01*
X148830714Y-111464193D02*
X148759286Y-111464193D01*
X148759286Y-111464193D02*
X148652143Y-111428479D01*
X148652143Y-111428479D02*
X148580714Y-111357050D01*
X148580714Y-111357050D02*
X148545000Y-111285621D01*
X148545000Y-111285621D02*
X148509286Y-111142764D01*
X148509286Y-111142764D02*
X148509286Y-111035621D01*
X148509286Y-111035621D02*
X148545000Y-110892764D01*
X148545000Y-110892764D02*
X148580714Y-110821336D01*
X148580714Y-110821336D02*
X148652143Y-110749907D01*
X148652143Y-110749907D02*
X148759286Y-110714193D01*
X148759286Y-110714193D02*
X148830714Y-110714193D01*
X148830714Y-110714193D02*
X148937857Y-110749907D01*
X148937857Y-110749907D02*
X148973571Y-110785621D01*
X149187857Y-110714193D02*
X149437857Y-111464193D01*
X149437857Y-111464193D02*
X149687857Y-110714193D01*
X150187857Y-111071336D02*
X150295000Y-111107050D01*
X150295000Y-111107050D02*
X150330714Y-111142764D01*
X150330714Y-111142764D02*
X150366428Y-111214193D01*
X150366428Y-111214193D02*
X150366428Y-111321336D01*
X150366428Y-111321336D02*
X150330714Y-111392764D01*
X150330714Y-111392764D02*
X150295000Y-111428479D01*
X150295000Y-111428479D02*
X150223571Y-111464193D01*
X150223571Y-111464193D02*
X149937857Y-111464193D01*
X149937857Y-111464193D02*
X149937857Y-110714193D01*
X149937857Y-110714193D02*
X150187857Y-110714193D01*
X150187857Y-110714193D02*
X150259286Y-110749907D01*
X150259286Y-110749907D02*
X150295000Y-110785621D01*
X150295000Y-110785621D02*
X150330714Y-110857050D01*
X150330714Y-110857050D02*
X150330714Y-110928479D01*
X150330714Y-110928479D02*
X150295000Y-110999907D01*
X150295000Y-110999907D02*
X150259286Y-111035621D01*
X150259286Y-111035621D02*
X150187857Y-111071336D01*
X150187857Y-111071336D02*
X149937857Y-111071336D01*
X150652143Y-111428479D02*
X150759286Y-111464193D01*
X150759286Y-111464193D02*
X150937857Y-111464193D01*
X150937857Y-111464193D02*
X151009286Y-111428479D01*
X151009286Y-111428479D02*
X151045000Y-111392764D01*
X151045000Y-111392764D02*
X151080714Y-111321336D01*
X151080714Y-111321336D02*
X151080714Y-111249907D01*
X151080714Y-111249907D02*
X151045000Y-111178479D01*
X151045000Y-111178479D02*
X151009286Y-111142764D01*
X151009286Y-111142764D02*
X150937857Y-111107050D01*
X150937857Y-111107050D02*
X150795000Y-111071336D01*
X150795000Y-111071336D02*
X150723571Y-111035621D01*
X150723571Y-111035621D02*
X150687857Y-110999907D01*
X150687857Y-110999907D02*
X150652143Y-110928479D01*
X150652143Y-110928479D02*
X150652143Y-110857050D01*
X150652143Y-110857050D02*
X150687857Y-110785621D01*
X150687857Y-110785621D02*
X150723571Y-110749907D01*
X150723571Y-110749907D02*
X150795000Y-110714193D01*
X150795000Y-110714193D02*
X150973571Y-110714193D01*
X150973571Y-110714193D02*
X151080714Y-110749907D01*
X152509286Y-110678479D02*
X151866429Y-111642764D01*
X153687858Y-111464193D02*
X153330715Y-111464193D01*
X153330715Y-111464193D02*
X153330715Y-110714193D01*
X153937858Y-110714193D02*
X153937858Y-111321336D01*
X153937858Y-111321336D02*
X153973572Y-111392764D01*
X153973572Y-111392764D02*
X154009287Y-111428479D01*
X154009287Y-111428479D02*
X154080715Y-111464193D01*
X154080715Y-111464193D02*
X154223572Y-111464193D01*
X154223572Y-111464193D02*
X154295001Y-111428479D01*
X154295001Y-111428479D02*
X154330715Y-111392764D01*
X154330715Y-111392764D02*
X154366429Y-111321336D01*
X154366429Y-111321336D02*
X154366429Y-110714193D01*
X154723572Y-111464193D02*
X154723572Y-110714193D01*
X154723572Y-110714193D02*
X154973572Y-111249907D01*
X154973572Y-111249907D02*
X155223572Y-110714193D01*
X155223572Y-110714193D02*
X155223572Y-111464193D01*
X155545001Y-111249907D02*
X155902144Y-111249907D01*
X155473572Y-111464193D02*
X155723572Y-110714193D01*
X155723572Y-110714193D02*
X155973572Y-111464193D01*
D12*
X143540401Y-101576004D02*
X143516592Y-101599814D01*
X143516592Y-101599814D02*
X143445163Y-101623623D01*
X143445163Y-101623623D02*
X143397544Y-101623623D01*
X143397544Y-101623623D02*
X143326116Y-101599814D01*
X143326116Y-101599814D02*
X143278497Y-101552194D01*
X143278497Y-101552194D02*
X143254687Y-101504575D01*
X143254687Y-101504575D02*
X143230878Y-101409337D01*
X143230878Y-101409337D02*
X143230878Y-101337909D01*
X143230878Y-101337909D02*
X143254687Y-101242671D01*
X143254687Y-101242671D02*
X143278497Y-101195052D01*
X143278497Y-101195052D02*
X143326116Y-101147433D01*
X143326116Y-101147433D02*
X143397544Y-101123623D01*
X143397544Y-101123623D02*
X143445163Y-101123623D01*
X143445163Y-101123623D02*
X143516592Y-101147433D01*
X143516592Y-101147433D02*
X143540401Y-101171242D01*
X143730878Y-101599814D02*
X143802306Y-101623623D01*
X143802306Y-101623623D02*
X143921354Y-101623623D01*
X143921354Y-101623623D02*
X143968973Y-101599814D01*
X143968973Y-101599814D02*
X143992782Y-101576004D01*
X143992782Y-101576004D02*
X144016592Y-101528385D01*
X144016592Y-101528385D02*
X144016592Y-101480766D01*
X144016592Y-101480766D02*
X143992782Y-101433147D01*
X143992782Y-101433147D02*
X143968973Y-101409337D01*
X143968973Y-101409337D02*
X143921354Y-101385528D01*
X143921354Y-101385528D02*
X143826116Y-101361718D01*
X143826116Y-101361718D02*
X143778497Y-101337909D01*
X143778497Y-101337909D02*
X143754687Y-101314099D01*
X143754687Y-101314099D02*
X143730878Y-101266480D01*
X143730878Y-101266480D02*
X143730878Y-101218861D01*
X143730878Y-101218861D02*
X143754687Y-101171242D01*
X143754687Y-101171242D02*
X143778497Y-101147433D01*
X143778497Y-101147433D02*
X143826116Y-101123623D01*
X143826116Y-101123623D02*
X143945163Y-101123623D01*
X143945163Y-101123623D02*
X144016592Y-101147433D01*
X144326115Y-101385528D02*
X144326115Y-101623623D01*
X144159449Y-101123623D02*
X144326115Y-101385528D01*
X144326115Y-101385528D02*
X144492782Y-101123623D01*
X144659448Y-101623623D02*
X144659448Y-101123623D01*
X144659448Y-101123623D02*
X144945162Y-101623623D01*
X144945162Y-101623623D02*
X144945162Y-101123623D01*
X145468972Y-101576004D02*
X145445163Y-101599814D01*
X145445163Y-101599814D02*
X145373734Y-101623623D01*
X145373734Y-101623623D02*
X145326115Y-101623623D01*
X145326115Y-101623623D02*
X145254687Y-101599814D01*
X145254687Y-101599814D02*
X145207068Y-101552194D01*
X145207068Y-101552194D02*
X145183258Y-101504575D01*
X145183258Y-101504575D02*
X145159449Y-101409337D01*
X145159449Y-101409337D02*
X145159449Y-101337909D01*
X145159449Y-101337909D02*
X145183258Y-101242671D01*
X145183258Y-101242671D02*
X145207068Y-101195052D01*
X145207068Y-101195052D02*
X145254687Y-101147433D01*
X145254687Y-101147433D02*
X145326115Y-101123623D01*
X145326115Y-101123623D02*
X145373734Y-101123623D01*
X145373734Y-101123623D02*
X145445163Y-101147433D01*
X145445163Y-101147433D02*
X145468972Y-101171242D01*
X140754688Y-102619071D02*
X140730879Y-102595262D01*
X140730879Y-102595262D02*
X140683260Y-102523833D01*
X140683260Y-102523833D02*
X140659450Y-102476214D01*
X140659450Y-102476214D02*
X140635641Y-102404786D01*
X140635641Y-102404786D02*
X140611831Y-102285738D01*
X140611831Y-102285738D02*
X140611831Y-102190500D01*
X140611831Y-102190500D02*
X140635641Y-102071452D01*
X140635641Y-102071452D02*
X140659450Y-102000024D01*
X140659450Y-102000024D02*
X140683260Y-101952405D01*
X140683260Y-101952405D02*
X140730879Y-101880976D01*
X140730879Y-101880976D02*
X140754688Y-101857166D01*
X140945164Y-102428595D02*
X140945164Y-101928595D01*
X140945164Y-101928595D02*
X141230878Y-102428595D01*
X141230878Y-102428595D02*
X141230878Y-101928595D01*
X141540403Y-102428595D02*
X141492784Y-102404786D01*
X141492784Y-102404786D02*
X141468974Y-102380976D01*
X141468974Y-102380976D02*
X141445165Y-102333357D01*
X141445165Y-102333357D02*
X141445165Y-102190500D01*
X141445165Y-102190500D02*
X141468974Y-102142881D01*
X141468974Y-102142881D02*
X141492784Y-102119071D01*
X141492784Y-102119071D02*
X141540403Y-102095262D01*
X141540403Y-102095262D02*
X141611831Y-102095262D01*
X141611831Y-102095262D02*
X141659450Y-102119071D01*
X141659450Y-102119071D02*
X141683260Y-102142881D01*
X141683260Y-102142881D02*
X141707069Y-102190500D01*
X141707069Y-102190500D02*
X141707069Y-102333357D01*
X141707069Y-102333357D02*
X141683260Y-102380976D01*
X141683260Y-102380976D02*
X141659450Y-102404786D01*
X141659450Y-102404786D02*
X141611831Y-102428595D01*
X141611831Y-102428595D02*
X141540403Y-102428595D01*
X141849927Y-102095262D02*
X142040403Y-102095262D01*
X141921355Y-101928595D02*
X141921355Y-102357166D01*
X141921355Y-102357166D02*
X141945165Y-102404786D01*
X141945165Y-102404786D02*
X141992784Y-102428595D01*
X141992784Y-102428595D02*
X142040403Y-102428595D01*
X142516593Y-102095262D02*
X142707069Y-102095262D01*
X142588021Y-102428595D02*
X142588021Y-102000024D01*
X142588021Y-102000024D02*
X142611831Y-101952405D01*
X142611831Y-101952405D02*
X142659450Y-101928595D01*
X142659450Y-101928595D02*
X142707069Y-101928595D01*
X142945164Y-102428595D02*
X142897545Y-102404786D01*
X142897545Y-102404786D02*
X142873735Y-102380976D01*
X142873735Y-102380976D02*
X142849926Y-102333357D01*
X142849926Y-102333357D02*
X142849926Y-102190500D01*
X142849926Y-102190500D02*
X142873735Y-102142881D01*
X142873735Y-102142881D02*
X142897545Y-102119071D01*
X142897545Y-102119071D02*
X142945164Y-102095262D01*
X142945164Y-102095262D02*
X143016592Y-102095262D01*
X143016592Y-102095262D02*
X143064211Y-102119071D01*
X143064211Y-102119071D02*
X143088021Y-102142881D01*
X143088021Y-102142881D02*
X143111830Y-102190500D01*
X143111830Y-102190500D02*
X143111830Y-102333357D01*
X143111830Y-102333357D02*
X143088021Y-102380976D01*
X143088021Y-102380976D02*
X143064211Y-102404786D01*
X143064211Y-102404786D02*
X143016592Y-102428595D01*
X143016592Y-102428595D02*
X142945164Y-102428595D01*
X143326116Y-102428595D02*
X143326116Y-102095262D01*
X143326116Y-102190500D02*
X143349926Y-102142881D01*
X143349926Y-102142881D02*
X143373735Y-102119071D01*
X143373735Y-102119071D02*
X143421354Y-102095262D01*
X143421354Y-102095262D02*
X143468973Y-102095262D01*
X144016592Y-102428595D02*
X144016592Y-101928595D01*
X144016592Y-101928595D02*
X144207068Y-101928595D01*
X144207068Y-101928595D02*
X144254687Y-101952405D01*
X144254687Y-101952405D02*
X144278497Y-101976214D01*
X144278497Y-101976214D02*
X144302306Y-102023833D01*
X144302306Y-102023833D02*
X144302306Y-102095262D01*
X144302306Y-102095262D02*
X144278497Y-102142881D01*
X144278497Y-102142881D02*
X144254687Y-102166690D01*
X144254687Y-102166690D02*
X144207068Y-102190500D01*
X144207068Y-102190500D02*
X144016592Y-102190500D01*
X144492783Y-102285738D02*
X144730878Y-102285738D01*
X144445164Y-102428595D02*
X144611830Y-101928595D01*
X144611830Y-101928595D02*
X144778497Y-102428595D01*
X145183258Y-102428595D02*
X144945163Y-102428595D01*
X144945163Y-102428595D02*
X144945163Y-101928595D01*
X145302306Y-102619071D02*
X145326116Y-102595262D01*
X145326116Y-102595262D02*
X145373735Y-102523833D01*
X145373735Y-102523833D02*
X145397544Y-102476214D01*
X145397544Y-102476214D02*
X145421354Y-102404786D01*
X145421354Y-102404786D02*
X145445163Y-102285738D01*
X145445163Y-102285738D02*
X145445163Y-102190500D01*
X145445163Y-102190500D02*
X145421354Y-102071452D01*
X145421354Y-102071452D02*
X145397544Y-102000024D01*
X145397544Y-102000024D02*
X145373735Y-101952405D01*
X145373735Y-101952405D02*
X145326116Y-101880976D01*
X145326116Y-101880976D02*
X145302306Y-101857166D01*
D13*
X137608571Y-91232228D02*
X137751428Y-91279847D01*
X137751428Y-91279847D02*
X137989523Y-91279847D01*
X137989523Y-91279847D02*
X138084761Y-91232228D01*
X138084761Y-91232228D02*
X138132380Y-91184608D01*
X138132380Y-91184608D02*
X138179999Y-91089370D01*
X138179999Y-91089370D02*
X138179999Y-90994132D01*
X138179999Y-90994132D02*
X138132380Y-90898894D01*
X138132380Y-90898894D02*
X138084761Y-90851275D01*
X138084761Y-90851275D02*
X137989523Y-90803656D01*
X137989523Y-90803656D02*
X137799047Y-90756037D01*
X137799047Y-90756037D02*
X137703809Y-90708418D01*
X137703809Y-90708418D02*
X137656190Y-90660799D01*
X137656190Y-90660799D02*
X137608571Y-90565561D01*
X137608571Y-90565561D02*
X137608571Y-90470323D01*
X137608571Y-90470323D02*
X137656190Y-90375085D01*
X137656190Y-90375085D02*
X137703809Y-90327466D01*
X137703809Y-90327466D02*
X137799047Y-90279847D01*
X137799047Y-90279847D02*
X138037142Y-90279847D01*
X138037142Y-90279847D02*
X138179999Y-90327466D01*
X138608571Y-91279847D02*
X138608571Y-90279847D01*
X138608571Y-90279847D02*
X139179999Y-91279847D01*
X139179999Y-91279847D02*
X139179999Y-90279847D01*
X139656190Y-90756037D02*
X139989523Y-90756037D01*
X140132380Y-91279847D02*
X139656190Y-91279847D01*
X139656190Y-91279847D02*
X139656190Y-90279847D01*
X139656190Y-90279847D02*
X140132380Y-90279847D01*
X140513333Y-91232228D02*
X140656190Y-91279847D01*
X140656190Y-91279847D02*
X140894285Y-91279847D01*
X140894285Y-91279847D02*
X140989523Y-91232228D01*
X140989523Y-91232228D02*
X141037142Y-91184608D01*
X141037142Y-91184608D02*
X141084761Y-91089370D01*
X141084761Y-91089370D02*
X141084761Y-90994132D01*
X141084761Y-90994132D02*
X141037142Y-90898894D01*
X141037142Y-90898894D02*
X140989523Y-90851275D01*
X140989523Y-90851275D02*
X140894285Y-90803656D01*
X140894285Y-90803656D02*
X140703809Y-90756037D01*
X140703809Y-90756037D02*
X140608571Y-90708418D01*
X140608571Y-90708418D02*
X140560952Y-90660799D01*
X140560952Y-90660799D02*
X140513333Y-90565561D01*
X140513333Y-90565561D02*
X140513333Y-90470323D01*
X140513333Y-90470323D02*
X140560952Y-90375085D01*
X140560952Y-90375085D02*
X140608571Y-90327466D01*
X140608571Y-90327466D02*
X140703809Y-90279847D01*
X140703809Y-90279847D02*
X140941904Y-90279847D01*
X140941904Y-90279847D02*
X141084761Y-90327466D01*
X141465714Y-90375085D02*
X141513333Y-90327466D01*
X141513333Y-90327466D02*
X141608571Y-90279847D01*
X141608571Y-90279847D02*
X141846666Y-90279847D01*
X141846666Y-90279847D02*
X141941904Y-90327466D01*
X141941904Y-90327466D02*
X141989523Y-90375085D01*
X141989523Y-90375085D02*
X142037142Y-90470323D01*
X142037142Y-90470323D02*
X142037142Y-90565561D01*
X142037142Y-90565561D02*
X141989523Y-90708418D01*
X141989523Y-90708418D02*
X141418095Y-91279847D01*
X141418095Y-91279847D02*
X142037142Y-91279847D01*
X142322857Y-90279847D02*
X142656190Y-91279847D01*
X142656190Y-91279847D02*
X142989523Y-90279847D01*
X143846666Y-90327466D02*
X143751428Y-90279847D01*
X143751428Y-90279847D02*
X143608571Y-90279847D01*
X143608571Y-90279847D02*
X143465714Y-90327466D01*
X143465714Y-90327466D02*
X143370476Y-90422704D01*
X143370476Y-90422704D02*
X143322857Y-90517942D01*
X143322857Y-90517942D02*
X143275238Y-90708418D01*
X143275238Y-90708418D02*
X143275238Y-90851275D01*
X143275238Y-90851275D02*
X143322857Y-91041751D01*
X143322857Y-91041751D02*
X143370476Y-91136989D01*
X143370476Y-91136989D02*
X143465714Y-91232228D01*
X143465714Y-91232228D02*
X143608571Y-91279847D01*
X143608571Y-91279847D02*
X143703809Y-91279847D01*
X143703809Y-91279847D02*
X143846666Y-91232228D01*
X143846666Y-91232228D02*
X143894285Y-91184608D01*
X143894285Y-91184608D02*
X143894285Y-90851275D01*
X143894285Y-90851275D02*
X143703809Y-90851275D01*
X144275238Y-90994132D02*
X144751428Y-90994132D01*
X144180000Y-91279847D02*
X144513333Y-90279847D01*
X144513333Y-90279847D02*
X144846666Y-91279847D01*
X139989524Y-91889791D02*
X140560952Y-91889791D01*
X140275238Y-92889791D02*
X140275238Y-91889791D01*
X141037143Y-92889791D02*
X140941905Y-92842172D01*
X140941905Y-92842172D02*
X140894286Y-92794552D01*
X140894286Y-92794552D02*
X140846667Y-92699314D01*
X140846667Y-92699314D02*
X140846667Y-92413600D01*
X140846667Y-92413600D02*
X140894286Y-92318362D01*
X140894286Y-92318362D02*
X140941905Y-92270743D01*
X140941905Y-92270743D02*
X141037143Y-92223124D01*
X141037143Y-92223124D02*
X141180000Y-92223124D01*
X141180000Y-92223124D02*
X141275238Y-92270743D01*
X141275238Y-92270743D02*
X141322857Y-92318362D01*
X141322857Y-92318362D02*
X141370476Y-92413600D01*
X141370476Y-92413600D02*
X141370476Y-92699314D01*
X141370476Y-92699314D02*
X141322857Y-92794552D01*
X141322857Y-92794552D02*
X141275238Y-92842172D01*
X141275238Y-92842172D02*
X141180000Y-92889791D01*
X141180000Y-92889791D02*
X141037143Y-92889791D01*
X141799048Y-92223124D02*
X141799048Y-93223124D01*
X141799048Y-92270743D02*
X141894286Y-92223124D01*
X141894286Y-92223124D02*
X142084762Y-92223124D01*
X142084762Y-92223124D02*
X142180000Y-92270743D01*
X142180000Y-92270743D02*
X142227619Y-92318362D01*
X142227619Y-92318362D02*
X142275238Y-92413600D01*
X142275238Y-92413600D02*
X142275238Y-92699314D01*
X142275238Y-92699314D02*
X142227619Y-92794552D01*
X142227619Y-92794552D02*
X142180000Y-92842172D01*
X142180000Y-92842172D02*
X142084762Y-92889791D01*
X142084762Y-92889791D02*
X141894286Y-92889791D01*
X141894286Y-92889791D02*
X141799048Y-92842172D01*
D11*
X144938571Y-103699035D02*
X144902857Y-103734750D01*
X144902857Y-103734750D02*
X144795714Y-103770464D01*
X144795714Y-103770464D02*
X144724286Y-103770464D01*
X144724286Y-103770464D02*
X144617143Y-103734750D01*
X144617143Y-103734750D02*
X144545714Y-103663321D01*
X144545714Y-103663321D02*
X144510000Y-103591892D01*
X144510000Y-103591892D02*
X144474286Y-103449035D01*
X144474286Y-103449035D02*
X144474286Y-103341892D01*
X144474286Y-103341892D02*
X144510000Y-103199035D01*
X144510000Y-103199035D02*
X144545714Y-103127607D01*
X144545714Y-103127607D02*
X144617143Y-103056178D01*
X144617143Y-103056178D02*
X144724286Y-103020464D01*
X144724286Y-103020464D02*
X144795714Y-103020464D01*
X144795714Y-103020464D02*
X144902857Y-103056178D01*
X144902857Y-103056178D02*
X144938571Y-103091892D01*
X145152857Y-103020464D02*
X145402857Y-103770464D01*
X145402857Y-103770464D02*
X145652857Y-103020464D01*
X146152857Y-103377607D02*
X146260000Y-103413321D01*
X146260000Y-103413321D02*
X146295714Y-103449035D01*
X146295714Y-103449035D02*
X146331428Y-103520464D01*
X146331428Y-103520464D02*
X146331428Y-103627607D01*
X146331428Y-103627607D02*
X146295714Y-103699035D01*
X146295714Y-103699035D02*
X146260000Y-103734750D01*
X146260000Y-103734750D02*
X146188571Y-103770464D01*
X146188571Y-103770464D02*
X145902857Y-103770464D01*
X145902857Y-103770464D02*
X145902857Y-103020464D01*
X145902857Y-103020464D02*
X146152857Y-103020464D01*
X146152857Y-103020464D02*
X146224286Y-103056178D01*
X146224286Y-103056178D02*
X146260000Y-103091892D01*
X146260000Y-103091892D02*
X146295714Y-103163321D01*
X146295714Y-103163321D02*
X146295714Y-103234750D01*
X146295714Y-103234750D02*
X146260000Y-103306178D01*
X146260000Y-103306178D02*
X146224286Y-103341892D01*
X146224286Y-103341892D02*
X146152857Y-103377607D01*
X146152857Y-103377607D02*
X145902857Y-103377607D01*
X146617143Y-103734750D02*
X146724286Y-103770464D01*
X146724286Y-103770464D02*
X146902857Y-103770464D01*
X146902857Y-103770464D02*
X146974286Y-103734750D01*
X146974286Y-103734750D02*
X147010000Y-103699035D01*
X147010000Y-103699035D02*
X147045714Y-103627607D01*
X147045714Y-103627607D02*
X147045714Y-103556178D01*
X147045714Y-103556178D02*
X147010000Y-103484750D01*
X147010000Y-103484750D02*
X146974286Y-103449035D01*
X146974286Y-103449035D02*
X146902857Y-103413321D01*
X146902857Y-103413321D02*
X146760000Y-103377607D01*
X146760000Y-103377607D02*
X146688571Y-103341892D01*
X146688571Y-103341892D02*
X146652857Y-103306178D01*
X146652857Y-103306178D02*
X146617143Y-103234750D01*
X146617143Y-103234750D02*
X146617143Y-103163321D01*
X146617143Y-103163321D02*
X146652857Y-103091892D01*
X146652857Y-103091892D02*
X146688571Y-103056178D01*
X146688571Y-103056178D02*
X146760000Y-103020464D01*
X146760000Y-103020464D02*
X146938571Y-103020464D01*
X146938571Y-103020464D02*
X147045714Y-103056178D01*
D12*
X155336109Y-103816189D02*
X154836109Y-103816189D01*
X154836109Y-103816189D02*
X155336109Y-103530475D01*
X155336109Y-103530475D02*
X154836109Y-103530475D01*
X154836109Y-103363807D02*
X154836109Y-103078093D01*
X155336109Y-103220950D02*
X154836109Y-103220950D01*
X155312300Y-102935236D02*
X155336109Y-102863808D01*
X155336109Y-102863808D02*
X155336109Y-102744760D01*
X155336109Y-102744760D02*
X155312300Y-102697141D01*
X155312300Y-102697141D02*
X155288490Y-102673332D01*
X155288490Y-102673332D02*
X155240871Y-102649522D01*
X155240871Y-102649522D02*
X155193252Y-102649522D01*
X155193252Y-102649522D02*
X155145633Y-102673332D01*
X155145633Y-102673332D02*
X155121823Y-102697141D01*
X155121823Y-102697141D02*
X155098014Y-102744760D01*
X155098014Y-102744760D02*
X155074204Y-102839998D01*
X155074204Y-102839998D02*
X155050395Y-102887617D01*
X155050395Y-102887617D02*
X155026585Y-102911427D01*
X155026585Y-102911427D02*
X154978966Y-102935236D01*
X154978966Y-102935236D02*
X154931347Y-102935236D01*
X154931347Y-102935236D02*
X154883728Y-102911427D01*
X154883728Y-102911427D02*
X154859919Y-102887617D01*
X154859919Y-102887617D02*
X154836109Y-102839998D01*
X154836109Y-102839998D02*
X154836109Y-102720951D01*
X154836109Y-102720951D02*
X154859919Y-102649522D01*
X155288490Y-102149523D02*
X155312300Y-102173332D01*
X155312300Y-102173332D02*
X155336109Y-102244761D01*
X155336109Y-102244761D02*
X155336109Y-102292380D01*
X155336109Y-102292380D02*
X155312300Y-102363808D01*
X155312300Y-102363808D02*
X155264680Y-102411427D01*
X155264680Y-102411427D02*
X155217061Y-102435237D01*
X155217061Y-102435237D02*
X155121823Y-102459046D01*
X155121823Y-102459046D02*
X155050395Y-102459046D01*
X155050395Y-102459046D02*
X154955157Y-102435237D01*
X154955157Y-102435237D02*
X154907538Y-102411427D01*
X154907538Y-102411427D02*
X154859919Y-102363808D01*
X154859919Y-102363808D02*
X154836109Y-102292380D01*
X154836109Y-102292380D02*
X154836109Y-102244761D01*
X154836109Y-102244761D02*
X154859919Y-102173332D01*
X154859919Y-102173332D02*
X154883728Y-102149523D01*
X155312300Y-101578094D02*
X155336109Y-101506666D01*
X155336109Y-101506666D02*
X155336109Y-101387618D01*
X155336109Y-101387618D02*
X155312300Y-101339999D01*
X155312300Y-101339999D02*
X155288490Y-101316190D01*
X155288490Y-101316190D02*
X155240871Y-101292380D01*
X155240871Y-101292380D02*
X155193252Y-101292380D01*
X155193252Y-101292380D02*
X155145633Y-101316190D01*
X155145633Y-101316190D02*
X155121823Y-101339999D01*
X155121823Y-101339999D02*
X155098014Y-101387618D01*
X155098014Y-101387618D02*
X155074204Y-101482856D01*
X155074204Y-101482856D02*
X155050395Y-101530475D01*
X155050395Y-101530475D02*
X155026585Y-101554285D01*
X155026585Y-101554285D02*
X154978966Y-101578094D01*
X154978966Y-101578094D02*
X154931347Y-101578094D01*
X154931347Y-101578094D02*
X154883728Y-101554285D01*
X154883728Y-101554285D02*
X154859919Y-101530475D01*
X154859919Y-101530475D02*
X154836109Y-101482856D01*
X154836109Y-101482856D02*
X154836109Y-101363809D01*
X154836109Y-101363809D02*
X154859919Y-101292380D01*
X155098014Y-100982857D02*
X155336109Y-100982857D01*
X154836109Y-101149523D02*
X155098014Y-100982857D01*
X155098014Y-100982857D02*
X154836109Y-100816190D01*
X155336109Y-100649524D02*
X154836109Y-100649524D01*
X154836109Y-100649524D02*
X155336109Y-100363810D01*
X155336109Y-100363810D02*
X154836109Y-100363810D01*
X155288490Y-99840000D02*
X155312300Y-99863809D01*
X155312300Y-99863809D02*
X155336109Y-99935238D01*
X155336109Y-99935238D02*
X155336109Y-99982857D01*
X155336109Y-99982857D02*
X155312300Y-100054285D01*
X155312300Y-100054285D02*
X155264680Y-100101904D01*
X155264680Y-100101904D02*
X155217061Y-100125714D01*
X155217061Y-100125714D02*
X155121823Y-100149523D01*
X155121823Y-100149523D02*
X155050395Y-100149523D01*
X155050395Y-100149523D02*
X154955157Y-100125714D01*
X154955157Y-100125714D02*
X154907538Y-100101904D01*
X154907538Y-100101904D02*
X154859919Y-100054285D01*
X154859919Y-100054285D02*
X154836109Y-99982857D01*
X154836109Y-99982857D02*
X154836109Y-99935238D01*
X154836109Y-99935238D02*
X154859919Y-99863809D01*
X154859919Y-99863809D02*
X154883728Y-99840000D01*
D10*
X127667856Y-109516631D02*
X127917856Y-110266631D01*
X127917856Y-110266631D02*
X128167856Y-109516631D01*
X128810713Y-109552345D02*
X128739285Y-109516631D01*
X128739285Y-109516631D02*
X128632142Y-109516631D01*
X128632142Y-109516631D02*
X128524999Y-109552345D01*
X128524999Y-109552345D02*
X128453570Y-109623774D01*
X128453570Y-109623774D02*
X128417856Y-109695202D01*
X128417856Y-109695202D02*
X128382142Y-109838059D01*
X128382142Y-109838059D02*
X128382142Y-109945202D01*
X128382142Y-109945202D02*
X128417856Y-110088059D01*
X128417856Y-110088059D02*
X128453570Y-110159488D01*
X128453570Y-110159488D02*
X128524999Y-110230917D01*
X128524999Y-110230917D02*
X128632142Y-110266631D01*
X128632142Y-110266631D02*
X128703570Y-110266631D01*
X128703570Y-110266631D02*
X128810713Y-110230917D01*
X128810713Y-110230917D02*
X128846427Y-110195202D01*
X128846427Y-110195202D02*
X128846427Y-109945202D01*
X128846427Y-109945202D02*
X128703570Y-109945202D01*
X129132142Y-110052345D02*
X129489285Y-110052345D01*
X129060713Y-110266631D02*
X129310713Y-109516631D01*
X129310713Y-109516631D02*
X129560713Y-110266631D01*
X130989285Y-110266631D02*
X130953571Y-110266631D01*
X130953571Y-110266631D02*
X130882142Y-110230917D01*
X130882142Y-110230917D02*
X130774999Y-110123774D01*
X130774999Y-110123774D02*
X130596428Y-109909488D01*
X130596428Y-109909488D02*
X130524999Y-109802345D01*
X130524999Y-109802345D02*
X130489285Y-109695202D01*
X130489285Y-109695202D02*
X130489285Y-109623774D01*
X130489285Y-109623774D02*
X130524999Y-109552345D01*
X130524999Y-109552345D02*
X130596428Y-109516631D01*
X130596428Y-109516631D02*
X130632142Y-109516631D01*
X130632142Y-109516631D02*
X130703571Y-109552345D01*
X130703571Y-109552345D02*
X130739285Y-109623774D01*
X130739285Y-109623774D02*
X130739285Y-109659488D01*
X130739285Y-109659488D02*
X130703571Y-109730917D01*
X130703571Y-109730917D02*
X130667856Y-109766631D01*
X130667856Y-109766631D02*
X130453571Y-109909488D01*
X130453571Y-109909488D02*
X130417856Y-109945202D01*
X130417856Y-109945202D02*
X130382142Y-110016631D01*
X130382142Y-110016631D02*
X130382142Y-110123774D01*
X130382142Y-110123774D02*
X130417856Y-110195202D01*
X130417856Y-110195202D02*
X130453571Y-110230917D01*
X130453571Y-110230917D02*
X130524999Y-110266631D01*
X130524999Y-110266631D02*
X130632142Y-110266631D01*
X130632142Y-110266631D02*
X130703571Y-110230917D01*
X130703571Y-110230917D02*
X130739285Y-110195202D01*
X130739285Y-110195202D02*
X130846428Y-110052345D01*
X130846428Y-110052345D02*
X130882142Y-109945202D01*
X130882142Y-109945202D02*
X130882142Y-109873774D01*
X131810713Y-109516631D02*
X132274999Y-109516631D01*
X132274999Y-109516631D02*
X132024999Y-109802345D01*
X132024999Y-109802345D02*
X132132142Y-109802345D01*
X132132142Y-109802345D02*
X132203571Y-109838059D01*
X132203571Y-109838059D02*
X132239285Y-109873774D01*
X132239285Y-109873774D02*
X132274999Y-109945202D01*
X132274999Y-109945202D02*
X132274999Y-110123774D01*
X132274999Y-110123774D02*
X132239285Y-110195202D01*
X132239285Y-110195202D02*
X132203571Y-110230917D01*
X132203571Y-110230917D02*
X132132142Y-110266631D01*
X132132142Y-110266631D02*
X131917856Y-110266631D01*
X131917856Y-110266631D02*
X131846428Y-110230917D01*
X131846428Y-110230917D02*
X131810713Y-110195202D01*
X132596428Y-110195202D02*
X132632142Y-110230917D01*
X132632142Y-110230917D02*
X132596428Y-110266631D01*
X132596428Y-110266631D02*
X132560714Y-110230917D01*
X132560714Y-110230917D02*
X132596428Y-110195202D01*
X132596428Y-110195202D02*
X132596428Y-110266631D01*
X133310714Y-109516631D02*
X132953571Y-109516631D01*
X132953571Y-109516631D02*
X132917857Y-109873774D01*
X132917857Y-109873774D02*
X132953571Y-109838059D01*
X132953571Y-109838059D02*
X133025000Y-109802345D01*
X133025000Y-109802345D02*
X133203571Y-109802345D01*
X133203571Y-109802345D02*
X133275000Y-109838059D01*
X133275000Y-109838059D02*
X133310714Y-109873774D01*
X133310714Y-109873774D02*
X133346428Y-109945202D01*
X133346428Y-109945202D02*
X133346428Y-110123774D01*
X133346428Y-110123774D02*
X133310714Y-110195202D01*
X133310714Y-110195202D02*
X133275000Y-110230917D01*
X133275000Y-110230917D02*
X133203571Y-110266631D01*
X133203571Y-110266631D02*
X133025000Y-110266631D01*
X133025000Y-110266631D02*
X132953571Y-110230917D01*
X132953571Y-110230917D02*
X132917857Y-110195202D01*
X133667857Y-110266631D02*
X133667857Y-109516631D01*
X133667857Y-109516631D02*
X133917857Y-110052345D01*
X133917857Y-110052345D02*
X134167857Y-109516631D01*
X134167857Y-109516631D02*
X134167857Y-110266631D01*
X134525000Y-110266631D02*
X134525000Y-109516631D01*
X134525000Y-109516631D02*
X134775000Y-110052345D01*
X134775000Y-110052345D02*
X135025000Y-109516631D01*
X135025000Y-109516631D02*
X135025000Y-110266631D01*
X126399999Y-111474089D02*
X126399999Y-110724089D01*
X126399999Y-110724089D02*
X126828570Y-111474089D01*
X126828570Y-111474089D02*
X126828570Y-110724089D01*
X127328570Y-110724089D02*
X127471427Y-110724089D01*
X127471427Y-110724089D02*
X127542856Y-110759803D01*
X127542856Y-110759803D02*
X127614284Y-110831232D01*
X127614284Y-110831232D02*
X127649999Y-110974089D01*
X127649999Y-110974089D02*
X127649999Y-111224089D01*
X127649999Y-111224089D02*
X127614284Y-111366946D01*
X127614284Y-111366946D02*
X127542856Y-111438375D01*
X127542856Y-111438375D02*
X127471427Y-111474089D01*
X127471427Y-111474089D02*
X127328570Y-111474089D01*
X127328570Y-111474089D02*
X127257142Y-111438375D01*
X127257142Y-111438375D02*
X127185713Y-111366946D01*
X127185713Y-111366946D02*
X127149999Y-111224089D01*
X127149999Y-111224089D02*
X127149999Y-110974089D01*
X127149999Y-110974089D02*
X127185713Y-110831232D01*
X127185713Y-110831232D02*
X127257142Y-110759803D01*
X127257142Y-110759803D02*
X127328570Y-110724089D01*
X127864284Y-110724089D02*
X128292856Y-110724089D01*
X128078570Y-111474089D02*
X128078570Y-110724089D01*
X129257142Y-110724089D02*
X129399999Y-110724089D01*
X129399999Y-110724089D02*
X129471428Y-110759803D01*
X129471428Y-110759803D02*
X129542856Y-110831232D01*
X129542856Y-110831232D02*
X129578571Y-110974089D01*
X129578571Y-110974089D02*
X129578571Y-111224089D01*
X129578571Y-111224089D02*
X129542856Y-111366946D01*
X129542856Y-111366946D02*
X129471428Y-111438375D01*
X129471428Y-111438375D02*
X129399999Y-111474089D01*
X129399999Y-111474089D02*
X129257142Y-111474089D01*
X129257142Y-111474089D02*
X129185714Y-111438375D01*
X129185714Y-111438375D02*
X129114285Y-111366946D01*
X129114285Y-111366946D02*
X129078571Y-111224089D01*
X129078571Y-111224089D02*
X129078571Y-110974089D01*
X129078571Y-110974089D02*
X129114285Y-110831232D01*
X129114285Y-110831232D02*
X129185714Y-110759803D01*
X129185714Y-110759803D02*
X129257142Y-110724089D01*
X129899999Y-111474089D02*
X129899999Y-110724089D01*
X129899999Y-110724089D02*
X130328570Y-111474089D01*
X130328570Y-111474089D02*
X130328570Y-110724089D01*
X131149999Y-110724089D02*
X131578571Y-110724089D01*
X131364285Y-111474089D02*
X131364285Y-110724089D01*
X131828571Y-111474089D02*
X131828571Y-110724089D01*
X131828571Y-111081232D02*
X132257142Y-111081232D01*
X132257142Y-111474089D02*
X132257142Y-110724089D01*
X132614285Y-111474089D02*
X132614285Y-110724089D01*
X132935714Y-111438375D02*
X133042857Y-111474089D01*
X133042857Y-111474089D02*
X133221428Y-111474089D01*
X133221428Y-111474089D02*
X133292857Y-111438375D01*
X133292857Y-111438375D02*
X133328571Y-111402660D01*
X133328571Y-111402660D02*
X133364285Y-111331232D01*
X133364285Y-111331232D02*
X133364285Y-111259803D01*
X133364285Y-111259803D02*
X133328571Y-111188375D01*
X133328571Y-111188375D02*
X133292857Y-111152660D01*
X133292857Y-111152660D02*
X133221428Y-111116946D01*
X133221428Y-111116946D02*
X133078571Y-111081232D01*
X133078571Y-111081232D02*
X133007142Y-111045517D01*
X133007142Y-111045517D02*
X132971428Y-111009803D01*
X132971428Y-111009803D02*
X132935714Y-110938375D01*
X132935714Y-110938375D02*
X132935714Y-110866946D01*
X132935714Y-110866946D02*
X132971428Y-110795517D01*
X132971428Y-110795517D02*
X133007142Y-110759803D01*
X133007142Y-110759803D02*
X133078571Y-110724089D01*
X133078571Y-110724089D02*
X133257142Y-110724089D01*
X133257142Y-110724089D02*
X133364285Y-110759803D01*
X134221429Y-111438375D02*
X134328572Y-111474089D01*
X134328572Y-111474089D02*
X134507143Y-111474089D01*
X134507143Y-111474089D02*
X134578572Y-111438375D01*
X134578572Y-111438375D02*
X134614286Y-111402660D01*
X134614286Y-111402660D02*
X134650000Y-111331232D01*
X134650000Y-111331232D02*
X134650000Y-111259803D01*
X134650000Y-111259803D02*
X134614286Y-111188375D01*
X134614286Y-111188375D02*
X134578572Y-111152660D01*
X134578572Y-111152660D02*
X134507143Y-111116946D01*
X134507143Y-111116946D02*
X134364286Y-111081232D01*
X134364286Y-111081232D02*
X134292857Y-111045517D01*
X134292857Y-111045517D02*
X134257143Y-111009803D01*
X134257143Y-111009803D02*
X134221429Y-110938375D01*
X134221429Y-110938375D02*
X134221429Y-110866946D01*
X134221429Y-110866946D02*
X134257143Y-110795517D01*
X134257143Y-110795517D02*
X134292857Y-110759803D01*
X134292857Y-110759803D02*
X134364286Y-110724089D01*
X134364286Y-110724089D02*
X134542857Y-110724089D01*
X134542857Y-110724089D02*
X134650000Y-110759803D01*
X134971429Y-111474089D02*
X134971429Y-110724089D01*
X135328572Y-111474089D02*
X135328572Y-110724089D01*
X135328572Y-110724089D02*
X135507143Y-110724089D01*
X135507143Y-110724089D02*
X135614286Y-110759803D01*
X135614286Y-110759803D02*
X135685715Y-110831232D01*
X135685715Y-110831232D02*
X135721429Y-110902660D01*
X135721429Y-110902660D02*
X135757143Y-111045517D01*
X135757143Y-111045517D02*
X135757143Y-111152660D01*
X135757143Y-111152660D02*
X135721429Y-111295517D01*
X135721429Y-111295517D02*
X135685715Y-111366946D01*
X135685715Y-111366946D02*
X135614286Y-111438375D01*
X135614286Y-111438375D02*
X135507143Y-111474089D01*
X135507143Y-111474089D02*
X135328572Y-111474089D01*
X136078572Y-111081232D02*
X136328572Y-111081232D01*
X136435715Y-111474089D02*
X136078572Y-111474089D01*
X136078572Y-111474089D02*
X136078572Y-110724089D01*
X136078572Y-110724089D02*
X136435715Y-110724089D01*
D12*
X145333810Y-97246204D02*
X145167143Y-97246204D01*
X145167143Y-97508109D02*
X145167143Y-97008109D01*
X145167143Y-97008109D02*
X145405238Y-97008109D01*
X145690952Y-97008109D02*
X145786190Y-97008109D01*
X145786190Y-97008109D02*
X145833809Y-97031919D01*
X145833809Y-97031919D02*
X145881428Y-97079538D01*
X145881428Y-97079538D02*
X145905238Y-97174776D01*
X145905238Y-97174776D02*
X145905238Y-97341442D01*
X145905238Y-97341442D02*
X145881428Y-97436680D01*
X145881428Y-97436680D02*
X145833809Y-97484300D01*
X145833809Y-97484300D02*
X145786190Y-97508109D01*
X145786190Y-97508109D02*
X145690952Y-97508109D01*
X145690952Y-97508109D02*
X145643333Y-97484300D01*
X145643333Y-97484300D02*
X145595714Y-97436680D01*
X145595714Y-97436680D02*
X145571905Y-97341442D01*
X145571905Y-97341442D02*
X145571905Y-97174776D01*
X145571905Y-97174776D02*
X145595714Y-97079538D01*
X145595714Y-97079538D02*
X145643333Y-97031919D01*
X145643333Y-97031919D02*
X145690952Y-97008109D01*
X146405238Y-97508109D02*
X146238572Y-97270014D01*
X146119524Y-97508109D02*
X146119524Y-97008109D01*
X146119524Y-97008109D02*
X146310000Y-97008109D01*
X146310000Y-97008109D02*
X146357619Y-97031919D01*
X146357619Y-97031919D02*
X146381429Y-97055728D01*
X146381429Y-97055728D02*
X146405238Y-97103347D01*
X146405238Y-97103347D02*
X146405238Y-97174776D01*
X146405238Y-97174776D02*
X146381429Y-97222395D01*
X146381429Y-97222395D02*
X146357619Y-97246204D01*
X146357619Y-97246204D02*
X146310000Y-97270014D01*
X146310000Y-97270014D02*
X146119524Y-97270014D01*
X147000476Y-97508109D02*
X147000476Y-97008109D01*
X147000476Y-97008109D02*
X147190952Y-97008109D01*
X147190952Y-97008109D02*
X147238571Y-97031919D01*
X147238571Y-97031919D02*
X147262381Y-97055728D01*
X147262381Y-97055728D02*
X147286190Y-97103347D01*
X147286190Y-97103347D02*
X147286190Y-97174776D01*
X147286190Y-97174776D02*
X147262381Y-97222395D01*
X147262381Y-97222395D02*
X147238571Y-97246204D01*
X147238571Y-97246204D02*
X147190952Y-97270014D01*
X147190952Y-97270014D02*
X147000476Y-97270014D01*
X147476667Y-97365252D02*
X147714762Y-97365252D01*
X147429048Y-97508109D02*
X147595714Y-97008109D01*
X147595714Y-97008109D02*
X147762381Y-97508109D01*
X148167142Y-97508109D02*
X147929047Y-97508109D01*
X147929047Y-97508109D02*
X147929047Y-97008109D01*
X148714761Y-97317633D02*
X149095714Y-97317633D01*
X149667142Y-97008109D02*
X150000475Y-97008109D01*
X150000475Y-97008109D02*
X149786190Y-97508109D01*
X150429046Y-97008109D02*
X150190951Y-97008109D01*
X150190951Y-97008109D02*
X150167142Y-97246204D01*
X150167142Y-97246204D02*
X150190951Y-97222395D01*
X150190951Y-97222395D02*
X150238570Y-97198585D01*
X150238570Y-97198585D02*
X150357618Y-97198585D01*
X150357618Y-97198585D02*
X150405237Y-97222395D01*
X150405237Y-97222395D02*
X150429046Y-97246204D01*
X150429046Y-97246204D02*
X150452856Y-97293823D01*
X150452856Y-97293823D02*
X150452856Y-97412871D01*
X150452856Y-97412871D02*
X150429046Y-97460490D01*
X150429046Y-97460490D02*
X150405237Y-97484300D01*
X150405237Y-97484300D02*
X150357618Y-97508109D01*
X150357618Y-97508109D02*
X150238570Y-97508109D01*
X150238570Y-97508109D02*
X150190951Y-97484300D01*
X150190951Y-97484300D02*
X150167142Y-97460490D01*
X151143331Y-97008109D02*
X151238569Y-97008109D01*
X151238569Y-97008109D02*
X151286188Y-97031919D01*
X151286188Y-97031919D02*
X151333807Y-97079538D01*
X151333807Y-97079538D02*
X151357617Y-97174776D01*
X151357617Y-97174776D02*
X151357617Y-97341442D01*
X151357617Y-97341442D02*
X151333807Y-97436680D01*
X151333807Y-97436680D02*
X151286188Y-97484300D01*
X151286188Y-97484300D02*
X151238569Y-97508109D01*
X151238569Y-97508109D02*
X151143331Y-97508109D01*
X151143331Y-97508109D02*
X151095712Y-97484300D01*
X151095712Y-97484300D02*
X151048093Y-97436680D01*
X151048093Y-97436680D02*
X151024284Y-97341442D01*
X151024284Y-97341442D02*
X151024284Y-97174776D01*
X151024284Y-97174776D02*
X151048093Y-97079538D01*
X151048093Y-97079538D02*
X151095712Y-97031919D01*
X151095712Y-97031919D02*
X151143331Y-97008109D01*
X151571903Y-97508109D02*
X151571903Y-97008109D01*
X151786189Y-97508109D02*
X151786189Y-97246204D01*
X151786189Y-97246204D02*
X151762379Y-97198585D01*
X151762379Y-97198585D02*
X151714760Y-97174776D01*
X151714760Y-97174776D02*
X151643332Y-97174776D01*
X151643332Y-97174776D02*
X151595713Y-97198585D01*
X151595713Y-97198585D02*
X151571903Y-97222395D01*
X152024284Y-97508109D02*
X152024284Y-97174776D01*
X152024284Y-97222395D02*
X152048094Y-97198585D01*
X152048094Y-97198585D02*
X152095713Y-97174776D01*
X152095713Y-97174776D02*
X152167141Y-97174776D01*
X152167141Y-97174776D02*
X152214760Y-97198585D01*
X152214760Y-97198585D02*
X152238570Y-97246204D01*
X152238570Y-97246204D02*
X152238570Y-97508109D01*
X152238570Y-97246204D02*
X152262379Y-97198585D01*
X152262379Y-97198585D02*
X152309998Y-97174776D01*
X152309998Y-97174776D02*
X152381427Y-97174776D01*
X152381427Y-97174776D02*
X152429046Y-97198585D01*
X152429046Y-97198585D02*
X152452856Y-97246204D01*
X152452856Y-97246204D02*
X152452856Y-97508109D01*
D13*
X131359580Y-104216666D02*
X131407200Y-104264285D01*
X131407200Y-104264285D02*
X131454819Y-104407142D01*
X131454819Y-104407142D02*
X131454819Y-104502380D01*
X131454819Y-104502380D02*
X131407200Y-104645237D01*
X131407200Y-104645237D02*
X131311961Y-104740475D01*
X131311961Y-104740475D02*
X131216723Y-104788094D01*
X131216723Y-104788094D02*
X131026247Y-104835713D01*
X131026247Y-104835713D02*
X130883390Y-104835713D01*
X130883390Y-104835713D02*
X130692914Y-104788094D01*
X130692914Y-104788094D02*
X130597676Y-104740475D01*
X130597676Y-104740475D02*
X130502438Y-104645237D01*
X130502438Y-104645237D02*
X130454819Y-104502380D01*
X130454819Y-104502380D02*
X130454819Y-104407142D01*
X130454819Y-104407142D02*
X130502438Y-104264285D01*
X130502438Y-104264285D02*
X130550057Y-104216666D01*
X130788152Y-103359523D02*
X131454819Y-103359523D01*
X130407200Y-103597618D02*
X131121485Y-103835713D01*
X131121485Y-103835713D02*
X131121485Y-103216666D01*
D12*
X149090866Y-101800709D02*
X148924200Y-101562614D01*
X148805152Y-101800709D02*
X148805152Y-101300709D01*
X148805152Y-101300709D02*
X148995628Y-101300709D01*
X148995628Y-101300709D02*
X149043247Y-101324519D01*
X149043247Y-101324519D02*
X149067057Y-101348328D01*
X149067057Y-101348328D02*
X149090866Y-101395947D01*
X149090866Y-101395947D02*
X149090866Y-101467376D01*
X149090866Y-101467376D02*
X149067057Y-101514995D01*
X149067057Y-101514995D02*
X149043247Y-101538804D01*
X149043247Y-101538804D02*
X148995628Y-101562614D01*
X148995628Y-101562614D02*
X148805152Y-101562614D01*
X149567057Y-101800709D02*
X149281343Y-101800709D01*
X149424200Y-101800709D02*
X149424200Y-101300709D01*
X149424200Y-101300709D02*
X149376581Y-101372138D01*
X149376581Y-101372138D02*
X149328962Y-101419757D01*
X149328962Y-101419757D02*
X149281343Y-101443566D01*
X144345709Y-99092533D02*
X144107614Y-99259199D01*
X144345709Y-99378247D02*
X143845709Y-99378247D01*
X143845709Y-99378247D02*
X143845709Y-99187771D01*
X143845709Y-99187771D02*
X143869519Y-99140152D01*
X143869519Y-99140152D02*
X143893328Y-99116342D01*
X143893328Y-99116342D02*
X143940947Y-99092533D01*
X143940947Y-99092533D02*
X144012376Y-99092533D01*
X144012376Y-99092533D02*
X144059995Y-99116342D01*
X144059995Y-99116342D02*
X144083804Y-99140152D01*
X144083804Y-99140152D02*
X144107614Y-99187771D01*
X144107614Y-99187771D02*
X144107614Y-99378247D01*
X143893328Y-98902056D02*
X143869519Y-98878247D01*
X143869519Y-98878247D02*
X143845709Y-98830628D01*
X143845709Y-98830628D02*
X143845709Y-98711580D01*
X143845709Y-98711580D02*
X143869519Y-98663961D01*
X143869519Y-98663961D02*
X143893328Y-98640152D01*
X143893328Y-98640152D02*
X143940947Y-98616342D01*
X143940947Y-98616342D02*
X143988566Y-98616342D01*
X143988566Y-98616342D02*
X144059995Y-98640152D01*
X144059995Y-98640152D02*
X144345709Y-98925866D01*
X144345709Y-98925866D02*
X144345709Y-98616342D01*
X146775709Y-99092533D02*
X146537614Y-99259199D01*
X146775709Y-99378247D02*
X146275709Y-99378247D01*
X146275709Y-99378247D02*
X146275709Y-99187771D01*
X146275709Y-99187771D02*
X146299519Y-99140152D01*
X146299519Y-99140152D02*
X146323328Y-99116342D01*
X146323328Y-99116342D02*
X146370947Y-99092533D01*
X146370947Y-99092533D02*
X146442376Y-99092533D01*
X146442376Y-99092533D02*
X146489995Y-99116342D01*
X146489995Y-99116342D02*
X146513804Y-99140152D01*
X146513804Y-99140152D02*
X146537614Y-99187771D01*
X146537614Y-99187771D02*
X146537614Y-99378247D01*
X146275709Y-98925866D02*
X146275709Y-98616342D01*
X146275709Y-98616342D02*
X146466185Y-98783009D01*
X146466185Y-98783009D02*
X146466185Y-98711580D01*
X146466185Y-98711580D02*
X146489995Y-98663961D01*
X146489995Y-98663961D02*
X146513804Y-98640152D01*
X146513804Y-98640152D02*
X146561423Y-98616342D01*
X146561423Y-98616342D02*
X146680471Y-98616342D01*
X146680471Y-98616342D02*
X146728090Y-98640152D01*
X146728090Y-98640152D02*
X146751900Y-98663961D01*
X146751900Y-98663961D02*
X146775709Y-98711580D01*
X146775709Y-98711580D02*
X146775709Y-98854437D01*
X146775709Y-98854437D02*
X146751900Y-98902056D01*
X146751900Y-98902056D02*
X146728090Y-98925866D01*
X149225709Y-99092533D02*
X148987614Y-99259199D01*
X149225709Y-99378247D02*
X148725709Y-99378247D01*
X148725709Y-99378247D02*
X148725709Y-99187771D01*
X148725709Y-99187771D02*
X148749519Y-99140152D01*
X148749519Y-99140152D02*
X148773328Y-99116342D01*
X148773328Y-99116342D02*
X148820947Y-99092533D01*
X148820947Y-99092533D02*
X148892376Y-99092533D01*
X148892376Y-99092533D02*
X148939995Y-99116342D01*
X148939995Y-99116342D02*
X148963804Y-99140152D01*
X148963804Y-99140152D02*
X148987614Y-99187771D01*
X148987614Y-99187771D02*
X148987614Y-99378247D01*
X148892376Y-98663961D02*
X149225709Y-98663961D01*
X148701900Y-98783009D02*
X149059042Y-98902056D01*
X149059042Y-98902056D02*
X149059042Y-98592533D01*
X151485709Y-99092533D02*
X151247614Y-99259199D01*
X151485709Y-99378247D02*
X150985709Y-99378247D01*
X150985709Y-99378247D02*
X150985709Y-99187771D01*
X150985709Y-99187771D02*
X151009519Y-99140152D01*
X151009519Y-99140152D02*
X151033328Y-99116342D01*
X151033328Y-99116342D02*
X151080947Y-99092533D01*
X151080947Y-99092533D02*
X151152376Y-99092533D01*
X151152376Y-99092533D02*
X151199995Y-99116342D01*
X151199995Y-99116342D02*
X151223804Y-99140152D01*
X151223804Y-99140152D02*
X151247614Y-99187771D01*
X151247614Y-99187771D02*
X151247614Y-99378247D01*
X150985709Y-98640152D02*
X150985709Y-98878247D01*
X150985709Y-98878247D02*
X151223804Y-98902056D01*
X151223804Y-98902056D02*
X151199995Y-98878247D01*
X151199995Y-98878247D02*
X151176185Y-98830628D01*
X151176185Y-98830628D02*
X151176185Y-98711580D01*
X151176185Y-98711580D02*
X151199995Y-98663961D01*
X151199995Y-98663961D02*
X151223804Y-98640152D01*
X151223804Y-98640152D02*
X151271423Y-98616342D01*
X151271423Y-98616342D02*
X151390471Y-98616342D01*
X151390471Y-98616342D02*
X151438090Y-98640152D01*
X151438090Y-98640152D02*
X151461900Y-98663961D01*
X151461900Y-98663961D02*
X151485709Y-98711580D01*
X151485709Y-98711580D02*
X151485709Y-98830628D01*
X151485709Y-98830628D02*
X151461900Y-98878247D01*
X151461900Y-98878247D02*
X151438090Y-98902056D01*
X149352690Y-107144333D02*
X149376500Y-107168142D01*
X149376500Y-107168142D02*
X149400309Y-107239571D01*
X149400309Y-107239571D02*
X149400309Y-107287190D01*
X149400309Y-107287190D02*
X149376500Y-107358618D01*
X149376500Y-107358618D02*
X149328880Y-107406237D01*
X149328880Y-107406237D02*
X149281261Y-107430047D01*
X149281261Y-107430047D02*
X149186023Y-107453856D01*
X149186023Y-107453856D02*
X149114595Y-107453856D01*
X149114595Y-107453856D02*
X149019357Y-107430047D01*
X149019357Y-107430047D02*
X148971738Y-107406237D01*
X148971738Y-107406237D02*
X148924119Y-107358618D01*
X148924119Y-107358618D02*
X148900309Y-107287190D01*
X148900309Y-107287190D02*
X148900309Y-107239571D01*
X148900309Y-107239571D02*
X148924119Y-107168142D01*
X148924119Y-107168142D02*
X148947928Y-107144333D01*
X148900309Y-106691952D02*
X148900309Y-106930047D01*
X148900309Y-106930047D02*
X149138404Y-106953856D01*
X149138404Y-106953856D02*
X149114595Y-106930047D01*
X149114595Y-106930047D02*
X149090785Y-106882428D01*
X149090785Y-106882428D02*
X149090785Y-106763380D01*
X149090785Y-106763380D02*
X149114595Y-106715761D01*
X149114595Y-106715761D02*
X149138404Y-106691952D01*
X149138404Y-106691952D02*
X149186023Y-106668142D01*
X149186023Y-106668142D02*
X149305071Y-106668142D01*
X149305071Y-106668142D02*
X149352690Y-106691952D01*
X149352690Y-106691952D02*
X149376500Y-106715761D01*
X149376500Y-106715761D02*
X149400309Y-106763380D01*
X149400309Y-106763380D02*
X149400309Y-106882428D01*
X149400309Y-106882428D02*
X149376500Y-106930047D01*
X149376500Y-106930047D02*
X149352690Y-106953856D01*
X148998933Y-102361409D02*
X148998933Y-102718552D01*
X148998933Y-102718552D02*
X148975124Y-102789980D01*
X148975124Y-102789980D02*
X148927505Y-102837600D01*
X148927505Y-102837600D02*
X148856076Y-102861409D01*
X148856076Y-102861409D02*
X148808457Y-102861409D01*
X149237028Y-102861409D02*
X149237028Y-102361409D01*
X149237028Y-102361409D02*
X149427504Y-102361409D01*
X149427504Y-102361409D02*
X149475123Y-102385219D01*
X149475123Y-102385219D02*
X149498933Y-102409028D01*
X149498933Y-102409028D02*
X149522742Y-102456647D01*
X149522742Y-102456647D02*
X149522742Y-102528076D01*
X149522742Y-102528076D02*
X149498933Y-102575695D01*
X149498933Y-102575695D02*
X149475123Y-102599504D01*
X149475123Y-102599504D02*
X149427504Y-102623314D01*
X149427504Y-102623314D02*
X149237028Y-102623314D01*
X149998933Y-102861409D02*
X149713219Y-102861409D01*
X149856076Y-102861409D02*
X149856076Y-102361409D01*
X149856076Y-102361409D02*
X149808457Y-102432838D01*
X149808457Y-102432838D02*
X149760838Y-102480457D01*
X149760838Y-102480457D02*
X149713219Y-102504266D01*
X152633333Y-103231109D02*
X152633333Y-103588252D01*
X152633333Y-103588252D02*
X152609524Y-103659680D01*
X152609524Y-103659680D02*
X152561905Y-103707300D01*
X152561905Y-103707300D02*
X152490476Y-103731109D01*
X152490476Y-103731109D02*
X152442857Y-103731109D01*
X152871428Y-103731109D02*
X152871428Y-103231109D01*
X152871428Y-103231109D02*
X153061904Y-103231109D01*
X153061904Y-103231109D02*
X153109523Y-103254919D01*
X153109523Y-103254919D02*
X153133333Y-103278728D01*
X153133333Y-103278728D02*
X153157142Y-103326347D01*
X153157142Y-103326347D02*
X153157142Y-103397776D01*
X153157142Y-103397776D02*
X153133333Y-103445395D01*
X153133333Y-103445395D02*
X153109523Y-103469204D01*
X153109523Y-103469204D02*
X153061904Y-103493014D01*
X153061904Y-103493014D02*
X152871428Y-103493014D01*
X153347619Y-103278728D02*
X153371428Y-103254919D01*
X153371428Y-103254919D02*
X153419047Y-103231109D01*
X153419047Y-103231109D02*
X153538095Y-103231109D01*
X153538095Y-103231109D02*
X153585714Y-103254919D01*
X153585714Y-103254919D02*
X153609523Y-103278728D01*
X153609523Y-103278728D02*
X153633333Y-103326347D01*
X153633333Y-103326347D02*
X153633333Y-103373966D01*
X153633333Y-103373966D02*
X153609523Y-103445395D01*
X153609523Y-103445395D02*
X153323809Y-103731109D01*
X153323809Y-103731109D02*
X153633333Y-103731109D01*
D14*
X131920000Y-104190580D02*
X131920000Y-103909420D01*
X132940000Y-104190580D02*
X132940000Y-103909420D01*
X146942742Y-101207500D02*
X147417258Y-101207500D01*
X146942742Y-102252500D02*
X147417258Y-102252500D01*
X144607500Y-99257258D02*
X144607500Y-98782742D01*
X145652500Y-99257258D02*
X145652500Y-98782742D01*
X147037500Y-99257258D02*
X147037500Y-98782742D01*
X148082500Y-99257258D02*
X148082500Y-98782742D01*
X149487500Y-99257258D02*
X149487500Y-98782742D01*
X150532500Y-99257258D02*
X150532500Y-98782742D01*
X151747500Y-99257258D02*
X151747500Y-98782742D01*
X152792500Y-99257258D02*
X152792500Y-98782742D01*
X147550000Y-107225580D02*
X147550000Y-106944420D01*
X148570000Y-107225580D02*
X148570000Y-106944420D01*
X147352800Y-104389200D02*
X147352800Y-103789200D01*
X147902800Y-105589200D02*
X148502800Y-105589200D01*
X148002800Y-103089200D02*
X150802800Y-103089200D01*
X148202800Y-105289200D02*
X147902800Y-105589200D01*
X148202800Y-105289200D02*
X148502800Y-105589200D01*
X150802800Y-105089200D02*
X148002800Y-105089200D01*
X151452800Y-103789200D02*
X151452800Y-104389200D01*
X147352800Y-103789200D02*
G75*
G02*
X148052800Y-103089200I699999J1D01*
G01*
X148052800Y-105089200D02*
G75*
G02*
X147352800Y-104389200I-1J699999D01*
G01*
X150752800Y-103089200D02*
G75*
G02*
X151452800Y-103789200I0J-700000D01*
G01*
X151452800Y-104389200D02*
G75*
G02*
X150752800Y-105089200I-700000J0D01*
G01*
X151650000Y-102370000D02*
X151650000Y-101770000D01*
X152350000Y-101070000D02*
X153750000Y-101070000D01*
X153750000Y-103070000D02*
X152350000Y-103070000D01*
X154450000Y-101770000D02*
X154450000Y-102370000D01*
X151650000Y-101770000D02*
G75*
G02*
X152350000Y-101070000I700000J0D01*
G01*
X152350000Y-103070000D02*
G75*
G02*
X151650000Y-102370000I0J700000D01*
G01*
X153750000Y-101070000D02*
G75*
G02*
X154450000Y-101770000I1J-699999D01*
G01*
X154450000Y-102370000D02*
G75*
G02*
X153750000Y-103070000I-699999J-1D01*
G01*
%LPC*%
G36*
X148652800Y-103339200D02*
G01*
X150152800Y-103339200D01*
X150152800Y-104839200D01*
X148652800Y-104839200D01*
X148652800Y-103339200D01*
G37*
G36*
X153200000Y-102820000D02*
G01*
X152900000Y-102820000D01*
X152900000Y-101320000D01*
X153200000Y-101320000D01*
X153200000Y-102820000D01*
G37*
D15*
X132430000Y-104825000D03*
X132430000Y-103275000D03*
D16*
X146980000Y-95540000D03*
X144560000Y-95540000D03*
X142140000Y-95540000D03*
X139720000Y-95540000D03*
X137300000Y-95540000D03*
X134880000Y-95540000D03*
D17*
X146355000Y-101730000D03*
X148005000Y-101730000D03*
D18*
X145130000Y-99845000D03*
X145130000Y-98195000D03*
X147560000Y-99845000D03*
X147560000Y-98195000D03*
X150010000Y-99845000D03*
X150010000Y-98195000D03*
X152270000Y-99845000D03*
X152270000Y-98195000D03*
D15*
X148060000Y-107860000D03*
X148060000Y-106310000D03*
D19*
X148102800Y-104089200D03*
D20*
X149402800Y-104089200D03*
D21*
X150702800Y-104089200D03*
D22*
X153700000Y-102070000D03*
D23*
X152400000Y-102070000D03*
D24*
X136345000Y-105020000D03*
D25*
X138635000Y-105020000D03*
X140925000Y-105020000D03*
X143215000Y-105020000D03*
X145505000Y-105020000D03*
X135200000Y-107000000D03*
X137490000Y-107000000D03*
X139780000Y-107000000D03*
X142070000Y-107000000D03*
X144360000Y-107000000D03*
X136345000Y-108980000D03*
X138635000Y-108980000D03*
X140925000Y-108980000D03*
X143215000Y-108980000D03*
X145505000Y-108980000D03*
D26*
X153420000Y-107000000D03*
X128430000Y-107000000D03*
D27*
X134450000Y-100550000D03*
X132650000Y-98550000D03*
X126550000Y-98550000D03*
X128950000Y-100550000D03*
X138150000Y-98550000D03*
%LPD*%
M02*
